<svg width="298" height="34" viewBox="0 0 298 34" fill="none" xmlns="http://www.w3.org/2000/svg">
<path d="M206.144 28.0262L205.634 25.7379H200.739L199.522 28.0262H196.268L203.059 15.6406H206.795L209.794 28.0262H206.144ZM204.587 20.9896C204.417 20.3031 204.304 19.6738 204.248 18.9301H204.219C203.965 19.6166 203.597 20.3889 203.201 21.1326L201.899 23.4495H205.182L204.587 20.9896Z" fill="#969696"/>
<path d="M219.388 27.9979L216.898 22.6775C216.474 21.7336 216.106 20.761 215.851 19.9601C215.766 20.8755 215.596 22.134 215.427 23.3068L214.691 27.9979H211.521L213.502 15.6123H217.719L220.039 20.5036C220.52 21.5048 220.916 22.5917 221.284 23.5356C221.341 22.4773 221.567 20.8469 221.765 19.6741L222.416 15.6123H225.586L223.605 27.9979" fill="#969696"/>
<path d="M247.121 28.0261L244.517 23.192H244.404L243.64 28.0261H240.357L242.338 15.6405C243.555 15.5547 245.083 15.5547 246.809 15.5547C250.149 15.5547 252.016 16.613 251.592 19.216C251.337 20.8751 249.866 22.2481 247.913 22.6485C248.224 23.1348 248.507 23.5924 248.79 24.0501L251.167 28.0261H247.121ZM246.13 17.9002C245.791 17.9002 245.423 17.9288 245.225 17.9288L244.715 21.1039C244.885 21.1325 245.225 21.1325 245.536 21.1325C246.923 21.1325 247.913 20.5032 248.083 19.4448C248.253 18.4723 247.687 17.9002 246.13 17.9002Z" fill="#969696"/>
<path d="M252.809 27.9976L254.789 15.6406H262.798L262.402 18.0434H257.704L257.308 20.5033H261.779L261.383 22.8203H256.94L256.487 25.5663H261.213L260.817 27.9976" fill="#969696"/>
<path d="M272.446 28.0262L271.937 25.7379H267.041L265.796 28.0262H262.514L269.305 15.6406H273.041L276.04 28.0262H272.446ZM270.862 20.9896C270.692 20.3031 270.579 19.6738 270.55 18.9301H270.522C270.267 19.6166 269.9 20.3889 269.503 21.1326L268.202 23.4495H271.484L270.862 20.9896Z" fill="#969696"/>
<path d="M285.266 27.9976L282.776 22.6772C282.352 21.7333 281.984 20.7608 281.729 19.9598C281.644 20.8752 281.474 22.1338 281.305 23.3065L280.54 28.0262H277.371L279.352 15.6406H283.568L285.889 20.5319C286.37 21.5331 286.766 22.62 287.134 23.564C287.191 22.5056 287.417 20.8752 287.615 19.7024L288.266 15.6406H291.435L289.454 28.0262" fill="#969696"/>
<path d="M292.736 27.9976L294.717 15.6406H298L296.019 27.9976" fill="#969696"/>
<path d="M233.14 15.6406C231.641 15.6406 230.056 15.6692 229.179 15.6978H228.754L226.717 28.0834L227.99 28.1406C228.867 28.1692 229.801 28.2264 230.99 28.2264C233.678 28.255 235.857 27.3969 237.329 25.7951C238.63 24.3649 239.31 22.4198 239.196 20.2745C239.055 17.3283 236.904 15.6692 233.14 15.6406ZM231.245 25.5949L230.537 25.5663C230.65 24.9084 231.612 18.7585 231.697 18.3008C232.037 18.2722 232.461 18.2722 232.971 18.2722C235.433 18.3008 235.801 19.4164 235.857 20.5033C235.914 22.2768 235.065 25.6235 231.245 25.5949Z" fill="#969696"/>
<path d="M188.546 10.807C186.367 4.97172 176.745 3.25547 167.039 6.9454C157.361 10.6353 151.277 18.3584 153.456 24.1937C155.635 30.0289 165.256 31.7452 174.934 28.0266C184.612 24.3367 190.725 16.6136 188.546 10.807ZM166.162 27.7692C165.568 27.569 165.426 27.1399 165.964 26.2818L168.596 21.7623H175.868L176.491 24.6227C176.576 25.3092 176.293 25.7097 176.01 25.9671L175.5 26.1674C172.246 27.3687 169.02 27.8836 166.162 27.7692ZM169.643 20.0747L173.802 13.1239L175.444 20.0461L169.643 20.0747ZM181.754 22.6777C180.99 23.0209 180.792 22.3058 180.792 22.3058L177.679 10.2349C177.679 10.2349 177.255 8.11817 175.415 8.11817H174.906L172.303 12.5804L163.955 26.0243C163.417 26.9111 162.823 27.1685 162.228 27.1113C159.682 26.3104 157.757 24.7944 156.965 22.6777C155.097 17.5861 160.304 10.8928 168.596 7.71772C176.915 4.54266 185.178 6.08728 187.074 11.1788C188.461 14.8115 186.197 19.2738 181.754 22.6777Z" fill="#969696"/>
<g clip-path="url(#clip0)">
<path d="M23.2546 0C10.4205 0 0 7.00463 0 15.6227C0 15.8588 0 16.4491 0 16.5278C0 25.6574 9.11795 33.0556 23.2546 33.0556C37.5062 33.0556 46.5092 25.6574 46.5092 16.5278C46.5092 16.213 46.5092 16.0162 46.5092 15.6227C46.5092 7.00463 36.0887 0 23.2546 0ZM23.2546 30.3009C10.9186 30.3009 0.919457 23.7292 0.919457 15.6227C0.919457 7.5162 10.9186 0.944444 23.2929 0.944444C35.629 0.944444 45.6664 7.5162 45.6664 15.6227C45.6281 23.7292 35.629 30.3009 23.2546 30.3009Z" fill="#969696"/>
<path d="M35.7048 17.1574C33.4828 15.1898 28.3875 10.625 27.0083 9.56246C26.2038 8.97219 25.6674 8.61802 25.2077 8.49996C24.9778 8.42126 24.7097 8.34256 24.3266 8.34256C23.9818 8.34256 23.5987 8.42126 23.2155 8.53932C22.3344 8.81478 21.4533 9.56246 20.5721 10.2708L20.5338 10.3102C19.7293 10.9791 18.8864 11.6481 18.2735 11.7662C18.0053 11.8449 17.7371 11.8449 17.4306 11.8449C16.741 11.8449 16.0898 11.6481 15.8599 11.3333C15.8216 11.2939 15.8599 11.2152 15.9365 11.0972L17.8904 8.93284C19.4228 7.35876 20.8403 5.90274 24.135 5.82404C24.1733 5.82404 24.2499 5.82404 24.2882 5.82404C26.357 5.82404 28.3875 6.76848 28.6174 6.88654C30.5329 7.87033 32.525 8.34256 34.5555 8.34256C36.6243 8.34256 38.808 7.83098 41.0683 6.72913C40.8002 6.49302 40.5703 6.29626 40.2638 6.0995C38.2717 6.96524 36.3944 7.43746 34.5555 7.43746C32.6783 7.43746 30.8394 6.96524 29.0005 6.06015C28.9238 6.0208 26.6252 4.91895 24.2882 4.91895C24.2116 4.91895 24.1733 4.91895 24.0967 4.91895C21.3383 4.99765 19.7676 5.98145 18.6949 6.88654C17.6605 6.92589 16.7794 7.162 16.0131 7.39811C15.3235 7.59487 14.7106 7.75228 14.1359 7.75228C13.906 7.75228 13.4463 7.71293 13.408 7.71293C12.7184 7.67358 9.30876 6.84719 6.58871 5.78469C6.32053 5.98145 6.05235 6.1782 5.78418 6.41432C8.61917 7.59487 12.0671 8.53932 13.1781 8.61802C13.4846 8.65737 13.7911 8.65737 14.1359 8.65737C14.8638 8.65737 15.5917 8.46061 16.2813 8.26385C16.7027 8.1458 17.1625 8.02774 17.6222 7.90969C17.5073 8.02774 17.354 8.18515 17.2391 8.30321L15.2852 10.5069C15.132 10.6643 14.7872 11.0972 15.0171 11.6088C15.0937 11.8055 15.2852 12.0416 15.5534 12.199C16.0131 12.5139 16.856 12.75 17.6605 12.75C17.967 12.75 18.2352 12.7106 18.5033 12.6713C19.3462 12.4745 20.189 11.7662 21.1085 11.0185C21.8364 10.4282 22.8708 9.68052 23.6753 9.44441C23.9051 9.36571 24.1733 9.32635 24.4032 9.32635C24.4798 9.32635 24.5181 9.32635 24.5947 9.32635C25.1311 9.40506 25.6291 9.56246 26.5486 10.2708C28.1576 11.5301 35.3217 17.9444 35.3984 18.0231C35.3984 18.0231 35.8581 18.4166 35.8198 19.0856C35.8198 19.4791 35.5899 19.7939 35.2451 20.0301C34.9386 20.2268 34.6321 20.3449 34.2873 20.3449C33.8276 20.3449 33.4828 20.1088 33.4445 20.1088C33.4062 20.0694 30.9543 17.787 30.0732 17C29.9199 16.8819 29.805 16.7639 29.6517 16.7639C29.5751 16.7639 29.4985 16.8032 29.4602 16.8426C29.307 17.0393 29.4602 17.2754 29.6517 17.4328L32.5251 20.3842C32.5251 20.3842 32.8698 20.7384 32.9082 21.1713C32.9465 21.6435 32.7166 22.0764 32.2186 22.3912C31.8738 22.6273 31.529 22.7453 31.1842 22.7453C30.7628 22.7453 30.418 22.5486 30.3797 22.5092L29.9582 22.0764C29.192 21.3287 28.4258 20.5416 27.8511 20.0301C27.6979 19.912 27.583 19.7939 27.4297 19.7939C27.3531 19.7939 27.3148 19.8333 27.2382 19.8727C27.1616 19.9514 27.1232 20.0694 27.2765 20.3055C27.3531 20.3842 27.4297 20.4629 27.4297 20.4629L29.5368 22.8634C29.5368 22.9027 29.9582 23.375 29.5751 23.8865L29.4985 23.9652C29.4219 24.0439 29.3836 24.0833 29.307 24.162C28.9622 24.4768 28.4641 24.4768 28.2726 24.4768C28.1576 24.4768 28.081 24.4768 28.0044 24.4375C27.8128 24.3981 27.6596 24.3588 27.583 24.2407V24.3588C27.468 24.2407 26.3953 23.1389 25.5525 22.3912C25.4376 22.2731 25.2843 22.1551 25.1311 22.1551C25.0545 22.1551 24.9778 22.1944 24.9395 22.2338C24.748 22.4305 25.0162 22.706 25.1311 22.824L26.9317 24.831C26.9317 24.831 26.8934 24.9097 26.8551 24.949C26.7784 25.0277 26.5869 25.2639 25.9356 25.3426C25.859 25.3426 25.7824 25.3426 25.7057 25.3426C25.0545 25.3426 24.3266 25.0277 23.9435 24.7916C24.0967 24.4375 24.2116 24.0439 24.2116 23.6111C24.2116 22.1157 23.024 20.8564 21.5682 20.8564C21.5299 20.8564 21.4916 20.8564 21.4533 20.8564C21.4916 20.1481 21.4149 18.8495 20.1124 18.2986C19.7293 18.1412 19.3462 18.0625 19.0014 18.0625C18.7332 18.0625 18.4267 18.1018 18.1968 18.2199C17.9287 17.6689 17.4689 17.2754 16.8943 17.0787C16.5878 16.9606 16.243 16.9213 15.9365 16.9213C15.4002 16.9213 14.9021 17.0787 14.4424 17.3935C14.021 16.8426 13.3697 16.5277 12.6801 16.5277C12.0671 16.5277 11.5308 16.7639 11.1094 17.1967C10.573 16.7639 8.351 15.3078 2.45115 13.9305C2.18297 13.8518 1.49338 13.6551 1.11027 13.537C1.03365 13.8518 0.995342 14.206 0.957031 14.5208C0.957031 14.5208 2.02973 14.7963 2.2596 14.8356C8.27438 16.2129 10.2665 17.6296 10.6113 17.9051C10.4964 18.1805 10.4198 18.4953 10.4198 18.8102C10.4198 20.0694 11.4159 21.1319 12.6801 21.1319C12.8333 21.1319 12.9483 21.1319 13.1015 21.0926C13.2931 22.037 13.906 22.7453 14.7872 23.0995C15.0554 23.2176 15.3235 23.2569 15.5917 23.2569C15.745 23.2569 15.9365 23.2176 16.0898 23.1782C16.243 23.6111 16.6261 24.162 17.5073 24.5162C17.8137 24.6342 18.1202 24.7129 18.3884 24.7129C18.6183 24.7129 18.8481 24.6736 19.078 24.5949C19.4994 25.618 20.4572 26.287 21.5299 26.287C22.2578 26.287 22.9474 25.9722 23.4454 25.4606C23.8668 25.6967 24.7863 26.1689 25.7057 26.1689C25.8207 26.1689 25.9356 26.1689 26.0505 26.1296C26.97 26.0115 27.3914 25.6574 27.583 25.3426C27.6213 25.3032 27.6596 25.2245 27.6596 25.1852C27.8895 25.2639 28.1193 25.3032 28.3875 25.3032C28.8855 25.3032 29.3453 25.1458 29.8433 24.7523C30.303 24.3981 30.6478 23.8865 30.6861 23.4537C30.8394 23.493 30.9926 23.493 31.1842 23.493C31.6822 23.493 32.1803 23.3356 32.6783 23.0208C33.5978 22.3912 33.751 21.5648 33.751 21.0532C33.9042 21.25 34.0958 21.25 34.249 21.25C34.7471 21.25 35.2068 21.0926 35.6665 20.8171C36.2412 20.4236 36.586 19.8727 36.6243 19.2037C36.6626 18.7314 36.5477 18.2986 36.3178 17.9051C37.8885 17.2361 41.4131 15.8981 45.6273 14.9143C45.589 14.5995 45.5507 14.2453 45.5124 13.9305C40.4171 15.0324 36.6243 16.7245 35.7048 17.1574ZM21.5299 25.5393C20.5338 25.5393 19.7293 24.7523 19.7293 23.7685C19.7293 23.6898 19.7293 23.4537 19.5377 23.4537C19.4611 23.4537 19.3845 23.493 19.3079 23.5717C19.078 23.7685 18.8098 24.0046 18.4267 24.0046C18.2352 24.0046 18.0436 23.9652 17.8521 23.8865C16.8177 23.4537 16.8177 22.706 16.856 22.4305C16.856 22.3518 16.856 22.2731 16.8177 22.1944L16.741 22.1157H16.6644C16.6261 22.1157 16.5495 22.1551 16.4729 22.1944C16.1664 22.4305 15.8982 22.5092 15.5917 22.5092C15.4385 22.5092 15.2469 22.4699 15.0937 22.4305C13.7145 21.8796 13.8294 20.5416 13.906 20.1481C13.906 20.0694 13.906 19.9907 13.8294 19.9514L13.7145 19.8727L13.6379 19.9514C13.3697 20.2268 13.0249 20.3449 12.6418 20.3449C11.8756 20.3449 11.2243 19.6759 11.2243 18.8889C11.2243 18.1018 11.8756 17.4328 12.6418 17.4328C13.3314 17.4328 13.9444 17.9838 14.0593 18.6921L14.0976 19.0856L14.2892 18.7708C14.3275 18.7314 14.9021 17.8264 15.9365 17.8264C16.1281 17.8264 16.3579 17.8657 16.5495 17.9444C17.3923 18.2199 17.5456 19.0069 17.5456 19.3217C17.5456 19.5185 17.6988 19.5185 17.6988 19.5185C17.7754 19.5185 17.8137 19.4791 17.8521 19.4398C18.0053 19.2824 18.3501 18.9676 18.8864 18.9676C19.1163 18.9676 19.3845 19.0463 19.6527 19.1643C20.9935 19.7546 20.3806 21.4861 20.3806 21.5254C20.2656 21.8009 20.2656 21.9583 20.3806 21.9977L20.4189 22.037H20.4572C20.5338 22.037 20.6104 21.9977 20.7254 21.9583C20.9169 21.8796 21.1851 21.8009 21.4533 21.8009C22.4493 21.8009 23.2922 22.6666 23.2922 23.6898C23.3688 24.7129 22.5643 25.5393 21.5299 25.5393Z" fill="#969696"/>
<path d="M125.774 5.66665C124.931 4.60415 123.667 4.05322 121.943 4.05322C120.219 4.05322 118.955 4.60415 118.112 5.66665C117.269 6.72915 116.848 8.02776 116.848 9.48378C116.848 10.9791 117.269 12.2778 118.112 13.3403C118.955 14.4028 120.219 14.9537 121.943 14.9537C123.667 14.9537 124.931 14.4028 125.774 13.3403C126.617 12.2778 127.038 10.9791 127.038 9.48378C127 8.02776 126.617 6.7685 125.774 5.66665ZM123.667 11.8842C123.246 12.4352 122.671 12.7106 121.905 12.7106C121.138 12.7106 120.564 12.4352 120.142 11.8842C119.721 11.3333 119.529 10.5463 119.529 9.52313C119.529 8.49998 119.721 7.71294 120.142 7.16202C120.564 6.61109 121.138 6.33563 121.905 6.33563C122.671 6.33563 123.246 6.61109 123.667 7.16202C124.088 7.71294 124.28 8.49998 124.28 9.52313C124.28 10.5069 124.088 11.294 123.667 11.8842Z" fill="#969696"/>
<path d="M104.32 4.76176C103.477 4.32888 102.481 4.09277 101.409 4.09277C99.7229 4.09277 98.5353 4.52564 97.8457 5.43074C97.4243 6.02101 97.1561 6.72935 97.1178 7.63444H99.6463C99.7229 7.24092 99.8378 6.92611 100.029 6.69C100.298 6.37518 100.719 6.21777 101.37 6.21777C101.945 6.21777 102.366 6.29648 102.635 6.45388C102.903 6.61129 103.056 6.88675 103.056 7.31962C103.056 7.67379 102.864 7.9099 102.481 8.06731C102.29 8.14601 101.907 8.22472 101.447 8.30342L100.566 8.42148C99.5697 8.53953 98.7651 8.77564 98.2671 9.09046C97.3093 9.64138 96.8496 10.5465 96.8496 11.8451C96.8496 12.8289 97.1561 13.5766 97.7308 14.0881C98.3054 14.5997 99.0716 14.8358 99.9911 14.8752C105.699 15.1506 105.623 11.8057 105.661 11.0974V7.24092C105.584 6.06037 105.163 5.19463 104.32 4.76176ZM102.979 10.5858C102.979 11.4909 102.711 12.0812 102.213 12.4354C101.715 12.7895 101.217 12.9469 100.642 12.9469C100.298 12.9469 99.9911 12.8289 99.7229 12.6321C99.4547 12.4354 99.3398 12.0812 99.3398 11.6483C99.3398 11.1368 99.5314 10.7432 99.9528 10.5071C100.183 10.3497 100.604 10.2317 101.14 10.153L101.753 10.0349C102.06 9.99555 102.29 9.91685 102.443 9.83814C102.596 9.75944 102.788 9.68073 102.941 9.56268V10.5858H102.979Z" fill="#969696"/>
<path d="M91.3332 6.37489C91.9844 6.37489 92.4442 6.57165 92.789 7.00452C93.0188 7.31934 93.1338 7.6735 93.1721 8.02767H95.9688C95.8155 6.57165 95.3175 5.5485 94.4746 4.99758C93.6318 4.4073 92.5591 4.13184 91.2565 4.13184C89.7241 4.13184 88.4982 4.60406 87.617 5.58785C86.7359 6.57165 86.3145 7.90961 86.3145 9.68045C86.3145 11.2152 86.6976 12.5138 87.5021 13.4582C88.3066 14.442 89.5326 14.9142 91.2182 14.9142C92.9039 14.9142 94.1682 14.324 95.0493 13.1434C95.5857 12.4351 95.8921 11.648 95.9688 10.8217H93.1721C93.1338 11.3726 92.9422 11.8054 92.674 12.1203C92.4059 12.4744 91.9461 12.6318 91.2949 12.6318C90.3754 12.6318 89.7624 12.199 89.4559 11.3726C89.2644 10.9004 89.1878 10.3101 89.1878 9.56239C89.1878 8.77535 89.2644 8.14573 89.4559 7.6735C89.7624 6.84711 90.4137 6.37489 91.3332 6.37489Z" fill="#969696"/>
<path d="M85.5475 4.13184C79.7626 4.13184 80.1074 9.36563 80.1074 9.36563V14.6781H82.7125V9.7198C82.7125 8.89341 82.8275 8.30313 83.019 7.90961C83.3638 7.20128 84.0917 6.84711 85.1261 6.84711C85.2027 6.84711 85.3177 6.84711 85.4326 6.84711C85.5475 6.84711 85.7008 6.84711 85.854 6.88647V4.13184C85.7391 4.13184 85.6625 4.13184 85.6242 4.13184C85.6242 4.13184 85.5858 4.13184 85.5475 4.13184Z" fill="#969696"/>
<path d="M75.9311 11.9238C75.8162 12.0812 75.7012 12.2386 75.5863 12.3173C75.2032 12.6321 74.7051 12.7108 74.1305 12.7108C73.5558 12.7108 73.1344 12.6321 72.7513 12.3567C72.1 11.9631 71.7169 11.2548 71.6786 10.2317H78.9193C78.9193 9.36592 78.9193 8.65759 78.8427 8.18536C78.7278 7.39833 78.4596 6.69 78.0382 6.06037C77.5784 5.35203 77.0038 4.87981 76.3142 4.565C75.6246 4.25018 74.8584 4.09277 73.9772 4.09277C72.5214 4.09277 71.3338 4.565 70.4143 5.50944C69.4949 6.45388 69.0352 7.79185 69.0352 9.56268C69.0352 11.4516 69.5332 12.8289 70.5676 13.6553C71.5637 14.4817 72.7513 14.9145 74.0539 14.9145C75.6629 14.9145 76.8889 14.403 77.8083 13.4192C78.3063 12.9076 78.5745 12.396 78.7278 11.8844H75.9311V11.9238ZM72.4065 6.92611C72.7896 6.53259 73.2876 6.33583 73.9772 6.33583C74.5902 6.33583 75.0883 6.53259 75.5097 6.88675C75.9311 7.24092 76.1609 7.79185 76.1993 8.50018H71.7169C71.7935 7.8312 72.0234 7.31962 72.4065 6.92611Z" fill="#969696"/>
<path d="M67.9633 14.7178H65.588V8.53953C65.588 7.98861 65.3965 6.61129 63.8257 6.61129C62.7913 6.61129 62.0251 7.39833 62.0251 8.53953V14.7178H59.6498V8.53953C59.6498 7.98861 59.4966 6.61129 57.9259 6.61129C56.8532 6.61129 56.1253 7.39833 56.1253 8.53953V14.7178H53.75V8.57888C53.75 6.02101 55.3974 4.09277 57.9642 4.09277C59.2284 4.09277 60.2628 4.6437 60.9524 5.50944C61.642 4.6437 62.7147 4.09277 63.9406 4.09277C66.5458 4.09277 68.0782 5.94231 68.0782 8.57888V14.7178H67.9633Z" fill="#969696"/>
<path d="M116.082 0.904895C116.082 0.904895 113.439 0.629432 113.439 2.79378V5.66647C113.133 5.19425 112.749 4.80073 112.29 4.52527C111.83 4.2498 111.294 4.13175 110.681 4.13175C109.378 4.13175 108.344 4.64332 107.539 5.62712C106.773 6.61091 106.352 8.06693 106.352 9.79841C106.352 11.2938 106.735 12.553 107.539 13.4975C108.344 14.4813 109.876 14.8748 111.255 14.8748C116.082 14.8748 116.006 10.6248 116.006 10.6248L116.082 0.904895ZM112.941 11.8841C112.558 12.435 111.983 12.7105 111.255 12.7105C110.527 12.7105 109.953 12.435 109.608 11.8447C109.263 11.2938 109.072 10.4674 109.072 9.52295C109.072 8.65721 109.263 7.90953 109.608 7.31925C109.953 6.72897 110.527 6.41415 111.294 6.41415C111.792 6.41415 112.213 6.57156 112.596 6.88638C113.209 7.4373 113.516 8.38175 113.516 9.64101C113.516 10.5855 113.324 11.3331 112.941 11.8841Z" fill="#969696"/>
<path d="M72.7907 31.7964C72.7907 32.1506 72.6757 32.4654 72.4076 32.7408C72.1394 33.0163 71.8329 33.1343 71.4881 33.1343H70.1855V23.7686C70.1855 21.9584 70.7985 20.8172 71.7563 20.0302C72.4076 19.5186 73.3653 19.0464 75.1659 19.0464C76.3919 19.0464 77.8094 19.5186 78.5756 20.5024C79.4567 21.6043 79.8015 22.8242 79.8015 24.3982C79.8015 26.051 79.4184 27.3496 78.6522 28.3728C77.886 29.3566 76.8899 29.8681 75.7023 29.8681C75.051 29.8681 74.5147 29.7501 74.0166 29.514C73.5186 29.2385 73.0972 28.845 72.7907 28.2941V31.7964ZM77.1581 24.5163C77.1581 23.4931 76.9665 22.7061 76.5834 22.1945C76.2003 21.6436 75.664 21.3681 74.9361 21.3681C74.2465 21.3681 73.7101 21.6436 73.327 22.1945C72.9822 22.7061 72.7907 23.4538 72.7907 24.5163C72.7907 25.5001 72.9822 26.2478 73.3653 26.7593C73.7484 27.3103 74.2848 27.5857 75.0127 27.5857C75.664 27.5857 76.2003 27.3103 76.5834 26.7593C76.9665 26.1691 77.1581 25.4214 77.1581 24.5163Z" fill="#969696"/>
<path d="M97.1557 29.0022V28.3333C96.696 29.0809 96.083 29.5138 95.3168 29.7106C94.5506 29.9073 93.7843 29.8286 93.0181 29.5138C92.2519 29.199 91.6006 28.6087 91.0643 27.7823C90.5279 26.9166 90.2598 25.8147 90.2598 24.4374C90.2598 22.824 90.6046 21.5254 91.3325 20.5022C92.0604 19.5184 93.2097 19.0462 94.7804 19.0069C96.3512 18.9675 97.2706 19.3217 98.1518 20.03C99.1095 20.7777 99.6842 21.9583 99.6842 23.7684V29.2777C99.6842 31.0092 98.4966 34.2754 94.7804 33.9999C92.4818 33.8425 91.1792 32.8587 90.4896 30.655H93.248C93.4395 31.0092 93.746 31.2846 94.1675 31.4814C94.5889 31.6782 95.0103 31.7175 95.3934 31.6388C95.8148 31.5601 96.1979 31.2846 96.5427 30.8911C96.9258 30.4583 97.1174 29.8286 97.1557 29.0022ZM92.8649 24.5161C92.8649 26.3263 93.3629 27.3101 94.359 27.5069C95.3551 27.7036 96.1213 27.4675 96.581 26.7985C96.8109 26.5231 96.9641 26.0508 97.0791 25.4606C97.194 24.8703 97.194 24.2407 97.1174 23.6504C97.0407 23.0601 96.8109 22.5092 96.5044 22.037C96.1596 21.5647 95.6999 21.3286 95.0869 21.3286C94.2441 21.3286 93.6694 21.6434 93.3629 22.3124C93.0181 22.942 92.8649 23.6897 92.8649 24.5161Z" fill="#969696"/>
<path d="M88.039 19.7544C87.1961 19.3216 86.2 19.0854 85.1273 19.0854C83.4417 19.0854 82.254 19.5183 81.5644 20.4234C81.143 21.0137 80.8748 21.722 80.8365 22.6271H83.365C83.4417 22.2336 83.5566 21.9188 83.7482 21.6827C84.0163 21.3679 84.4377 21.2104 85.089 21.2104C85.6637 21.2104 86.0851 21.2892 86.3533 21.4466C86.6215 21.604 86.7747 21.8794 86.7747 22.3123C86.7747 22.6665 86.5831 22.9026 86.2 23.06C86.0085 23.1387 85.6254 23.2174 85.1656 23.2961L84.2845 23.4142C83.2884 23.5322 82.4839 23.7683 81.9859 24.0831C81.0281 24.6341 80.5684 25.5785 80.5684 26.8378C80.5684 27.8216 80.8748 28.5692 81.4495 29.0808C82.0242 29.5924 82.7904 29.8285 83.7098 29.8679C89.4181 30.1433 89.3415 26.7984 89.3798 26.0901V22.2336C89.3415 21.0137 88.9201 20.1873 88.039 19.7544ZM86.7364 25.5785C86.7364 26.4836 86.4682 27.0739 86.0085 27.428C85.5104 27.7822 85.0124 27.9396 84.4377 27.9396C84.0929 27.9396 83.7865 27.8216 83.5183 27.6248C83.2501 27.428 83.1352 27.0739 83.1352 26.641C83.1352 26.1294 83.3267 25.7359 83.7482 25.4998C83.978 25.3424 84.3994 25.2243 84.9358 25.1456L85.5488 25.0276C85.8552 24.9882 86.0851 24.9095 86.2383 24.8308C86.4299 24.7521 86.5831 24.6734 86.7364 24.5554V25.5785Z" fill="#969696"/>
<path d="M109.645 20.5807C108.802 19.5182 107.538 18.9673 105.814 18.9673C104.09 18.9673 102.826 19.5182 101.983 20.5807C101.14 21.6432 100.719 22.9418 100.719 24.3978C100.719 25.8932 101.14 27.1918 101.983 28.2543C102.826 29.3168 104.09 29.8677 105.814 29.8677C107.538 29.8677 108.802 29.3168 109.645 28.2543C110.488 27.1918 110.909 25.8932 110.909 24.3978C110.909 22.9418 110.488 21.6826 109.645 20.5807ZM107.576 26.7983C107.155 27.3492 106.58 27.6247 105.814 27.6247C105.048 27.6247 104.473 27.3492 104.052 26.7983C103.63 26.2474 103.439 25.4603 103.439 24.4372C103.439 23.414 103.63 22.627 104.052 22.0761C104.473 21.5252 105.048 21.2497 105.814 21.2497C106.58 21.2497 107.155 21.5252 107.576 22.0761C107.998 22.627 108.189 23.414 108.189 24.4372C108.189 25.4603 107.959 26.2474 107.576 26.7983Z" fill="#969696"/>
</g>
<defs>
<clipPath id="clip0">
<rect width="127" height="34" fill="white"/>
</clipPath>
</defs>
</svg>
