<svg width="375" height="727" viewBox="0 0 375 727" fill="none" xmlns="http://www.w3.org/2000/svg">
<rect width="375" height="727" fill="#F7F9FB"/>
<path d="M111.134 86L104.296 67.8H106.662L112.408 83.686L118.206 67.8H120.52L113.682 86H111.134ZM126.982 86.312C125.751 86.312 124.659 86.0347 123.706 85.48C122.752 84.908 121.998 84.1193 121.444 83.114C120.906 82.1087 120.638 80.9213 120.638 79.552C120.638 78.2 120.906 77.0213 121.444 76.016C121.981 74.9933 122.726 74.2047 123.68 73.65C124.65 73.078 125.768 72.792 127.034 72.792C128.282 72.792 129.356 73.078 130.258 73.65C131.176 74.2047 131.878 74.9413 132.364 75.86C132.849 76.7787 133.092 77.7667 133.092 78.824C133.092 79.0147 133.083 79.2053 133.066 79.396C133.066 79.5867 133.066 79.8033 133.066 80.046H122.796C122.848 81.034 123.073 81.8573 123.472 82.516C123.888 83.1573 124.399 83.6427 125.006 83.972C125.63 84.3013 126.288 84.466 126.982 84.466C127.883 84.466 128.637 84.258 129.244 83.842C129.85 83.426 130.292 82.8627 130.57 82.152H132.728C132.381 83.348 131.714 84.3447 130.726 85.142C129.755 85.922 128.507 86.312 126.982 86.312ZM126.982 74.638C125.942 74.638 125.014 74.9587 124.2 75.6C123.402 76.224 122.943 77.1427 122.822 78.356H130.934C130.882 77.1947 130.483 76.2847 129.738 75.626C128.992 74.9673 128.074 74.638 126.982 74.638ZM135.986 86V73.104H137.962L138.092 75.418C138.508 74.6033 139.106 73.962 139.886 73.494C140.666 73.026 141.55 72.792 142.538 72.792C144.064 72.792 145.277 73.26 146.178 74.196C147.097 75.1147 147.556 76.536 147.556 78.46V86H145.372V78.694C145.372 76.0073 144.263 74.664 142.044 74.664C140.935 74.664 140.008 75.0713 139.262 75.886C138.534 76.6833 138.17 77.8273 138.17 79.318V86H135.986ZM155.961 86C154.783 86 153.855 85.714 153.179 85.142C152.503 84.57 152.165 83.5387 152.165 82.048V74.95H149.929V73.104H152.165L152.451 70.01H154.349V73.104H158.145V74.95H154.349V82.048C154.349 82.8627 154.514 83.4173 154.843 83.712C155.173 83.9893 155.753 84.128 156.585 84.128H157.937V86H155.961ZM165.21 86.312C164.135 86.312 163.243 86.13 162.532 85.766C161.821 85.402 161.293 84.9167 160.946 84.31C160.599 83.7033 160.426 83.0447 160.426 82.334C160.426 81.0167 160.929 80.0027 161.934 79.292C162.939 78.5813 164.309 78.226 166.042 78.226H169.526V78.07C169.526 76.9433 169.231 76.094 168.642 75.522C168.053 74.9327 167.264 74.638 166.276 74.638C165.427 74.638 164.69 74.8547 164.066 75.288C163.459 75.704 163.078 76.3193 162.922 77.134H160.686C160.773 76.198 161.085 75.4093 161.622 74.768C162.177 74.1267 162.861 73.6413 163.676 73.312C164.491 72.9653 165.357 72.792 166.276 72.792C168.079 72.792 169.431 73.2773 170.332 74.248C171.251 75.2013 171.71 76.4753 171.71 78.07V86H169.76L169.63 83.686C169.266 84.414 168.729 85.038 168.018 85.558C167.325 86.0607 166.389 86.312 165.21 86.312ZM165.548 84.466C166.38 84.466 167.091 84.2493 167.68 83.816C168.287 83.3827 168.746 82.8193 169.058 82.126C169.37 81.4327 169.526 80.7047 169.526 79.942V79.916H166.224C164.941 79.916 164.031 80.1413 163.494 80.592C162.974 81.0253 162.714 81.5713 162.714 82.23C162.714 82.906 162.957 83.452 163.442 83.868C163.945 84.2667 164.647 84.466 165.548 84.466ZM176.416 70.244C176 70.244 175.645 70.1053 175.35 69.828C175.056 69.5333 174.908 69.1693 174.908 68.736C174.908 68.32 175.056 67.9733 175.35 67.696C175.645 67.4187 176 67.28 176.416 67.28C176.832 67.28 177.179 67.4187 177.456 67.696C177.751 67.9733 177.898 68.32 177.898 68.736C177.898 69.1693 177.751 69.5333 177.456 69.828C177.179 70.1053 176.832 70.244 176.416 70.244ZM172.464 91.72V89.848H173.478C174.12 89.848 174.579 89.7093 174.856 89.432C175.151 89.172 175.298 88.7213 175.298 88.08V73.104H177.482V88.132C177.482 89.38 177.17 90.29 176.546 90.862C175.922 91.434 175.012 91.72 173.816 91.72H172.464ZM185.573 86.312C184.499 86.312 183.606 86.13 182.895 85.766C182.185 85.402 181.656 84.9167 181.309 84.31C180.963 83.7033 180.789 83.0447 180.789 82.334C180.789 81.0167 181.292 80.0027 182.297 79.292C183.303 78.5813 184.672 78.226 186.405 78.226H189.889V78.07C189.889 76.9433 189.595 76.094 189.005 75.522C188.416 74.9327 187.627 74.638 186.639 74.638C185.79 74.638 185.053 74.8547 184.429 75.288C183.823 75.704 183.441 76.3193 183.285 77.134H181.049C181.136 76.198 181.448 75.4093 181.985 74.768C182.54 74.1267 183.225 73.6413 184.039 73.312C184.854 72.9653 185.721 72.792 186.639 72.792C188.442 72.792 189.794 73.2773 190.695 74.248C191.614 75.2013 192.073 76.4753 192.073 78.07V86H190.123L189.993 83.686C189.629 84.414 189.092 85.038 188.381 85.558C187.688 86.0607 186.752 86.312 185.573 86.312ZM185.911 84.466C186.743 84.466 187.454 84.2493 188.043 83.816C188.65 83.3827 189.109 82.8193 189.421 82.126C189.733 81.4327 189.889 80.7047 189.889 79.942V79.916H186.587C185.305 79.916 184.395 80.1413 183.857 80.592C183.337 81.0253 183.077 81.5713 183.077 82.23C183.077 82.906 183.32 83.452 183.805 83.868C184.308 84.2667 185.01 84.466 185.911 84.466ZM200.29 86.312C198.747 86.312 197.464 85.922 196.442 85.142C195.419 84.362 194.821 83.3047 194.648 81.97H196.884C197.022 82.646 197.378 83.2353 197.95 83.738C198.539 84.2233 199.328 84.466 200.316 84.466C201.234 84.466 201.91 84.2753 202.344 83.894C202.777 83.4953 202.994 83.0273 202.994 82.49C202.994 81.71 202.708 81.19 202.136 80.93C201.581 80.67 200.792 80.436 199.77 80.228C199.076 80.0893 198.383 79.89 197.69 79.63C196.996 79.37 196.416 79.006 195.948 78.538C195.48 78.0527 195.246 77.42 195.246 76.64C195.246 75.5133 195.662 74.5947 196.494 73.884C197.343 73.156 198.487 72.792 199.926 72.792C201.295 72.792 202.413 73.1387 203.28 73.832C204.164 74.508 204.675 75.4787 204.814 76.744H202.656C202.569 76.0853 202.283 75.574 201.798 75.21C201.33 74.8287 200.697 74.638 199.9 74.638C199.12 74.638 198.513 74.8027 198.08 75.132C197.664 75.4613 197.456 75.8947 197.456 76.432C197.456 76.952 197.724 77.3593 198.262 77.654C198.816 77.9487 199.562 78.2 200.498 78.408C201.295 78.5813 202.049 78.798 202.76 79.058C203.488 79.3007 204.077 79.6733 204.528 80.176C204.996 80.6613 205.23 81.372 205.23 82.308C205.247 83.4693 204.805 84.4313 203.904 85.194C203.02 85.9393 201.815 86.312 200.29 86.312ZM221.081 86.312C219.798 86.312 218.671 86.0173 217.701 85.428C216.747 84.8387 216.002 84.0327 215.465 83.01C214.945 81.9873 214.685 80.826 214.685 79.526C214.685 78.226 214.953 77.0733 215.491 76.068C216.028 75.0453 216.773 74.248 217.727 73.676C218.68 73.0867 219.807 72.792 221.107 72.792C222.164 72.792 223.1 73.0087 223.915 73.442C224.729 73.8753 225.362 74.482 225.813 75.262V67.28H227.997V86H226.021L225.813 83.868C225.397 84.492 224.799 85.0553 224.019 85.558C223.239 86.0607 222.259 86.312 221.081 86.312ZM221.315 84.414C222.181 84.414 222.944 84.2147 223.603 83.816C224.279 83.4 224.799 82.828 225.163 82.1C225.544 81.372 225.735 80.5227 225.735 79.552C225.735 78.5813 225.544 77.732 225.163 77.004C224.799 76.276 224.279 75.7127 223.603 75.314C222.944 74.898 222.181 74.69 221.315 74.69C220.465 74.69 219.703 74.898 219.027 75.314C218.368 75.7127 217.848 76.276 217.467 77.004C217.103 77.732 216.921 78.5813 216.921 79.552C216.921 80.5227 217.103 81.372 217.467 82.1C217.848 82.828 218.368 83.4 219.027 83.816C219.703 84.2147 220.465 84.414 221.315 84.414ZM237.355 86.312C236.124 86.312 235.032 86.0347 234.079 85.48C233.125 84.908 232.371 84.1193 231.817 83.114C231.279 82.1087 231.011 80.9213 231.011 79.552C231.011 78.2 231.279 77.0213 231.817 76.016C232.354 74.9933 233.099 74.2047 234.053 73.65C235.023 73.078 236.141 72.792 237.407 72.792C238.655 72.792 239.729 73.078 240.631 73.65C241.549 74.2047 242.251 74.9413 242.737 75.86C243.222 76.7787 243.465 77.7667 243.465 78.824C243.465 79.0147 243.456 79.2053 243.439 79.396C243.439 79.5867 243.439 79.8033 243.439 80.046H233.169C233.221 81.034 233.446 81.8573 233.845 82.516C234.261 83.1573 234.772 83.6427 235.379 83.972C236.003 84.3013 236.661 84.466 237.355 84.466C238.256 84.466 239.01 84.258 239.617 83.842C240.223 83.426 240.665 82.8627 240.943 82.152H243.101C242.754 83.348 242.087 84.3447 241.099 85.142C240.128 85.922 238.88 86.312 237.355 86.312ZM237.355 74.638C236.315 74.638 235.387 74.9587 234.573 75.6C233.775 76.224 233.316 77.1427 233.195 78.356H241.307C241.255 77.1947 240.856 76.2847 240.111 75.626C239.365 74.9673 238.447 74.638 237.355 74.638ZM253.24 86V67.28H255.424V86H253.24ZM263.294 86.312C262.219 86.312 261.327 86.13 260.616 85.766C259.905 85.402 259.377 84.9167 259.03 84.31C258.683 83.7033 258.51 83.0447 258.51 82.334C258.51 81.0167 259.013 80.0027 260.018 79.292C261.023 78.5813 262.393 78.226 264.126 78.226H267.61V78.07C267.61 76.9433 267.315 76.094 266.726 75.522C266.137 74.9327 265.348 74.638 264.36 74.638C263.511 74.638 262.774 74.8547 262.15 75.288C261.543 75.704 261.162 76.3193 261.006 77.134H258.77C258.857 76.198 259.169 75.4093 259.706 74.768C260.261 74.1267 260.945 73.6413 261.76 73.312C262.575 72.9653 263.441 72.792 264.36 72.792C266.163 72.792 267.515 73.2773 268.416 74.248C269.335 75.2013 269.794 76.4753 269.794 78.07V86H267.844L267.714 83.686C267.35 84.414 266.813 85.038 266.102 85.558C265.409 86.0607 264.473 86.312 263.294 86.312ZM263.632 84.466C264.464 84.466 265.175 84.2493 265.764 83.816C266.371 83.3827 266.83 82.8193 267.142 82.126C267.454 81.4327 267.61 80.7047 267.61 79.942V79.916H264.308C263.025 79.916 262.115 80.1413 261.578 80.592C261.058 81.0253 260.798 81.5713 260.798 82.23C260.798 82.906 261.041 83.452 261.526 83.868C262.029 84.2667 262.731 84.466 263.632 84.466ZM101.378 120.312C100.303 120.312 99.4106 120.13 98.6999 119.766C97.9893 119.402 97.4606 118.917 97.1139 118.31C96.7673 117.703 96.5939 117.045 96.5939 116.334C96.5939 115.017 97.0966 114.003 98.1019 113.292C99.1073 112.581 100.477 112.226 102.21 112.226H105.694V112.07C105.694 110.943 105.399 110.094 104.81 109.522C104.221 108.933 103.432 108.638 102.444 108.638C101.595 108.638 100.858 108.855 100.234 109.288C99.6273 109.704 99.2459 110.319 99.0899 111.134H96.8539C96.9406 110.198 97.2526 109.409 97.7899 108.768C98.3446 108.127 99.0293 107.641 99.8439 107.312C100.659 106.965 101.525 106.792 102.444 106.792C104.247 106.792 105.599 107.277 106.5 108.248C107.419 109.201 107.878 110.475 107.878 112.07V120H105.928L105.798 117.686C105.434 118.414 104.897 119.038 104.186 119.558C103.493 120.061 102.557 120.312 101.378 120.312ZM101.716 118.466C102.548 118.466 103.259 118.249 103.848 117.816C104.455 117.383 104.914 116.819 105.226 116.126C105.538 115.433 105.694 114.705 105.694 113.942V113.916H102.392C101.109 113.916 100.199 114.141 99.6619 114.592C99.1419 115.025 98.8819 115.571 98.8819 116.23C98.8819 116.906 99.1246 117.452 99.6099 117.868C100.113 118.267 100.815 118.466 101.716 118.466ZM122.438 107.104V120H120.462L120.332 117.686C119.916 118.501 119.318 119.142 118.538 119.61C117.758 120.078 116.874 120.312 115.886 120.312C114.361 120.312 113.139 119.853 112.22 118.934C111.319 117.998 110.868 116.568 110.868 114.644V107.104H113.052V114.41C113.052 117.097 114.162 118.44 116.38 118.44C117.49 118.44 118.408 118.041 119.136 117.244C119.882 116.429 120.254 115.277 120.254 113.786V107.104H122.438ZM131.129 120C129.951 120 129.023 119.714 128.347 119.142C127.671 118.57 127.333 117.539 127.333 116.048V108.95H125.097V107.104H127.333L127.619 104.01H129.517V107.104H133.313V108.95H129.517V116.048C129.517 116.863 129.682 117.417 130.011 117.712C130.341 117.989 130.921 118.128 131.753 118.128H133.105V120H131.129ZM141.608 120.312C140.395 120.312 139.303 120.035 138.332 119.48C137.362 118.925 136.59 118.145 136.018 117.14C135.464 116.117 135.186 114.921 135.186 113.552C135.186 112.183 135.472 110.995 136.044 109.99C136.616 108.967 137.388 108.179 138.358 107.624C139.346 107.069 140.447 106.792 141.66 106.792C142.874 106.792 143.966 107.069 144.936 107.624C145.907 108.179 146.67 108.967 147.224 109.99C147.796 110.995 148.082 112.183 148.082 113.552C148.082 114.921 147.796 116.117 147.224 117.14C146.652 118.145 145.872 118.925 144.884 119.48C143.914 120.035 142.822 120.312 141.608 120.312ZM141.608 118.44C142.354 118.44 143.047 118.258 143.688 117.894C144.33 117.53 144.85 116.984 145.248 116.256C145.647 115.528 145.846 114.627 145.846 113.552C145.846 112.477 145.647 111.576 145.248 110.848C144.867 110.12 144.356 109.574 143.714 109.21C143.073 108.846 142.388 108.664 141.66 108.664C140.915 108.664 140.222 108.846 139.58 109.21C138.939 109.574 138.419 110.12 138.02 110.848C137.622 111.576 137.422 112.477 137.422 113.552C137.422 114.627 137.622 115.528 138.02 116.256C138.419 116.984 138.93 117.53 139.554 117.894C140.196 118.258 140.88 118.44 141.608 118.44ZM151.119 120V107.104H153.095L153.251 108.976C153.667 108.283 154.222 107.745 154.915 107.364C155.609 106.983 156.389 106.792 157.255 106.792C158.278 106.792 159.153 107 159.881 107.416C160.627 107.832 161.199 108.465 161.597 109.314C162.048 108.534 162.663 107.919 163.443 107.468C164.241 107.017 165.099 106.792 166.017 106.792C167.56 106.792 168.791 107.26 169.709 108.196C170.628 109.115 171.087 110.536 171.087 112.46V120H168.929V112.694C168.929 111.359 168.661 110.354 168.123 109.678C167.586 109.002 166.815 108.664 165.809 108.664C164.769 108.664 163.903 109.071 163.209 109.886C162.533 110.683 162.195 111.827 162.195 113.318V120H160.011V112.694C160.011 111.359 159.743 110.354 159.205 109.678C158.668 109.002 157.897 108.664 156.891 108.664C155.869 108.664 155.011 109.071 154.317 109.886C153.641 110.683 153.303 111.827 153.303 113.318V120H151.119ZM178.667 120.312C177.592 120.312 176.7 120.13 175.989 119.766C175.278 119.402 174.75 118.917 174.403 118.31C174.056 117.703 173.883 117.045 173.883 116.334C173.883 115.017 174.386 114.003 175.391 113.292C176.396 112.581 177.766 112.226 179.499 112.226H182.983V112.07C182.983 110.943 182.688 110.094 182.099 109.522C181.51 108.933 180.721 108.638 179.733 108.638C178.884 108.638 178.147 108.855 177.523 109.288C176.916 109.704 176.535 110.319 176.379 111.134H174.143C174.23 110.198 174.542 109.409 175.079 108.768C175.634 108.127 176.318 107.641 177.133 107.312C177.948 106.965 178.814 106.792 179.733 106.792C181.536 106.792 182.888 107.277 183.789 108.248C184.708 109.201 185.167 110.475 185.167 112.07V120H183.217L183.087 117.686C182.723 118.414 182.186 119.038 181.475 119.558C180.782 120.061 179.846 120.312 178.667 120.312ZM179.005 118.466C179.837 118.466 180.548 118.249 181.137 117.816C181.744 117.383 182.203 116.819 182.515 116.126C182.827 115.433 182.983 114.705 182.983 113.942V113.916H179.681C178.398 113.916 177.488 114.141 176.951 114.592C176.431 115.025 176.171 115.571 176.171 116.23C176.171 116.906 176.414 117.452 176.899 117.868C177.402 118.267 178.104 118.466 179.005 118.466ZM193.184 120C192.005 120 191.078 119.714 190.402 119.142C189.726 118.57 189.388 117.539 189.388 116.048V108.95H187.152V107.104H189.388L189.674 104.01H191.572V107.104H195.368V108.95H191.572V116.048C191.572 116.863 191.737 117.417 192.066 117.712C192.395 117.989 192.976 118.128 193.808 118.128H195.16V120H193.184ZM199.469 104.244C199.035 104.244 198.671 104.105 198.377 103.828C198.099 103.533 197.961 103.169 197.961 102.736C197.961 102.32 198.099 101.973 198.377 101.696C198.671 101.419 199.035 101.28 199.469 101.28C199.885 101.28 200.24 101.419 200.535 101.696C200.829 101.973 200.977 102.32 200.977 102.736C200.977 103.169 200.829 103.533 200.535 103.828C200.24 104.105 199.885 104.244 199.469 104.244ZM198.377 120V107.104H200.561V120H198.377ZM203.479 120V118.206L210.655 108.924H203.609V107.104H213.099V108.898L205.923 118.18H213.229V120H203.479ZM220.409 120.312C219.335 120.312 218.442 120.13 217.731 119.766C217.021 119.402 216.492 118.917 216.145 118.31C215.799 117.703 215.625 117.045 215.625 116.334C215.625 115.017 216.128 114.003 217.133 113.292C218.139 112.581 219.508 112.226 221.241 112.226H224.725V112.07C224.725 110.943 224.431 110.094 223.841 109.522C223.252 108.933 222.463 108.638 221.475 108.638C220.626 108.638 219.889 108.855 219.265 109.288C218.659 109.704 218.277 110.319 218.121 111.134H215.885C215.972 110.198 216.284 109.409 216.821 108.768C217.376 108.127 218.061 107.641 218.875 107.312C219.69 106.965 220.557 106.792 221.475 106.792C223.278 106.792 224.63 107.277 225.531 108.248C226.45 109.201 226.909 110.475 226.909 112.07V120H224.959L224.829 117.686C224.465 118.414 223.928 119.038 223.217 119.558C222.524 120.061 221.588 120.312 220.409 120.312ZM220.747 118.466C221.579 118.466 222.29 118.249 222.879 117.816C223.486 117.383 223.945 116.819 224.257 116.126C224.569 115.433 224.725 114.705 224.725 113.942V113.916H221.423C220.141 113.916 219.231 114.141 218.693 114.592C218.173 115.025 217.913 115.571 217.913 116.23C217.913 116.906 218.156 117.452 218.641 117.868C219.144 118.267 219.846 118.466 220.747 118.466ZM236.114 120.312C234.883 120.312 233.774 120.035 232.786 119.48C231.815 118.908 231.044 118.119 230.472 117.114C229.917 116.091 229.64 114.904 229.64 113.552C229.64 112.2 229.917 111.021 230.472 110.016C231.044 108.993 231.815 108.205 232.786 107.65C233.774 107.078 234.883 106.792 236.114 106.792C237.639 106.792 238.922 107.191 239.962 107.988C241.019 108.785 241.686 109.851 241.964 111.186H239.728C239.554 110.389 239.13 109.773 238.454 109.34C237.778 108.889 236.989 108.664 236.088 108.664C235.36 108.664 234.675 108.846 234.034 109.21C233.392 109.574 232.872 110.12 232.474 110.848C232.075 111.576 231.876 112.477 231.876 113.552C231.876 114.627 232.075 115.528 232.474 116.256C232.872 116.984 233.392 117.539 234.034 117.92C234.675 118.284 235.36 118.466 236.088 118.466C236.989 118.466 237.778 118.249 238.454 117.816C239.13 117.365 239.554 116.733 239.728 115.918H241.964C241.704 117.218 241.045 118.275 239.988 119.09C238.93 119.905 237.639 120.312 236.114 120.312ZM246.34 104.244C245.906 104.244 245.542 104.105 245.248 103.828C244.97 103.533 244.832 103.169 244.832 102.736C244.832 102.32 244.97 101.973 245.248 101.696C245.542 101.419 245.906 101.28 246.34 101.28C246.756 101.28 247.111 101.419 247.406 101.696C247.7 101.973 247.848 102.32 247.848 102.736C247.848 103.169 247.7 103.533 247.406 103.828C247.111 104.105 246.756 104.244 246.34 104.244ZM245.248 120V107.104H247.432V120H245.248ZM257.11 120.312C255.897 120.312 254.805 120.035 253.834 119.48C252.864 118.925 252.092 118.145 251.52 117.14C250.966 116.117 250.688 114.921 250.688 113.552C250.688 112.183 250.974 110.995 251.546 109.99C252.118 108.967 252.89 108.179 253.86 107.624C254.848 107.069 255.949 106.792 257.162 106.792C258.376 106.792 259.468 107.069 260.438 107.624C261.409 108.179 262.172 108.967 262.726 109.99C263.298 110.995 263.584 112.183 263.584 113.552C263.584 114.921 263.298 116.117 262.726 117.14C262.154 118.145 261.374 118.925 260.386 119.48C259.416 120.035 258.324 120.312 257.11 120.312ZM257.11 118.44C257.856 118.44 258.549 118.258 259.19 117.894C259.832 117.53 260.352 116.984 260.75 116.256C261.149 115.528 261.348 114.627 261.348 113.552C261.348 112.477 261.149 111.576 260.75 110.848C260.369 110.12 259.858 109.574 259.216 109.21C258.575 108.846 257.89 108.664 257.162 108.664C256.417 108.664 255.724 108.846 255.082 109.21C254.441 109.574 253.921 110.12 253.522 110.848C253.124 111.576 252.924 112.477 252.924 113.552C252.924 114.627 253.124 115.528 253.522 116.256C253.921 116.984 254.432 117.53 255.056 117.894C255.698 118.258 256.382 118.44 257.11 118.44ZM256.564 106.038V104.4L262.024 101.098V102.996L256.564 106.038ZM266.621 120V107.104H268.597L268.727 109.418C269.143 108.603 269.741 107.962 270.521 107.494C271.301 107.026 272.185 106.792 273.173 106.792C274.698 106.792 275.912 107.26 276.813 108.196C277.732 109.115 278.191 110.536 278.191 112.46V120H276.007V112.694C276.007 110.007 274.898 108.664 272.679 108.664C271.57 108.664 270.642 109.071 269.897 109.886C269.169 110.683 268.805 111.827 268.805 113.318V120H266.621Z" fill="black"/>
<path d="M126.827 237.258C125.591 237.258 124.505 236.988 123.569 236.448C122.645 235.896 121.919 235.128 121.391 234.144C120.875 233.16 120.617 232.026 120.617 230.742C120.617 229.458 120.875 228.33 121.391 227.358C121.919 226.374 122.645 225.606 123.569 225.054C124.505 224.502 125.591 224.226 126.827 224.226C128.075 224.226 129.161 224.502 130.085 225.054C131.021 225.606 131.747 226.374 132.263 227.358C132.779 228.33 133.037 229.458 133.037 230.742C133.037 232.026 132.779 233.16 132.263 234.144C131.747 235.128 131.021 235.896 130.085 236.448C129.161 236.988 128.075 237.258 126.827 237.258ZM126.827 235.926C127.751 235.926 128.561 235.722 129.257 235.314C129.965 234.894 130.511 234.3 130.895 233.532C131.291 232.752 131.489 231.822 131.489 230.742C131.489 229.662 131.291 228.738 130.895 227.97C130.511 227.202 129.965 226.614 129.257 226.206C128.561 225.786 127.751 225.576 126.827 225.576C125.903 225.576 125.087 225.786 124.379 226.206C123.683 226.614 123.137 227.202 122.741 227.97C122.357 228.738 122.165 229.662 122.165 230.742C122.165 231.822 122.357 232.752 122.741 233.532C123.137 234.3 123.683 234.894 124.379 235.314C125.087 235.722 125.903 235.926 126.827 235.926ZM135.128 241.002V228.114H136.496L136.64 229.59C136.928 229.158 137.336 228.768 137.864 228.42C138.404 228.072 139.088 227.898 139.916 227.898C140.804 227.898 141.578 228.102 142.238 228.51C142.898 228.918 143.408 229.476 143.768 230.184C144.14 230.892 144.326 231.696 144.326 232.596C144.326 233.496 144.14 234.3 143.768 235.008C143.408 235.704 142.892 236.256 142.22 236.664C141.56 237.06 140.786 237.258 139.898 237.258C139.166 237.258 138.512 237.108 137.936 236.808C137.372 236.508 136.94 236.088 136.64 235.548V241.002H135.128ZM139.736 235.944C140.336 235.944 140.864 235.806 141.32 235.53C141.776 235.242 142.136 234.846 142.4 234.342C142.664 233.838 142.796 233.25 142.796 232.578C142.796 231.906 142.664 231.318 142.4 230.814C142.136 230.31 141.776 229.92 141.32 229.644C140.864 229.356 140.336 229.212 139.736 229.212C139.136 229.212 138.608 229.356 138.152 229.644C137.696 229.92 137.336 230.31 137.072 230.814C136.808 231.318 136.676 231.906 136.676 232.578C136.676 233.25 136.808 233.838 137.072 234.342C137.336 234.846 137.696 235.242 138.152 235.53C138.608 235.806 139.136 235.944 139.736 235.944ZM149.607 237.042C148.791 237.042 148.149 236.844 147.681 236.448C147.213 236.052 146.979 235.338 146.979 234.306V229.392H145.431V228.114H146.979L147.177 225.972H148.491V228.114H151.119V229.392H148.491V234.306C148.491 234.87 148.605 235.254 148.833 235.458C149.061 235.65 149.463 235.746 150.039 235.746H150.975V237.042H149.607ZM153.958 226.134C153.658 226.134 153.406 226.038 153.202 225.846C153.01 225.642 152.914 225.39 152.914 225.09C152.914 224.802 153.01 224.562 153.202 224.37C153.406 224.178 153.658 224.082 153.958 224.082C154.246 224.082 154.492 224.178 154.696 224.37C154.9 224.562 155.002 224.802 155.002 225.09C155.002 225.39 154.9 225.642 154.696 225.846C154.492 226.038 154.246 226.134 153.958 226.134ZM153.202 237.042V228.114H154.714V237.042H153.202ZM157.346 237.042V228.114H158.714L158.822 229.41C159.11 228.93 159.494 228.558 159.974 228.294C160.454 228.03 160.994 227.898 161.594 227.898C162.302 227.898 162.908 228.042 163.412 228.33C163.928 228.618 164.324 229.056 164.6 229.644C164.912 229.104 165.338 228.678 165.878 228.366C166.43 228.054 167.024 227.898 167.66 227.898C168.728 227.898 169.58 228.222 170.216 228.87C170.852 229.506 171.17 230.49 171.17 231.822V237.042H169.676V231.984C169.676 231.06 169.49 230.364 169.118 229.896C168.746 229.428 168.212 229.194 167.516 229.194C166.796 229.194 166.196 229.476 165.716 230.04C165.248 230.592 165.014 231.384 165.014 232.416V237.042H163.502V231.984C163.502 231.06 163.316 230.364 162.944 229.896C162.572 229.428 162.038 229.194 161.342 229.194C160.634 229.194 160.04 229.476 159.56 230.04C159.092 230.592 158.858 231.384 158.858 232.416V237.042H157.346ZM174.366 226.134C174.066 226.134 173.814 226.038 173.61 225.846C173.418 225.642 173.322 225.39 173.322 225.09C173.322 224.802 173.418 224.562 173.61 224.37C173.814 224.178 174.066 224.082 174.366 224.082C174.654 224.082 174.9 224.178 175.104 224.37C175.308 224.562 175.41 224.802 175.41 225.09C175.41 225.39 175.308 225.642 175.104 225.846C174.9 226.038 174.654 226.134 174.366 226.134ZM173.61 237.042V228.114H175.122V237.042H173.61ZM177.143 237.042V235.8L182.111 229.374H177.233V228.114H183.803V229.356L178.835 235.782H183.893V237.042H177.143ZM188.863 237.258C188.119 237.258 187.501 237.132 187.009 236.88C186.517 236.628 186.151 236.292 185.911 235.872C185.671 235.452 185.551 234.996 185.551 234.504C185.551 233.592 185.899 232.89 186.595 232.398C187.291 231.906 188.239 231.66 189.439 231.66H191.851V231.552C191.851 230.772 191.647 230.184 191.239 229.788C190.831 229.38 190.285 229.176 189.601 229.176C189.013 229.176 188.503 229.326 188.071 229.626C187.651 229.914 187.387 230.34 187.279 230.904H185.731C185.791 230.256 186.007 229.71 186.379 229.266C186.763 228.822 187.237 228.486 187.801 228.258C188.365 228.018 188.965 227.898 189.601 227.898C190.849 227.898 191.785 228.234 192.409 228.906C193.045 229.566 193.363 230.448 193.363 231.552V237.042H192.013L191.923 235.44C191.671 235.944 191.299 236.376 190.807 236.736C190.327 237.084 189.679 237.258 188.863 237.258ZM189.097 235.98C189.673 235.98 190.165 235.83 190.573 235.53C190.993 235.23 191.311 234.84 191.527 234.36C191.743 233.88 191.851 233.376 191.851 232.848V232.83H189.565C188.677 232.83 188.047 232.986 187.675 233.298C187.315 233.598 187.135 233.976 187.135 234.432C187.135 234.9 187.303 235.278 187.639 235.566C187.987 235.842 188.473 235.98 189.097 235.98ZM199.736 237.258C198.884 237.258 198.116 237.066 197.432 236.682C196.76 236.286 196.226 235.74 195.83 235.044C195.446 234.336 195.254 233.514 195.254 232.578C195.254 231.642 195.446 230.826 195.83 230.13C196.226 229.422 196.76 228.876 197.432 228.492C198.116 228.096 198.884 227.898 199.736 227.898C200.792 227.898 201.68 228.174 202.4 228.726C203.132 229.278 203.594 230.016 203.786 230.94H202.238C202.118 230.388 201.824 229.962 201.356 229.662C200.888 229.35 200.342 229.194 199.718 229.194C199.214 229.194 198.74 229.32 198.296 229.572C197.852 229.824 197.492 230.202 197.216 230.706C196.94 231.21 196.802 231.834 196.802 232.578C196.802 233.322 196.94 233.946 197.216 234.45C197.492 234.954 197.852 235.338 198.296 235.602C198.74 235.854 199.214 235.98 199.718 235.98C200.342 235.98 200.888 235.83 201.356 235.53C201.824 235.218 202.118 234.78 202.238 234.216H203.786C203.606 235.116 203.15 235.848 202.418 236.412C201.686 236.976 200.792 237.258 199.736 237.258ZM206.815 226.134C206.515 226.134 206.263 226.038 206.059 225.846C205.867 225.642 205.771 225.39 205.771 225.09C205.771 224.802 205.867 224.562 206.059 224.37C206.263 224.178 206.515 224.082 206.815 224.082C207.103 224.082 207.349 224.178 207.553 224.37C207.757 224.562 207.859 224.802 207.859 225.09C207.859 225.39 207.757 225.642 207.553 225.846C207.349 226.038 207.103 226.134 206.815 226.134ZM206.059 237.042V228.114H207.571V237.042H206.059ZM214.272 237.258C213.432 237.258 212.676 237.066 212.004 236.682C211.332 236.298 210.798 235.758 210.402 235.062C210.018 234.354 209.826 233.526 209.826 232.578C209.826 231.63 210.024 230.808 210.42 230.112C210.816 229.404 211.35 228.858 212.022 228.474C212.706 228.09 213.468 227.898 214.308 227.898C215.148 227.898 215.904 228.09 216.576 228.474C217.248 228.858 217.776 229.404 218.16 230.112C218.556 230.808 218.754 231.63 218.754 232.578C218.754 233.526 218.556 234.354 218.16 235.062C217.764 235.758 217.224 236.298 216.54 236.682C215.868 237.066 215.112 237.258 214.272 237.258ZM214.272 235.962C214.788 235.962 215.268 235.836 215.712 235.584C216.156 235.332 216.516 234.954 216.792 234.45C217.068 233.946 217.206 233.322 217.206 232.578C217.206 231.834 217.068 231.21 216.792 230.706C216.528 230.202 216.174 229.824 215.73 229.572C215.286 229.32 214.812 229.194 214.308 229.194C213.792 229.194 213.312 229.32 212.868 229.572C212.424 229.824 212.064 230.202 211.788 230.706C211.512 231.21 211.374 231.834 211.374 232.578C211.374 233.322 211.512 233.946 211.788 234.45C212.064 234.954 212.418 235.332 212.85 235.584C213.294 235.836 213.768 235.962 214.272 235.962ZM213.894 227.376V226.242L217.674 223.956V225.27L213.894 227.376ZM220.856 237.042V228.114H222.224L222.314 229.716C222.602 229.152 223.016 228.708 223.556 228.384C224.096 228.06 224.708 227.898 225.392 227.898C226.448 227.898 227.288 228.222 227.912 228.87C228.548 229.506 228.866 230.49 228.866 231.822V237.042H227.354V231.984C227.354 230.124 226.586 229.194 225.05 229.194C224.282 229.194 223.64 229.476 223.124 230.04C222.62 230.592 222.368 231.384 222.368 232.416V237.042H220.856ZM239.971 237.258C239.083 237.258 238.303 237.054 237.631 236.646C236.971 236.238 236.455 235.68 236.083 234.972C235.723 234.264 235.543 233.46 235.543 232.56C235.543 231.66 235.729 230.862 236.101 230.166C236.473 229.458 236.989 228.906 237.649 228.51C238.309 228.102 239.089 227.898 239.989 227.898C240.721 227.898 241.369 228.048 241.933 228.348C242.497 228.648 242.935 229.068 243.247 229.608V224.082H244.759V237.042H243.391L243.247 235.566C242.959 235.998 242.545 236.388 242.005 236.736C241.465 237.084 240.787 237.258 239.971 237.258ZM240.133 235.944C240.733 235.944 241.261 235.806 241.717 235.53C242.185 235.242 242.545 234.846 242.797 234.342C243.061 233.838 243.193 233.25 243.193 232.578C243.193 231.906 243.061 231.318 242.797 230.814C242.545 230.31 242.185 229.92 241.717 229.644C241.261 229.356 240.733 229.212 240.133 229.212C239.545 229.212 239.017 229.356 238.549 229.644C238.093 229.92 237.733 230.31 237.469 230.814C237.217 231.318 237.091 231.906 237.091 232.578C237.091 233.25 237.217 233.838 237.469 234.342C237.733 234.846 238.093 235.242 238.549 235.53C239.017 235.806 239.545 235.944 240.133 235.944ZM251.237 237.258C250.385 237.258 249.629 237.066 248.969 236.682C248.309 236.286 247.787 235.74 247.403 235.044C247.031 234.348 246.845 233.526 246.845 232.578C246.845 231.642 247.031 230.826 247.403 230.13C247.775 229.422 248.291 228.876 248.951 228.492C249.623 228.096 250.397 227.898 251.273 227.898C252.137 227.898 252.881 228.096 253.505 228.492C254.141 228.876 254.627 229.386 254.963 230.022C255.299 230.658 255.467 231.342 255.467 232.074C255.467 232.206 255.461 232.338 255.449 232.47C255.449 232.602 255.449 232.752 255.449 232.92H248.339C248.375 233.604 248.531 234.174 248.807 234.63C249.095 235.074 249.449 235.41 249.869 235.638C250.301 235.866 250.757 235.98 251.237 235.98C251.861 235.98 252.383 235.836 252.803 235.548C253.223 235.26 253.529 234.87 253.721 234.378H255.215C254.975 235.206 254.513 235.896 253.829 236.448C253.157 236.988 252.293 237.258 251.237 237.258ZM251.237 229.176C250.517 229.176 249.875 229.398 249.311 229.842C248.759 230.274 248.441 230.91 248.357 231.75H253.973C253.937 230.946 253.661 230.316 253.145 229.86C252.629 229.404 251.993 229.176 251.237 229.176ZM120.779 260.042C119.963 260.042 119.321 259.844 118.853 259.448C118.385 259.052 118.151 258.338 118.151 257.306V252.392H116.603V251.114H118.151L118.349 248.972H119.663V251.114H122.291V252.392H119.663V257.306C119.663 257.87 119.777 258.254 120.005 258.458C120.233 258.65 120.635 258.746 121.211 258.746H122.147V260.042H120.779ZM125.13 249.134C124.83 249.134 124.578 249.038 124.374 248.846C124.182 248.642 124.086 248.39 124.086 248.09C124.086 247.802 124.182 247.562 124.374 247.37C124.578 247.178 124.83 247.082 125.13 247.082C125.418 247.082 125.664 247.178 125.868 247.37C126.072 247.562 126.174 247.802 126.174 248.09C126.174 248.39 126.072 248.642 125.868 248.846C125.664 249.038 125.418 249.134 125.13 249.134ZM124.374 260.042V251.114H125.886V260.042H124.374ZM132.532 260.258C131.68 260.258 130.924 260.066 130.264 259.682C129.604 259.286 129.082 258.74 128.698 258.044C128.326 257.348 128.14 256.526 128.14 255.578C128.14 254.642 128.326 253.826 128.698 253.13C129.07 252.422 129.586 251.876 130.246 251.492C130.918 251.096 131.692 250.898 132.568 250.898C133.432 250.898 134.176 251.096 134.8 251.492C135.436 251.876 135.922 252.386 136.258 253.022C136.594 253.658 136.762 254.342 136.762 255.074C136.762 255.206 136.756 255.338 136.744 255.47C136.744 255.602 136.744 255.752 136.744 255.92H129.634C129.67 256.604 129.826 257.174 130.102 257.63C130.39 258.074 130.744 258.41 131.164 258.638C131.596 258.866 132.052 258.98 132.532 258.98C133.156 258.98 133.678 258.836 134.098 258.548C134.518 258.26 134.824 257.87 135.016 257.378H136.51C136.27 258.206 135.808 258.896 135.124 259.448C134.452 259.988 133.588 260.258 132.532 260.258ZM132.532 252.176C131.812 252.176 131.17 252.398 130.606 252.842C130.054 253.274 129.736 253.91 129.652 254.75H135.268C135.232 253.946 134.956 253.316 134.44 252.86C133.924 252.404 133.288 252.176 132.532 252.176ZM138.766 260.042V251.114H140.134L140.242 252.41C140.53 251.93 140.914 251.558 141.394 251.294C141.874 251.03 142.414 250.898 143.014 250.898C143.722 250.898 144.328 251.042 144.832 251.33C145.348 251.618 145.744 252.056 146.02 252.644C146.332 252.104 146.758 251.678 147.298 251.366C147.85 251.054 148.444 250.898 149.08 250.898C150.148 250.898 151 251.222 151.636 251.87C152.272 252.506 152.59 253.49 152.59 254.822V260.042H151.096V254.984C151.096 254.06 150.91 253.364 150.538 252.896C150.166 252.428 149.632 252.194 148.936 252.194C148.216 252.194 147.616 252.476 147.136 253.04C146.668 253.592 146.434 254.384 146.434 255.416V260.042H144.922V254.984C144.922 254.06 144.736 253.364 144.364 252.896C143.992 252.428 143.458 252.194 142.762 252.194C142.054 252.194 141.46 252.476 140.98 253.04C140.512 253.592 140.278 254.384 140.278 255.416V260.042H138.766ZM154.868 264.002V251.114H156.236L156.38 252.59C156.668 252.158 157.076 251.768 157.604 251.42C158.144 251.072 158.828 250.898 159.656 250.898C160.544 250.898 161.318 251.102 161.978 251.51C162.638 251.918 163.148 252.476 163.508 253.184C163.88 253.892 164.066 254.696 164.066 255.596C164.066 256.496 163.88 257.3 163.508 258.008C163.148 258.704 162.632 259.256 161.96 259.664C161.3 260.06 160.526 260.258 159.638 260.258C158.906 260.258 158.252 260.108 157.676 259.808C157.112 259.508 156.68 259.088 156.38 258.548V264.002H154.868ZM159.476 258.944C160.076 258.944 160.604 258.806 161.06 258.53C161.516 258.242 161.876 257.846 162.14 257.342C162.404 256.838 162.536 256.25 162.536 255.578C162.536 254.906 162.404 254.318 162.14 253.814C161.876 253.31 161.516 252.92 161.06 252.644C160.604 252.356 160.076 252.212 159.476 252.212C158.876 252.212 158.348 252.356 157.892 252.644C157.436 252.92 157.076 253.31 156.812 253.814C156.548 254.318 156.416 254.906 156.416 255.578C156.416 256.25 156.548 256.838 156.812 257.342C157.076 257.846 157.436 258.242 157.892 258.53C158.348 258.806 158.876 258.944 159.476 258.944ZM170.239 260.258C169.399 260.258 168.643 260.066 167.971 259.682C167.299 259.298 166.765 258.758 166.369 258.062C165.985 257.354 165.793 256.526 165.793 255.578C165.793 254.63 165.991 253.808 166.387 253.112C166.783 252.404 167.317 251.858 167.989 251.474C168.673 251.09 169.435 250.898 170.275 250.898C171.115 250.898 171.871 251.09 172.543 251.474C173.215 251.858 173.743 252.404 174.127 253.112C174.523 253.808 174.721 254.63 174.721 255.578C174.721 256.526 174.523 257.354 174.127 258.062C173.731 258.758 173.191 259.298 172.507 259.682C171.835 260.066 171.079 260.258 170.239 260.258ZM170.239 258.962C170.755 258.962 171.235 258.836 171.679 258.584C172.123 258.332 172.483 257.954 172.759 257.45C173.035 256.946 173.173 256.322 173.173 255.578C173.173 254.834 173.035 254.21 172.759 253.706C172.495 253.202 172.141 252.824 171.697 252.572C171.253 252.32 170.779 252.194 170.275 252.194C169.759 252.194 169.279 252.32 168.835 252.572C168.391 252.824 168.031 253.202 167.755 253.706C167.479 254.21 167.341 254.834 167.341 255.578C167.341 256.322 167.479 256.946 167.755 257.45C168.031 257.954 168.385 258.332 168.817 258.584C169.261 258.836 169.735 258.962 170.239 258.962ZM180.243 260.258C179.175 260.258 178.287 259.988 177.579 259.448C176.871 258.908 176.457 258.176 176.337 257.252H177.885C177.981 257.72 178.227 258.128 178.623 258.476C179.031 258.812 179.577 258.98 180.261 258.98C180.897 258.98 181.365 258.848 181.665 258.584C181.965 258.308 182.115 257.984 182.115 257.612C182.115 257.072 181.917 256.712 181.521 256.532C181.137 256.352 180.591 256.19 179.883 256.046C179.403 255.95 178.923 255.812 178.443 255.632C177.963 255.452 177.561 255.2 177.237 254.876C176.913 254.54 176.751 254.102 176.751 253.562C176.751 252.782 177.039 252.146 177.615 251.654C178.203 251.15 178.995 250.898 179.991 250.898C180.939 250.898 181.713 251.138 182.313 251.618C182.925 252.086 183.279 252.758 183.375 253.634H181.881C181.821 253.178 181.623 252.824 181.287 252.572C180.963 252.308 180.525 252.176 179.973 252.176C179.433 252.176 179.013 252.29 178.713 252.518C178.425 252.746 178.281 253.046 178.281 253.418C178.281 253.778 178.467 254.06 178.839 254.264C179.223 254.468 179.739 254.642 180.387 254.786C180.939 254.906 181.461 255.056 181.953 255.236C182.457 255.404 182.865 255.662 183.177 256.01C183.501 256.346 183.663 256.838 183.663 257.486C183.675 258.29 183.369 258.956 182.745 259.484C182.133 260 181.299 260.258 180.243 260.258ZM191.559 264.002L193.773 259.178H193.251L189.705 251.114H191.343L194.295 258.062L197.427 251.114H198.993L193.143 264.002H191.559ZM209.456 260.258C208.604 260.258 207.836 260.066 207.152 259.682C206.48 259.286 205.946 258.74 205.55 258.044C205.166 257.336 204.974 256.514 204.974 255.578C204.974 254.642 205.166 253.826 205.55 253.13C205.946 252.422 206.48 251.876 207.152 251.492C207.836 251.096 208.604 250.898 209.456 250.898C210.512 250.898 211.4 251.174 212.12 251.726C212.852 252.278 213.314 253.016 213.506 253.94H211.958C211.838 253.388 211.544 252.962 211.076 252.662C210.608 252.35 210.062 252.194 209.438 252.194C208.934 252.194 208.46 252.32 208.016 252.572C207.572 252.824 207.212 253.202 206.936 253.706C206.66 254.21 206.522 254.834 206.522 255.578C206.522 256.322 206.66 256.946 206.936 257.45C207.212 257.954 207.572 258.338 208.016 258.602C208.46 258.854 208.934 258.98 209.438 258.98C210.062 258.98 210.608 258.83 211.076 258.53C211.544 258.218 211.838 257.78 211.958 257.216H213.506C213.326 258.116 212.87 258.848 212.138 259.412C211.406 259.976 210.512 260.258 209.456 260.258ZM219.686 260.258C218.846 260.258 218.09 260.066 217.418 259.682C216.746 259.298 216.212 258.758 215.816 258.062C215.432 257.354 215.24 256.526 215.24 255.578C215.24 254.63 215.438 253.808 215.834 253.112C216.23 252.404 216.764 251.858 217.436 251.474C218.12 251.09 218.882 250.898 219.722 250.898C220.562 250.898 221.318 251.09 221.99 251.474C222.662 251.858 223.19 252.404 223.574 253.112C223.97 253.808 224.168 254.63 224.168 255.578C224.168 256.526 223.97 257.354 223.574 258.062C223.178 258.758 222.638 259.298 221.954 259.682C221.282 260.066 220.526 260.258 219.686 260.258ZM219.686 258.962C220.202 258.962 220.682 258.836 221.126 258.584C221.57 258.332 221.93 257.954 222.206 257.45C222.482 256.946 222.62 256.322 222.62 255.578C222.62 254.834 222.482 254.21 222.206 253.706C221.942 253.202 221.588 252.824 221.144 252.572C220.7 252.32 220.226 252.194 219.722 252.194C219.206 252.194 218.726 252.32 218.282 252.572C217.838 252.824 217.478 253.202 217.202 253.706C216.926 254.21 216.788 254.834 216.788 255.578C216.788 256.322 216.926 256.946 217.202 257.45C217.478 257.954 217.832 258.332 218.264 258.584C218.708 258.836 219.182 258.962 219.686 258.962ZM229.69 260.258C228.622 260.258 227.734 259.988 227.026 259.448C226.318 258.908 225.904 258.176 225.784 257.252H227.332C227.428 257.72 227.674 258.128 228.07 258.476C228.478 258.812 229.024 258.98 229.708 258.98C230.344 258.98 230.812 258.848 231.112 258.584C231.412 258.308 231.562 257.984 231.562 257.612C231.562 257.072 231.364 256.712 230.968 256.532C230.584 256.352 230.038 256.19 229.33 256.046C228.85 255.95 228.37 255.812 227.89 255.632C227.41 255.452 227.008 255.2 226.684 254.876C226.36 254.54 226.198 254.102 226.198 253.562C226.198 252.782 226.486 252.146 227.062 251.654C227.65 251.15 228.442 250.898 229.438 250.898C230.386 250.898 231.16 251.138 231.76 251.618C232.372 252.086 232.726 252.758 232.822 253.634H231.328C231.268 253.178 231.07 252.824 230.734 252.572C230.41 252.308 229.972 252.176 229.42 252.176C228.88 252.176 228.46 252.29 228.16 252.518C227.872 252.746 227.728 253.046 227.728 253.418C227.728 253.778 227.914 254.06 228.286 254.264C228.67 254.468 229.186 254.642 229.834 254.786C230.386 254.906 230.908 255.056 231.4 255.236C231.904 255.404 232.312 255.662 232.624 256.01C232.948 256.346 233.11 256.838 233.11 257.486C233.122 258.29 232.816 258.956 232.192 259.484C231.58 260 230.746 260.258 229.69 260.258ZM238.394 260.042C237.578 260.042 236.936 259.844 236.468 259.448C236 259.052 235.766 258.338 235.766 257.306V252.392H234.218V251.114H235.766L235.964 248.972H237.278V251.114H239.906V252.392H237.278V257.306C237.278 257.87 237.392 258.254 237.62 258.458C237.848 258.65 238.25 258.746 238.826 258.746H239.762V260.042H238.394ZM245.649 260.258C244.809 260.258 244.053 260.066 243.381 259.682C242.709 259.298 242.175 258.758 241.779 258.062C241.395 257.354 241.203 256.526 241.203 255.578C241.203 254.63 241.401 253.808 241.797 253.112C242.193 252.404 242.727 251.858 243.399 251.474C244.083 251.09 244.845 250.898 245.685 250.898C246.525 250.898 247.281 251.09 247.953 251.474C248.625 251.858 249.153 252.404 249.537 253.112C249.933 253.808 250.131 254.63 250.131 255.578C250.131 256.526 249.933 257.354 249.537 258.062C249.141 258.758 248.601 259.298 247.917 259.682C247.245 260.066 246.489 260.258 245.649 260.258ZM245.649 258.962C246.165 258.962 246.645 258.836 247.089 258.584C247.533 258.332 247.893 257.954 248.169 257.45C248.445 256.946 248.583 256.322 248.583 255.578C248.583 254.834 248.445 254.21 248.169 253.706C247.905 253.202 247.551 252.824 247.107 252.572C246.663 252.32 246.189 252.194 245.685 252.194C245.169 252.194 244.689 252.32 244.245 252.572C243.801 252.824 243.441 253.202 243.165 253.706C242.889 254.21 242.751 254.834 242.751 255.578C242.751 256.322 242.889 256.946 243.165 257.45C243.441 257.954 243.795 258.332 244.227 258.584C244.671 258.836 245.145 258.962 245.649 258.962ZM255.653 260.258C254.585 260.258 253.697 259.988 252.989 259.448C252.281 258.908 251.867 258.176 251.747 257.252H253.295C253.391 257.72 253.637 258.128 254.033 258.476C254.441 258.812 254.987 258.98 255.671 258.98C256.307 258.98 256.775 258.848 257.075 258.584C257.375 258.308 257.525 257.984 257.525 257.612C257.525 257.072 257.327 256.712 256.931 256.532C256.547 256.352 256.001 256.19 255.293 256.046C254.813 255.95 254.333 255.812 253.853 255.632C253.373 255.452 252.971 255.2 252.647 254.876C252.323 254.54 252.161 254.102 252.161 253.562C252.161 252.782 252.449 252.146 253.025 251.654C253.613 251.15 254.405 250.898 255.401 250.898C256.349 250.898 257.123 251.138 257.723 251.618C258.335 252.086 258.689 252.758 258.785 253.634H257.291C257.231 253.178 257.033 252.824 256.697 252.572C256.373 252.308 255.935 252.176 255.383 252.176C254.843 252.176 254.423 252.29 254.123 252.518C253.835 252.746 253.691 253.046 253.691 253.418C253.691 253.778 253.877 254.06 254.249 254.264C254.633 254.468 255.149 254.642 255.797 254.786C256.349 254.906 256.871 255.056 257.363 255.236C257.867 255.404 258.275 255.662 258.587 256.01C258.911 256.346 259.073 256.838 259.073 257.486C259.085 258.29 258.779 258.956 258.155 259.484C257.543 260 256.709 260.258 255.653 260.258Z" fill="black"/>
<path d="M132.291 378V365.4H136.359C137.343 365.4 138.147 365.562 138.771 365.886C139.395 366.21 139.857 366.654 140.157 367.218C140.457 367.782 140.607 368.406 140.607 369.09C140.607 369.882 140.391 370.596 139.959 371.232C139.539 371.868 138.879 372.318 137.979 372.582L140.733 378H138.951L136.395 372.798H136.287H133.803V378H132.291ZM133.803 371.61H136.251C137.223 371.61 137.931 371.376 138.375 370.908C138.819 370.44 139.041 369.84 139.041 369.108C139.041 368.364 138.819 367.776 138.375 367.344C137.943 366.9 137.229 366.678 136.233 366.678H133.803V371.61ZM146.34 378.216C145.488 378.216 144.732 378.024 144.072 377.64C143.412 377.244 142.89 376.698 142.506 376.002C142.134 375.306 141.948 374.484 141.948 373.536C141.948 372.6 142.134 371.784 142.506 371.088C142.878 370.38 143.394 369.834 144.054 369.45C144.726 369.054 145.5 368.856 146.376 368.856C147.24 368.856 147.984 369.054 148.608 369.45C149.244 369.834 149.73 370.344 150.066 370.98C150.402 371.616 150.57 372.3 150.57 373.032C150.57 373.164 150.564 373.296 150.552 373.428C150.552 373.56 150.552 373.71 150.552 373.878H143.442C143.478 374.562 143.634 375.132 143.91 375.588C144.198 376.032 144.552 376.368 144.972 376.596C145.404 376.824 145.86 376.938 146.34 376.938C146.964 376.938 147.486 376.794 147.906 376.506C148.326 376.218 148.632 375.828 148.824 375.336H150.318C150.078 376.164 149.616 376.854 148.932 377.406C148.26 377.946 147.396 378.216 146.34 378.216ZM146.34 370.134C145.62 370.134 144.978 370.356 144.414 370.8C143.862 371.232 143.544 371.868 143.46 372.708H149.076C149.04 371.904 148.764 371.274 148.248 370.818C147.732 370.362 147.096 370.134 146.34 370.134ZM156.624 378.216C155.736 378.216 154.956 378.012 154.284 377.604C153.624 377.196 153.108 376.638 152.736 375.93C152.376 375.222 152.196 374.418 152.196 373.518C152.196 372.618 152.382 371.82 152.754 371.124C153.126 370.416 153.642 369.864 154.302 369.468C154.962 369.06 155.742 368.856 156.642 368.856C157.374 368.856 158.022 369.006 158.586 369.306C159.15 369.606 159.588 370.026 159.9 370.566V365.04H161.412V378H160.044L159.9 376.524C159.612 376.956 159.198 377.346 158.658 377.694C158.118 378.042 157.44 378.216 156.624 378.216ZM156.786 376.902C157.386 376.902 157.914 376.764 158.37 376.488C158.838 376.2 159.198 375.804 159.45 375.3C159.714 374.796 159.846 374.208 159.846 373.536C159.846 372.864 159.714 372.276 159.45 371.772C159.198 371.268 158.838 370.878 158.37 370.602C157.914 370.314 157.386 370.17 156.786 370.17C156.198 370.17 155.67 370.314 155.202 370.602C154.746 370.878 154.386 371.268 154.122 371.772C153.87 372.276 153.744 372.864 153.744 373.536C153.744 374.208 153.87 374.796 154.122 375.3C154.386 375.804 154.746 376.2 155.202 376.488C155.67 376.764 156.198 376.902 156.786 376.902ZM171.689 369.072V378H170.321L170.231 376.398C169.943 376.962 169.529 377.406 168.989 377.73C168.449 378.054 167.837 378.216 167.153 378.216C166.097 378.216 165.251 377.898 164.615 377.262C163.991 376.614 163.679 375.624 163.679 374.292V369.072H165.191V374.13C165.191 375.99 165.959 376.92 167.495 376.92C168.263 376.92 168.899 376.644 169.403 376.092C169.919 375.528 170.177 374.73 170.177 373.698V369.072H171.689ZM178.282 378.216C177.43 378.216 176.662 378.024 175.978 377.64C175.306 377.244 174.772 376.698 174.376 376.002C173.992 375.294 173.8 374.472 173.8 373.536C173.8 372.6 173.992 371.784 174.376 371.088C174.772 370.38 175.306 369.834 175.978 369.45C176.662 369.054 177.43 368.856 178.282 368.856C179.338 368.856 180.226 369.132 180.946 369.684C181.678 370.236 182.14 370.974 182.332 371.898H180.784C180.664 371.346 180.37 370.92 179.902 370.62C179.434 370.308 178.888 370.152 178.264 370.152C177.76 370.152 177.286 370.278 176.842 370.53C176.398 370.782 176.038 371.16 175.762 371.664C175.486 372.168 175.348 372.792 175.348 373.536C175.348 374.28 175.486 374.904 175.762 375.408C176.038 375.912 176.398 376.296 176.842 376.56C177.286 376.812 177.76 376.938 178.264 376.938C178.888 376.938 179.434 376.788 179.902 376.488C180.37 376.176 180.664 375.738 180.784 375.174H182.332C182.152 376.074 181.696 376.806 180.964 377.37C180.232 377.934 179.338 378.216 178.282 378.216ZM188.547 378.216C187.695 378.216 186.927 378.024 186.243 377.64C185.571 377.244 185.037 376.698 184.641 376.002C184.257 375.294 184.065 374.472 184.065 373.536C184.065 372.6 184.257 371.784 184.641 371.088C185.037 370.38 185.571 369.834 186.243 369.45C186.927 369.054 187.695 368.856 188.547 368.856C189.603 368.856 190.491 369.132 191.211 369.684C191.943 370.236 192.405 370.974 192.597 371.898H191.049C190.929 371.346 190.635 370.92 190.167 370.62C189.699 370.308 189.153 370.152 188.529 370.152C188.025 370.152 187.551 370.278 187.107 370.53C186.663 370.782 186.303 371.16 186.027 371.664C185.751 372.168 185.613 372.792 185.613 373.536C185.613 374.28 185.751 374.904 186.027 375.408C186.303 375.912 186.663 376.296 187.107 376.56C187.551 376.812 188.025 376.938 188.529 376.938C189.153 376.938 189.699 376.788 190.167 376.488C190.635 376.176 190.929 375.738 191.049 375.174H192.597C192.417 376.074 191.961 376.806 191.229 377.37C190.497 377.934 189.603 378.216 188.547 378.216ZM195.627 367.092C195.327 367.092 195.075 366.996 194.871 366.804C194.679 366.6 194.583 366.348 194.583 366.048C194.583 365.76 194.679 365.52 194.871 365.328C195.075 365.136 195.327 365.04 195.627 365.04C195.915 365.04 196.161 365.136 196.365 365.328C196.569 365.52 196.671 365.76 196.671 366.048C196.671 366.348 196.569 366.6 196.365 366.804C196.161 366.996 195.915 367.092 195.627 367.092ZM194.871 378V369.072H196.383V378H194.871ZM203.083 378.216C202.243 378.216 201.487 378.024 200.815 377.64C200.143 377.256 199.609 376.716 199.213 376.02C198.829 375.312 198.637 374.484 198.637 373.536C198.637 372.588 198.835 371.766 199.231 371.07C199.627 370.362 200.161 369.816 200.833 369.432C201.517 369.048 202.279 368.856 203.119 368.856C203.959 368.856 204.715 369.048 205.387 369.432C206.059 369.816 206.587 370.362 206.971 371.07C207.367 371.766 207.565 372.588 207.565 373.536C207.565 374.484 207.367 375.312 206.971 376.02C206.575 376.716 206.035 377.256 205.351 377.64C204.679 378.024 203.923 378.216 203.083 378.216ZM203.083 376.92C203.599 376.92 204.079 376.794 204.523 376.542C204.967 376.29 205.327 375.912 205.603 375.408C205.879 374.904 206.017 374.28 206.017 373.536C206.017 372.792 205.879 372.168 205.603 371.664C205.339 371.16 204.985 370.782 204.541 370.53C204.097 370.278 203.623 370.152 203.119 370.152C202.603 370.152 202.123 370.278 201.679 370.53C201.235 370.782 200.875 371.16 200.599 371.664C200.323 372.168 200.185 372.792 200.185 373.536C200.185 374.28 200.323 374.904 200.599 375.408C200.875 375.912 201.229 376.29 201.661 376.542C202.105 376.794 202.579 376.92 203.083 376.92ZM202.705 368.334V367.2L206.485 364.914V366.228L202.705 368.334ZM209.668 378V369.072H211.036L211.126 370.674C211.414 370.11 211.828 369.666 212.368 369.342C212.908 369.018 213.52 368.856 214.204 368.856C215.26 368.856 216.1 369.18 216.724 369.828C217.36 370.464 217.678 371.448 217.678 372.78V378H216.166V372.942C216.166 371.082 215.398 370.152 213.862 370.152C213.094 370.152 212.452 370.434 211.936 370.998C211.432 371.55 211.18 372.342 211.18 373.374V378H209.668ZM228.782 378.216C227.894 378.216 227.114 378.012 226.442 377.604C225.782 377.196 225.266 376.638 224.894 375.93C224.534 375.222 224.354 374.418 224.354 373.518C224.354 372.618 224.54 371.82 224.912 371.124C225.284 370.416 225.8 369.864 226.46 369.468C227.12 369.06 227.9 368.856 228.8 368.856C229.532 368.856 230.18 369.006 230.744 369.306C231.308 369.606 231.746 370.026 232.058 370.566V365.04H233.57V378H232.202L232.058 376.524C231.77 376.956 231.356 377.346 230.816 377.694C230.276 378.042 229.598 378.216 228.782 378.216ZM228.944 376.902C229.544 376.902 230.072 376.764 230.528 376.488C230.996 376.2 231.356 375.804 231.608 375.3C231.872 374.796 232.004 374.208 232.004 373.536C232.004 372.864 231.872 372.276 231.608 371.772C231.356 371.268 230.996 370.878 230.528 370.602C230.072 370.314 229.544 370.17 228.944 370.17C228.356 370.17 227.828 370.314 227.36 370.602C226.904 370.878 226.544 371.268 226.28 371.772C226.028 372.276 225.902 372.864 225.902 373.536C225.902 374.208 226.028 374.796 226.28 375.3C226.544 375.804 226.904 376.2 227.36 376.488C227.828 376.764 228.356 376.902 228.944 376.902ZM240.049 378.216C239.197 378.216 238.441 378.024 237.781 377.64C237.121 377.244 236.599 376.698 236.215 376.002C235.843 375.306 235.657 374.484 235.657 373.536C235.657 372.6 235.843 371.784 236.215 371.088C236.587 370.38 237.103 369.834 237.763 369.45C238.435 369.054 239.209 368.856 240.085 368.856C240.949 368.856 241.693 369.054 242.317 369.45C242.953 369.834 243.439 370.344 243.775 370.98C244.111 371.616 244.279 372.3 244.279 373.032C244.279 373.164 244.273 373.296 244.261 373.428C244.261 373.56 244.261 373.71 244.261 373.878H237.151C237.187 374.562 237.343 375.132 237.619 375.588C237.907 376.032 238.261 376.368 238.681 376.596C239.113 376.824 239.569 376.938 240.049 376.938C240.673 376.938 241.195 376.794 241.615 376.506C242.035 376.218 242.341 375.828 242.533 375.336H244.027C243.787 376.164 243.325 376.854 242.641 377.406C241.969 377.946 241.105 378.216 240.049 378.216ZM240.049 370.134C239.329 370.134 238.687 370.356 238.123 370.8C237.571 371.232 237.253 371.868 237.169 372.708H242.785C242.749 371.904 242.473 371.274 241.957 370.818C241.441 370.362 240.805 370.134 240.049 370.134ZM102.981 390.092C102.681 390.092 102.429 389.996 102.225 389.804C102.033 389.6 101.937 389.348 101.937 389.048C101.937 388.76 102.033 388.52 102.225 388.328C102.429 388.136 102.681 388.04 102.981 388.04C103.269 388.04 103.515 388.136 103.719 388.328C103.923 388.52 104.025 388.76 104.025 389.048C104.025 389.348 103.923 389.6 103.719 389.804C103.515 389.996 103.269 390.092 102.981 390.092ZM102.225 401V392.072H103.737V401H102.225ZM106.37 401V392.072H107.738L107.828 393.674C108.116 393.11 108.53 392.666 109.07 392.342C109.61 392.018 110.222 391.856 110.906 391.856C111.962 391.856 112.802 392.18 113.426 392.828C114.062 393.464 114.38 394.448 114.38 395.78V401H112.868V395.942C112.868 394.082 112.1 393.152 110.564 393.152C109.796 393.152 109.154 393.434 108.638 393.998C108.134 394.55 107.882 395.342 107.882 396.374V401H106.37ZM120.199 401C119.383 401 118.741 400.802 118.273 400.406C117.805 400.01 117.571 399.296 117.571 398.264V393.35H116.023V392.072H117.571L117.769 389.93H119.083V392.072H121.711V393.35H119.083V398.264C119.083 398.828 119.197 399.212 119.425 399.416C119.653 399.608 120.055 399.704 120.631 399.704H121.567V401H120.199ZM127.4 401.216C126.548 401.216 125.792 401.024 125.132 400.64C124.472 400.244 123.95 399.698 123.566 399.002C123.194 398.306 123.008 397.484 123.008 396.536C123.008 395.6 123.194 394.784 123.566 394.088C123.938 393.38 124.454 392.834 125.114 392.45C125.786 392.054 126.56 391.856 127.436 391.856C128.3 391.856 129.044 392.054 129.668 392.45C130.304 392.834 130.79 393.344 131.126 393.98C131.462 394.616 131.63 395.3 131.63 396.032C131.63 396.164 131.624 396.296 131.612 396.428C131.612 396.56 131.612 396.71 131.612 396.878H124.502C124.538 397.562 124.694 398.132 124.97 398.588C125.258 399.032 125.612 399.368 126.032 399.596C126.464 399.824 126.92 399.938 127.4 399.938C128.024 399.938 128.546 399.794 128.966 399.506C129.386 399.218 129.692 398.828 129.884 398.336H131.378C131.138 399.164 130.676 399.854 129.992 400.406C129.32 400.946 128.456 401.216 127.4 401.216ZM127.4 393.134C126.68 393.134 126.038 393.356 125.474 393.8C124.922 394.232 124.604 394.868 124.52 395.708H130.136C130.1 394.904 129.824 394.274 129.308 393.818C128.792 393.362 128.156 393.134 127.4 393.134ZM133.634 401V392.072H135.002L135.128 393.782C135.404 393.194 135.824 392.726 136.388 392.378C136.952 392.03 137.648 391.856 138.476 391.856V393.44H138.062C137.534 393.44 137.048 393.536 136.604 393.728C136.16 393.908 135.806 394.22 135.542 394.664C135.278 395.108 135.146 395.72 135.146 396.5V401H133.634ZM142.747 401L139.363 392.072H140.947L143.629 399.542L146.329 392.072H147.877L144.493 401H142.747ZM153.116 401.216C152.264 401.216 151.508 401.024 150.848 400.64C150.188 400.244 149.666 399.698 149.282 399.002C148.91 398.306 148.724 397.484 148.724 396.536C148.724 395.6 148.91 394.784 149.282 394.088C149.654 393.38 150.17 392.834 150.83 392.45C151.502 392.054 152.276 391.856 153.152 391.856C154.016 391.856 154.76 392.054 155.384 392.45C156.02 392.834 156.506 393.344 156.842 393.98C157.178 394.616 157.346 395.3 157.346 396.032C157.346 396.164 157.34 396.296 157.328 396.428C157.328 396.56 157.328 396.71 157.328 396.878H150.218C150.254 397.562 150.41 398.132 150.686 398.588C150.974 399.032 151.328 399.368 151.748 399.596C152.18 399.824 152.636 399.938 153.116 399.938C153.74 399.938 154.262 399.794 154.682 399.506C155.102 399.218 155.408 398.828 155.6 398.336H157.094C156.854 399.164 156.392 399.854 155.708 400.406C155.036 400.946 154.172 401.216 153.116 401.216ZM153.116 393.134C152.396 393.134 151.754 393.356 151.19 393.8C150.638 394.232 150.32 394.868 150.236 395.708H155.852C155.816 394.904 155.54 394.274 155.024 393.818C154.508 393.362 153.872 393.134 153.116 393.134ZM159.35 401V392.072H160.718L160.808 393.674C161.096 393.11 161.51 392.666 162.05 392.342C162.59 392.018 163.202 391.856 163.886 391.856C164.942 391.856 165.782 392.18 166.406 392.828C167.042 393.464 167.36 394.448 167.36 395.78V401H165.848V395.942C165.848 394.082 165.08 393.152 163.544 393.152C162.776 393.152 162.134 393.434 161.618 393.998C161.114 394.55 160.862 395.342 160.862 396.374V401H159.35ZM173.755 401.216C172.903 401.216 172.135 401.024 171.451 400.64C170.779 400.244 170.245 399.698 169.849 399.002C169.465 398.294 169.273 397.472 169.273 396.536C169.273 395.6 169.465 394.784 169.849 394.088C170.245 393.38 170.779 392.834 171.451 392.45C172.135 392.054 172.903 391.856 173.755 391.856C174.811 391.856 175.699 392.132 176.419 392.684C177.151 393.236 177.613 393.974 177.805 394.898H176.257C176.137 394.346 175.843 393.92 175.375 393.62C174.907 393.308 174.361 393.152 173.737 393.152C173.233 393.152 172.759 393.278 172.315 393.53C171.871 393.782 171.511 394.16 171.235 394.664C170.959 395.168 170.821 395.792 170.821 396.536C170.821 397.28 170.959 397.904 171.235 398.408C171.511 398.912 171.871 399.296 172.315 399.56C172.759 399.812 173.233 399.938 173.737 399.938C174.361 399.938 174.907 399.788 175.375 399.488C175.843 399.176 176.137 398.738 176.257 398.174H177.805C177.625 399.074 177.169 399.806 176.437 400.37C175.705 400.934 174.811 401.216 173.755 401.216ZM180.835 390.092C180.535 390.092 180.283 389.996 180.079 389.804C179.887 389.6 179.791 389.348 179.791 389.048C179.791 388.76 179.887 388.52 180.079 388.328C180.283 388.136 180.535 388.04 180.835 388.04C181.123 388.04 181.369 388.136 181.573 388.328C181.777 388.52 181.879 388.76 181.879 389.048C181.879 389.348 181.777 389.6 181.573 389.804C181.369 389.996 181.123 390.092 180.835 390.092ZM180.079 401V392.072H181.591V401H180.079ZM188.291 401.216C187.451 401.216 186.695 401.024 186.023 400.64C185.351 400.256 184.817 399.716 184.421 399.02C184.037 398.312 183.845 397.484 183.845 396.536C183.845 395.588 184.043 394.766 184.439 394.07C184.835 393.362 185.369 392.816 186.041 392.432C186.725 392.048 187.487 391.856 188.327 391.856C189.167 391.856 189.923 392.048 190.595 392.432C191.267 392.816 191.795 393.362 192.179 394.07C192.575 394.766 192.773 395.588 192.773 396.536C192.773 397.484 192.575 398.312 192.179 399.02C191.783 399.716 191.243 400.256 190.559 400.64C189.887 401.024 189.131 401.216 188.291 401.216ZM188.291 399.92C188.807 399.92 189.287 399.794 189.731 399.542C190.175 399.29 190.535 398.912 190.811 398.408C191.087 397.904 191.225 397.28 191.225 396.536C191.225 395.792 191.087 395.168 190.811 394.664C190.547 394.16 190.193 393.782 189.749 393.53C189.305 393.278 188.831 393.152 188.327 393.152C187.811 393.152 187.331 393.278 186.887 393.53C186.443 393.782 186.083 394.16 185.807 394.664C185.531 395.168 185.393 395.792 185.393 396.536C185.393 397.28 185.531 397.904 185.807 398.408C186.083 398.912 186.437 399.29 186.869 399.542C187.313 399.794 187.787 399.92 188.291 399.92ZM187.913 391.334V390.2L191.693 387.914V389.228L187.913 391.334ZM194.876 401V392.072H196.244L196.334 393.674C196.622 393.11 197.036 392.666 197.576 392.342C198.116 392.018 198.728 391.856 199.412 391.856C200.468 391.856 201.308 392.18 201.932 392.828C202.568 393.464 202.886 394.448 202.886 395.78V401H201.374V395.942C201.374 394.082 200.606 393.152 199.07 393.152C198.302 393.152 197.66 393.434 197.144 393.998C196.64 394.55 196.388 395.342 196.388 396.374V401H194.876ZM209.94 401V388.04H211.452V393.602C211.752 393.05 212.178 392.624 212.73 392.324C213.282 392.012 213.882 391.856 214.53 391.856C215.562 391.856 216.39 392.18 217.014 392.828C217.638 393.464 217.95 394.448 217.95 395.78V401H216.456V395.942C216.456 394.082 215.706 393.152 214.206 393.152C213.426 393.152 212.772 393.434 212.244 393.998C211.716 394.55 211.452 395.342 211.452 396.374V401H209.94ZM228.053 392.072V401H226.685L226.595 399.398C226.307 399.962 225.893 400.406 225.353 400.73C224.813 401.054 224.201 401.216 223.517 401.216C222.461 401.216 221.615 400.898 220.979 400.262C220.355 399.614 220.043 398.624 220.043 397.292V392.072H221.555V397.13C221.555 398.99 222.323 399.92 223.859 399.92C224.627 399.92 225.263 399.644 225.767 399.092C226.283 398.528 226.541 397.73 226.541 396.698V392.072H228.053ZM230.542 401V392.072H231.91L232.018 393.368C232.306 392.888 232.69 392.516 233.17 392.252C233.65 391.988 234.19 391.856 234.79 391.856C235.498 391.856 236.104 392 236.608 392.288C237.124 392.576 237.52 393.014 237.796 393.602C238.108 393.062 238.534 392.636 239.074 392.324C239.626 392.012 240.22 391.856 240.856 391.856C241.924 391.856 242.776 392.18 243.412 392.828C244.048 393.464 244.366 394.448 244.366 395.78V401H242.872V395.942C242.872 395.018 242.686 394.322 242.314 393.854C241.942 393.386 241.408 393.152 240.712 393.152C239.992 393.152 239.392 393.434 238.912 393.998C238.444 394.55 238.21 395.342 238.21 396.374V401H236.698V395.942C236.698 395.018 236.512 394.322 236.14 393.854C235.768 393.386 235.234 393.152 234.538 393.152C233.83 393.152 233.236 393.434 232.756 393.998C232.288 394.55 232.054 395.342 232.054 396.374V401H230.542ZM249.613 401.216C248.869 401.216 248.251 401.09 247.759 400.838C247.267 400.586 246.901 400.25 246.661 399.83C246.421 399.41 246.301 398.954 246.301 398.462C246.301 397.55 246.649 396.848 247.345 396.356C248.041 395.864 248.989 395.618 250.189 395.618H252.601V395.51C252.601 394.73 252.397 394.142 251.989 393.746C251.581 393.338 251.035 393.134 250.351 393.134C249.763 393.134 249.253 393.284 248.821 393.584C248.401 393.872 248.137 394.298 248.029 394.862H246.481C246.541 394.214 246.757 393.668 247.129 393.224C247.513 392.78 247.987 392.444 248.551 392.216C249.115 391.976 249.715 391.856 250.351 391.856C251.599 391.856 252.535 392.192 253.159 392.864C253.795 393.524 254.113 394.406 254.113 395.51V401H252.763L252.673 399.398C252.421 399.902 252.049 400.334 251.557 400.694C251.077 401.042 250.429 401.216 249.613 401.216ZM249.847 399.938C250.423 399.938 250.915 399.788 251.323 399.488C251.743 399.188 252.061 398.798 252.277 398.318C252.493 397.838 252.601 397.334 252.601 396.806V396.788H250.315C249.427 396.788 248.797 396.944 248.425 397.256C248.065 397.556 247.885 397.934 247.885 398.39C247.885 398.858 248.053 399.236 248.389 399.524C248.737 399.8 249.223 399.938 249.847 399.938ZM256.382 401V392.072H257.75L257.84 393.674C258.128 393.11 258.542 392.666 259.082 392.342C259.622 392.018 260.234 391.856 260.918 391.856C261.974 391.856 262.814 392.18 263.438 392.828C264.074 393.464 264.392 394.448 264.392 395.78V401H262.88V395.942C262.88 394.082 262.112 393.152 260.576 393.152C259.808 393.152 259.166 393.434 258.65 393.998C258.146 394.55 257.894 395.342 257.894 396.374V401H256.382ZM269.652 401.216C268.908 401.216 268.29 401.09 267.798 400.838C267.306 400.586 266.94 400.25 266.7 399.83C266.46 399.41 266.34 398.954 266.34 398.462C266.34 397.55 266.688 396.848 267.384 396.356C268.08 395.864 269.028 395.618 270.228 395.618H272.64V395.51C272.64 394.73 272.436 394.142 272.028 393.746C271.62 393.338 271.074 393.134 270.39 393.134C269.802 393.134 269.292 393.284 268.86 393.584C268.44 393.872 268.176 394.298 268.068 394.862H266.52C266.58 394.214 266.796 393.668 267.168 393.224C267.552 392.78 268.026 392.444 268.59 392.216C269.154 391.976 269.754 391.856 270.39 391.856C271.638 391.856 272.574 392.192 273.198 392.864C273.834 393.524 274.152 394.406 274.152 395.51V401H272.802L272.712 399.398C272.46 399.902 272.088 400.334 271.596 400.694C271.116 401.042 270.468 401.216 269.652 401.216ZM269.886 399.938C270.462 399.938 270.954 399.788 271.362 399.488C271.782 399.188 272.1 398.798 272.316 398.318C272.532 397.838 272.64 397.334 272.64 396.806V396.788H270.354C269.466 396.788 268.836 396.944 268.464 397.256C268.104 397.556 267.924 397.934 267.924 398.39C267.924 398.858 268.092 399.236 268.428 399.524C268.776 399.8 269.262 399.938 269.886 399.938Z" fill="black"/>
<path d="M134.761 519V506.4H142.555V507.642H136.273V512.034H142.015V513.258H136.273V517.758H142.555V519H134.761ZM148.251 519.216C147.183 519.216 146.295 518.946 145.587 518.406C144.879 517.866 144.465 517.134 144.345 516.21H145.893C145.989 516.678 146.235 517.086 146.631 517.434C147.039 517.77 147.585 517.938 148.269 517.938C148.905 517.938 149.373 517.806 149.673 517.542C149.973 517.266 150.123 516.942 150.123 516.57C150.123 516.03 149.925 515.67 149.529 515.49C149.145 515.31 148.599 515.148 147.891 515.004C147.411 514.908 146.931 514.77 146.451 514.59C145.971 514.41 145.569 514.158 145.245 513.834C144.921 513.498 144.759 513.06 144.759 512.52C144.759 511.74 145.047 511.104 145.623 510.612C146.211 510.108 147.003 509.856 147.999 509.856C148.947 509.856 149.721 510.096 150.321 510.576C150.933 511.044 151.287 511.716 151.383 512.592H149.889C149.829 512.136 149.631 511.782 149.295 511.53C148.971 511.266 148.533 511.134 147.981 511.134C147.441 511.134 147.021 511.248 146.721 511.476C146.433 511.704 146.289 512.004 146.289 512.376C146.289 512.736 146.475 513.018 146.847 513.222C147.231 513.426 147.747 513.6 148.395 513.744C148.947 513.864 149.469 514.014 149.961 514.194C150.465 514.362 150.873 514.62 151.185 514.968C151.509 515.304 151.671 515.796 151.671 516.444C151.683 517.248 151.377 517.914 150.753 518.442C150.141 518.958 149.307 519.216 148.251 519.216ZM157.935 519.216C157.083 519.216 156.315 519.024 155.631 518.64C154.959 518.244 154.425 517.698 154.029 517.002C153.645 516.294 153.453 515.472 153.453 514.536C153.453 513.6 153.645 512.784 154.029 512.088C154.425 511.38 154.959 510.834 155.631 510.45C156.315 510.054 157.083 509.856 157.935 509.856C158.991 509.856 159.879 510.132 160.599 510.684C161.331 511.236 161.793 511.974 161.985 512.898H160.437C160.317 512.346 160.023 511.92 159.555 511.62C159.087 511.308 158.541 511.152 157.917 511.152C157.413 511.152 156.939 511.278 156.495 511.53C156.051 511.782 155.691 512.16 155.415 512.664C155.139 513.168 155.001 513.792 155.001 514.536C155.001 515.28 155.139 515.904 155.415 516.408C155.691 516.912 156.051 517.296 156.495 517.56C156.939 517.812 157.413 517.938 157.917 517.938C158.541 517.938 159.087 517.788 159.555 517.488C160.023 517.176 160.317 516.738 160.437 516.174H161.985C161.805 517.074 161.349 517.806 160.617 518.37C159.885 518.934 158.991 519.216 157.935 519.216ZM167.066 519.216C166.322 519.216 165.704 519.09 165.212 518.838C164.72 518.586 164.354 518.25 164.114 517.83C163.874 517.41 163.754 516.954 163.754 516.462C163.754 515.55 164.102 514.848 164.798 514.356C165.494 513.864 166.442 513.618 167.642 513.618H170.054V513.51C170.054 512.73 169.85 512.142 169.442 511.746C169.034 511.338 168.488 511.134 167.804 511.134C167.216 511.134 166.706 511.284 166.274 511.584C165.854 511.872 165.59 512.298 165.482 512.862H163.934C163.994 512.214 164.21 511.668 164.582 511.224C164.966 510.78 165.44 510.444 166.004 510.216C166.568 509.976 167.168 509.856 167.804 509.856C169.052 509.856 169.988 510.192 170.612 510.864C171.248 511.524 171.566 512.406 171.566 513.51V519H170.216L170.126 517.398C169.874 517.902 169.502 518.334 169.01 518.694C168.53 519.042 167.882 519.216 167.066 519.216ZM167.3 517.938C167.876 517.938 168.368 517.788 168.776 517.488C169.196 517.188 169.514 516.798 169.73 516.318C169.946 515.838 170.054 515.334 170.054 514.806V514.788H167.768C166.88 514.788 166.25 514.944 165.878 515.256C165.518 515.556 165.338 515.934 165.338 516.39C165.338 516.858 165.506 517.236 165.842 517.524C166.19 517.8 166.676 517.938 167.3 517.938ZM173.835 519V506.04H175.347V519H173.835ZM180.795 519.216C180.051 519.216 179.433 519.09 178.941 518.838C178.449 518.586 178.083 518.25 177.843 517.83C177.603 517.41 177.483 516.954 177.483 516.462C177.483 515.55 177.831 514.848 178.527 514.356C179.223 513.864 180.171 513.618 181.371 513.618H183.783V513.51C183.783 512.73 183.579 512.142 183.171 511.746C182.763 511.338 182.217 511.134 181.533 511.134C180.945 511.134 180.435 511.284 180.003 511.584C179.583 511.872 179.319 512.298 179.211 512.862H177.663C177.723 512.214 177.939 511.668 178.311 511.224C178.695 510.78 179.169 510.444 179.733 510.216C180.297 509.976 180.897 509.856 181.533 509.856C182.781 509.856 183.717 510.192 184.341 510.864C184.977 511.524 185.295 512.406 185.295 513.51V519H183.945L183.855 517.398C183.603 517.902 183.231 518.334 182.739 518.694C182.259 519.042 181.611 519.216 180.795 519.216ZM181.029 517.938C181.605 517.938 182.097 517.788 182.505 517.488C182.925 517.188 183.243 516.798 183.459 516.318C183.675 515.838 183.783 515.334 183.783 514.806V514.788H181.497C180.609 514.788 179.979 514.944 179.607 515.256C179.247 515.556 179.067 515.934 179.067 516.39C179.067 516.858 179.235 517.236 179.571 517.524C179.919 517.8 180.405 517.938 181.029 517.938ZM192.333 519.216C191.601 519.216 190.947 519.066 190.371 518.766C189.807 518.466 189.375 518.046 189.075 517.506L188.931 519H187.563V506.04H189.075V511.548C189.363 511.116 189.771 510.726 190.299 510.378C190.839 510.03 191.523 509.856 192.351 509.856C193.239 509.856 194.013 510.06 194.673 510.468C195.333 510.876 195.843 511.434 196.203 512.142C196.575 512.85 196.761 513.654 196.761 514.554C196.761 515.454 196.575 516.258 196.203 516.966C195.843 517.662 195.327 518.214 194.655 518.622C193.995 519.018 193.221 519.216 192.333 519.216ZM192.171 517.902C192.771 517.902 193.299 517.764 193.755 517.488C194.211 517.2 194.571 516.804 194.835 516.3C195.099 515.796 195.231 515.208 195.231 514.536C195.231 513.864 195.099 513.276 194.835 512.772C194.571 512.268 194.211 511.878 193.755 511.602C193.299 511.314 192.771 511.17 192.171 511.17C191.571 511.17 191.043 511.314 190.587 511.602C190.131 511.878 189.771 512.268 189.507 512.772C189.243 513.276 189.111 513.864 189.111 514.536C189.111 515.208 189.243 515.796 189.507 516.3C189.771 516.804 190.131 517.2 190.587 517.488C191.043 517.764 191.571 517.902 192.171 517.902ZM199.784 508.092C199.484 508.092 199.232 507.996 199.028 507.804C198.836 507.6 198.74 507.348 198.74 507.048C198.74 506.76 198.836 506.52 199.028 506.328C199.232 506.136 199.484 506.04 199.784 506.04C200.072 506.04 200.318 506.136 200.522 506.328C200.726 506.52 200.828 506.76 200.828 507.048C200.828 507.348 200.726 507.6 200.522 507.804C200.318 507.996 200.072 508.092 199.784 508.092ZM199.028 519V510.072H200.54V519H199.028ZM203.173 519V506.04H204.685V519H203.173ZM208.081 508.092C207.781 508.092 207.529 507.996 207.325 507.804C207.133 507.6 207.037 507.348 207.037 507.048C207.037 506.76 207.133 506.52 207.325 506.328C207.529 506.136 207.781 506.04 208.081 506.04C208.369 506.04 208.615 506.136 208.819 506.328C209.023 506.52 209.125 506.76 209.125 507.048C209.125 507.348 209.023 507.6 208.819 507.804C208.615 507.996 208.369 508.092 208.081 508.092ZM207.325 519V510.072H208.837V519H207.325ZM215.52 519.216C214.632 519.216 213.852 519.012 213.18 518.604C212.52 518.196 212.004 517.638 211.632 516.93C211.272 516.222 211.092 515.418 211.092 514.518C211.092 513.618 211.278 512.82 211.65 512.124C212.022 511.416 212.538 510.864 213.198 510.468C213.858 510.06 214.638 509.856 215.538 509.856C216.27 509.856 216.918 510.006 217.482 510.306C218.046 510.606 218.484 511.026 218.796 511.566V506.04H220.308V519H218.94L218.796 517.524C218.508 517.956 218.094 518.346 217.554 518.694C217.014 519.042 216.336 519.216 215.52 519.216ZM215.682 517.902C216.282 517.902 216.81 517.764 217.266 517.488C217.734 517.2 218.094 516.804 218.346 516.3C218.61 515.796 218.742 515.208 218.742 514.536C218.742 513.864 218.61 513.276 218.346 512.772C218.094 512.268 217.734 511.878 217.266 511.602C216.81 511.314 216.282 511.17 215.682 511.17C215.094 511.17 214.566 511.314 214.098 511.602C213.642 511.878 213.282 512.268 213.018 512.772C212.766 513.276 212.64 513.864 212.64 514.536C212.64 515.208 212.766 515.796 213.018 516.3C213.282 516.804 213.642 517.2 214.098 517.488C214.566 517.764 215.094 517.902 215.682 517.902ZM225.742 519.216C224.998 519.216 224.38 519.09 223.888 518.838C223.396 518.586 223.03 518.25 222.79 517.83C222.55 517.41 222.43 516.954 222.43 516.462C222.43 515.55 222.778 514.848 223.474 514.356C224.17 513.864 225.118 513.618 226.318 513.618H228.73V513.51C228.73 512.73 228.526 512.142 228.118 511.746C227.71 511.338 227.164 511.134 226.48 511.134C225.892 511.134 225.382 511.284 224.95 511.584C224.53 511.872 224.266 512.298 224.158 512.862H222.61C222.67 512.214 222.886 511.668 223.258 511.224C223.642 510.78 224.116 510.444 224.68 510.216C225.244 509.976 225.844 509.856 226.48 509.856C227.728 509.856 228.664 510.192 229.288 510.864C229.924 511.524 230.242 512.406 230.242 513.51V519H228.892L228.802 517.398C228.55 517.902 228.178 518.334 227.686 518.694C227.206 519.042 226.558 519.216 225.742 519.216ZM225.976 517.938C226.552 517.938 227.044 517.788 227.452 517.488C227.872 517.188 228.19 516.798 228.406 516.318C228.622 515.838 228.73 515.334 228.73 514.806V514.788H226.444C225.556 514.788 224.926 514.944 224.554 515.256C224.194 515.556 224.014 515.934 224.014 516.39C224.014 516.858 224.182 517.236 224.518 517.524C224.866 517.8 225.352 517.938 225.976 517.938ZM236.561 519.216C235.673 519.216 234.893 519.012 234.221 518.604C233.561 518.196 233.045 517.638 232.673 516.93C232.313 516.222 232.133 515.418 232.133 514.518C232.133 513.618 232.319 512.82 232.691 512.124C233.063 511.416 233.579 510.864 234.239 510.468C234.899 510.06 235.679 509.856 236.579 509.856C237.311 509.856 237.959 510.006 238.523 510.306C239.087 510.606 239.525 511.026 239.837 511.566V506.04H241.349V519H239.981L239.837 517.524C239.549 517.956 239.135 518.346 238.595 518.694C238.055 519.042 237.377 519.216 236.561 519.216ZM236.723 517.902C237.323 517.902 237.851 517.764 238.307 517.488C238.775 517.2 239.135 516.804 239.387 516.3C239.651 515.796 239.783 515.208 239.783 514.536C239.783 513.864 239.651 513.276 239.387 512.772C239.135 512.268 238.775 511.878 238.307 511.602C237.851 511.314 237.323 511.17 236.723 511.17C236.135 511.17 235.607 511.314 235.139 511.602C234.683 511.878 234.323 512.268 234.059 512.772C233.807 513.276 233.681 513.864 233.681 514.536C233.681 515.208 233.807 515.796 234.059 516.3C234.323 516.804 234.683 517.2 235.139 517.488C235.607 517.764 236.135 517.902 236.723 517.902Z" fill="black"/>
<path d="M105.968 632V619.4H110.396C111.284 619.4 112.016 619.544 112.592 619.832C113.18 620.108 113.618 620.492 113.906 620.984C114.194 621.464 114.338 622.004 114.338 622.604C114.338 623.42 114.116 624.062 113.672 624.53C113.24 624.998 112.718 625.322 112.106 625.502C112.574 625.586 113 625.772 113.384 626.06C113.768 626.348 114.068 626.708 114.284 627.14C114.512 627.572 114.626 628.046 114.626 628.562C114.626 629.198 114.47 629.78 114.158 630.308C113.846 630.824 113.384 631.238 112.772 631.55C112.16 631.85 111.416 632 110.54 632H105.968ZM107.48 624.908H110.288C111.092 624.908 111.71 624.722 112.142 624.35C112.574 623.966 112.79 623.438 112.79 622.766C112.79 622.13 112.574 621.62 112.142 621.236C111.722 620.852 111.086 620.66 110.234 620.66H107.48V624.908ZM107.48 630.74H110.378C111.242 630.74 111.908 630.542 112.376 630.146C112.844 629.738 113.078 629.174 113.078 628.454C113.078 627.746 112.832 627.182 112.34 626.762C111.848 626.33 111.182 626.114 110.342 626.114H107.48V630.74ZM124.518 623.072V632H123.15L123.06 630.398C122.772 630.962 122.358 631.406 121.818 631.73C121.278 632.054 120.666 632.216 119.982 632.216C118.926 632.216 118.08 631.898 117.444 631.262C116.82 630.614 116.508 629.624 116.508 628.292V623.072H118.02V628.13C118.02 629.99 118.788 630.92 120.324 630.92C121.092 630.92 121.728 630.644 122.232 630.092C122.748 629.528 123.006 628.73 123.006 627.698V623.072H124.518ZM131.021 632.216C130.169 632.216 129.413 632.024 128.753 631.64C128.093 631.244 127.571 630.698 127.187 630.002C126.815 629.306 126.629 628.484 126.629 627.536C126.629 626.6 126.815 625.784 127.187 625.088C127.559 624.38 128.075 623.834 128.735 623.45C129.407 623.054 130.181 622.856 131.057 622.856C131.921 622.856 132.665 623.054 133.289 623.45C133.925 623.834 134.411 624.344 134.747 624.98C135.083 625.616 135.251 626.3 135.251 627.032C135.251 627.164 135.245 627.296 135.233 627.428C135.233 627.56 135.233 627.71 135.233 627.878H128.123C128.159 628.562 128.315 629.132 128.591 629.588C128.879 630.032 129.233 630.368 129.653 630.596C130.085 630.824 130.541 630.938 131.021 630.938C131.645 630.938 132.167 630.794 132.587 630.506C133.007 630.218 133.313 629.828 133.505 629.336H134.999C134.759 630.164 134.297 630.854 133.613 631.406C132.941 631.946 132.077 632.216 131.021 632.216ZM131.021 624.134C130.301 624.134 129.659 624.356 129.095 624.8C128.543 625.232 128.225 625.868 128.141 626.708H133.757C133.721 625.904 133.445 625.274 132.929 624.818C132.413 624.362 131.777 624.134 131.021 624.134ZM137.255 632V623.072H138.623L138.713 624.674C139.001 624.11 139.415 623.666 139.955 623.342C140.495 623.018 141.107 622.856 141.791 622.856C142.847 622.856 143.687 623.18 144.311 623.828C144.947 624.464 145.265 625.448 145.265 626.78V632H143.753V626.942C143.753 625.082 142.985 624.152 141.449 624.152C140.681 624.152 140.039 624.434 139.523 624.998C139.019 625.55 138.767 626.342 138.767 627.374V632H137.255ZM150.525 632.216C149.781 632.216 149.163 632.09 148.671 631.838C148.179 631.586 147.813 631.25 147.573 630.83C147.333 630.41 147.213 629.954 147.213 629.462C147.213 628.55 147.561 627.848 148.257 627.356C148.953 626.864 149.901 626.618 151.101 626.618H153.513V626.51C153.513 625.73 153.309 625.142 152.901 624.746C152.493 624.338 151.947 624.134 151.263 624.134C150.675 624.134 150.165 624.284 149.733 624.584C149.313 624.872 149.049 625.298 148.941 625.862H147.393C147.453 625.214 147.669 624.668 148.041 624.224C148.425 623.78 148.899 623.444 149.463 623.216C150.027 622.976 150.627 622.856 151.263 622.856C152.511 622.856 153.447 623.192 154.071 623.864C154.707 624.524 155.025 625.406 155.025 626.51V632H153.675L153.585 630.398C153.333 630.902 152.961 631.334 152.469 631.694C151.989 632.042 151.341 632.216 150.525 632.216ZM150.759 630.938C151.335 630.938 151.827 630.788 152.235 630.488C152.655 630.188 152.973 629.798 153.189 629.318C153.405 628.838 153.513 628.334 153.513 627.806V627.788H151.227C150.339 627.788 149.709 627.944 149.337 628.256C148.977 628.556 148.797 628.934 148.797 629.39C148.797 629.858 148.965 630.236 149.301 630.524C149.649 630.8 150.135 630.938 150.759 630.938ZM166.071 632.216C165.219 632.216 164.463 632.024 163.803 631.64C163.143 631.244 162.621 630.698 162.237 630.002C161.865 629.306 161.679 628.484 161.679 627.536C161.679 626.6 161.865 625.784 162.237 625.088C162.609 624.38 163.125 623.834 163.785 623.45C164.457 623.054 165.231 622.856 166.107 622.856C166.971 622.856 167.715 623.054 168.339 623.45C168.975 623.834 169.461 624.344 169.797 624.98C170.133 625.616 170.301 626.3 170.301 627.032C170.301 627.164 170.295 627.296 170.283 627.428C170.283 627.56 170.283 627.71 170.283 627.878H163.173C163.209 628.562 163.365 629.132 163.641 629.588C163.929 630.032 164.283 630.368 164.703 630.596C165.135 630.824 165.591 630.938 166.071 630.938C166.695 630.938 167.217 630.794 167.637 630.506C168.057 630.218 168.363 629.828 168.555 629.336H170.049C169.809 630.164 169.347 630.854 168.663 631.406C167.991 631.946 167.127 632.216 166.071 632.216ZM166.071 624.134C165.351 624.134 164.709 624.356 164.145 624.8C163.593 625.232 163.275 625.868 163.191 626.708H168.807C168.771 625.904 168.495 625.274 167.979 624.818C167.463 624.362 166.827 624.134 166.071 624.134ZM170.984 632L174.08 627.536L170.984 623.072H172.622L175.124 626.762L177.644 623.072H179.264L176.168 627.536L179.264 632H177.644L175.124 628.31L172.622 632H170.984ZM180.848 635.96V623.072H182.216L182.36 624.548C182.648 624.116 183.056 623.726 183.584 623.378C184.124 623.03 184.808 622.856 185.636 622.856C186.524 622.856 187.298 623.06 187.958 623.468C188.618 623.876 189.128 624.434 189.488 625.142C189.86 625.85 190.046 626.654 190.046 627.554C190.046 628.454 189.86 629.258 189.488 629.966C189.128 630.662 188.612 631.214 187.94 631.622C187.28 632.018 186.506 632.216 185.618 632.216C184.886 632.216 184.232 632.066 183.656 631.766C183.092 631.466 182.66 631.046 182.36 630.506V635.96H180.848ZM185.456 630.902C186.056 630.902 186.584 630.764 187.04 630.488C187.496 630.2 187.856 629.804 188.12 629.3C188.384 628.796 188.516 628.208 188.516 627.536C188.516 626.864 188.384 626.276 188.12 625.772C187.856 625.268 187.496 624.878 187.04 624.602C186.584 624.314 186.056 624.17 185.456 624.17C184.856 624.17 184.328 624.314 183.872 624.602C183.416 624.878 183.056 625.268 182.792 625.772C182.528 626.276 182.396 626.864 182.396 627.536C182.396 628.208 182.528 628.796 182.792 629.3C183.056 629.804 183.416 630.2 183.872 630.488C184.328 630.764 184.856 630.902 185.456 630.902ZM196.165 632.216C195.313 632.216 194.557 632.024 193.897 631.64C193.237 631.244 192.715 630.698 192.331 630.002C191.959 629.306 191.773 628.484 191.773 627.536C191.773 626.6 191.959 625.784 192.331 625.088C192.703 624.38 193.219 623.834 193.879 623.45C194.551 623.054 195.325 622.856 196.201 622.856C197.065 622.856 197.809 623.054 198.433 623.45C199.069 623.834 199.555 624.344 199.891 624.98C200.227 625.616 200.395 626.3 200.395 627.032C200.395 627.164 200.389 627.296 200.377 627.428C200.377 627.56 200.377 627.71 200.377 627.878H193.267C193.303 628.562 193.459 629.132 193.735 629.588C194.023 630.032 194.377 630.368 194.797 630.596C195.229 630.824 195.685 630.938 196.165 630.938C196.789 630.938 197.311 630.794 197.731 630.506C198.151 630.218 198.457 629.828 198.649 629.336H200.143C199.903 630.164 199.441 630.854 198.757 631.406C198.085 631.946 197.221 632.216 196.165 632.216ZM196.165 624.134C195.445 624.134 194.803 624.356 194.239 624.8C193.687 625.232 193.369 625.868 193.285 626.708H198.901C198.865 625.904 198.589 625.274 198.073 624.818C197.557 624.362 196.921 624.134 196.165 624.134ZM202.399 632V623.072H203.767L203.893 624.782C204.169 624.194 204.589 623.726 205.153 623.378C205.717 623.03 206.413 622.856 207.241 622.856V624.44H206.827C206.299 624.44 205.813 624.536 205.369 624.728C204.925 624.908 204.571 625.22 204.307 625.664C204.043 626.108 203.911 626.72 203.911 627.5V632H202.399ZM209.856 621.092C209.556 621.092 209.304 620.996 209.1 620.804C208.908 620.6 208.812 620.348 208.812 620.048C208.812 619.76 208.908 619.52 209.1 619.328C209.304 619.136 209.556 619.04 209.856 619.04C210.144 619.04 210.39 619.136 210.594 619.328C210.798 619.52 210.9 619.76 210.9 620.048C210.9 620.348 210.798 620.6 210.594 620.804C210.39 620.996 210.144 621.092 209.856 621.092ZM209.1 632V623.072H210.612V632H209.1ZM217.259 632.216C216.407 632.216 215.651 632.024 214.991 631.64C214.331 631.244 213.809 630.698 213.425 630.002C213.053 629.306 212.867 628.484 212.867 627.536C212.867 626.6 213.053 625.784 213.425 625.088C213.797 624.38 214.313 623.834 214.973 623.45C215.645 623.054 216.419 622.856 217.295 622.856C218.159 622.856 218.903 623.054 219.527 623.45C220.163 623.834 220.649 624.344 220.985 624.98C221.321 625.616 221.489 626.3 221.489 627.032C221.489 627.164 221.483 627.296 221.471 627.428C221.471 627.56 221.471 627.71 221.471 627.878H214.361C214.397 628.562 214.553 629.132 214.829 629.588C215.117 630.032 215.471 630.368 215.891 630.596C216.323 630.824 216.779 630.938 217.259 630.938C217.883 630.938 218.405 630.794 218.825 630.506C219.245 630.218 219.551 629.828 219.743 629.336H221.237C220.997 630.164 220.535 630.854 219.851 631.406C219.179 631.946 218.315 632.216 217.259 632.216ZM217.259 624.134C216.539 624.134 215.897 624.356 215.333 624.8C214.781 625.232 214.463 625.868 214.379 626.708H219.995C219.959 625.904 219.683 625.274 219.167 624.818C218.651 624.362 218.015 624.134 217.259 624.134ZM223.493 632V623.072H224.861L224.951 624.674C225.239 624.11 225.653 623.666 226.193 623.342C226.733 623.018 227.345 622.856 228.029 622.856C229.085 622.856 229.925 623.18 230.549 623.828C231.185 624.464 231.503 625.448 231.503 626.78V632H229.991V626.942C229.991 625.082 229.223 624.152 227.687 624.152C226.919 624.152 226.277 624.434 225.761 624.998C225.257 625.55 225.005 626.342 225.005 627.374V632H223.493ZM237.898 632.216C237.046 632.216 236.278 632.024 235.594 631.64C234.922 631.244 234.388 630.698 233.992 630.002C233.608 629.294 233.416 628.472 233.416 627.536C233.416 626.6 233.608 625.784 233.992 625.088C234.388 624.38 234.922 623.834 235.594 623.45C236.278 623.054 237.046 622.856 237.898 622.856C238.954 622.856 239.842 623.132 240.562 623.684C241.294 624.236 241.756 624.974 241.948 625.898H240.4C240.28 625.346 239.986 624.92 239.518 624.62C239.05 624.308 238.504 624.152 237.88 624.152C237.376 624.152 236.902 624.278 236.458 624.53C236.014 624.782 235.654 625.16 235.378 625.664C235.102 626.168 234.964 626.792 234.964 627.536C234.964 628.28 235.102 628.904 235.378 629.408C235.654 629.912 236.014 630.296 236.458 630.56C236.902 630.812 237.376 630.938 237.88 630.938C238.504 630.938 239.05 630.788 239.518 630.488C239.986 630.176 240.28 629.738 240.4 629.174H241.948C241.768 630.074 241.312 630.806 240.58 631.37C239.848 631.934 238.954 632.216 237.898 632.216ZM244.977 621.092C244.677 621.092 244.425 620.996 244.221 620.804C244.029 620.6 243.933 620.348 243.933 620.048C243.933 619.76 244.029 619.52 244.221 619.328C244.425 619.136 244.677 619.04 244.977 619.04C245.265 619.04 245.511 619.136 245.715 619.328C245.919 619.52 246.021 619.76 246.021 620.048C246.021 620.348 245.919 620.6 245.715 620.804C245.511 620.996 245.265 621.092 244.977 621.092ZM244.221 632V623.072H245.733V632H244.221ZM251.336 632.216C250.592 632.216 249.974 632.09 249.482 631.838C248.99 631.586 248.624 631.25 248.384 630.83C248.144 630.41 248.024 629.954 248.024 629.462C248.024 628.55 248.372 627.848 249.068 627.356C249.764 626.864 250.712 626.618 251.912 626.618H254.324V626.51C254.324 625.73 254.12 625.142 253.712 624.746C253.304 624.338 252.758 624.134 252.074 624.134C251.486 624.134 250.976 624.284 250.544 624.584C250.124 624.872 249.86 625.298 249.752 625.862H248.204C248.264 625.214 248.48 624.668 248.852 624.224C249.236 623.78 249.71 623.444 250.274 623.216C250.838 622.976 251.438 622.856 252.074 622.856C253.322 622.856 254.258 623.192 254.882 623.864C255.518 624.524 255.836 625.406 255.836 626.51V632H254.486L254.396 630.398C254.144 630.902 253.772 631.334 253.28 631.694C252.8 632.042 252.152 632.216 251.336 632.216ZM251.57 630.938C252.146 630.938 252.638 630.788 253.046 630.488C253.466 630.188 253.784 629.798 254 629.318C254.216 628.838 254.324 628.334 254.324 627.806V627.788H252.038C251.15 627.788 250.52 627.944 250.148 628.256C249.788 628.556 249.608 628.934 249.608 629.39C249.608 629.858 249.776 630.236 250.112 630.524C250.46 630.8 250.946 630.938 251.57 630.938ZM265.838 632.216C265.094 632.216 264.476 632.09 263.984 631.838C263.492 631.586 263.126 631.25 262.886 630.83C262.646 630.41 262.526 629.954 262.526 629.462C262.526 628.55 262.874 627.848 263.57 627.356C264.266 626.864 265.214 626.618 266.414 626.618H268.826V626.51C268.826 625.73 268.622 625.142 268.214 624.746C267.806 624.338 267.26 624.134 266.576 624.134C265.988 624.134 265.478 624.284 265.046 624.584C264.626 624.872 264.362 625.298 264.254 625.862H262.706C262.766 625.214 262.982 624.668 263.354 624.224C263.738 623.78 264.212 623.444 264.776 623.216C265.34 622.976 265.94 622.856 266.576 622.856C267.824 622.856 268.76 623.192 269.384 623.864C270.02 624.524 270.338 625.406 270.338 626.51V632H268.988L268.898 630.398C268.646 630.902 268.274 631.334 267.782 631.694C267.302 632.042 266.654 632.216 265.838 632.216ZM266.072 630.938C266.648 630.938 267.14 630.788 267.548 630.488C267.968 630.188 268.286 629.798 268.502 629.318C268.718 628.838 268.826 628.334 268.826 627.806V627.788H266.54C265.652 627.788 265.022 627.944 264.65 628.256C264.29 628.556 264.11 628.934 264.11 629.39C264.11 629.858 264.278 630.236 264.614 630.524C264.962 630.8 265.448 630.938 266.072 630.938ZM127.191 655V646.072H128.559L128.649 647.674C128.937 647.11 129.351 646.666 129.891 646.342C130.431 646.018 131.043 645.856 131.727 645.856C132.783 645.856 133.623 646.18 134.247 646.828C134.883 647.464 135.201 648.448 135.201 649.78V655H133.689V649.942C133.689 648.082 132.921 647.152 131.385 647.152C130.617 647.152 129.975 647.434 129.459 647.998C128.955 648.55 128.703 649.342 128.703 650.374V655H127.191ZM145.304 646.072V655H143.936L143.846 653.398C143.558 653.962 143.144 654.406 142.604 654.73C142.064 655.054 141.452 655.216 140.768 655.216C139.712 655.216 138.866 654.898 138.23 654.262C137.606 653.614 137.294 652.624 137.294 651.292V646.072H138.806V651.13C138.806 652.99 139.574 653.92 141.11 653.92C141.878 653.92 142.514 653.644 143.018 653.092C143.534 652.528 143.792 651.73 143.792 650.698V646.072H145.304ZM151.807 655.216C150.955 655.216 150.199 655.024 149.539 654.64C148.879 654.244 148.357 653.698 147.973 653.002C147.601 652.306 147.415 651.484 147.415 650.536C147.415 649.6 147.601 648.784 147.973 648.088C148.345 647.38 148.861 646.834 149.521 646.45C150.193 646.054 150.967 645.856 151.843 645.856C152.707 645.856 153.451 646.054 154.075 646.45C154.711 646.834 155.197 647.344 155.533 647.98C155.869 648.616 156.037 649.3 156.037 650.032C156.037 650.164 156.031 650.296 156.019 650.428C156.019 650.56 156.019 650.71 156.019 650.878H148.909C148.945 651.562 149.101 652.132 149.377 652.588C149.665 653.032 150.019 653.368 150.439 653.596C150.871 653.824 151.327 653.938 151.807 653.938C152.431 653.938 152.953 653.794 153.373 653.506C153.793 653.218 154.099 652.828 154.291 652.336H155.785C155.545 653.164 155.083 653.854 154.399 654.406C153.727 654.946 152.863 655.216 151.807 655.216ZM151.807 647.134C151.087 647.134 150.445 647.356 149.881 647.8C149.329 648.232 149.011 648.868 148.927 649.708H154.543C154.507 648.904 154.231 648.274 153.715 647.818C153.199 647.362 152.563 647.134 151.807 647.134ZM161.461 655.216C160.393 655.216 159.505 654.946 158.797 654.406C158.089 653.866 157.675 653.134 157.555 652.21H159.103C159.199 652.678 159.445 653.086 159.841 653.434C160.249 653.77 160.795 653.938 161.479 653.938C162.115 653.938 162.583 653.806 162.883 653.542C163.183 653.266 163.333 652.942 163.333 652.57C163.333 652.03 163.135 651.67 162.739 651.49C162.355 651.31 161.809 651.148 161.101 651.004C160.621 650.908 160.141 650.77 159.661 650.59C159.181 650.41 158.779 650.158 158.455 649.834C158.131 649.498 157.969 649.06 157.969 648.52C157.969 647.74 158.257 647.104 158.833 646.612C159.421 646.108 160.213 645.856 161.209 645.856C162.157 645.856 162.931 646.096 163.531 646.576C164.143 647.044 164.497 647.716 164.593 648.592H163.099C163.039 648.136 162.841 647.782 162.505 647.53C162.181 647.266 161.743 647.134 161.191 647.134C160.651 647.134 160.231 647.248 159.931 647.476C159.643 647.704 159.499 648.004 159.499 648.376C159.499 648.736 159.685 649.018 160.057 649.222C160.441 649.426 160.957 649.6 161.605 649.744C162.157 649.864 162.679 650.014 163.171 650.194C163.675 650.362 164.083 650.62 164.395 650.968C164.719 651.304 164.881 651.796 164.881 652.444C164.893 653.248 164.587 653.914 163.963 654.442C163.351 654.958 162.517 655.216 161.461 655.216ZM170.165 655C169.349 655 168.707 654.802 168.239 654.406C167.771 654.01 167.537 653.296 167.537 652.264V647.35H165.989V646.072H167.537L167.735 643.93H169.049V646.072H171.677V647.35H169.049V652.264C169.049 652.828 169.163 653.212 169.391 653.416C169.619 653.608 170.021 653.704 170.597 653.704H171.533V655H170.165ZM173.597 655V646.072H174.965L175.091 647.782C175.367 647.194 175.787 646.726 176.351 646.378C176.915 646.03 177.611 645.856 178.439 645.856V647.44H178.025C177.497 647.44 177.011 647.536 176.567 647.728C176.123 647.908 175.769 648.22 175.505 648.664C175.241 649.108 175.109 649.72 175.109 650.5V655H173.597ZM183.871 655.216C183.031 655.216 182.275 655.024 181.603 654.64C180.931 654.256 180.397 653.716 180.001 653.02C179.617 652.312 179.425 651.484 179.425 650.536C179.425 649.588 179.623 648.766 180.019 648.07C180.415 647.362 180.949 646.816 181.621 646.432C182.305 646.048 183.067 645.856 183.907 645.856C184.747 645.856 185.503 646.048 186.175 646.432C186.847 646.816 187.375 647.362 187.759 648.07C188.155 648.766 188.353 649.588 188.353 650.536C188.353 651.484 188.155 652.312 187.759 653.02C187.363 653.716 186.823 654.256 186.139 654.64C185.467 655.024 184.711 655.216 183.871 655.216ZM183.871 653.92C184.387 653.92 184.867 653.794 185.311 653.542C185.755 653.29 186.115 652.912 186.391 652.408C186.667 651.904 186.805 651.28 186.805 650.536C186.805 649.792 186.667 649.168 186.391 648.664C186.127 648.16 185.773 647.782 185.329 647.53C184.885 647.278 184.411 647.152 183.907 647.152C183.391 647.152 182.911 647.278 182.467 647.53C182.023 647.782 181.663 648.16 181.387 648.664C181.111 649.168 180.973 649.792 180.973 650.536C180.973 651.28 181.111 651.904 181.387 652.408C181.663 652.912 182.017 653.29 182.449 653.542C182.893 653.794 183.367 653.92 183.871 653.92ZM199.323 655.216C198.471 655.216 197.703 655.024 197.019 654.64C196.347 654.244 195.813 653.698 195.417 653.002C195.033 652.294 194.841 651.472 194.841 650.536C194.841 649.6 195.033 648.784 195.417 648.088C195.813 647.38 196.347 646.834 197.019 646.45C197.703 646.054 198.471 645.856 199.323 645.856C200.379 645.856 201.267 646.132 201.987 646.684C202.719 647.236 203.181 647.974 203.373 648.898H201.825C201.705 648.346 201.411 647.92 200.943 647.62C200.475 647.308 199.929 647.152 199.305 647.152C198.801 647.152 198.327 647.278 197.883 647.53C197.439 647.782 197.079 648.16 196.803 648.664C196.527 649.168 196.389 649.792 196.389 650.536C196.389 651.28 196.527 651.904 196.803 652.408C197.079 652.912 197.439 653.296 197.883 653.56C198.327 653.812 198.801 653.938 199.305 653.938C199.929 653.938 200.475 653.788 200.943 653.488C201.411 653.176 201.705 652.738 201.825 652.174H203.373C203.193 653.074 202.737 653.806 202.005 654.37C201.273 654.934 200.379 655.216 199.323 655.216ZM205.484 655V642.04H206.996V655H205.484ZM210.392 644.092C210.092 644.092 209.84 643.996 209.636 643.804C209.444 643.6 209.348 643.348 209.348 643.048C209.348 642.76 209.444 642.52 209.636 642.328C209.84 642.136 210.092 642.04 210.392 642.04C210.68 642.04 210.926 642.136 211.13 642.328C211.334 642.52 211.436 642.76 211.436 643.048C211.436 643.348 211.334 643.6 211.13 643.804C210.926 643.996 210.68 644.092 210.392 644.092ZM209.636 655V646.072H211.148V655H209.636ZM217.795 655.216C216.943 655.216 216.187 655.024 215.527 654.64C214.867 654.244 214.345 653.698 213.961 653.002C213.589 652.306 213.403 651.484 213.403 650.536C213.403 649.6 213.589 648.784 213.961 648.088C214.333 647.38 214.849 646.834 215.509 646.45C216.181 646.054 216.955 645.856 217.831 645.856C218.695 645.856 219.439 646.054 220.063 646.45C220.699 646.834 221.185 647.344 221.521 647.98C221.857 648.616 222.025 649.3 222.025 650.032C222.025 650.164 222.019 650.296 222.007 650.428C222.007 650.56 222.007 650.71 222.007 650.878H214.897C214.933 651.562 215.089 652.132 215.365 652.588C215.653 653.032 216.007 653.368 216.427 653.596C216.859 653.824 217.315 653.938 217.795 653.938C218.419 653.938 218.941 653.794 219.361 653.506C219.781 653.218 220.087 652.828 220.279 652.336H221.773C221.533 653.164 221.071 653.854 220.387 654.406C219.715 654.946 218.851 655.216 217.795 655.216ZM217.795 647.134C217.075 647.134 216.433 647.356 215.869 647.8C215.317 648.232 214.999 648.868 214.915 649.708H220.531C220.495 648.904 220.219 648.274 219.703 647.818C219.187 647.362 218.551 647.134 217.795 647.134ZM224.029 655V646.072H225.397L225.487 647.674C225.775 647.11 226.189 646.666 226.729 646.342C227.269 646.018 227.881 645.856 228.565 645.856C229.621 645.856 230.461 646.18 231.085 646.828C231.721 647.464 232.039 648.448 232.039 649.78V655H230.527V649.942C230.527 648.082 229.759 647.152 228.223 647.152C227.455 647.152 226.813 647.434 226.297 647.998C225.793 648.55 225.541 649.342 225.541 650.374V655H224.029ZM237.858 655C237.042 655 236.4 654.802 235.932 654.406C235.464 654.01 235.23 653.296 235.23 652.264V647.35H233.682V646.072H235.23L235.428 643.93H236.742V646.072H239.37V647.35H236.742V652.264C236.742 652.828 236.856 653.212 237.084 653.416C237.312 653.608 237.714 653.704 238.29 653.704H239.226V655H237.858ZM245.059 655.216C244.207 655.216 243.451 655.024 242.791 654.64C242.131 654.244 241.609 653.698 241.225 653.002C240.853 652.306 240.667 651.484 240.667 650.536C240.667 649.6 240.853 648.784 241.225 648.088C241.597 647.38 242.113 646.834 242.773 646.45C243.445 646.054 244.219 645.856 245.095 645.856C245.959 645.856 246.703 646.054 247.327 646.45C247.963 646.834 248.449 647.344 248.785 647.98C249.121 648.616 249.289 649.3 249.289 650.032C249.289 650.164 249.283 650.296 249.271 650.428C249.271 650.56 249.271 650.71 249.271 650.878H242.161C242.197 651.562 242.353 652.132 242.629 652.588C242.917 653.032 243.271 653.368 243.691 653.596C244.123 653.824 244.579 653.938 245.059 653.938C245.683 653.938 246.205 653.794 246.625 653.506C247.045 653.218 247.351 652.828 247.543 652.336H249.037C248.797 653.164 248.335 653.854 247.651 654.406C246.979 654.946 246.115 655.216 245.059 655.216ZM245.059 647.134C244.339 647.134 243.697 647.356 243.133 647.8C242.581 648.232 242.263 648.868 242.179 649.708H247.795C247.759 648.904 247.483 648.274 246.967 647.818C246.451 647.362 245.815 647.134 245.059 647.134Z" fill="black"/>
<ellipse cx="191" cy="582.88" rx="17" ry="17.8801" fill="#0099FF"/>
<path d="M188.451 587.068L184.881 583.238L183.691 584.515L188.451 589.621L198.651 578.679L197.461 577.402L188.451 587.068Z" fill="white"/>
<g clip-path="url(#clip0)">
<path d="M188.499 331.813C192.887 331.813 196.444 328.277 196.444 323.916C196.444 319.555 192.887 316.019 188.499 316.019C184.112 316.019 180.555 319.555 180.555 323.916C180.555 328.277 184.112 331.813 188.499 331.813Z" fill="#0099FF"/>
<path d="M188.5 333.594C179.932 333.594 173 340.484 173 349H204C204 340.484 197.068 333.594 188.5 333.594Z" fill="#0099FF"/>
<path d="M199.847 319.794C198.232 315.053 193.727 311.667 188.457 311.667C183.187 311.667 178.683 315.053 177.068 319.794C175.453 320.302 174.348 321.825 174.348 323.603C174.348 325.804 176.133 327.667 178.428 327.667V321.571C179.278 316.915 183.442 313.36 188.457 313.36C193.472 313.36 197.552 316.915 198.572 321.571V327.667C200.782 327.667 202.652 325.889 202.652 323.603C202.567 321.825 201.377 320.386 199.847 319.794Z" fill="#3E70D9"/>
</g>
<rect x="169.863" y="452.726" width="2.90196" height="36.2745" fill="#0099FF"/>
<rect x="206.139" y="486.098" width="2.90196" height="36.2745" transform="rotate(90 206.139 486.098)" fill="#0099FF"/>
<path d="M194.047 461.069L197.508 464.53L190.132 471.906L184.086 465.86L170.227 480.294L170.952 483.831L184.086 470.137L190.132 476.183L199.654 466.676L203.115 470.137V461.069H194.047Z" fill="#0099FF"/>
<ellipse cx="188.127" cy="189.093" rx="17.3515" ry="17.0112" fill="#0099FF"/>
<path d="M186.045 183.187H188.316V190.187L194.374 193.346L193.238 194.986L186.045 191.186V183.187Z" fill="white"/>
<rect x="200.299" y="170" width="11.1049" height="3.47029" transform="rotate(45 200.299 170)" fill="#0099FF"/>
<rect x="178.307" y="172.454" width="11.1049" height="3.47029" transform="rotate(135 178.307 172.454)" fill="#0099FF"/>
<defs>
<clipPath id="clip0">
<rect width="31" height="36" fill="white" transform="translate(173 311)"/>
</clipPath>
</defs>
</svg>
