<svg width="718" height="711" viewBox="0 0 718 711" fill="none" xmlns="http://www.w3.org/2000/svg">
<rect width="720" height="711" fill="#0099FF"/>
<path d="M720 711L139 711L139 581C139 260.123 399.123 3.07004e-05 720 6.10352e-05L720 711Z" fill="#30ACFF"/>
<path d="M144.36 304.224V299.24H154.944V289.328H160.096V299.24H170.68V304.224H160.096V314.192H154.944V304.224H144.36ZM177.223 318V313.744C179.762 311.728 182.189 309.693 184.503 307.64C186.818 305.587 188.871 303.571 190.663 301.592C192.493 299.576 193.93 297.616 194.975 295.712C196.021 293.771 196.543 291.904 196.543 290.112C196.543 288.917 196.338 287.797 195.927 286.752C195.517 285.669 194.845 284.811 193.911 284.176C192.978 283.504 191.727 283.168 190.159 283.168C187.807 283.168 186.034 283.915 184.839 285.408C183.682 286.901 183.122 288.693 183.159 290.784H177.391C177.429 288.021 178.007 285.707 179.127 283.84C180.285 281.973 181.815 280.555 183.719 279.584C185.661 278.613 187.845 278.128 190.271 278.128C193.967 278.128 196.917 279.173 199.119 281.264C201.359 283.317 202.479 286.192 202.479 289.888C202.479 292.091 201.938 294.275 200.855 296.44C199.81 298.605 198.429 300.696 196.711 302.712C195.031 304.691 193.221 306.557 191.279 308.312C189.338 310.067 187.49 311.653 185.735 313.072H203.655V318H177.223ZM222.665 278.128C225.539 278.128 227.966 278.669 229.945 279.752C231.923 280.835 233.51 282.272 234.705 284.064C235.937 285.856 236.814 287.872 237.337 290.112C237.859 292.352 238.121 294.648 238.121 297C238.121 301.331 237.505 305.12 236.273 308.368C235.078 311.616 233.342 314.155 231.065 315.984C228.787 317.776 226.025 318.672 222.777 318.672C220.201 318.672 217.998 318.168 216.169 317.16C214.339 316.152 212.902 314.808 211.857 313.128C210.849 311.448 210.233 309.619 210.009 307.64H215.553C215.889 309.581 216.691 311.075 217.961 312.12C219.23 313.165 220.854 313.688 222.833 313.688C225.558 313.688 227.798 312.419 229.553 309.88C231.345 307.304 232.297 303.365 232.409 298.064C231.513 299.707 230.113 301.107 228.209 302.264C226.342 303.421 224.177 304 221.713 304C219.51 304 217.438 303.477 215.497 302.432C213.593 301.387 212.025 299.931 210.793 298.064C209.598 296.16 209.001 293.92 209.001 291.344C209.001 289.067 209.561 286.92 210.681 284.904C211.801 282.888 213.369 281.264 215.385 280.032C217.438 278.763 219.865 278.128 222.665 278.128ZM223.001 283.28C221.433 283.28 220.033 283.616 218.801 284.288C217.569 284.96 216.598 285.893 215.889 287.088C215.179 288.245 214.825 289.571 214.825 291.064C214.825 293.453 215.59 295.357 217.121 296.776C218.689 298.195 220.667 298.904 223.057 298.904C224.625 298.904 226.025 298.549 227.257 297.84C228.526 297.131 229.515 296.197 230.225 295.04C230.934 293.845 231.289 292.539 231.289 291.12C231.289 289.589 230.915 288.245 230.169 287.088C229.459 285.893 228.47 284.96 227.201 284.288C225.969 283.616 224.569 283.28 223.001 283.28ZM256.833 318.672C254.294 318.672 251.979 318.224 249.889 317.328C247.835 316.395 246.193 314.995 244.961 313.128C243.729 311.261 243.075 308.928 243.001 306.128H248.881C248.955 308.219 249.665 309.992 251.009 311.448C252.39 312.867 254.331 313.576 256.833 313.576C259.222 313.576 261.051 312.923 262.321 311.616C263.59 310.272 264.225 308.611 264.225 306.632C264.225 304.243 263.366 302.469 261.649 301.312C259.969 300.155 257.897 299.576 255.433 299.576H252.521V294.648H255.489C257.691 294.648 259.465 294.125 260.809 293.08C262.19 292.035 262.881 290.56 262.881 288.656C262.881 287.051 262.339 285.744 261.257 284.736C260.211 283.728 258.718 283.224 256.776 283.224C254.761 283.224 253.174 283.821 252.017 285.016C250.859 286.173 250.225 287.629 250.113 289.384H244.233C244.307 287.107 244.867 285.128 245.913 283.448C246.995 281.768 248.47 280.461 250.337 279.528C252.203 278.595 254.35 278.128 256.776 278.128C259.39 278.128 261.574 278.595 263.329 279.528C265.121 280.424 266.465 281.656 267.361 283.224C268.294 284.755 268.761 286.435 268.761 288.264C268.761 290.355 268.182 292.184 267.025 293.752C265.867 295.32 264.318 296.365 262.377 296.888C264.617 297.373 266.465 298.475 267.921 300.192C269.377 301.872 270.105 304.056 270.105 306.744C270.105 308.909 269.601 310.907 268.592 312.736C267.585 314.528 266.091 315.965 264.113 317.048C262.134 318.131 259.707 318.672 256.833 318.672ZM284.278 297.504C282.524 297.504 280.937 297.112 279.518 296.328C278.137 295.544 277.036 294.443 276.214 293.024C275.393 291.568 274.982 289.832 274.982 287.816C274.982 285.837 275.393 284.139 276.214 282.72C277.036 281.264 278.156 280.144 279.574 279.36C280.993 278.576 282.58 278.184 284.334 278.184C286.052 278.184 287.601 278.576 288.982 279.36C290.401 280.144 291.521 281.264 292.342 282.72C293.164 284.139 293.574 285.837 293.574 287.816C293.574 289.832 293.164 291.568 292.342 293.024C291.521 294.443 290.401 295.544 288.982 296.328C287.601 297.112 286.033 297.504 284.278 297.504ZM281.478 318L303.934 278.8H309.758L287.358 318H281.478ZM284.278 293.248C285.473 293.248 286.5 292.8 287.358 291.904C288.254 290.971 288.702 289.608 288.702 287.816C288.702 286.024 288.273 284.68 287.414 283.784C286.556 282.851 285.51 282.384 284.278 282.384C283.084 282.384 282.038 282.851 281.142 283.784C280.246 284.68 279.798 286.024 279.798 287.816C279.798 289.608 280.228 290.971 281.086 291.904C281.982 292.8 283.046 293.248 284.278 293.248ZM307.294 318.672C305.54 318.672 303.953 318.28 302.534 317.496C301.153 316.712 300.052 315.611 299.23 314.192C298.409 312.736 297.998 311 297.998 308.984C297.998 307.005 298.409 305.288 299.23 303.832C300.052 302.376 301.172 301.256 302.59 300.472C304.009 299.688 305.596 299.296 307.35 299.296C309.068 299.296 310.617 299.688 311.998 300.472C313.417 301.256 314.537 302.376 315.358 303.832C316.18 305.288 316.59 307.005 316.59 308.984C316.59 311 316.18 312.736 315.358 314.192C314.537 315.611 313.417 316.712 311.998 317.496C310.617 318.28 309.049 318.672 307.294 318.672ZM307.294 314.36C308.489 314.36 309.516 313.912 310.374 313.016C311.27 312.12 311.718 310.776 311.718 308.984C311.718 307.192 311.289 305.848 310.43 304.952C309.572 304.019 308.526 303.552 307.294 303.552C306.1 303.552 305.054 304.019 304.158 304.952C303.262 305.848 302.814 307.192 302.814 308.984C302.814 310.776 303.244 312.12 304.102 313.016C304.998 313.912 306.062 314.36 307.294 314.36Z" fill="white"/>
<path d="M390.36 304.224V299.24H400.944V289.328H406.096V299.24H416.68V304.224H406.096V314.192H400.944V304.224H390.36ZM423.223 318V313.744C425.762 311.728 428.189 309.693 430.503 307.64C432.818 305.587 434.871 303.571 436.663 301.592C438.493 299.576 439.93 297.616 440.975 295.712C442.021 293.771 442.543 291.904 442.543 290.112C442.543 288.917 442.338 287.797 441.927 286.752C441.517 285.669 440.845 284.811 439.911 284.176C438.978 283.504 437.727 283.168 436.159 283.168C433.807 283.168 432.034 283.915 430.839 285.408C429.682 286.901 429.122 288.693 429.159 290.784H423.391C423.429 288.021 424.007 285.707 425.127 283.84C426.285 281.973 427.815 280.555 429.719 279.584C431.661 278.613 433.845 278.128 436.271 278.128C439.967 278.128 442.917 279.173 445.119 281.264C447.359 283.317 448.479 286.192 448.479 289.888C448.479 292.091 447.938 294.275 446.855 296.44C445.81 298.605 444.429 300.696 442.711 302.712C441.031 304.691 439.221 306.557 437.279 308.312C435.338 310.067 433.49 311.653 431.735 313.072H449.655V318H423.223ZM468.665 278.128C471.539 278.128 473.966 278.669 475.945 279.752C477.923 280.835 479.51 282.272 480.705 284.064C481.937 285.856 482.814 287.872 483.337 290.112C483.859 292.352 484.121 294.648 484.121 297C484.121 301.331 483.505 305.12 482.273 308.368C481.078 311.616 479.342 314.155 477.065 315.984C474.787 317.776 472.025 318.672 468.777 318.672C466.201 318.672 463.998 318.168 462.169 317.16C460.339 316.152 458.902 314.808 457.857 313.128C456.849 311.448 456.233 309.619 456.009 307.64H461.553C461.889 309.581 462.691 311.075 463.961 312.12C465.23 313.165 466.854 313.688 468.833 313.688C471.558 313.688 473.798 312.419 475.553 309.88C477.345 307.304 478.297 303.365 478.409 298.064C477.513 299.707 476.113 301.107 474.209 302.264C472.342 303.421 470.177 304 467.713 304C465.51 304 463.438 303.477 461.497 302.432C459.593 301.387 458.025 299.931 456.793 298.064C455.598 296.16 455.001 293.92 455.001 291.344C455.001 289.067 455.561 286.92 456.681 284.904C457.801 282.888 459.369 281.264 461.385 280.032C463.438 278.763 465.865 278.128 468.665 278.128ZM469.001 283.28C467.433 283.28 466.033 283.616 464.801 284.288C463.569 284.96 462.598 285.893 461.889 287.088C461.179 288.245 460.825 289.571 460.825 291.064C460.825 293.453 461.59 295.357 463.121 296.776C464.689 298.195 466.667 298.904 469.057 298.904C470.625 298.904 472.025 298.549 473.257 297.84C474.526 297.131 475.515 296.197 476.225 295.04C476.934 293.845 477.289 292.539 477.289 291.12C477.289 289.589 476.915 288.245 476.169 287.088C475.459 285.893 474.47 284.96 473.201 284.288C471.969 283.616 470.569 283.28 469.001 283.28ZM492.704 318L507.88 283.896H487.496V278.8H513.984V283.112L498.92 318H492.704ZM527.434 297.504C525.68 297.504 524.093 297.112 522.674 296.328C521.293 295.544 520.192 294.443 519.37 293.024C518.549 291.568 518.138 289.832 518.138 287.816C518.138 285.837 518.549 284.139 519.37 282.72C520.192 281.264 521.312 280.144 522.73 279.36C524.149 278.576 525.736 278.184 527.49 278.184C529.208 278.184 530.757 278.576 532.138 279.36C533.557 280.144 534.677 281.264 535.498 282.72C536.32 284.139 536.73 285.837 536.73 287.816C536.73 289.832 536.32 291.568 535.498 293.024C534.677 294.443 533.557 295.544 532.138 296.328C530.757 297.112 529.189 297.504 527.434 297.504ZM524.634 318L547.09 278.8H552.914L530.514 318H524.634ZM527.434 293.248C528.629 293.248 529.656 292.8 530.514 291.904C531.41 290.971 531.858 289.608 531.858 287.816C531.858 286.024 531.429 284.68 530.57 283.784C529.712 282.851 528.666 282.384 527.434 282.384C526.24 282.384 525.194 282.851 524.298 283.784C523.402 284.68 522.954 286.024 522.954 287.816C522.954 289.608 523.384 290.971 524.242 291.904C525.138 292.8 526.202 293.248 527.434 293.248ZM550.45 318.672C548.696 318.672 547.109 318.28 545.69 317.496C544.309 316.712 543.208 315.611 542.386 314.192C541.565 312.736 541.154 311 541.154 308.984C541.154 307.005 541.565 305.288 542.386 303.832C543.208 302.376 544.328 301.256 545.746 300.472C547.165 299.688 548.752 299.296 550.506 299.296C552.224 299.296 553.773 299.688 555.154 300.472C556.573 301.256 557.693 302.376 558.514 303.832C559.336 305.288 559.746 307.005 559.746 308.984C559.746 311 559.336 312.736 558.514 314.192C557.693 315.611 556.573 316.712 555.154 317.496C553.773 318.28 552.205 318.672 550.45 318.672ZM550.45 314.36C551.645 314.36 552.672 313.912 553.53 313.016C554.426 312.12 554.874 310.776 554.874 308.984C554.874 307.192 554.445 305.848 553.586 304.952C552.728 304.019 551.682 303.552 550.45 303.552C549.256 303.552 548.21 304.019 547.314 304.952C546.418 305.848 545.97 307.192 545.97 308.984C545.97 310.776 546.4 312.12 547.258 313.016C548.154 313.912 549.218 314.36 550.45 314.36Z" fill="white"/>
<path d="M142.36 505.224V500.24H152.944V490.328H158.096V500.24H168.68V505.224H158.096V515.192H152.944V505.224H142.36ZM190.399 519.672C187.525 519.672 185.098 519.131 183.119 518.048C181.141 516.965 179.535 515.528 178.303 513.736C177.109 511.944 176.25 509.928 175.727 507.688C175.205 505.448 174.943 503.152 174.943 500.8C174.943 496.469 175.541 492.68 176.735 489.432C177.967 486.184 179.722 483.664 181.999 481.872C184.277 480.043 187.039 479.128 190.287 479.128C192.863 479.128 195.066 479.632 196.895 480.64C198.725 481.648 200.143 482.992 201.151 484.672C202.197 486.352 202.831 488.181 203.055 490.16H197.511C197.175 488.219 196.373 486.725 195.103 485.68C193.834 484.635 192.21 484.112 190.231 484.112C187.506 484.112 185.247 485.4 183.455 487.976C181.701 490.515 180.767 494.435 180.655 499.736C181.551 498.093 182.933 496.693 184.799 495.536C186.703 494.379 188.887 493.8 191.351 493.8C193.554 493.8 195.607 494.323 197.511 495.368C199.453 496.413 201.021 497.888 202.215 499.792C203.447 501.659 204.063 503.88 204.063 506.456C204.063 508.733 203.503 510.88 202.383 512.896C201.263 514.912 199.677 516.555 197.623 517.824C195.607 519.056 193.199 519.672 190.399 519.672ZM190.063 514.52C191.631 514.52 193.031 514.184 194.263 513.512C195.495 512.84 196.466 511.925 197.175 510.768C197.885 509.573 198.239 508.229 198.239 506.736C198.239 504.347 197.455 502.443 195.887 501.024C194.357 499.605 192.397 498.896 190.007 498.896C188.439 498.896 187.021 499.251 185.751 499.96C184.519 500.669 183.549 501.621 182.839 502.816C182.13 503.973 181.775 505.261 181.775 506.68C181.775 508.211 182.13 509.573 182.839 510.768C183.586 511.925 184.575 512.84 185.807 513.512C187.077 514.184 188.495 514.52 190.063 514.52ZM209.567 519V514.744C212.106 512.728 214.532 510.693 216.847 508.64C219.162 506.587 221.215 504.571 223.007 502.592C224.836 500.576 226.274 498.616 227.319 496.712C228.364 494.771 228.887 492.904 228.887 491.112C228.887 489.917 228.682 488.797 228.271 487.752C227.86 486.669 227.188 485.811 226.255 485.176C225.322 484.504 224.071 484.168 222.503 484.168C220.151 484.168 218.378 484.915 217.183 486.408C216.026 487.901 215.466 489.693 215.503 491.784H209.735C209.772 489.021 210.351 486.707 211.471 484.84C212.628 482.973 214.159 481.555 216.063 480.584C218.004 479.613 220.188 479.128 222.615 479.128C226.311 479.128 229.26 480.173 231.463 482.264C233.703 484.317 234.823 487.192 234.823 490.888C234.823 493.091 234.282 495.275 233.199 497.44C232.154 499.605 230.772 501.696 229.055 503.712C227.375 505.691 225.564 507.557 223.623 509.312C221.682 511.067 219.834 512.653 218.079 514.072H235.999V519H209.567ZM255.008 479.128C257.883 479.128 260.31 479.669 262.288 480.752C264.267 481.835 265.854 483.272 267.048 485.064C268.28 486.856 269.158 488.872 269.68 491.112C270.203 493.352 270.464 495.648 270.464 498C270.464 502.331 269.848 506.12 268.616 509.368C267.422 512.616 265.686 515.155 263.408 516.984C261.131 518.776 258.368 519.672 255.12 519.672C252.544 519.672 250.342 519.168 248.512 518.16C246.683 517.152 245.246 515.808 244.2 514.128C243.192 512.448 242.576 510.619 242.352 508.64H247.896C248.232 510.581 249.035 512.075 250.304 513.12C251.574 514.165 253.198 514.688 255.176 514.688C257.902 514.688 260.142 513.419 261.896 510.88C263.688 508.304 264.64 504.365 264.752 499.064C263.856 500.707 262.456 502.107 260.552 503.264C258.686 504.421 256.52 505 254.056 505C251.854 505 249.782 504.477 247.84 503.432C245.936 502.387 244.368 500.931 243.136 499.064C241.942 497.16 241.344 494.92 241.344 492.344C241.344 490.067 241.904 487.92 243.024 485.904C244.144 483.888 245.712 482.264 247.728 481.032C249.782 479.763 252.208 479.128 255.008 479.128ZM255.344 484.28C253.776 484.28 252.376 484.616 251.144 485.288C249.912 485.96 248.942 486.893 248.232 488.088C247.523 489.245 247.168 490.571 247.168 492.064C247.168 494.453 247.934 496.357 249.464 497.776C251.032 499.195 253.011 499.904 255.4 499.904C256.968 499.904 258.368 499.549 259.6 498.84C260.87 498.131 261.859 497.197 262.568 496.04C263.278 494.845 263.632 493.539 263.632 492.12C263.632 490.589 263.259 489.245 262.512 488.088C261.803 486.893 260.814 485.96 259.544 485.288C258.312 484.616 256.912 484.28 255.344 484.28ZM284.903 498.504C283.149 498.504 281.562 498.112 280.143 497.328C278.762 496.544 277.661 495.443 276.839 494.024C276.018 492.568 275.607 490.832 275.607 488.816C275.607 486.837 276.018 485.139 276.839 483.72C277.661 482.264 278.781 481.144 280.199 480.36C281.618 479.576 283.205 479.184 284.959 479.184C286.677 479.184 288.226 479.576 289.607 480.36C291.026 481.144 292.146 482.264 292.967 483.72C293.789 485.139 294.199 486.837 294.199 488.816C294.199 490.832 293.789 492.568 292.967 494.024C292.146 495.443 291.026 496.544 289.607 497.328C288.226 498.112 286.658 498.504 284.903 498.504ZM282.103 519L304.559 479.8H310.383L287.983 519H282.103ZM284.903 494.248C286.098 494.248 287.125 493.8 287.983 492.904C288.879 491.971 289.327 490.608 289.327 488.816C289.327 487.024 288.898 485.68 288.039 484.784C287.181 483.851 286.135 483.384 284.903 483.384C283.709 483.384 282.663 483.851 281.767 484.784C280.871 485.68 280.423 487.024 280.423 488.816C280.423 490.608 280.853 491.971 281.711 492.904C282.607 493.8 283.671 494.248 284.903 494.248ZM307.919 519.672C306.165 519.672 304.578 519.28 303.159 518.496C301.778 517.712 300.677 516.611 299.855 515.192C299.034 513.736 298.623 512 298.623 509.984C298.623 508.005 299.034 506.288 299.855 504.832C300.677 503.376 301.797 502.256 303.215 501.472C304.634 500.688 306.221 500.296 307.975 500.296C309.693 500.296 311.242 500.688 312.623 501.472C314.042 502.256 315.162 503.376 315.983 504.832C316.805 506.288 317.215 508.005 317.215 509.984C317.215 512 316.805 513.736 315.983 515.192C315.162 516.611 314.042 517.712 312.623 518.496C311.242 519.28 309.674 519.672 307.919 519.672ZM307.919 515.36C309.114 515.36 310.141 514.912 310.999 514.016C311.895 513.12 312.343 511.776 312.343 509.984C312.343 508.192 311.914 506.848 311.055 505.952C310.197 505.019 309.151 504.552 307.919 504.552C306.725 504.552 305.679 505.019 304.783 505.952C303.887 506.848 303.439 508.192 303.439 509.984C303.439 511.776 303.869 513.12 304.727 514.016C305.623 514.912 306.687 515.36 307.919 515.36Z" fill="white"/>
<path d="M394.36 505.224V500.24H404.944V490.328H410.096V500.24H420.68V505.224H410.096V515.192H404.944V505.224H394.36ZM432.039 519V486.52L425.711 487.976V483.608L434.391 479.8H438.199V519H432.039ZM459.548 519.672C456.934 519.672 454.564 519.205 452.436 518.272C450.345 517.301 448.665 515.957 447.396 514.24C446.164 512.523 445.548 510.507 445.548 508.192C445.548 505.84 446.201 503.731 447.508 501.864C448.852 499.997 450.625 498.728 452.828 498.056C450.849 497.272 449.318 496.133 448.236 494.64C447.153 493.109 446.612 491.429 446.612 489.6C446.612 487.696 447.116 485.96 448.124 484.392C449.132 482.787 450.588 481.517 452.492 480.584C454.433 479.613 456.785 479.128 459.548 479.128C462.31 479.128 464.644 479.613 466.548 480.584C468.489 481.517 469.964 482.787 470.971 484.392C471.98 485.96 472.484 487.696 472.484 489.6C472.484 491.392 471.924 493.072 470.804 494.64C469.721 496.171 468.19 497.309 466.212 498.056C468.414 498.765 470.169 500.053 471.476 501.92C472.82 503.749 473.492 505.84 473.492 508.192C473.492 510.507 472.876 512.523 471.644 514.24C470.412 515.957 468.732 517.301 466.604 518.272C464.513 519.205 462.161 519.672 459.548 519.672ZM459.548 496.152C461.713 496.152 463.412 495.592 464.644 494.472C465.913 493.352 466.548 491.915 466.548 490.16C466.548 488.181 465.932 486.669 464.7 485.624C463.468 484.579 461.75 484.056 459.548 484.056C457.345 484.056 455.628 484.579 454.396 485.624C453.164 486.669 452.548 488.181 452.548 490.16C452.548 491.915 453.164 493.352 454.396 494.472C455.628 495.592 457.345 496.152 459.548 496.152ZM459.548 514.632C462.236 514.632 464.252 513.997 465.596 512.728C466.94 511.421 467.612 509.76 467.612 507.744C467.612 505.504 466.884 503.787 465.428 502.592C464.009 501.36 462.049 500.744 459.548 500.744C457.046 500.744 455.068 501.36 453.612 502.592C452.156 503.787 451.428 505.504 451.428 507.744C451.428 509.76 452.1 511.421 453.444 512.728C454.825 513.997 456.86 514.632 459.548 514.632ZM494.274 519.672C491.661 519.672 489.29 519.205 487.162 518.272C485.071 517.301 483.391 515.957 482.122 514.24C480.89 512.523 480.274 510.507 480.274 508.192C480.274 505.84 480.927 503.731 482.234 501.864C483.578 499.997 485.351 498.728 487.554 498.056C485.575 497.272 484.045 496.133 482.962 494.64C481.879 493.109 481.338 491.429 481.338 489.6C481.338 487.696 481.842 485.96 482.85 484.392C483.858 482.787 485.314 481.517 487.218 480.584C489.159 479.613 491.511 479.128 494.274 479.128C497.037 479.128 499.37 479.613 501.274 480.584C503.215 481.517 504.69 482.787 505.698 484.392C506.706 485.96 507.21 487.696 507.21 489.6C507.21 491.392 506.65 493.072 505.53 494.64C504.447 496.171 502.917 497.309 500.938 498.056C503.141 498.765 504.895 500.053 506.202 501.92C507.546 503.749 508.218 505.84 508.218 508.192C508.218 510.507 507.602 512.523 506.37 514.24C505.138 515.957 503.458 517.301 501.33 518.272C499.239 519.205 496.887 519.672 494.274 519.672ZM494.274 496.152C496.439 496.152 498.138 495.592 499.37 494.472C500.639 493.352 501.274 491.915 501.274 490.16C501.274 488.181 500.658 486.669 499.426 485.624C498.194 484.579 496.477 484.056 494.274 484.056C492.071 484.056 490.354 484.579 489.122 485.624C487.89 486.669 487.274 488.181 487.274 490.16C487.274 491.915 487.89 493.352 489.122 494.472C490.354 495.592 492.071 496.152 494.274 496.152ZM494.274 514.632C496.962 514.632 498.978 513.997 500.322 512.728C501.666 511.421 502.338 509.76 502.338 507.744C502.338 505.504 501.61 503.787 500.154 502.592C498.735 501.36 496.775 500.744 494.274 500.744C491.773 500.744 489.794 501.36 488.338 502.592C486.882 503.787 486.154 505.504 486.154 507.744C486.154 509.76 486.826 511.421 488.17 512.728C489.551 513.997 491.586 514.632 494.274 514.632ZM523.177 498.504C521.422 498.504 519.835 498.112 518.417 497.328C517.035 496.544 515.934 495.443 515.113 494.024C514.291 492.568 513.881 490.832 513.881 488.816C513.881 486.837 514.291 485.139 515.113 483.72C515.934 482.264 517.054 481.144 518.473 480.36C519.891 479.576 521.478 479.184 523.233 479.184C524.95 479.184 526.499 479.576 527.881 480.36C529.299 481.144 530.419 482.264 531.241 483.72C532.062 485.139 532.473 486.837 532.473 488.816C532.473 490.832 532.062 492.568 531.241 494.024C530.419 495.443 529.299 496.544 527.881 497.328C526.499 498.112 524.931 498.504 523.177 498.504ZM520.377 519L542.833 479.8H548.657L526.257 519H520.377ZM523.177 494.248C524.371 494.248 525.398 493.8 526.257 492.904C527.153 491.971 527.601 490.608 527.601 488.816C527.601 487.024 527.171 485.68 526.313 484.784C525.454 483.851 524.409 483.384 523.177 483.384C521.982 483.384 520.937 483.851 520.041 484.784C519.145 485.68 518.697 487.024 518.697 488.816C518.697 490.608 519.126 491.971 519.985 492.904C520.881 493.8 521.945 494.248 523.177 494.248ZM546.193 519.672C544.438 519.672 542.851 519.28 541.433 518.496C540.051 517.712 538.95 516.611 538.129 515.192C537.307 513.736 536.897 512 536.897 509.984C536.897 508.005 537.307 506.288 538.129 504.832C538.95 503.376 540.07 502.256 541.489 501.472C542.907 500.688 544.494 500.296 546.249 500.296C547.966 500.296 549.515 500.688 550.897 501.472C552.315 502.256 553.435 503.376 554.257 504.832C555.078 506.288 555.489 508.005 555.489 509.984C555.489 512 555.078 513.736 554.257 515.192C553.435 516.611 552.315 517.712 550.897 518.496C549.515 519.28 547.947 519.672 546.193 519.672ZM546.193 515.36C547.387 515.36 548.414 514.912 549.273 514.016C550.169 513.12 550.617 511.776 550.617 509.984C550.617 508.192 550.187 506.848 549.329 505.952C548.47 505.019 547.425 504.552 546.193 504.552C544.998 504.552 543.953 505.019 543.057 505.952C542.161 506.848 541.713 508.192 541.713 509.984C541.713 511.776 542.142 513.12 543.001 514.016C543.897 514.912 544.961 515.36 546.193 515.36Z" fill="white"/>
<path d="M151.356 144L158.58 124.4H161.072L168.268 144H165.776L163.984 138.96H155.64L153.82 144H151.356ZM156.34 137.056H163.284L159.812 127.368L156.34 137.056ZM175.354 144C174.084 144 173.086 143.692 172.358 143.076C171.63 142.46 171.266 141.349 171.266 139.744V132.1H168.858V130.112H171.266L171.574 126.78H173.618V130.112H177.706V132.1H173.618V139.744C173.618 140.621 173.795 141.219 174.15 141.536C174.504 141.835 175.13 141.984 176.026 141.984H177.482V144H175.354ZM186.555 144.336C185.23 144.336 184.054 144.037 183.027 143.44C182 142.824 181.188 141.975 180.591 140.892C180.012 139.809 179.723 138.531 179.723 137.056C179.723 135.6 180.012 134.331 180.591 133.248C181.17 132.147 181.972 131.297 182.999 130.7C184.044 130.084 185.248 129.776 186.611 129.776C187.955 129.776 189.112 130.084 190.083 130.7C191.072 131.297 191.828 132.091 192.351 133.08C192.874 134.069 193.135 135.133 193.135 136.272C193.135 136.477 193.126 136.683 193.107 136.888C193.107 137.093 193.107 137.327 193.107 137.588H182.047C182.103 138.652 182.346 139.539 182.775 140.248C183.223 140.939 183.774 141.461 184.427 141.816C185.099 142.171 185.808 142.348 186.555 142.348C187.526 142.348 188.338 142.124 188.991 141.676C189.644 141.228 190.12 140.621 190.419 139.856H192.743C192.37 141.144 191.651 142.217 190.587 143.076C189.542 143.916 188.198 144.336 186.555 144.336ZM186.555 131.764C185.435 131.764 184.436 132.109 183.559 132.8C182.7 133.472 182.206 134.461 182.075 135.768H190.811C190.755 134.517 190.326 133.537 189.523 132.828C188.72 132.119 187.731 131.764 186.555 131.764ZM196.252 144V130.112H198.38L198.52 132.604C198.968 131.727 199.612 131.036 200.452 130.532C201.292 130.028 202.244 129.776 203.308 129.776C204.951 129.776 206.258 130.28 207.228 131.288C208.218 132.277 208.712 133.808 208.712 135.88V144H206.36V136.132C206.36 133.239 205.166 131.792 202.776 131.792C201.582 131.792 200.583 132.231 199.78 133.108C198.996 133.967 198.604 135.199 198.604 136.804V144H196.252ZM218.66 144.336C217.334 144.336 216.14 144.037 215.076 143.44C214.03 142.824 213.2 141.975 212.584 140.892C211.986 139.791 211.688 138.512 211.688 137.056C211.688 135.6 211.986 134.331 212.584 133.248C213.2 132.147 214.03 131.297 215.076 130.7C216.14 130.084 217.334 129.776 218.66 129.776C220.302 129.776 221.684 130.205 222.804 131.064C223.942 131.923 224.661 133.071 224.96 134.508H222.552C222.365 133.649 221.908 132.987 221.18 132.52C220.452 132.035 219.602 131.792 218.632 131.792C217.848 131.792 217.11 131.988 216.42 132.38C215.729 132.772 215.169 133.36 214.74 134.144C214.31 134.928 214.096 135.899 214.096 137.056C214.096 138.213 214.31 139.184 214.74 139.968C215.169 140.752 215.729 141.349 216.42 141.76C217.11 142.152 217.848 142.348 218.632 142.348C219.602 142.348 220.452 142.115 221.18 141.648C221.908 141.163 222.365 140.481 222.552 139.604H224.96C224.68 141.004 223.97 142.143 222.832 143.02C221.693 143.897 220.302 144.336 218.66 144.336ZM229.673 127.032C229.206 127.032 228.814 126.883 228.497 126.584C228.198 126.267 228.049 125.875 228.049 125.408C228.049 124.96 228.198 124.587 228.497 124.288C228.814 123.989 229.206 123.84 229.673 123.84C230.121 123.84 230.503 123.989 230.821 124.288C231.138 124.587 231.297 124.96 231.297 125.408C231.297 125.875 231.138 126.267 230.821 126.584C230.503 126.883 230.121 127.032 229.673 127.032ZM228.497 144V130.112H230.849V144H228.497ZM241.272 144.336C239.965 144.336 238.789 144.037 237.744 143.44C236.698 142.843 235.868 142.003 235.252 140.92C234.654 139.819 234.356 138.531 234.356 137.056C234.356 135.581 234.664 134.303 235.28 133.22C235.896 132.119 236.726 131.269 237.772 130.672C238.836 130.075 240.021 129.776 241.328 129.776C242.634 129.776 243.81 130.075 244.856 130.672C245.901 131.269 246.722 132.119 247.32 133.22C247.936 134.303 248.244 135.581 248.244 137.056C248.244 138.531 247.936 139.819 247.32 140.92C246.704 142.003 245.864 142.843 244.8 143.44C243.754 144.037 242.578 144.336 241.272 144.336ZM241.272 142.32C242.074 142.32 242.821 142.124 243.512 141.732C244.202 141.34 244.762 140.752 245.192 139.968C245.621 139.184 245.836 138.213 245.836 137.056C245.836 135.899 245.621 134.928 245.192 134.144C244.781 133.36 244.23 132.772 243.54 132.38C242.849 131.988 242.112 131.792 241.328 131.792C240.525 131.792 239.778 131.988 239.088 132.38C238.397 132.772 237.837 133.36 237.408 134.144C236.978 134.928 236.764 135.899 236.764 137.056C236.764 138.213 236.978 139.184 237.408 139.968C237.837 140.752 238.388 141.34 239.06 141.732C239.75 142.124 240.488 142.32 241.272 142.32ZM240.684 128.964V127.2L246.564 123.644V125.688L240.684 128.964ZM251.514 144V130.112H253.642L253.782 132.604C254.23 131.727 254.874 131.036 255.714 130.532C256.554 130.028 257.506 129.776 258.57 129.776C260.213 129.776 261.519 130.28 262.49 131.288C263.479 132.277 263.974 133.808 263.974 135.88V144H261.622V136.132C261.622 133.239 260.427 131.792 258.038 131.792C256.843 131.792 255.845 132.231 255.042 133.108C254.258 133.967 253.866 135.199 253.866 136.804V144H251.514ZM279.568 144.336C278.41 144.336 277.449 144.14 276.684 143.748C275.918 143.356 275.349 142.833 274.976 142.18C274.602 141.527 274.416 140.817 274.416 140.052C274.416 138.633 274.957 137.541 276.04 136.776C277.122 136.011 278.597 135.628 280.464 135.628H284.216V135.46C284.216 134.247 283.898 133.332 283.264 132.716C282.629 132.081 281.78 131.764 280.716 131.764C279.801 131.764 279.008 131.997 278.336 132.464C277.682 132.912 277.272 133.575 277.104 134.452H274.696C274.789 133.444 275.125 132.595 275.704 131.904C276.301 131.213 277.038 130.691 277.916 130.336C278.793 129.963 279.726 129.776 280.716 129.776C282.657 129.776 284.113 130.299 285.084 131.344C286.073 132.371 286.568 133.743 286.568 135.46V144H284.468L284.328 141.508C283.936 142.292 283.357 142.964 282.592 143.524C281.845 144.065 280.837 144.336 279.568 144.336ZM279.932 142.348C280.828 142.348 281.593 142.115 282.228 141.648C282.881 141.181 283.376 140.575 283.712 139.828C284.048 139.081 284.216 138.297 284.216 137.476V137.448H280.66C279.278 137.448 278.298 137.691 277.72 138.176C277.16 138.643 276.88 139.231 276.88 139.94C276.88 140.668 277.141 141.256 277.664 141.704C278.205 142.133 278.961 142.348 279.932 142.348ZM290.096 144V123.84H292.448V144H290.096ZM312.449 144.336C310.527 144.336 308.865 143.916 307.465 143.076C306.084 142.217 305.011 141.032 304.245 139.52C303.48 137.989 303.097 136.216 303.097 134.2C303.097 132.203 303.48 130.448 304.245 128.936C305.011 127.405 306.084 126.211 307.465 125.352C308.865 124.493 310.527 124.064 312.449 124.064C314.689 124.064 316.509 124.605 317.909 125.688C319.328 126.752 320.233 128.245 320.625 130.168H318.021C317.723 128.955 317.107 127.984 316.173 127.256C315.259 126.509 314.017 126.136 312.449 126.136C311.049 126.136 309.827 126.463 308.781 127.116C307.736 127.751 306.924 128.675 306.345 129.888C305.785 131.083 305.505 132.52 305.505 134.2C305.505 135.88 305.785 137.327 306.345 138.54C306.924 139.735 307.736 140.659 308.781 141.312C309.827 141.947 311.049 142.264 312.449 142.264C314.017 142.264 315.259 141.909 316.173 141.2C317.107 140.472 317.723 139.511 318.021 138.316H320.625C320.233 140.201 319.328 141.676 317.909 142.74C316.509 143.804 314.689 144.336 312.449 144.336ZM323.866 144V123.84H326.218V144H323.866ZM331.501 127.032C331.034 127.032 330.642 126.883 330.325 126.584C330.026 126.267 329.877 125.875 329.877 125.408C329.877 124.96 330.026 124.587 330.325 124.288C330.642 123.989 331.034 123.84 331.501 123.84C331.949 123.84 332.331 123.989 332.649 124.288C332.966 124.587 333.125 124.96 333.125 125.408C333.125 125.875 332.966 126.267 332.649 126.584C332.331 126.883 331.949 127.032 331.501 127.032ZM330.325 144V130.112H332.677V144H330.325ZM343.016 144.336C341.691 144.336 340.515 144.037 339.488 143.44C338.461 142.824 337.649 141.975 337.052 140.892C336.473 139.809 336.184 138.531 336.184 137.056C336.184 135.6 336.473 134.331 337.052 133.248C337.631 132.147 338.433 131.297 339.46 130.7C340.505 130.084 341.709 129.776 343.072 129.776C344.416 129.776 345.573 130.084 346.544 130.7C347.533 131.297 348.289 132.091 348.812 133.08C349.335 134.069 349.596 135.133 349.596 136.272C349.596 136.477 349.587 136.683 349.568 136.888C349.568 137.093 349.568 137.327 349.568 137.588H338.508C338.564 138.652 338.807 139.539 339.236 140.248C339.684 140.939 340.235 141.461 340.888 141.816C341.56 142.171 342.269 142.348 343.016 142.348C343.987 142.348 344.799 142.124 345.452 141.676C346.105 141.228 346.581 140.621 346.88 139.856H349.204C348.831 141.144 348.112 142.217 347.048 143.076C346.003 143.916 344.659 144.336 343.016 144.336ZM343.016 131.764C341.896 131.764 340.897 132.109 340.02 132.8C339.161 133.472 338.667 134.461 338.536 135.768H347.272C347.216 134.517 346.787 133.537 345.984 132.828C345.181 132.119 344.192 131.764 343.016 131.764ZM352.713 144V130.112H354.841L354.981 132.604C355.429 131.727 356.073 131.036 356.913 130.532C357.753 130.028 358.705 129.776 359.769 129.776C361.412 129.776 362.719 130.28 363.689 131.288C364.679 132.277 365.173 133.808 365.173 135.88V144H362.821V136.132C362.821 133.239 361.627 131.792 359.237 131.792C358.043 131.792 357.044 132.231 356.241 133.108C355.457 133.967 355.065 135.199 355.065 136.804V144H352.713ZM374.225 144C372.955 144 371.957 143.692 371.229 143.076C370.501 142.46 370.137 141.349 370.137 139.744V132.1H367.729V130.112H370.137L370.445 126.78H372.489V130.112H376.577V132.1H372.489V139.744C372.489 140.621 372.666 141.219 373.021 141.536C373.375 141.835 374.001 141.984 374.897 141.984H376.353V144H374.225ZM385.426 144.336C384.101 144.336 382.925 144.037 381.898 143.44C380.871 142.824 380.059 141.975 379.462 140.892C378.883 139.809 378.594 138.531 378.594 137.056C378.594 135.6 378.883 134.331 379.462 133.248C380.041 132.147 380.843 131.297 381.87 130.7C382.915 130.084 384.119 129.776 385.482 129.776C386.826 129.776 387.983 130.084 388.954 130.7C389.943 131.297 390.699 132.091 391.222 133.08C391.745 134.069 392.006 135.133 392.006 136.272C392.006 136.477 391.997 136.683 391.978 136.888C391.978 137.093 391.978 137.327 391.978 137.588H380.918C380.974 138.652 381.217 139.539 381.646 140.248C382.094 140.939 382.645 141.461 383.298 141.816C383.97 142.171 384.679 142.348 385.426 142.348C386.397 142.348 387.209 142.124 387.862 141.676C388.515 141.228 388.991 140.621 389.29 139.856H391.614C391.241 141.144 390.522 142.217 389.458 143.076C388.413 143.916 387.069 144.336 385.426 144.336ZM385.426 131.764C384.306 131.764 383.307 132.109 382.43 132.8C381.571 133.472 381.077 134.461 380.946 135.768H389.682C389.626 134.517 389.197 133.537 388.394 132.828C387.591 132.119 386.602 131.764 385.426 131.764ZM404.606 144V127.032L401.442 127.732V126.108L405.39 124.4H406.986V144H404.606ZM417.227 144.336C415.901 144.336 414.725 144.037 413.699 143.44C412.672 142.824 411.86 141.975 411.263 140.892C410.684 139.809 410.395 138.531 410.395 137.056C410.395 135.6 410.684 134.331 411.263 133.248C411.841 132.147 412.644 131.297 413.671 130.7C414.716 130.084 415.92 129.776 417.283 129.776C418.627 129.776 419.784 130.084 420.755 130.7C421.744 131.297 422.5 132.091 423.023 133.08C423.545 134.069 423.807 135.133 423.807 136.272C423.807 136.477 423.797 136.683 423.779 136.888C423.779 137.093 423.779 137.327 423.779 137.588H412.719C412.775 138.652 413.017 139.539 413.447 140.248C413.895 140.939 414.445 141.461 415.099 141.816C415.771 142.171 416.48 142.348 417.227 142.348C418.197 142.348 419.009 142.124 419.663 141.676C420.316 141.228 420.792 140.621 421.091 139.856H423.415C423.041 141.144 422.323 142.217 421.259 143.076C420.213 143.916 418.869 144.336 417.227 144.336ZM417.227 131.764C416.107 131.764 415.108 132.109 414.231 132.8C413.372 133.472 412.877 134.461 412.747 135.768H421.483C421.427 134.517 420.997 133.537 420.195 132.828C419.392 132.119 418.403 131.764 417.227 131.764ZM426.924 144V130.112H429.052L429.248 132.772C429.678 131.857 430.331 131.129 431.208 130.588C432.086 130.047 433.168 129.776 434.456 129.776V132.24H433.812C432.991 132.24 432.235 132.389 431.544 132.688C430.854 132.968 430.303 133.453 429.892 134.144C429.482 134.835 429.276 135.787 429.276 137V144H426.924ZM450.89 144.336C449.453 144.336 448.202 144.075 447.138 143.552C446.074 143.029 445.253 142.301 444.674 141.368C444.096 140.435 443.806 139.352 443.806 138.12H446.27C446.27 138.885 446.448 139.595 446.802 140.248C447.157 140.883 447.67 141.396 448.342 141.788C449.033 142.161 449.882 142.348 450.89 142.348C452.216 142.348 453.242 142.031 453.97 141.396C454.698 140.761 455.062 139.968 455.062 139.016C455.062 138.232 454.894 137.607 454.558 137.14C454.222 136.655 453.765 136.263 453.186 135.964C452.626 135.665 451.973 135.404 451.226 135.18C450.498 134.956 449.733 134.704 448.93 134.424C447.418 133.901 446.298 133.257 445.57 132.492C444.842 131.708 444.478 130.691 444.478 129.44C444.46 128.395 444.702 127.471 445.206 126.668C445.71 125.847 446.42 125.212 447.334 124.764C448.268 124.297 449.369 124.064 450.638 124.064C451.889 124.064 452.972 124.297 453.886 124.764C454.82 125.231 455.538 125.875 456.042 126.696C456.565 127.517 456.836 128.451 456.854 129.496H454.39C454.39 128.955 454.25 128.423 453.97 127.9C453.69 127.359 453.261 126.92 452.682 126.584C452.122 126.248 451.413 126.08 450.554 126.08C449.49 126.061 448.613 126.332 447.922 126.892C447.25 127.452 446.914 128.227 446.914 129.216C446.914 130.056 447.148 130.7 447.614 131.148C448.1 131.596 448.772 131.969 449.63 132.268C450.489 132.548 451.478 132.875 452.598 133.248C453.532 133.584 454.372 133.976 455.118 134.424C455.865 134.872 456.444 135.451 456.854 136.16C457.284 136.869 457.498 137.775 457.498 138.876C457.498 139.809 457.256 140.696 456.77 141.536C456.285 142.357 455.548 143.029 454.558 143.552C453.588 144.075 452.365 144.336 450.89 144.336ZM466.938 144.336C465.612 144.336 464.436 144.037 463.41 143.44C462.383 142.824 461.571 141.975 460.974 140.892C460.395 139.809 460.106 138.531 460.106 137.056C460.106 135.6 460.395 134.331 460.974 133.248C461.552 132.147 462.355 131.297 463.382 130.7C464.427 130.084 465.631 129.776 466.994 129.776C468.338 129.776 469.495 130.084 470.466 130.7C471.455 131.297 472.211 132.091 472.734 133.08C473.256 134.069 473.518 135.133 473.518 136.272C473.518 136.477 473.508 136.683 473.49 136.888C473.49 137.093 473.49 137.327 473.49 137.588H462.43C462.486 138.652 462.728 139.539 463.158 140.248C463.606 140.939 464.156 141.461 464.81 141.816C465.482 142.171 466.191 142.348 466.938 142.348C467.908 142.348 468.72 142.124 469.374 141.676C470.027 141.228 470.503 140.621 470.802 139.856H473.126C472.752 141.144 472.034 142.217 470.97 143.076C469.924 143.916 468.58 144.336 466.938 144.336ZM466.938 131.764C465.818 131.764 464.819 132.109 463.942 132.8C463.083 133.472 462.588 134.461 462.458 135.768H471.194C471.138 134.517 470.708 133.537 469.906 132.828C469.103 132.119 468.114 131.764 466.938 131.764ZM476.635 144V130.112H478.763L478.931 132.128C479.379 131.381 479.976 130.803 480.723 130.392C481.47 129.981 482.31 129.776 483.243 129.776C484.344 129.776 485.287 130 486.071 130.448C486.874 130.896 487.49 131.577 487.919 132.492C488.404 131.652 489.067 130.989 489.907 130.504C490.766 130.019 491.69 129.776 492.679 129.776C494.34 129.776 495.666 130.28 496.655 131.288C497.644 132.277 498.139 133.808 498.139 135.88V144H495.815V136.132C495.815 134.695 495.526 133.612 494.947 132.884C494.368 132.156 493.538 131.792 492.455 131.792C491.335 131.792 490.402 132.231 489.655 133.108C488.927 133.967 488.563 135.199 488.563 136.804V144H486.211V136.132C486.211 134.695 485.922 133.612 485.343 132.884C484.764 132.156 483.934 131.792 482.851 131.792C481.75 131.792 480.826 132.231 480.079 133.108C479.351 133.967 478.987 135.199 478.987 136.804V144H476.635ZM507.926 144.336C506.601 144.336 505.425 144.037 504.398 143.44C503.371 142.824 502.559 141.975 501.962 140.892C501.383 139.809 501.094 138.531 501.094 137.056C501.094 135.6 501.383 134.331 501.962 133.248C502.541 132.147 503.343 131.297 504.37 130.7C505.415 130.084 506.619 129.776 507.982 129.776C509.326 129.776 510.483 130.084 511.454 130.7C512.443 131.297 513.199 132.091 513.722 133.08C514.245 134.069 514.506 135.133 514.506 136.272C514.506 136.477 514.497 136.683 514.478 136.888C514.478 137.093 514.478 137.327 514.478 137.588H503.418C503.474 138.652 503.717 139.539 504.146 140.248C504.594 140.939 505.145 141.461 505.798 141.816C506.47 142.171 507.179 142.348 507.926 142.348C508.897 142.348 509.709 142.124 510.362 141.676C511.015 141.228 511.491 140.621 511.79 139.856H514.114C513.741 141.144 513.022 142.217 511.958 143.076C510.913 143.916 509.569 144.336 507.926 144.336ZM507.926 131.764C506.806 131.764 505.807 132.109 504.93 132.8C504.071 133.472 503.577 134.461 503.446 135.768H512.182C512.126 134.517 511.697 133.537 510.894 132.828C510.091 132.119 509.102 131.764 507.926 131.764ZM522.943 144.336C521.282 144.336 519.901 143.916 518.799 143.076C517.698 142.236 517.054 141.097 516.867 139.66H519.275C519.425 140.388 519.807 141.023 520.423 141.564C521.058 142.087 521.907 142.348 522.971 142.348C523.961 142.348 524.689 142.143 525.155 141.732C525.622 141.303 525.855 140.799 525.855 140.22C525.855 139.38 525.547 138.82 524.931 138.54C524.334 138.26 523.485 138.008 522.383 137.784C521.637 137.635 520.89 137.42 520.143 137.14C519.397 136.86 518.771 136.468 518.267 135.964C517.763 135.441 517.511 134.76 517.511 133.92C517.511 132.707 517.959 131.717 518.855 130.952C519.77 130.168 521.002 129.776 522.551 129.776C524.026 129.776 525.23 130.149 526.163 130.896C527.115 131.624 527.666 132.669 527.815 134.032H525.491C525.398 133.323 525.09 132.772 524.567 132.38C524.063 131.969 523.382 131.764 522.523 131.764C521.683 131.764 521.03 131.941 520.563 132.296C520.115 132.651 519.891 133.117 519.891 133.696C519.891 134.256 520.181 134.695 520.759 135.012C521.357 135.329 522.159 135.6 523.167 135.824C524.026 136.011 524.838 136.244 525.603 136.524C526.387 136.785 527.022 137.187 527.507 137.728C528.011 138.251 528.263 139.016 528.263 140.024C528.282 141.275 527.806 142.311 526.835 143.132C525.883 143.935 524.586 144.336 522.943 144.336ZM536.483 144C535.213 144 534.215 143.692 533.487 143.076C532.759 142.46 532.395 141.349 532.395 139.744V132.1H529.986V130.112H532.395L532.703 126.78H534.747V130.112H538.835V132.1H534.747V139.744C534.747 140.621 534.924 141.219 535.279 141.536C535.633 141.835 536.259 141.984 537.155 141.984H538.611V144H536.483ZM541.823 144V130.112H543.951L544.147 132.772C544.576 131.857 545.229 131.129 546.107 130.588C546.984 130.047 548.067 129.776 549.355 129.776V132.24H548.711C547.889 132.24 547.133 132.389 546.443 132.688C545.752 132.968 545.201 133.453 544.791 134.144C544.38 134.835 544.175 135.787 544.175 137V144H541.823ZM557.719 144.336C556.394 144.336 555.218 144.037 554.191 143.44C553.164 142.824 552.352 141.975 551.755 140.892C551.176 139.809 550.887 138.531 550.887 137.056C550.887 135.6 551.176 134.331 551.755 133.248C552.334 132.147 553.136 131.297 554.163 130.7C555.208 130.084 556.412 129.776 557.775 129.776C559.119 129.776 560.276 130.084 561.247 130.7C562.236 131.297 562.992 132.091 563.515 133.08C564.038 134.069 564.299 135.133 564.299 136.272C564.299 136.477 564.29 136.683 564.271 136.888C564.271 137.093 564.271 137.327 564.271 137.588H553.211C553.267 138.652 553.51 139.539 553.939 140.248C554.387 140.939 554.938 141.461 555.591 141.816C556.263 142.171 556.972 142.348 557.719 142.348C558.69 142.348 559.502 142.124 560.155 141.676C560.808 141.228 561.284 140.621 561.583 139.856H563.907C563.534 141.144 562.815 142.217 561.751 143.076C560.706 143.916 559.362 144.336 557.719 144.336ZM557.719 131.764C556.599 131.764 555.6 132.109 554.723 132.8C553.864 133.472 553.37 134.461 553.239 135.768H561.975C561.919 134.517 561.49 133.537 560.687 132.828C559.884 132.119 558.895 131.764 557.719 131.764ZM184.928 180V178.348C186.253 177.303 187.504 176.248 188.68 175.184C189.875 174.101 190.929 173.037 191.844 171.992C192.777 170.947 193.505 169.92 194.028 168.912C194.569 167.904 194.84 166.933 194.84 166C194.84 165.309 194.719 164.665 194.476 164.068C194.252 163.471 193.879 162.995 193.356 162.64C192.833 162.267 192.124 162.08 191.228 162.08C190.369 162.08 189.651 162.276 189.072 162.668C188.493 163.041 188.055 163.545 187.756 164.18C187.476 164.815 187.336 165.496 187.336 166.224H185.068C185.068 164.936 185.339 163.835 185.88 162.92C186.421 161.987 187.159 161.277 188.092 160.792C189.025 160.307 190.08 160.064 191.256 160.064C192.992 160.064 194.411 160.559 195.512 161.548C196.632 162.519 197.192 163.975 197.192 165.916C197.192 167.073 196.903 168.221 196.324 169.36C195.745 170.48 195.008 171.572 194.112 172.636C193.216 173.681 192.255 174.661 191.228 175.576C190.22 176.491 189.277 177.312 188.4 178.04H197.864V180H184.928ZM208.63 180.336C206.894 180.336 205.391 179.916 204.122 179.076C202.871 178.217 201.91 177.032 201.238 175.52C200.566 173.989 200.23 172.216 200.23 170.2C200.23 168.184 200.566 166.42 201.238 164.908C201.91 163.377 202.871 162.192 204.122 161.352C205.391 160.493 206.894 160.064 208.63 160.064C210.366 160.064 211.859 160.493 213.11 161.352C214.361 162.192 215.322 163.377 215.994 164.908C216.666 166.42 217.002 168.184 217.002 170.2C217.002 172.216 216.666 173.989 215.994 175.52C215.322 177.032 214.361 178.217 213.11 179.076C211.859 179.916 210.366 180.336 208.63 180.336ZM208.63 178.264C209.769 178.264 210.786 177.947 211.682 177.312C212.597 176.659 213.306 175.735 213.81 174.54C214.333 173.327 214.594 171.88 214.594 170.2C214.594 168.52 214.333 167.083 213.81 165.888C213.306 164.693 212.597 163.779 211.682 163.144C210.786 162.491 209.769 162.164 208.63 162.164C207.473 162.164 206.446 162.491 205.55 163.144C204.654 163.779 203.945 164.693 203.422 165.888C202.899 167.083 202.638 168.52 202.638 170.2C202.638 171.88 202.899 173.327 203.422 174.54C203.945 175.735 204.654 176.659 205.55 177.312C206.446 177.947 207.473 178.264 208.63 178.264ZM219.819 180V178.348C221.144 177.303 222.395 176.248 223.571 175.184C224.765 174.101 225.82 173.037 226.735 171.992C227.668 170.947 228.396 169.92 228.919 168.912C229.46 167.904 229.731 166.933 229.731 166C229.731 165.309 229.609 164.665 229.367 164.068C229.143 163.471 228.769 162.995 228.247 162.64C227.724 162.267 227.015 162.08 226.119 162.08C225.26 162.08 224.541 162.276 223.963 162.668C223.384 163.041 222.945 163.545 222.647 164.18C222.367 164.815 222.227 165.496 222.227 166.224H219.959C219.959 164.936 220.229 163.835 220.771 162.92C221.312 161.987 222.049 161.277 222.983 160.792C223.916 160.307 224.971 160.064 226.147 160.064C227.883 160.064 229.301 160.559 230.403 161.548C231.523 162.519 232.083 163.975 232.083 165.916C232.083 167.073 231.793 168.221 231.215 169.36C230.636 170.48 229.899 171.572 229.003 172.636C228.107 173.681 227.145 174.661 226.119 175.576C225.111 176.491 224.168 177.312 223.291 178.04H232.755V180H219.819ZM243.521 180.336C241.785 180.336 240.282 179.916 239.013 179.076C237.762 178.217 236.801 177.032 236.129 175.52C235.457 173.989 235.121 172.216 235.121 170.2C235.121 168.184 235.457 166.42 236.129 164.908C236.801 163.377 237.762 162.192 239.013 161.352C240.282 160.493 241.785 160.064 243.521 160.064C245.257 160.064 246.75 160.493 248.001 161.352C249.251 162.192 250.213 163.377 250.885 164.908C251.557 166.42 251.893 168.184 251.893 170.2C251.893 172.216 251.557 173.989 250.885 175.52C250.213 177.032 249.251 178.217 248.001 179.076C246.75 179.916 245.257 180.336 243.521 180.336ZM243.521 178.264C244.659 178.264 245.677 177.947 246.573 177.312C247.487 176.659 248.197 175.735 248.701 174.54C249.223 173.327 249.485 171.88 249.485 170.2C249.485 168.52 249.223 167.083 248.701 165.888C248.197 164.693 247.487 163.779 246.573 163.144C245.677 162.491 244.659 162.164 243.521 162.164C242.363 162.164 241.337 162.491 240.441 163.144C239.545 163.779 238.835 164.693 238.313 165.888C237.79 167.083 237.529 168.52 237.529 170.2C237.529 171.88 237.79 173.327 238.313 174.54C238.835 175.735 239.545 176.659 240.441 177.312C241.337 177.947 242.363 178.264 243.521 178.264ZM266.565 180L261.301 166.112H263.765L267.937 177.732L272.137 166.112H274.545L269.281 180H266.565ZM281.744 180.336C280.083 180.336 278.702 179.916 277.6 179.076C276.499 178.236 275.855 177.097 275.668 175.66H278.076C278.226 176.388 278.608 177.023 279.224 177.564C279.859 178.087 280.708 178.348 281.772 178.348C282.762 178.348 283.49 178.143 283.956 177.732C284.423 177.303 284.656 176.799 284.656 176.22C284.656 175.38 284.348 174.82 283.732 174.54C283.135 174.26 282.286 174.008 281.184 173.784C280.438 173.635 279.691 173.42 278.944 173.14C278.198 172.86 277.572 172.468 277.068 171.964C276.564 171.441 276.312 170.76 276.312 169.92C276.312 168.707 276.76 167.717 277.656 166.952C278.571 166.168 279.803 165.776 281.352 165.776C282.827 165.776 284.031 166.149 284.964 166.896C285.916 167.624 286.467 168.669 286.616 170.032H284.292C284.199 169.323 283.891 168.772 283.368 168.38C282.864 167.969 282.183 167.764 281.324 167.764C280.484 167.764 279.831 167.941 279.364 168.296C278.916 168.651 278.692 169.117 278.692 169.696C278.692 170.256 278.982 170.695 279.56 171.012C280.158 171.329 280.96 171.6 281.968 171.824C282.827 172.011 283.639 172.244 284.404 172.524C285.188 172.785 285.823 173.187 286.308 173.728C286.812 174.251 287.064 175.016 287.064 176.024C287.083 177.275 286.607 178.311 285.636 179.132C284.684 179.935 283.387 180.336 281.744 180.336ZM299.906 180V163.032L296.742 163.732V162.108L300.69 160.4H302.286V180H299.906ZM312.528 180.336C311.202 180.336 310.026 180.037 309 179.44C307.973 178.824 307.161 177.975 306.564 176.892C305.985 175.809 305.696 174.531 305.696 173.056C305.696 171.6 305.985 170.331 306.564 169.248C307.142 168.147 307.945 167.297 308.972 166.7C310.017 166.084 311.221 165.776 312.584 165.776C313.928 165.776 315.085 166.084 316.056 166.7C317.045 167.297 317.801 168.091 318.324 169.08C318.846 170.069 319.108 171.133 319.108 172.272C319.108 172.477 319.098 172.683 319.08 172.888C319.08 173.093 319.08 173.327 319.08 173.588H308.02C308.076 174.652 308.318 175.539 308.748 176.248C309.196 176.939 309.746 177.461 310.4 177.816C311.072 178.171 311.781 178.348 312.528 178.348C313.498 178.348 314.31 178.124 314.964 177.676C315.617 177.228 316.093 176.621 316.392 175.856H318.716C318.342 177.144 317.624 178.217 316.56 179.076C315.514 179.916 314.17 180.336 312.528 180.336ZM312.528 167.764C311.408 167.764 310.409 168.109 309.532 168.8C308.673 169.472 308.178 170.461 308.048 171.768H316.784C316.728 170.517 316.298 169.537 315.496 168.828C314.693 168.119 313.704 167.764 312.528 167.764ZM322.225 180V166.112H324.353L324.549 168.772C324.978 167.857 325.632 167.129 326.509 166.588C327.386 166.047 328.469 165.776 329.757 165.776V168.24H329.113C328.292 168.24 327.536 168.389 326.845 168.688C326.154 168.968 325.604 169.453 325.193 170.144C324.782 170.835 324.577 171.787 324.577 173V180H322.225ZM345.127 180.336C343.466 180.336 342.084 179.916 340.983 179.076C339.882 178.236 339.238 177.097 339.051 175.66H341.459C341.608 176.388 341.991 177.023 342.607 177.564C343.242 178.087 344.091 178.348 345.155 178.348C346.144 178.348 346.872 178.143 347.339 177.732C347.806 177.303 348.039 176.799 348.039 176.22C348.039 175.38 347.731 174.82 347.115 174.54C346.518 174.26 345.668 174.008 344.567 173.784C343.82 173.635 343.074 173.42 342.327 173.14C341.58 172.86 340.955 172.468 340.451 171.964C339.947 171.441 339.695 170.76 339.695 169.92C339.695 168.707 340.143 167.717 341.039 166.952C341.954 166.168 343.186 165.776 344.735 165.776C346.21 165.776 347.414 166.149 348.347 166.896C349.299 167.624 349.85 168.669 349.999 170.032H347.675C347.582 169.323 347.274 168.772 346.751 168.38C346.247 167.969 345.566 167.764 344.707 167.764C343.867 167.764 343.214 167.941 342.747 168.296C342.299 168.651 342.075 169.117 342.075 169.696C342.075 170.256 342.364 170.695 342.943 171.012C343.54 171.329 344.343 171.6 345.351 171.824C346.21 172.011 347.022 172.244 347.787 172.524C348.571 172.785 349.206 173.187 349.691 173.728C350.195 174.251 350.447 175.016 350.447 176.024C350.466 177.275 349.99 178.311 349.019 179.132C348.067 179.935 346.77 180.336 345.127 180.336ZM360.051 180.336C358.726 180.336 357.55 180.037 356.523 179.44C355.496 178.824 354.684 177.975 354.087 176.892C353.508 175.809 353.219 174.531 353.219 173.056C353.219 171.6 353.508 170.331 354.087 169.248C354.666 168.147 355.468 167.297 356.495 166.7C357.54 166.084 358.744 165.776 360.107 165.776C361.451 165.776 362.608 166.084 363.579 166.7C364.568 167.297 365.324 168.091 365.847 169.08C366.37 170.069 366.631 171.133 366.631 172.272C366.631 172.477 366.622 172.683 366.603 172.888C366.603 173.093 366.603 173.327 366.603 173.588H355.543C355.599 174.652 355.842 175.539 356.271 176.248C356.719 176.939 357.27 177.461 357.923 177.816C358.595 178.171 359.304 178.348 360.051 178.348C361.022 178.348 361.834 178.124 362.487 177.676C363.14 177.228 363.616 176.621 363.915 175.856H366.239C365.866 177.144 365.147 178.217 364.083 179.076C363.038 179.916 361.694 180.336 360.051 180.336ZM360.051 167.764C358.931 167.764 357.932 168.109 357.055 168.8C356.196 169.472 355.702 170.461 355.571 171.768H364.307C364.251 170.517 363.822 169.537 363.019 168.828C362.216 168.119 361.227 167.764 360.051 167.764ZM369.748 180V166.112H371.876L372.044 168.128C372.492 167.381 373.09 166.803 373.836 166.392C374.583 165.981 375.423 165.776 376.356 165.776C377.458 165.776 378.4 166 379.184 166.448C379.987 166.896 380.603 167.577 381.032 168.492C381.518 167.652 382.18 166.989 383.02 166.504C383.879 166.019 384.803 165.776 385.792 165.776C387.454 165.776 388.779 166.28 389.768 167.288C390.758 168.277 391.252 169.808 391.252 171.88V180H388.928V172.132C388.928 170.695 388.639 169.612 388.06 168.884C387.482 168.156 386.651 167.792 385.568 167.792C384.448 167.792 383.515 168.231 382.768 169.108C382.04 169.967 381.676 171.199 381.676 172.804V180H379.324V172.132C379.324 170.695 379.035 169.612 378.456 168.884C377.878 168.156 377.047 167.792 375.964 167.792C374.863 167.792 373.939 168.231 373.192 169.108C372.464 169.967 372.1 171.199 372.1 172.804V180H369.748ZM401.039 180.336C399.714 180.336 398.538 180.037 397.511 179.44C396.485 178.824 395.673 177.975 395.075 176.892C394.497 175.809 394.207 174.531 394.207 173.056C394.207 171.6 394.497 170.331 395.075 169.248C395.654 168.147 396.457 167.297 397.483 166.7C398.529 166.084 399.733 165.776 401.095 165.776C402.439 165.776 403.597 166.084 404.567 166.7C405.557 167.297 406.313 168.091 406.835 169.08C407.358 170.069 407.619 171.133 407.619 172.272C407.619 172.477 407.61 172.683 407.591 172.888C407.591 173.093 407.591 173.327 407.591 173.588H396.531C396.587 174.652 396.83 175.539 397.259 176.248C397.707 176.939 398.258 177.461 398.911 177.816C399.583 178.171 400.293 178.348 401.039 178.348C402.01 178.348 402.822 178.124 403.475 177.676C404.129 177.228 404.605 176.621 404.903 175.856H407.227C406.854 177.144 406.135 178.217 405.071 179.076C404.026 179.916 402.682 180.336 401.039 180.336ZM401.039 167.764C399.919 167.764 398.921 168.109 398.043 168.8C397.185 169.472 396.69 170.461 396.559 171.768H405.295C405.239 170.517 404.81 169.537 404.007 168.828C403.205 168.119 402.215 167.764 401.039 167.764ZM416.057 180.336C414.395 180.336 413.014 179.916 411.913 179.076C410.811 178.236 410.167 177.097 409.981 175.66H412.389C412.538 176.388 412.921 177.023 413.537 177.564C414.171 178.087 415.021 178.348 416.085 178.348C417.074 178.348 417.802 178.143 418.269 177.732C418.735 177.303 418.969 176.799 418.969 176.22C418.969 175.38 418.661 174.82 418.045 174.54C417.447 174.26 416.598 174.008 415.497 173.784C414.75 173.635 414.003 173.42 413.257 173.14C412.51 172.86 411.885 172.468 411.381 171.964C410.877 171.441 410.625 170.76 410.625 169.92C410.625 168.707 411.073 167.717 411.969 166.952C412.883 166.168 414.115 165.776 415.665 165.776C417.139 165.776 418.343 166.149 419.277 166.896C420.229 167.624 420.779 168.669 420.929 170.032H418.605C418.511 169.323 418.203 168.772 417.681 168.38C417.177 167.969 416.495 167.764 415.637 167.764C414.797 167.764 414.143 167.941 413.677 168.296C413.229 168.651 413.005 169.117 413.005 169.696C413.005 170.256 413.294 170.695 413.873 171.012C414.47 171.329 415.273 171.6 416.281 171.824C417.139 172.011 417.951 172.244 418.717 172.524C419.501 172.785 420.135 173.187 420.621 173.728C421.125 174.251 421.377 175.016 421.377 176.024C421.395 177.275 420.919 178.311 419.949 179.132C418.997 179.935 417.699 180.336 416.057 180.336ZM429.596 180C428.326 180 427.328 179.692 426.6 179.076C425.872 178.46 425.508 177.349 425.508 175.744V168.1H423.1V166.112H425.508L425.816 162.78H427.86V166.112H431.948V168.1H427.86V175.744C427.86 176.621 428.037 177.219 428.392 177.536C428.746 177.835 429.372 177.984 430.268 177.984H431.724V180H429.596ZM434.936 180V166.112H437.064L437.26 168.772C437.689 167.857 438.343 167.129 439.22 166.588C440.097 166.047 441.18 165.776 442.468 165.776V168.24H441.824C441.003 168.24 440.247 168.389 439.556 168.688C438.865 168.968 438.315 169.453 437.904 170.144C437.493 170.835 437.288 171.787 437.288 173V180H434.936ZM450.832 180.336C449.507 180.336 448.331 180.037 447.304 179.44C446.278 178.824 445.466 177.975 444.868 176.892C444.29 175.809 444 174.531 444 173.056C444 171.6 444.29 170.331 444.868 169.248C445.447 168.147 446.25 167.297 447.276 166.7C448.322 166.084 449.526 165.776 450.888 165.776C452.232 165.776 453.39 166.084 454.36 166.7C455.35 167.297 456.106 168.091 456.628 169.08C457.151 170.069 457.412 171.133 457.412 172.272C457.412 172.477 457.403 172.683 457.384 172.888C457.384 173.093 457.384 173.327 457.384 173.588H446.324C446.38 174.652 446.623 175.539 447.052 176.248C447.5 176.939 448.051 177.461 448.704 177.816C449.376 178.171 450.086 178.348 450.832 178.348C451.803 178.348 452.615 178.124 453.268 177.676C453.922 177.228 454.398 176.621 454.696 175.856H457.02C456.647 177.144 455.928 178.217 454.864 179.076C453.819 179.916 452.475 180.336 450.832 180.336ZM450.832 167.764C449.712 167.764 448.714 168.109 447.836 168.8C446.978 169.472 446.483 170.461 446.352 171.768H455.088C455.032 170.517 454.603 169.537 453.8 168.828C452.998 168.119 452.008 167.764 450.832 167.764ZM467.772 180V178.348C469.097 177.303 470.348 176.248 471.524 175.184C472.718 174.101 473.773 173.037 474.688 171.992C475.621 170.947 476.349 169.92 476.872 168.912C477.413 167.904 477.684 166.933 477.684 166C477.684 165.309 477.562 164.665 477.32 164.068C477.096 163.471 476.722 162.995 476.2 162.64C475.677 162.267 474.968 162.08 474.072 162.08C473.213 162.08 472.494 162.276 471.916 162.668C471.337 163.041 470.898 163.545 470.6 164.18C470.32 164.815 470.18 165.496 470.18 166.224H467.912C467.912 164.936 468.182 163.835 468.724 162.92C469.265 161.987 470.002 161.277 470.936 160.792C471.869 160.307 472.924 160.064 474.1 160.064C475.836 160.064 477.254 160.559 478.356 161.548C479.476 162.519 480.036 163.975 480.036 165.916C480.036 167.073 479.746 168.221 479.168 169.36C478.589 170.48 477.852 171.572 476.956 172.636C476.06 173.681 475.098 174.661 474.072 175.576C473.064 176.491 472.121 177.312 471.244 178.04H480.708V180H467.772ZM491.474 180.336C489.738 180.336 488.235 179.916 486.966 179.076C485.715 178.217 484.754 177.032 484.082 175.52C483.41 173.989 483.074 172.216 483.074 170.2C483.074 168.184 483.41 166.42 484.082 164.908C484.754 163.377 485.715 162.192 486.966 161.352C488.235 160.493 489.738 160.064 491.474 160.064C493.21 160.064 494.703 160.493 495.954 161.352C497.204 162.192 498.166 163.377 498.838 164.908C499.51 166.42 499.846 168.184 499.846 170.2C499.846 172.216 499.51 173.989 498.838 175.52C498.166 177.032 497.204 178.217 495.954 179.076C494.703 179.916 493.21 180.336 491.474 180.336ZM491.474 178.264C492.612 178.264 493.63 177.947 494.526 177.312C495.44 176.659 496.15 175.735 496.654 174.54C497.176 173.327 497.438 171.88 497.438 170.2C497.438 168.52 497.176 167.083 496.654 165.888C496.15 164.693 495.44 163.779 494.526 163.144C493.63 162.491 492.612 162.164 491.474 162.164C490.316 162.164 489.29 162.491 488.394 163.144C487.498 163.779 486.788 164.693 486.266 165.888C485.743 167.083 485.482 168.52 485.482 170.2C485.482 171.88 485.743 173.327 486.266 174.54C486.788 175.735 487.498 176.659 488.394 177.312C489.29 177.947 490.316 178.264 491.474 178.264ZM505.176 180V163.032L502.012 163.732V162.108L505.96 160.4H507.556V180H505.176ZM518.133 160.064C519.552 160.064 520.746 160.335 521.717 160.876C522.688 161.399 523.462 162.108 524.041 163.004C524.638 163.9 525.068 164.908 525.329 166.028C525.609 167.129 525.749 168.259 525.749 169.416C525.749 171.581 525.45 173.485 524.853 175.128C524.256 176.752 523.388 178.031 522.249 178.964C521.129 179.879 519.766 180.336 518.161 180.336C516.929 180.336 515.874 180.093 514.997 179.608C514.12 179.123 513.42 178.479 512.897 177.676C512.393 176.855 512.076 175.949 511.945 174.96H514.129C514.334 176.024 514.792 176.845 515.501 177.424C516.21 178.003 517.106 178.292 518.189 178.292C519.664 178.292 520.896 177.601 521.885 176.22C522.893 174.82 523.434 172.645 523.509 169.696C523.061 170.573 522.342 171.339 521.353 171.992C520.382 172.627 519.206 172.944 517.825 172.944C516.705 172.944 515.65 172.683 514.661 172.16C513.69 171.637 512.897 170.909 512.281 169.976C511.665 169.024 511.357 167.913 511.357 166.644C511.357 165.543 511.628 164.488 512.169 163.48C512.71 162.472 513.485 161.651 514.493 161.016C515.52 160.381 516.733 160.064 518.133 160.064ZM518.301 162.136C517.424 162.136 516.64 162.323 515.949 162.696C515.258 163.069 514.717 163.592 514.325 164.264C513.933 164.917 513.737 165.673 513.737 166.532C513.737 167.857 514.166 168.921 515.025 169.724C515.902 170.508 516.994 170.9 518.301 170.9C519.178 170.9 519.962 170.704 520.653 170.312C521.344 169.901 521.885 169.36 522.277 168.688C522.688 168.016 522.893 167.288 522.893 166.504C522.893 165.664 522.688 164.917 522.277 164.264C521.885 163.592 521.344 163.069 520.653 162.696C519.962 162.323 519.178 162.136 518.301 162.136ZM530.002 180.14C529.535 180.14 529.143 179.991 528.826 179.692C528.527 179.375 528.378 178.992 528.378 178.544C528.378 178.096 528.527 177.723 528.826 177.424C529.143 177.107 529.535 176.948 530.002 176.948C530.45 176.948 530.823 177.107 531.122 177.424C531.439 177.723 531.598 178.096 531.598 178.544C531.598 178.992 531.439 179.375 531.122 179.692C530.823 179.991 530.45 180.14 530.002 180.14ZM530.002 168.968C529.535 168.968 529.143 168.819 528.826 168.52C528.527 168.203 528.378 167.82 528.378 167.372C528.378 166.924 528.527 166.551 528.826 166.252C529.143 165.935 529.535 165.776 530.002 165.776C530.45 165.776 530.823 165.935 531.122 166.252C531.439 166.551 531.598 166.924 531.598 167.372C531.598 167.82 531.439 168.203 531.122 168.52C530.823 168.819 530.45 168.968 530.002 168.968Z" fill="white"/>
<path d="M174.245 356V344.8H176.245L180.037 352.256L183.813 344.8H185.813V356H184.117V347.728L180.693 354.4H179.381L175.941 347.744V356H174.245ZM190.713 356.192C190.041 356.192 189.486 356.08 189.049 355.856C188.612 355.632 188.286 355.339 188.073 354.976C187.86 354.603 187.753 354.197 187.753 353.76C187.753 352.992 188.052 352.384 188.649 351.936C189.246 351.488 190.1 351.264 191.209 351.264H193.289V351.12C193.289 350.501 193.118 350.037 192.777 349.728C192.446 349.419 192.014 349.264 191.481 349.264C191.012 349.264 190.601 349.381 190.249 349.616C189.908 349.84 189.7 350.176 189.625 350.624H187.929C187.982 350.048 188.174 349.557 188.505 349.152C188.846 348.736 189.273 348.421 189.785 348.208C190.308 347.984 190.878 347.872 191.497 347.872C192.606 347.872 193.465 348.165 194.073 348.752C194.681 349.328 194.985 350.117 194.985 351.12V356H193.513L193.369 354.64C193.145 355.077 192.82 355.445 192.393 355.744C191.966 356.043 191.406 356.192 190.713 356.192ZM191.049 354.816C191.508 354.816 191.892 354.709 192.201 354.496C192.521 354.272 192.766 353.979 192.937 353.616C193.118 353.253 193.23 352.853 193.273 352.416H191.385C190.713 352.416 190.233 352.533 189.945 352.768C189.668 353.003 189.529 353.296 189.529 353.648C189.529 354.011 189.662 354.299 189.929 354.512C190.206 354.715 190.58 354.816 191.049 354.816ZM197.923 346.56C197.603 346.56 197.336 346.464 197.123 346.272C196.92 346.069 196.819 345.819 196.819 345.52C196.819 345.221 196.92 344.976 197.123 344.784C197.336 344.581 197.603 344.48 197.923 344.48C198.243 344.48 198.504 344.581 198.707 344.784C198.92 344.976 199.027 345.221 199.027 345.52C199.027 345.819 198.92 346.069 198.707 346.272C198.504 346.464 198.243 346.56 197.923 346.56ZM197.075 356V348.064H198.771V356H197.075ZM201.01 356V344.48H202.706V356H201.01ZM208.021 356.192C207.019 356.192 206.192 355.947 205.541 355.456C204.891 354.965 204.517 354.315 204.421 353.504H206.133C206.219 353.867 206.421 354.181 206.741 354.448C207.061 354.704 207.483 354.832 208.005 354.832C208.517 354.832 208.891 354.725 209.125 354.512C209.36 354.299 209.477 354.053 209.477 353.776C209.477 353.371 209.312 353.099 208.981 352.96C208.661 352.811 208.213 352.677 207.637 352.56C207.189 352.464 206.741 352.336 206.293 352.176C205.856 352.016 205.488 351.792 205.189 351.504C204.901 351.205 204.757 350.805 204.757 350.304C204.757 349.611 205.024 349.035 205.557 348.576C206.091 348.107 206.837 347.872 207.797 347.872C208.683 347.872 209.397 348.085 209.941 348.512C210.496 348.939 210.821 349.541 210.917 350.32H209.285C209.232 349.979 209.072 349.712 208.805 349.52C208.549 349.328 208.203 349.232 207.765 349.232C207.339 349.232 207.008 349.323 206.773 349.504C206.539 349.675 206.421 349.899 206.421 350.176C206.421 350.453 206.581 350.672 206.901 350.832C207.232 350.992 207.664 351.136 208.197 351.264C208.731 351.381 209.221 351.52 209.669 351.68C210.128 351.829 210.496 352.053 210.773 352.352C211.051 352.651 211.189 353.088 211.189 353.664C211.2 354.389 210.917 354.992 210.341 355.472C209.776 355.952 209.003 356.192 208.021 356.192ZM217.072 356V348.064H218.592L218.736 349.568C219.013 349.045 219.397 348.635 219.888 348.336C220.389 348.027 220.992 347.872 221.696 347.872V349.648H221.232C220.763 349.648 220.341 349.728 219.968 349.888C219.605 350.037 219.312 350.299 219.088 350.672C218.875 351.035 218.768 351.541 218.768 352.192V356H217.072ZM226.643 356.192C225.865 356.192 225.171 356.021 224.563 355.68C223.966 355.328 223.497 354.843 223.155 354.224C222.814 353.605 222.643 352.885 222.643 352.064C222.643 351.232 222.809 350.501 223.139 349.872C223.481 349.243 223.95 348.752 224.547 348.4C225.155 348.048 225.859 347.872 226.659 347.872C227.438 347.872 228.115 348.048 228.691 348.4C229.267 348.741 229.715 349.2 230.035 349.776C230.355 350.352 230.515 350.987 230.515 351.68C230.515 351.787 230.51 351.904 230.499 352.032C230.499 352.149 230.494 352.283 230.483 352.432H224.307C224.361 353.2 224.611 353.787 225.059 354.192C225.518 354.587 226.046 354.784 226.643 354.784C227.123 354.784 227.523 354.677 227.843 354.464C228.174 354.24 228.419 353.941 228.579 353.568H230.275C230.062 354.315 229.635 354.939 228.995 355.44C228.366 355.941 227.582 356.192 226.643 356.192ZM226.643 349.264C226.078 349.264 225.577 349.435 225.139 349.776C224.702 350.107 224.435 350.608 224.339 351.28H228.819C228.787 350.661 228.569 350.171 228.163 349.808C227.758 349.445 227.251 349.264 226.643 349.264ZM236.035 356.192C235.256 356.192 234.558 356.016 233.939 355.664C233.331 355.312 232.851 354.827 232.499 354.208C232.158 353.579 231.987 352.853 231.987 352.032C231.987 351.211 232.158 350.491 232.499 349.872C232.851 349.243 233.331 348.752 233.939 348.4C234.558 348.048 235.256 347.872 236.035 347.872C237.016 347.872 237.838 348.128 238.499 348.64C239.171 349.152 239.603 349.845 239.795 350.72H238.019C237.912 350.283 237.678 349.941 237.315 349.696C236.952 349.451 236.526 349.328 236.035 349.328C235.619 349.328 235.235 349.435 234.883 349.648C234.531 349.851 234.248 350.155 234.035 350.56C233.822 350.955 233.715 351.445 233.715 352.032C233.715 352.619 233.822 353.115 234.035 353.52C234.248 353.915 234.531 354.219 234.883 354.432C235.235 354.645 235.619 354.752 236.035 354.752C236.526 354.752 236.952 354.629 237.315 354.384C237.678 354.139 237.912 353.792 238.019 353.344H239.795C239.614 354.197 239.187 354.885 238.515 355.408C237.843 355.931 237.016 356.192 236.035 356.192ZM242.595 346.56C242.275 346.56 242.008 346.464 241.795 346.272C241.592 346.069 241.491 345.819 241.491 345.52C241.491 345.221 241.592 344.976 241.795 344.784C242.008 344.581 242.275 344.48 242.595 344.48C242.915 344.48 243.176 344.581 243.379 344.784C243.592 344.976 243.699 345.221 243.699 345.52C243.699 345.819 243.592 346.069 243.379 346.272C243.176 346.464 242.915 346.56 242.595 346.56ZM241.747 356V348.064H243.443V356H241.747ZM250.145 356.192C249.527 356.192 248.977 356.069 248.497 355.824C248.028 355.579 247.655 355.232 247.377 354.784L247.201 356H245.681V344.48H247.377V349.296C247.633 348.923 247.985 348.592 248.433 348.304C248.881 348.016 249.457 347.872 250.161 347.872C250.929 347.872 251.607 348.053 252.193 348.416C252.78 348.779 253.239 349.275 253.569 349.904C253.911 350.533 254.081 351.248 254.081 352.048C254.081 352.848 253.911 353.563 253.569 354.192C253.239 354.811 252.78 355.301 252.193 355.664C251.607 356.016 250.924 356.192 250.145 356.192ZM249.857 354.72C250.583 354.72 251.18 354.475 251.649 353.984C252.119 353.483 252.353 352.832 252.353 352.032C252.353 351.509 252.247 351.045 252.033 350.64C251.82 350.235 251.527 349.92 251.153 349.696C250.78 349.461 250.348 349.344 249.857 349.344C249.132 349.344 248.535 349.595 248.065 350.096C247.607 350.597 247.377 351.243 247.377 352.032C247.377 352.832 247.607 353.483 248.065 353.984C248.535 354.475 249.132 354.72 249.857 354.72ZM256.876 346.56C256.556 346.56 256.289 346.464 256.076 346.272C255.873 346.069 255.772 345.819 255.772 345.52C255.772 345.221 255.873 344.976 256.076 344.784C256.289 344.581 256.556 344.48 256.876 344.48C257.196 344.48 257.457 344.581 257.66 344.784C257.873 344.976 257.98 345.221 257.98 345.52C257.98 345.819 257.873 346.069 257.66 346.272C257.457 346.464 257.196 346.56 256.876 346.56ZM256.028 356V348.064H257.724V356H256.028ZM263.579 356.192C262.811 356.192 262.133 356.011 261.547 355.648C260.96 355.285 260.501 354.789 260.171 354.16C259.84 353.531 259.675 352.816 259.675 352.016C259.675 351.216 259.84 350.507 260.171 349.888C260.501 349.259 260.96 348.768 261.547 348.416C262.144 348.053 262.827 347.872 263.595 347.872C264.224 347.872 264.773 347.995 265.243 348.24C265.723 348.485 266.096 348.832 266.363 349.28V344.48H268.059V356H266.539L266.363 354.768C266.107 355.141 265.755 355.472 265.307 355.76C264.859 356.048 264.283 356.192 263.579 356.192ZM263.883 354.72C264.608 354.72 265.2 354.469 265.659 353.968C266.128 353.467 266.363 352.821 266.363 352.032C266.363 351.232 266.128 350.587 265.659 350.096C265.2 349.595 264.608 349.344 263.883 349.344C263.157 349.344 262.56 349.595 262.091 350.096C261.621 350.587 261.387 351.232 261.387 352.032C261.387 352.555 261.493 353.019 261.707 353.424C261.92 353.829 262.213 354.149 262.587 354.384C262.971 354.608 263.403 354.72 263.883 354.72ZM273.909 356.192C273.152 356.192 272.469 356.021 271.861 355.68C271.264 355.328 270.789 354.843 270.437 354.224C270.085 353.595 269.909 352.864 269.909 352.032C269.909 351.2 270.085 350.475 270.437 349.856C270.8 349.227 271.285 348.741 271.893 348.4C272.501 348.048 273.178 347.872 273.925 347.872C274.682 347.872 275.36 348.048 275.957 348.4C276.565 348.741 277.045 349.227 277.397 349.856C277.76 350.475 277.941 351.2 277.941 352.032C277.941 352.864 277.76 353.595 277.397 354.224C277.045 354.843 276.565 355.328 275.957 355.68C275.349 356.021 274.666 356.192 273.909 356.192ZM273.909 354.736C274.314 354.736 274.688 354.635 275.029 354.432C275.381 354.229 275.664 353.931 275.877 353.536C276.09 353.131 276.197 352.629 276.197 352.032C276.197 351.435 276.09 350.939 275.877 350.544C275.674 350.139 275.397 349.835 275.045 349.632C274.704 349.429 274.33 349.328 273.925 349.328C273.52 349.328 273.141 349.429 272.789 349.632C272.448 349.835 272.17 350.139 271.957 350.544C271.744 350.939 271.637 351.435 271.637 352.032C271.637 352.629 271.744 353.131 271.957 353.536C272.17 353.931 272.448 354.229 272.789 354.432C273.13 354.635 273.504 354.736 273.909 354.736ZM282.943 356.192C281.94 356.192 281.114 355.947 280.463 355.456C279.812 354.965 279.439 354.315 279.343 353.504H281.055C281.14 353.867 281.343 354.181 281.663 354.448C281.983 354.704 282.404 354.832 282.927 354.832C283.439 354.832 283.812 354.725 284.047 354.512C284.282 354.299 284.399 354.053 284.399 353.776C284.399 353.371 284.234 353.099 283.903 352.96C283.583 352.811 283.135 352.677 282.559 352.56C282.111 352.464 281.663 352.336 281.215 352.176C280.778 352.016 280.41 351.792 280.111 351.504C279.823 351.205 279.679 350.805 279.679 350.304C279.679 349.611 279.946 349.035 280.479 348.576C281.012 348.107 281.759 347.872 282.719 347.872C283.604 347.872 284.319 348.085 284.863 348.512C285.418 348.939 285.743 349.541 285.839 350.32H284.207C284.154 349.979 283.994 349.712 283.727 349.52C283.471 349.328 283.124 349.232 282.687 349.232C282.26 349.232 281.93 349.323 281.695 349.504C281.46 349.675 281.343 349.899 281.343 350.176C281.343 350.453 281.503 350.672 281.823 350.832C282.154 350.992 282.586 351.136 283.119 351.264C283.652 351.381 284.143 351.52 284.591 351.68C285.05 351.829 285.418 352.053 285.695 352.352C285.972 352.651 286.111 353.088 286.111 353.664C286.122 354.389 285.839 354.992 285.263 355.472C284.698 355.952 283.924 356.192 282.943 356.192Z" fill="white"/>
<path d="M458.362 356.192C457.253 356.192 456.293 355.952 455.482 355.472C454.682 354.981 454.064 354.304 453.626 353.44C453.189 352.565 452.97 351.557 452.97 350.416C452.97 349.264 453.189 348.256 453.626 347.392C454.064 346.517 454.682 345.835 455.482 345.344C456.293 344.853 457.253 344.608 458.362 344.608C459.674 344.608 460.746 344.928 461.578 345.568C462.41 346.208 462.938 347.104 463.162 348.256H461.274C461.125 347.605 460.805 347.088 460.314 346.704C459.824 346.32 459.168 346.128 458.346 346.128C457.226 346.128 456.341 346.512 455.69 347.28C455.04 348.037 454.714 349.083 454.714 350.416C454.714 351.739 455.04 352.779 455.69 353.536C456.341 354.293 457.226 354.672 458.346 354.672C459.168 354.672 459.824 354.491 460.314 354.128C460.805 353.765 461.125 353.269 461.274 352.64H463.162C462.938 353.749 462.41 354.619 461.578 355.248C460.746 355.877 459.674 356.192 458.362 356.192ZM464.963 356V344.48H466.659V349.344C466.925 348.885 467.293 348.528 467.763 348.272C468.243 348.005 468.771 347.872 469.347 347.872C470.296 347.872 471.043 348.171 471.587 348.768C472.131 349.365 472.403 350.256 472.403 351.44V356H470.723V351.616C470.723 350.08 470.109 349.312 468.883 349.312C468.243 349.312 467.709 349.536 467.283 349.984C466.867 350.432 466.659 351.072 466.659 351.904V356H464.963ZM477.088 356.192C476.416 356.192 475.861 356.08 475.424 355.856C474.987 355.632 474.661 355.339 474.448 354.976C474.235 354.603 474.128 354.197 474.128 353.76C474.128 352.992 474.427 352.384 475.024 351.936C475.621 351.488 476.475 351.264 477.584 351.264H479.664V351.12C479.664 350.501 479.493 350.037 479.152 349.728C478.821 349.419 478.389 349.264 477.856 349.264C477.387 349.264 476.976 349.381 476.624 349.616C476.283 349.84 476.075 350.176 476 350.624H474.304C474.357 350.048 474.549 349.557 474.88 349.152C475.221 348.736 475.648 348.421 476.16 348.208C476.683 347.984 477.253 347.872 477.872 347.872C478.981 347.872 479.84 348.165 480.448 348.752C481.056 349.328 481.36 350.117 481.36 351.12V356H479.888L479.744 354.64C479.52 355.077 479.195 355.445 478.768 355.744C478.341 356.043 477.781 356.192 477.088 356.192ZM477.424 354.816C477.883 354.816 478.267 354.709 478.576 354.496C478.896 354.272 479.141 353.979 479.312 353.616C479.493 353.253 479.605 352.853 479.648 352.416H477.76C477.088 352.416 476.608 352.533 476.32 352.768C476.043 353.003 475.904 353.296 475.904 353.648C475.904 354.011 476.037 354.299 476.304 354.512C476.581 354.715 476.955 354.816 477.424 354.816ZM486.509 356C485.731 356 485.112 355.813 484.653 355.44C484.195 355.056 483.965 354.379 483.965 353.408V349.488H482.605V348.064H483.965L484.173 346.048H485.661V348.064H487.901V349.488H485.661V353.408C485.661 353.845 485.752 354.149 485.933 354.32C486.125 354.48 486.451 354.56 486.909 354.56H487.821V356H486.509ZM492.818 356.192C491.815 356.192 490.989 355.947 490.338 355.456C489.687 354.965 489.314 354.315 489.218 353.504H490.93C491.015 353.867 491.218 354.181 491.538 354.448C491.858 354.704 492.279 354.832 492.802 354.832C493.314 354.832 493.687 354.725 493.922 354.512C494.157 354.299 494.274 354.053 494.274 353.776C494.274 353.371 494.109 353.099 493.778 352.96C493.458 352.811 493.01 352.677 492.434 352.56C491.986 352.464 491.538 352.336 491.09 352.176C490.653 352.016 490.285 351.792 489.986 351.504C489.698 351.205 489.554 350.805 489.554 350.304C489.554 349.611 489.821 349.035 490.354 348.576C490.887 348.107 491.634 347.872 492.594 347.872C493.479 347.872 494.194 348.085 494.738 348.512C495.293 348.939 495.618 349.541 495.714 350.32H494.082C494.029 349.979 493.869 349.712 493.602 349.52C493.346 349.328 492.999 349.232 492.562 349.232C492.135 349.232 491.805 349.323 491.57 349.504C491.335 349.675 491.218 349.899 491.218 350.176C491.218 350.453 491.378 350.672 491.698 350.832C492.029 350.992 492.461 351.136 492.994 351.264C493.527 351.381 494.018 351.52 494.466 351.68C494.925 351.829 495.293 352.053 495.57 352.352C495.847 352.651 495.986 353.088 495.986 353.664C495.997 354.389 495.714 354.992 495.138 355.472C494.573 355.952 493.799 356.192 492.818 356.192Z" fill="white"/>
<path d="M194.464 557V545.8H196.16V555.656H201.248V557H194.464ZM203.01 557V545.48H204.706V557H203.01ZM209.541 557.192C208.869 557.192 208.315 557.08 207.877 556.856C207.44 556.632 207.115 556.339 206.901 555.976C206.688 555.603 206.581 555.197 206.581 554.76C206.581 553.992 206.88 553.384 207.477 552.936C208.075 552.488 208.928 552.264 210.037 552.264H212.117V552.12C212.117 551.501 211.947 551.037 211.605 550.728C211.275 550.419 210.843 550.264 210.309 550.264C209.84 550.264 209.429 550.381 209.077 550.616C208.736 550.84 208.528 551.176 208.453 551.624H206.757C206.811 551.048 207.003 550.557 207.333 550.152C207.675 549.736 208.101 549.421 208.613 549.208C209.136 548.984 209.707 548.872 210.325 548.872C211.435 548.872 212.293 549.165 212.901 549.752C213.509 550.328 213.813 551.117 213.813 552.12V557H212.341L212.197 555.64C211.973 556.077 211.648 556.445 211.221 556.744C210.795 557.043 210.235 557.192 209.541 557.192ZM209.877 555.816C210.336 555.816 210.72 555.709 211.029 555.496C211.349 555.272 211.595 554.979 211.765 554.616C211.947 554.253 212.059 553.853 212.101 553.416H210.213C209.541 553.416 209.061 553.533 208.773 553.768C208.496 554.003 208.357 554.296 208.357 554.648C208.357 555.011 208.491 555.299 208.757 555.512C209.035 555.715 209.408 555.816 209.877 555.816ZM215.791 557V549.064H217.295L217.439 550.184C217.695 549.779 218.031 549.459 218.447 549.224C218.873 548.989 219.364 548.872 219.919 548.872C221.177 548.872 222.052 549.368 222.543 550.36C222.831 549.901 223.215 549.539 223.695 549.272C224.185 549.005 224.713 548.872 225.279 548.872C226.271 548.872 227.049 549.171 227.615 549.768C228.18 550.365 228.463 551.256 228.463 552.44V557H226.767V552.616C226.767 551.08 226.18 550.312 225.007 550.312C224.409 550.312 223.919 550.536 223.535 550.984C223.161 551.432 222.975 552.072 222.975 552.904V557H221.279V552.616C221.279 551.08 220.687 550.312 219.503 550.312C218.916 550.312 218.431 550.536 218.047 550.984C217.673 551.432 217.487 552.072 217.487 552.904V557H215.791ZM233.135 557.192C232.463 557.192 231.908 557.08 231.471 556.856C231.034 556.632 230.708 556.339 230.495 555.976C230.282 555.603 230.175 555.197 230.175 554.76C230.175 553.992 230.474 553.384 231.071 552.936C231.668 552.488 232.522 552.264 233.631 552.264H235.711V552.12C235.711 551.501 235.54 551.037 235.199 550.728C234.868 550.419 234.436 550.264 233.903 550.264C233.434 550.264 233.023 550.381 232.671 550.616C232.33 550.84 232.122 551.176 232.047 551.624H230.351C230.404 551.048 230.596 550.557 230.927 550.152C231.268 549.736 231.695 549.421 232.207 549.208C232.73 548.984 233.3 548.872 233.919 548.872C235.028 548.872 235.887 549.165 236.495 549.752C237.103 550.328 237.407 551.117 237.407 552.12V557H235.935L235.791 555.64C235.567 556.077 235.242 556.445 234.815 556.744C234.388 557.043 233.828 557.192 233.135 557.192ZM233.471 555.816C233.93 555.816 234.314 555.709 234.623 555.496C234.943 555.272 235.188 554.979 235.359 554.616C235.54 554.253 235.652 553.853 235.695 553.416H233.807C233.135 553.416 232.655 553.533 232.367 553.768C232.09 554.003 231.951 554.296 231.951 554.648C231.951 555.011 232.084 555.299 232.351 555.512C232.628 555.715 233.002 555.816 233.471 555.816ZM243.001 557.192C242.233 557.192 241.555 557.011 240.969 556.648C240.382 556.285 239.923 555.789 239.593 555.16C239.262 554.531 239.097 553.816 239.097 553.016C239.097 552.216 239.262 551.507 239.593 550.888C239.923 550.259 240.382 549.768 240.969 549.416C241.566 549.053 242.249 548.872 243.016 548.872C243.646 548.872 244.195 548.995 244.665 549.24C245.145 549.485 245.518 549.832 245.785 550.28V545.48H247.481V557H245.961L245.785 555.768C245.529 556.141 245.177 556.472 244.729 556.76C244.281 557.048 243.705 557.192 243.001 557.192ZM243.305 555.72C244.03 555.72 244.622 555.469 245.081 554.968C245.55 554.467 245.785 553.821 245.785 553.032C245.785 552.232 245.55 551.587 245.081 551.096C244.622 550.595 244.03 550.344 243.305 550.344C242.579 550.344 241.982 550.595 241.513 551.096C241.043 551.587 240.809 552.232 240.809 553.032C240.809 553.555 240.915 554.019 241.129 554.424C241.342 554.829 241.635 555.149 242.009 555.384C242.393 555.608 242.825 555.72 243.305 555.72ZM252.307 557.192C251.635 557.192 251.08 557.08 250.643 556.856C250.206 556.632 249.88 556.339 249.667 555.976C249.454 555.603 249.347 555.197 249.347 554.76C249.347 553.992 249.646 553.384 250.243 552.936C250.84 552.488 251.694 552.264 252.803 552.264H254.883V552.12C254.883 551.501 254.712 551.037 254.371 550.728C254.04 550.419 253.608 550.264 253.075 550.264C252.606 550.264 252.195 550.381 251.843 550.616C251.502 550.84 251.294 551.176 251.219 551.624H249.523C249.576 551.048 249.768 550.557 250.099 550.152C250.44 549.736 250.867 549.421 251.379 549.208C251.902 548.984 252.472 548.872 253.091 548.872C254.2 548.872 255.059 549.165 255.667 549.752C256.275 550.328 256.579 551.117 256.579 552.12V557H255.107L254.963 555.64C254.739 556.077 254.414 556.445 253.987 556.744C253.56 557.043 253 557.192 252.307 557.192ZM252.643 555.816C253.102 555.816 253.486 555.709 253.795 555.496C254.115 555.272 254.36 554.979 254.531 554.616C254.712 554.253 254.824 553.853 254.867 553.416H252.979C252.307 553.416 251.827 553.533 251.539 553.768C251.262 554.003 251.123 554.296 251.123 554.648C251.123 555.011 251.256 555.299 251.523 555.512C251.8 555.715 252.174 555.816 252.643 555.816ZM261.724 557.192C260.722 557.192 259.895 556.947 259.244 556.456C258.594 555.965 258.22 555.315 258.124 554.504H259.836C259.922 554.867 260.124 555.181 260.444 555.448C260.764 555.704 261.186 555.832 261.708 555.832C262.22 555.832 262.594 555.725 262.828 555.512C263.063 555.299 263.18 555.053 263.18 554.776C263.18 554.371 263.015 554.099 262.684 553.96C262.364 553.811 261.916 553.677 261.34 553.56C260.892 553.464 260.444 553.336 259.996 553.176C259.559 553.016 259.191 552.792 258.892 552.504C258.604 552.205 258.46 551.805 258.46 551.304C258.46 550.611 258.727 550.035 259.26 549.576C259.794 549.107 260.54 548.872 261.5 548.872C262.386 548.872 263.1 549.085 263.644 549.512C264.199 549.939 264.524 550.541 264.62 551.32H262.988C262.935 550.979 262.775 550.712 262.508 550.52C262.252 550.328 261.906 550.232 261.468 550.232C261.042 550.232 260.711 550.323 260.476 550.504C260.242 550.675 260.124 550.899 260.124 551.176C260.124 551.453 260.284 551.672 260.604 551.832C260.935 551.992 261.367 552.136 261.9 552.264C262.434 552.381 262.924 552.52 263.372 552.68C263.831 552.829 264.199 553.053 264.476 553.352C264.754 553.651 264.892 554.088 264.892 554.664C264.903 555.389 264.62 555.992 264.044 556.472C263.479 556.952 262.706 557.192 261.724 557.192Z" fill="white"/>
<path d="M419.245 557V545.8H421.245L425.037 553.256L428.813 545.8H430.813V557H429.117V548.728L425.693 555.4H424.381L420.941 548.744V557H419.245ZM435.713 557.192C435.041 557.192 434.486 557.08 434.049 556.856C433.612 556.632 433.286 556.339 433.073 555.976C432.86 555.603 432.753 555.197 432.753 554.76C432.753 553.992 433.052 553.384 433.649 552.936C434.246 552.488 435.1 552.264 436.209 552.264H438.289V552.12C438.289 551.501 438.118 551.037 437.777 550.728C437.446 550.419 437.014 550.264 436.481 550.264C436.012 550.264 435.601 550.381 435.249 550.616C434.908 550.84 434.7 551.176 434.625 551.624H432.929C432.982 551.048 433.174 550.557 433.505 550.152C433.846 549.736 434.273 549.421 434.785 549.208C435.308 548.984 435.878 548.872 436.497 548.872C437.606 548.872 438.465 549.165 439.073 549.752C439.681 550.328 439.985 551.117 439.985 552.12V557H438.513L438.369 555.64C438.145 556.077 437.82 556.445 437.393 556.744C436.966 557.043 436.406 557.192 435.713 557.192ZM436.049 555.816C436.508 555.816 436.892 555.709 437.201 555.496C437.521 555.272 437.766 554.979 437.937 554.616C438.118 554.253 438.23 553.853 438.273 553.416H436.385C435.713 553.416 435.233 553.533 434.945 553.768C434.668 554.003 434.529 554.296 434.529 554.648C434.529 555.011 434.662 555.299 434.929 555.512C435.206 555.715 435.58 555.816 436.049 555.816ZM442.923 547.56C442.603 547.56 442.336 547.464 442.123 547.272C441.92 547.069 441.819 546.819 441.819 546.52C441.819 546.221 441.92 545.976 442.123 545.784C442.336 545.581 442.603 545.48 442.923 545.48C443.243 545.48 443.504 545.581 443.707 545.784C443.92 545.976 444.027 546.221 444.027 546.52C444.027 546.819 443.92 547.069 443.707 547.272C443.504 547.464 443.243 547.56 442.923 547.56ZM442.075 557V549.064H443.771V557H442.075ZM446.01 557V545.48H447.706V557H446.01ZM453.021 557.192C452.019 557.192 451.192 556.947 450.541 556.456C449.891 555.965 449.517 555.315 449.421 554.504H451.133C451.219 554.867 451.421 555.181 451.741 555.448C452.061 555.704 452.483 555.832 453.005 555.832C453.517 555.832 453.891 555.725 454.125 555.512C454.36 555.299 454.477 555.053 454.477 554.776C454.477 554.371 454.312 554.099 453.981 553.96C453.661 553.811 453.213 553.677 452.637 553.56C452.189 553.464 451.741 553.336 451.293 553.176C450.856 553.016 450.488 552.792 450.189 552.504C449.901 552.205 449.757 551.805 449.757 551.304C449.757 550.611 450.024 550.035 450.557 549.576C451.091 549.107 451.837 548.872 452.797 548.872C453.683 548.872 454.397 549.085 454.941 549.512C455.496 549.939 455.821 550.541 455.917 551.32H454.285C454.232 550.979 454.072 550.712 453.805 550.52C453.549 550.328 453.203 550.232 452.765 550.232C452.339 550.232 452.008 550.323 451.773 550.504C451.539 550.675 451.421 550.899 451.421 551.176C451.421 551.453 451.581 551.672 451.901 551.832C452.232 551.992 452.664 552.136 453.197 552.264C453.731 552.381 454.221 552.52 454.669 552.68C455.128 552.829 455.496 553.053 455.773 553.352C456.051 553.651 456.189 554.088 456.189 554.664C456.2 555.389 455.917 555.992 455.341 556.472C454.776 556.952 454.003 557.192 453.021 557.192ZM462.072 557V549.064H463.592L463.736 550.568C464.013 550.045 464.397 549.635 464.888 549.336C465.389 549.027 465.992 548.872 466.696 548.872V550.648H466.232C465.763 550.648 465.341 550.728 464.968 550.888C464.605 551.037 464.312 551.299 464.088 551.672C463.875 552.035 463.768 552.541 463.768 553.192V557H462.072ZM471.643 557.192C470.865 557.192 470.171 557.021 469.563 556.68C468.966 556.328 468.497 555.843 468.155 555.224C467.814 554.605 467.643 553.885 467.643 553.064C467.643 552.232 467.809 551.501 468.139 550.872C468.481 550.243 468.95 549.752 469.547 549.4C470.155 549.048 470.859 548.872 471.659 548.872C472.438 548.872 473.115 549.048 473.691 549.4C474.267 549.741 474.715 550.2 475.035 550.776C475.355 551.352 475.515 551.987 475.515 552.68C475.515 552.787 475.51 552.904 475.499 553.032C475.499 553.149 475.494 553.283 475.483 553.432H469.307C469.361 554.2 469.611 554.787 470.059 555.192C470.518 555.587 471.046 555.784 471.643 555.784C472.123 555.784 472.523 555.677 472.843 555.464C473.174 555.24 473.419 554.941 473.579 554.568H475.275C475.062 555.315 474.635 555.939 473.995 556.44C473.366 556.941 472.582 557.192 471.643 557.192ZM471.643 550.264C471.078 550.264 470.577 550.435 470.139 550.776C469.702 551.107 469.435 551.608 469.339 552.28H473.819C473.787 551.661 473.569 551.171 473.163 550.808C472.758 550.445 472.251 550.264 471.643 550.264ZM481.035 557.192C480.256 557.192 479.558 557.016 478.939 556.664C478.331 556.312 477.851 555.827 477.499 555.208C477.158 554.579 476.987 553.853 476.987 553.032C476.987 552.211 477.158 551.491 477.499 550.872C477.851 550.243 478.331 549.752 478.939 549.4C479.558 549.048 480.256 548.872 481.035 548.872C482.016 548.872 482.838 549.128 483.499 549.64C484.171 550.152 484.603 550.845 484.795 551.72H483.019C482.912 551.283 482.678 550.941 482.315 550.696C481.952 550.451 481.526 550.328 481.035 550.328C480.619 550.328 480.235 550.435 479.883 550.648C479.531 550.851 479.248 551.155 479.035 551.56C478.822 551.955 478.715 552.445 478.715 553.032C478.715 553.619 478.822 554.115 479.035 554.52C479.248 554.915 479.531 555.219 479.883 555.432C480.235 555.645 480.619 555.752 481.035 555.752C481.526 555.752 481.952 555.629 482.315 555.384C482.678 555.139 482.912 554.792 483.019 554.344H484.795C484.614 555.197 484.187 555.885 483.515 556.408C482.843 556.931 482.016 557.192 481.035 557.192ZM487.595 547.56C487.275 547.56 487.008 547.464 486.795 547.272C486.592 547.069 486.491 546.819 486.491 546.52C486.491 546.221 486.592 545.976 486.795 545.784C487.008 545.581 487.275 545.48 487.595 545.48C487.915 545.48 488.176 545.581 488.379 545.784C488.592 545.976 488.699 546.221 488.699 546.52C488.699 546.819 488.592 547.069 488.379 547.272C488.176 547.464 487.915 547.56 487.595 547.56ZM486.747 557V549.064H488.443V557H486.747ZM495.145 557.192C494.527 557.192 493.977 557.069 493.497 556.824C493.028 556.579 492.655 556.232 492.377 555.784L492.201 557H490.681V545.48H492.377V550.296C492.633 549.923 492.985 549.592 493.433 549.304C493.881 549.016 494.457 548.872 495.161 548.872C495.929 548.872 496.607 549.053 497.193 549.416C497.78 549.779 498.239 550.275 498.569 550.904C498.911 551.533 499.081 552.248 499.081 553.048C499.081 553.848 498.911 554.563 498.569 555.192C498.239 555.811 497.78 556.301 497.193 556.664C496.607 557.016 495.924 557.192 495.145 557.192ZM494.857 555.72C495.583 555.72 496.18 555.475 496.649 554.984C497.119 554.483 497.353 553.832 497.353 553.032C497.353 552.509 497.247 552.045 497.033 551.64C496.82 551.235 496.527 550.92 496.153 550.696C495.78 550.461 495.348 550.344 494.857 550.344C494.132 550.344 493.535 550.595 493.065 551.096C492.607 551.597 492.377 552.243 492.377 553.032C492.377 553.832 492.607 554.483 493.065 554.984C493.535 555.475 494.132 555.72 494.857 555.72ZM501.876 547.56C501.556 547.56 501.289 547.464 501.076 547.272C500.873 547.069 500.772 546.819 500.772 546.52C500.772 546.221 500.873 545.976 501.076 545.784C501.289 545.581 501.556 545.48 501.876 545.48C502.196 545.48 502.457 545.581 502.66 545.784C502.873 545.976 502.98 546.221 502.98 546.52C502.98 546.819 502.873 547.069 502.66 547.272C502.457 547.464 502.196 547.56 501.876 547.56ZM501.028 557V549.064H502.724V557H501.028ZM508.579 557.192C507.811 557.192 507.133 557.011 506.547 556.648C505.96 556.285 505.501 555.789 505.171 555.16C504.84 554.531 504.675 553.816 504.675 553.016C504.675 552.216 504.84 551.507 505.171 550.888C505.501 550.259 505.96 549.768 506.547 549.416C507.144 549.053 507.827 548.872 508.595 548.872C509.224 548.872 509.773 548.995 510.243 549.24C510.723 549.485 511.096 549.832 511.363 550.28V545.48H513.059V557H511.539L511.363 555.768C511.107 556.141 510.755 556.472 510.307 556.76C509.859 557.048 509.283 557.192 508.579 557.192ZM508.883 555.72C509.608 555.72 510.2 555.469 510.659 554.968C511.128 554.467 511.363 553.821 511.363 553.032C511.363 552.232 511.128 551.587 510.659 551.096C510.2 550.595 509.608 550.344 508.883 550.344C508.157 550.344 507.56 550.595 507.091 551.096C506.621 551.587 506.387 552.232 506.387 553.032C506.387 553.555 506.493 554.019 506.707 554.424C506.92 554.829 507.213 555.149 507.587 555.384C507.971 555.608 508.403 555.72 508.883 555.72ZM518.909 557.192C518.152 557.192 517.469 557.021 516.861 556.68C516.264 556.328 515.789 555.843 515.437 555.224C515.085 554.595 514.909 553.864 514.909 553.032C514.909 552.2 515.085 551.475 515.437 550.856C515.8 550.227 516.285 549.741 516.893 549.4C517.501 549.048 518.178 548.872 518.925 548.872C519.682 548.872 520.36 549.048 520.957 549.4C521.565 549.741 522.045 550.227 522.397 550.856C522.76 551.475 522.941 552.2 522.941 553.032C522.941 553.864 522.76 554.595 522.397 555.224C522.045 555.843 521.565 556.328 520.957 556.68C520.349 557.021 519.666 557.192 518.909 557.192ZM518.909 555.736C519.314 555.736 519.688 555.635 520.029 555.432C520.381 555.229 520.664 554.931 520.877 554.536C521.09 554.131 521.197 553.629 521.197 553.032C521.197 552.435 521.09 551.939 520.877 551.544C520.674 551.139 520.397 550.835 520.045 550.632C519.704 550.429 519.33 550.328 518.925 550.328C518.52 550.328 518.141 550.429 517.789 550.632C517.448 550.835 517.17 551.139 516.957 551.544C516.744 551.939 516.637 552.435 516.637 553.032C516.637 553.629 516.744 554.131 516.957 554.536C517.17 554.931 517.448 555.229 517.789 555.432C518.13 555.635 518.504 555.736 518.909 555.736ZM527.943 557.192C526.94 557.192 526.114 556.947 525.463 556.456C524.812 555.965 524.439 555.315 524.343 554.504H526.055C526.14 554.867 526.343 555.181 526.663 555.448C526.983 555.704 527.404 555.832 527.927 555.832C528.439 555.832 528.812 555.725 529.047 555.512C529.282 555.299 529.399 555.053 529.399 554.776C529.399 554.371 529.234 554.099 528.903 553.96C528.583 553.811 528.135 553.677 527.559 553.56C527.111 553.464 526.663 553.336 526.215 553.176C525.778 553.016 525.41 552.792 525.111 552.504C524.823 552.205 524.679 551.805 524.679 551.304C524.679 550.611 524.946 550.035 525.479 549.576C526.012 549.107 526.759 548.872 527.719 548.872C528.604 548.872 529.319 549.085 529.863 549.512C530.418 549.939 530.743 550.541 530.839 551.32H529.207C529.154 550.979 528.994 550.712 528.727 550.52C528.471 550.328 528.124 550.232 527.687 550.232C527.26 550.232 526.93 550.323 526.695 550.504C526.46 550.675 526.343 550.899 526.343 551.176C526.343 551.453 526.503 551.672 526.823 551.832C527.154 551.992 527.586 552.136 528.119 552.264C528.652 552.381 529.143 552.52 529.591 552.68C530.05 552.829 530.418 553.053 530.695 553.352C530.972 553.651 531.111 554.088 531.111 554.664C531.122 555.389 530.839 555.992 530.263 556.472C529.698 556.952 528.924 557.192 527.943 557.192Z" fill="white"/>
</svg>
