<svg width="722" height="439" viewBox="0 0 722 439" fill="none" xmlns="http://www.w3.org/2000/svg">
<path d="M67.1406 259.5L67.1406 438.5" stroke="#CFCFCF" stroke-width="2" stroke-miterlimit="3.99933" stroke-linejoin="round" stroke-dasharray="4 4"/>
<path d="M213.232 259.5L213.232 438.5" stroke="#CFCFCF" stroke-width="2" stroke-miterlimit="3.99933" stroke-linejoin="round" stroke-dasharray="4 4"/>
<path d="M722 361.5L-34 361.5" stroke="#CFCFCF" stroke-width="2" stroke-miterlimit="3.99933" stroke-linejoin="round" stroke-dasharray="4 4"/>
<path d="M722 259.5L-34 259.5" stroke="#CFCFCF" stroke-width="2" stroke-miterlimit="3.99933" stroke-linejoin="round" stroke-dasharray="4 4"/>
<path d="M359.324 259.5L359.324 438.5" stroke="#CFCFCF" stroke-width="2" stroke-miterlimit="3.99933" stroke-linejoin="round" stroke-dasharray="4 4"/>
<path d="M505.416 259.5L505.416 438.5" stroke="#CFCFCF" stroke-width="2" stroke-miterlimit="3.99933" stroke-linejoin="round" stroke-dasharray="4 4"/>
<path d="M651.508 95.5L651.508 438.5" stroke="#CFCFCF" stroke-width="2" stroke-miterlimit="3.99933" stroke-linejoin="round" stroke-dasharray="4 4"/>
<ellipse cx="67.1402" cy="344.5" rx="4.08649" ry="4" fill="#0099FF"/>
<ellipse cx="213.232" cy="299.5" rx="4.08649" ry="4" fill="#0099FF"/>
<ellipse cx="359.325" cy="259.5" rx="4.08649" ry="4" fill="#0099FF"/>
<ellipse cx="651.508" cy="99.5" rx="4.08649" ry="4" fill="#0099FF"/>
<ellipse cx="505.417" cy="261.5" rx="4.08649" ry="4" fill="#0099FF"/>
<path d="M47.7296 343L47.6618 342.002L47.7296 343ZM180.54 330L179.789 329.341L180.54 330ZM381.8 264.557L382.085 263.599L381.8 264.557ZM588.167 205.557L587.447 204.864L588.167 205.557ZM721.046 1.81552C721.497 1.49589 721.603 0.871661 721.283 0.421265C720.963 -0.0291321 720.339 -0.135142 719.889 0.184485L721.046 1.81552ZM-2.91684 388.826C-0.486865 381.772 4.98964 371.022 13.4871 361.803C21.9796 352.589 33.4209 344.975 47.7974 343.998L47.6618 342.002C32.6156 343.025 20.7299 350.994 12.0165 360.447C3.30819 369.895 -2.29991 380.895 -4.80777 388.174L-2.91684 388.826ZM47.7974 343.998C56.8314 343.384 66.9537 345.243 77.8223 347.68C88.6443 350.106 100.199 353.104 111.912 354.661C123.644 356.22 135.624 356.35 147.366 353.012C159.124 349.67 170.583 342.868 181.292 330.659L179.789 329.341C169.321 341.275 158.188 347.857 146.819 351.088C135.436 354.324 123.756 354.217 112.176 352.678C100.578 351.137 89.1702 348.175 78.2599 345.728C67.3964 343.293 57.017 341.366 47.6618 342.002L47.7974 343.998ZM181.292 330.659C202.883 306.045 234.692 284.315 270.251 271.465C305.809 258.615 345.046 254.668 381.515 265.516L382.085 263.599C345.112 252.601 305.429 256.626 269.572 269.584C233.717 282.541 201.617 304.455 179.789 329.341L181.292 330.659ZM381.515 265.516C459.043 288.576 530.936 266.491 588.888 206.251L587.447 204.864C529.956 264.624 458.821 286.424 382.085 263.599L381.515 265.516ZM588.888 206.251C616.412 177.641 634.238 137.191 652.771 98.6755C671.353 60.0584 690.639 23.3941 721.046 1.81552L719.889 0.184485C688.999 22.1059 669.52 59.2545 650.968 97.8083C632.368 136.463 614.693 176.543 587.447 204.864L588.888 206.251Z" fill="#0099FF"/>
</svg>
