<svg width="95" height="34" viewBox="0 0 95 34" fill="none" xmlns="http://www.w3.org/2000/svg">
<mask id="mask0" mask-type="alpha" maskUnits="userSpaceOnUse" x="0" y="0" width="29" height="33">
<path fill-rule="evenodd" clip-rule="evenodd" d="M0 0.166992H28.8094V32.9212H0V0.166992Z" fill="white"/>
</mask>
<g mask="url(#mask0)">
<path fill-rule="evenodd" clip-rule="evenodd" d="M11.6701 15.692C11.6701 17.4906 12.5003 17.7272 14.4047 17.7272C19.3364 17.7272 20.6061 13.5147 20.6061 9.91748C20.6061 4.4742 17.8226 2.34435 14.5512 2.34435C12.061 2.34435 11.6701 2.77017 11.6701 4.09555V15.692ZM0 32.9212V31.1226C3.46689 30.9805 3.85776 30.7437 3.85776 28.3298V4.75824C3.85776 2.34435 3.46689 2.10748 0 1.96546V0.16684H15.137C19.0923 0.16684 22.2665 0.545484 24.6588 1.96546C27.0515 3.38544 28.8094 5.98877 28.8094 9.77546C28.8094 13.2781 27.491 15.834 25.0497 17.538C22.8033 19.1 19.1899 19.9045 14.5999 19.9045H11.6701V28.3298C11.6701 30.7437 12.061 30.9805 16.358 31.2174V32.9212H0Z" fill="white"/>
</g>
<path fill-rule="evenodd" clip-rule="evenodd" d="M41.023 31.763C44.2727 31.763 45.6189 28.0178 45.6189 21.5003C45.6189 14.9828 44.2727 11.2378 41.023 11.2378C37.7271 11.2378 36.3809 14.9828 36.3809 21.5003C36.3809 28.0178 37.7271 31.763 41.023 31.763ZM53 21.5003C53 29.2825 49.4255 34.0003 41.023 34.0003C32.5743 34.0003 29 29.2825 29 21.5003C29 13.7183 32.5743 9.00027 41.023 9.00027C49.4255 9.00027 53 13.7183 53 21.5003Z" fill="white"/>
<path fill-rule="evenodd" clip-rule="evenodd" d="M64.8078 9.00027V10.8615L63.4285 11.0084C62.4434 11.1066 62.2465 11.4981 62.5419 12.5757L66.2859 26.0452H66.4337L71.0147 9.00027H76.1869L81.261 26.0452H81.4579C82.6894 21.441 84.3153 15.2208 84.7585 12.7717C84.9063 11.8411 84.8078 11.3024 83.921 11.1554L81.8028 10.8615V9.00027H92V10.8615C89.4875 11.0575 89.1426 11.4002 88.4038 13.3105C87.665 15.0738 86.6304 18.1595 85.596 21.5392L82.0491 33.0003H76.6306L71.7044 17.9635H71.5075L67.0247 33.0003H61.6059L57.4678 20.0207C56.4828 16.935 56.1872 15.9553 55.1037 12.9678C54.5125 11.3024 53.9703 11.0575 52 10.8615V9.00027H64.8078Z" fill="white"/>
<path fill-rule="evenodd" clip-rule="evenodd" d="M87 30.5002C87 28.4681 88.6088 27.0003 91.0001 27.0003C93.4348 27.0003 95 28.4681 95 30.5002C94.9133 32.5702 93.4348 34.0003 91.0001 34.0003C88.6088 34.0003 87 32.5702 87 30.5002Z" fill="white"/>
</svg>
