<svg width="70" height="25" viewBox="0 0 70 25" fill="none" xmlns="http://www.w3.org/2000/svg">
<mask id="mask0" mask-type="alpha" maskUnits="userSpaceOnUse" x="0" y="0" width="22" height="25">
<path fill-rule="evenodd" clip-rule="evenodd" d="M0 0H21.1458V24.0412H0V0Z" fill="white"/>
</mask>
<g mask="url(#mask0)">
<path fill-rule="evenodd" clip-rule="evenodd" d="M8.56574 11.3954C8.56574 12.7155 9.17506 12.8892 10.5729 12.8892C14.1928 12.8892 15.1247 9.79726 15.1247 7.15692C15.1247 3.1616 13.0816 1.59832 10.6804 1.59832C8.85263 1.59832 8.56574 1.91087 8.56574 2.88368V11.3954ZM0 24.0413V22.7212C2.54466 22.6169 2.83155 22.4431 2.83155 20.6713V3.37004C2.83155 1.59827 2.54466 1.42441 0 1.32017V0H11.1104C14.0136 0 16.3433 0.277921 18.0993 1.32017C19.8555 2.36242 21.1458 4.27324 21.1458 7.05263C21.1458 9.62354 20.1781 11.4995 18.3862 12.7503C16.7374 13.8968 14.0852 14.4872 10.7161 14.4872H8.56574V20.6713C8.56574 22.4431 8.85263 22.6169 12.0066 22.7908V24.0413H0Z" fill="#969696"/>
</g>
<path fill-rule="evenodd" clip-rule="evenodd" d="M30.1109 23.1911C32.4961 23.1911 33.4842 20.4422 33.4842 15.6584C33.4842 10.8746 32.4961 8.12585 30.1109 8.12585C27.6917 8.12585 26.7036 10.8746 26.7036 15.6584C26.7036 20.4422 27.6917 23.1911 30.1109 23.1911ZM38.9019 15.6583C38.9019 21.3703 36.2782 24.8331 30.1109 24.8331C23.9096 24.8331 21.2861 21.3703 21.2861 15.6583C21.2861 9.94638 23.9096 6.4834 30.1109 6.4834C36.2782 6.4834 38.9019 9.94638 38.9019 15.6583Z" fill="#969696"/>
<path fill-rule="evenodd" clip-rule="evenodd" d="M47.5678 6.4834V7.8495L46.5554 7.95737C45.8324 8.0294 45.6878 8.31681 45.9046 9.10772L48.6527 18.9942H48.7612L52.1236 6.4834H55.92L59.6442 18.9942H59.7888C60.6927 15.6148 61.8861 11.0492 62.2114 9.25161C62.3199 8.56856 62.2476 8.1731 61.5967 8.06523L60.042 7.8495V6.4834H67.5266V7.8495C65.6825 7.99338 65.4293 8.24496 64.887 9.64707C64.3447 10.9413 63.5853 13.2062 62.8261 15.6868L60.2227 24.0992H56.2456L52.6298 13.0623H52.4853L49.195 24.0992H45.2176L42.1803 14.5723C41.4573 12.3074 41.2403 11.5883 40.4451 9.3955C40.0111 8.1731 39.6132 7.99338 38.167 7.8495V6.4834H47.5678Z" fill="#969696"/>
<path fill-rule="evenodd" clip-rule="evenodd" d="M63.8574 22.2642C63.8574 20.7727 65.0383 19.6953 66.7935 19.6953C68.5805 19.6953 69.7293 20.7727 69.7293 22.2642C69.6657 23.7836 68.5805 24.8332 66.7935 24.8332C65.0383 24.8332 63.8574 23.7836 63.8574 22.2642Z" fill="#969696"/>
</svg>
