<svg width="259" height="44" viewBox="0 0 259 44" fill="none" xmlns="http://www.w3.org/2000/svg">
<path d="M94.9259 40.5262L94.016 36.4987H85.2715L83.098 40.5262H77.2852L89.4163 18.7275H96.0884L101.446 40.5262H94.9259ZM92.1458 28.1417C91.8425 26.9335 91.6404 25.8259 91.5393 24.517H91.4887C91.0338 25.7253 90.3767 27.0845 89.669 28.3934L87.3439 32.4712H93.2073L92.1458 28.1417Z" fill="#969696"/>
<path d="M118.582 40.4759L114.134 31.112C113.376 29.4507 112.719 27.739 112.264 26.3294C112.112 27.9404 111.809 30.1555 111.506 32.2196L110.191 40.4759H104.53L108.069 18.6772H115.6L119.745 27.2859C120.604 29.048 121.312 30.961 121.969 32.6223C122.07 30.7596 122.474 27.8901 122.828 25.826L123.991 18.6772H129.652L126.114 40.4759" fill="#969696"/>
<path d="M168.118 40.5263L163.467 32.0183H163.265L161.9 40.5263H156.037L159.575 18.7277C161.749 18.5767 164.478 18.5767 167.562 18.5767C173.526 18.5767 176.862 20.4394 176.104 25.0206C175.649 27.9405 173.021 30.357 169.533 31.0618C170.089 31.9176 170.594 32.7231 171.1 33.5286L175.346 40.5263H168.118ZM166.349 22.7048C165.742 22.7048 165.085 22.7551 164.731 22.7551L163.821 28.3432C164.125 28.3936 164.731 28.3936 165.287 28.3936C167.764 28.3936 169.533 27.286 169.836 25.4233C170.14 23.7117 169.129 22.7048 166.349 22.7048Z" fill="#969696"/>
<path d="M178.277 40.4758L181.816 18.7275H196.12L195.413 22.9564H187.022L186.314 27.2859H194.301L193.593 31.3637H185.657L184.848 36.1966H193.29L192.582 40.4758" fill="#969696"/>
<path d="M213.357 40.5262L212.447 36.4987H203.703L201.479 40.5262H195.615L207.746 18.7275H214.419L219.776 40.5262H213.357ZM210.526 28.1417C210.223 26.9335 210.021 25.8259 209.97 24.517H209.92C209.465 25.7253 208.808 27.0845 208.1 28.3934L205.775 32.4712H211.638L210.526 28.1417Z" fill="#969696"/>
<path d="M236.254 40.4758L231.806 31.112C231.048 29.4507 230.39 27.739 229.936 26.3294C229.784 27.9404 229.481 30.1555 229.177 32.2195L227.813 40.5262H222.151L225.69 18.7275H233.221L237.366 27.3362C238.225 29.0982 238.933 31.0113 239.59 32.6726C239.691 30.8099 240.095 27.9404 240.449 25.8763L241.612 18.7275H247.273L243.735 40.5262" fill="#969696"/>
<path d="M249.599 40.4758L253.137 18.7275H259L255.462 40.4758" fill="#969696"/>
<path d="M143.148 18.7275C140.469 18.7275 137.638 18.7779 136.071 18.8282H135.313L131.674 40.6269L133.948 40.7275C135.515 40.7779 137.183 40.8786 139.306 40.8786C144.108 40.9289 148 39.4186 150.629 36.5994C152.954 34.0822 154.167 30.6589 153.965 26.8831C153.712 21.6978 149.871 18.7779 143.148 18.7275ZM139.761 36.247L138.498 36.1966C138.7 35.0388 140.418 24.215 140.57 23.4095C141.177 23.3591 141.935 23.3591 142.845 23.3591C147.242 23.4095 147.899 25.3728 148 27.2859C148.101 30.4072 146.585 36.2973 139.761 36.247Z" fill="#969696"/>
<path d="M63.4872 10.2197C59.5951 -0.0502791 42.4093 -3.07087 25.0718 3.42341C7.78496 9.91768 -3.08252 23.5104 0.809555 33.7804C4.70163 44.0504 21.8874 47.071 39.1743 40.5264C56.4612 34.0321 67.3792 20.4394 63.4872 10.2197ZM23.5049 40.0733C22.4434 39.7209 22.1907 38.9657 23.1511 37.4554L27.8519 29.5012H40.8423L41.9544 34.5355C42.106 35.7438 41.6005 36.4486 41.0951 36.9017L40.1852 37.2541C34.3724 39.3685 28.6101 40.2747 23.5049 40.0733ZM29.7221 26.531L37.1525 14.2975L40.0841 26.4806L29.7221 26.531ZM51.356 31.1122C49.9912 31.7163 49.6374 30.4577 49.6374 30.4577L44.0773 9.21288C44.0773 9.21288 43.3191 5.48748 40.0336 5.48748H39.1238L34.4735 13.341L19.5623 37.0024C18.6019 38.563 17.5404 39.0161 16.479 38.9154C11.9298 37.5058 8.49261 34.8376 7.07731 31.1122C3.74125 22.1511 13.0418 10.3708 27.8519 4.78267C42.7126 -0.805428 57.4721 1.91311 60.8587 10.8742C63.3355 17.2678 59.2918 25.1213 51.356 31.1122Z" fill="#969696"/>
</svg>
