<svg width="549" height="52" viewBox="0 0 549 52" fill="none" xmlns="http://www.w3.org/2000/svg">
<path d="M384.926 43.5262L384.016 39.4987H375.271L373.098 43.5262H367.285L379.416 21.7275H386.088L391.446 43.5262H384.926ZM382.146 31.1417C381.843 29.9335 381.64 28.8259 381.539 27.517H381.489C381.034 28.7253 380.377 30.0845 379.669 31.3934L377.344 35.4712H383.207L382.146 31.1417Z" fill="#969696"/>
<path d="M408.582 43.4759L404.134 34.112C403.376 32.4507 402.719 30.739 402.264 29.3294C402.112 30.9404 401.809 33.1555 401.506 35.2196L400.191 43.4759H394.53L398.069 21.6772H405.6L409.745 30.2859C410.604 32.048 411.312 33.961 411.969 35.6223C412.07 33.7596 412.474 30.8901 412.828 28.826L413.991 21.6772H419.652L416.114 43.4759" fill="#969696"/>
<path d="M458.118 43.5263L453.467 35.0183H453.265L451.9 43.5263H446.037L449.575 21.7277C451.749 21.5767 454.478 21.5767 457.562 21.5767C463.526 21.5767 466.862 23.4394 466.104 28.0206C465.649 30.9405 463.021 33.357 459.533 34.0618C460.089 34.9176 460.594 35.7231 461.1 36.5286L465.346 43.5263H458.118ZM456.349 25.7048C455.742 25.7048 455.085 25.7551 454.731 25.7551L453.821 31.3432C454.125 31.3936 454.731 31.3936 455.287 31.3936C457.764 31.3936 459.533 30.286 459.836 28.4233C460.14 26.7117 459.129 25.7048 456.349 25.7048Z" fill="#969696"/>
<path d="M468.277 43.4758L471.816 21.7275H486.12L485.413 25.9564H477.022L476.314 30.2859H484.301L483.593 34.3637H475.657L474.848 39.1966H483.29L482.582 43.4758" fill="#969696"/>
<path d="M503.357 43.5262L502.447 39.4987H493.703L491.479 43.5262H485.615L497.746 21.7275H504.419L509.776 43.5262H503.357ZM500.526 31.1417C500.223 29.9335 500.021 28.8259 499.97 27.517H499.92C499.465 28.7253 498.808 30.0845 498.1 31.3934L495.775 35.4712H501.638L500.526 31.1417Z" fill="#969696"/>
<path d="M526.254 43.4758L521.806 34.112C521.048 32.4507 520.39 30.739 519.936 29.3294C519.784 30.9404 519.481 33.1555 519.177 35.2195L517.813 43.5262H512.151L515.69 21.7275H523.221L527.366 30.3362C528.225 32.0982 528.933 34.0113 529.59 35.6726C529.691 33.8099 530.095 30.9404 530.449 28.8763L531.612 21.7275H537.273L533.735 43.5262" fill="#969696"/>
<path d="M539.599 43.4758L543.137 21.7275H549L545.462 43.4758" fill="#969696"/>
<path d="M433.148 21.7275C430.469 21.7275 427.638 21.7779 426.071 21.8282H425.313L421.674 43.6269L423.948 43.7275C425.515 43.7779 427.183 43.8786 429.306 43.8786C434.108 43.9289 438 42.4186 440.629 39.5994C442.954 37.0822 444.167 33.6589 443.965 29.8831C443.712 24.6978 439.871 21.7779 433.148 21.7275ZM429.761 39.247L428.498 39.1966C428.7 38.0388 430.418 27.215 430.57 26.4095C431.177 26.3591 431.935 26.3591 432.845 26.3591C437.242 26.4095 437.899 28.3728 438 30.2859C438.101 33.4072 436.585 39.2973 429.761 39.247Z" fill="#969696"/>
<path d="M353.487 13.2197C349.595 2.94972 332.409 -0.0708742 315.072 6.42341C297.785 12.9177 286.917 26.5104 290.81 36.7804C294.702 47.0504 311.887 50.071 329.174 43.5264C346.461 37.0321 357.379 23.4394 353.487 13.2197ZM313.505 43.0733C312.443 42.7209 312.191 41.9657 313.151 40.4554L317.852 32.5012H330.842L331.954 37.5355C332.106 38.7438 331.601 39.4486 331.095 39.9017L330.185 40.2541C324.372 42.3685 318.61 43.2747 313.505 43.0733ZM319.722 29.531L327.152 17.2975L330.084 29.4806L319.722 29.531ZM341.356 34.1122C339.991 34.7163 339.637 33.4577 339.637 33.4577L334.077 12.2129C334.077 12.2129 333.319 8.48748 330.034 8.48748H329.124L324.473 16.341L309.562 40.0024C308.602 41.563 307.54 42.0161 306.479 41.9154C301.93 40.5058 298.493 37.8376 297.077 34.1122C293.741 25.1511 303.042 13.3708 317.852 7.78267C332.713 2.19457 347.472 4.91311 350.859 13.8742C353.336 20.2678 349.292 28.1213 341.356 34.1122Z" fill="#969696"/>
<g clip-path="url(#clip0)">
<path d="M36.6214 0C16.4103 0 0 10.713 0 23.8935C0 24.2546 0 25.1574 0 25.2778C0 39.2407 14.359 50.5556 36.6214 50.5556C59.0649 50.5556 73.2428 39.2407 73.2428 25.2778C73.2428 24.7963 73.2428 24.4954 73.2428 23.8935C73.2428 10.713 56.8326 0 36.6214 0ZM36.6214 46.3426C17.1946 46.3426 1.44796 36.2917 1.44796 23.8935C1.44796 11.4954 17.1946 1.44444 36.6818 1.44444C56.1086 1.44444 71.9155 11.4954 71.9155 23.8935C71.8552 36.2917 56.1086 46.3426 36.6214 46.3426Z" fill="#969696"/>
<path d="M56.2288 26.2405C52.7295 23.2313 44.7054 16.2498 42.5335 14.6248C41.2665 13.722 40.4218 13.1804 39.6979 12.9998C39.3359 12.8794 38.9135 12.7591 38.3102 12.7591C37.7672 12.7591 37.1639 12.8794 36.5606 13.06C35.173 13.4813 33.7853 14.6248 32.3977 15.7081L32.3374 15.7683C31.0704 16.7915 29.7431 17.8146 28.7778 17.9952C28.3555 18.1155 27.9332 18.1155 27.4505 18.1155C26.3645 18.1155 25.3389 17.8146 24.9769 17.3331C24.9166 17.2729 24.9769 17.1526 25.0976 16.972L28.1745 13.6618C30.5878 11.2544 32.82 9.02758 38.0086 8.90721C38.0689 8.90721 38.1896 8.90721 38.2499 8.90721C41.5078 8.90721 44.7054 10.3517 45.0674 10.5322C48.084 12.0368 51.2212 12.7591 54.4188 12.7591C57.6767 12.7591 61.1157 11.9767 64.6752 10.2915C64.2529 9.93036 63.8909 9.62943 63.4083 9.3285C60.271 10.6526 57.3147 11.3748 54.4188 11.3748C51.4626 11.3748 48.5666 10.6526 45.6707 9.26832C45.55 9.20813 41.9301 7.52295 38.2499 7.52295C38.1292 7.52295 38.0689 7.52295 37.9482 7.52295C33.6043 7.64332 31.1307 9.14795 29.4414 10.5322C27.8125 10.5924 26.4249 10.9535 25.2182 11.3146C24.1322 11.6155 23.1669 11.8563 22.262 11.8563C21.9 11.8563 21.176 11.7961 21.1157 11.7961C20.0297 11.7359 14.6601 10.472 10.3766 8.84702C9.95427 9.14795 9.53195 9.44887 9.10962 9.80999C13.5742 11.6155 19.004 13.06 20.7537 13.1804C21.2363 13.2405 21.719 13.2405 22.262 13.2405C23.4083 13.2405 24.5546 12.9396 25.6405 12.6387C26.3042 12.4581 27.0282 12.2776 27.7522 12.097C27.5712 12.2776 27.3298 12.5183 27.1488 12.6989L24.0719 16.0692C23.8306 16.31 23.2876 16.972 23.6496 17.7544C23.7703 18.0554 24.0719 18.4165 24.4942 18.6572C25.2182 19.1387 26.5455 19.4998 27.8125 19.4998C28.2951 19.4998 28.7175 19.4396 29.1398 19.3794C30.4671 19.0785 31.7944 17.9952 33.2423 16.8517C34.3887 15.9489 36.0176 14.8054 37.2846 14.4442C37.6466 14.3239 38.0689 14.2637 38.4309 14.2637C38.5516 14.2637 38.6119 14.2637 38.7325 14.2637C39.5772 14.3841 40.3615 14.6248 41.8095 15.7081C44.3434 17.6341 55.6255 27.4442 55.7461 27.5646C55.7461 27.5646 56.4701 28.1665 56.4098 29.1896C56.4098 29.7915 56.0478 30.2729 55.5048 30.6341C55.0221 30.935 54.5395 31.1155 53.9965 31.1155C53.2725 31.1155 52.7295 30.7544 52.6692 30.7544C52.6089 30.6942 48.7476 27.2035 47.36 25.9998C47.1187 25.8192 46.9377 25.6387 46.6963 25.6387C46.5757 25.6387 46.455 25.6989 46.3947 25.7591C46.1534 26.06 46.3947 26.4211 46.6963 26.6618L51.2212 31.1757C51.2212 31.1757 51.7642 31.7174 51.8246 32.3794C51.8849 33.1017 51.5229 33.7637 50.7386 34.2452C50.1956 34.6063 49.6526 34.7868 49.1096 34.7868C48.446 34.7868 47.903 34.4859 47.8427 34.4257L47.179 33.7637C45.9724 32.6202 44.7657 31.4165 43.8607 30.6341C43.6194 30.4535 43.4384 30.2729 43.1971 30.2729C43.0764 30.2729 43.0161 30.3331 42.8954 30.3933C42.7748 30.5137 42.7144 30.6942 42.9558 31.0554C43.0764 31.1757 43.1971 31.2961 43.1971 31.2961L46.5154 34.9674C46.5154 35.0276 47.179 35.7498 46.5757 36.5322L46.455 36.6526C46.3344 36.7729 46.274 36.8331 46.1534 36.9535C45.6104 37.435 44.8261 37.435 44.5244 37.435C44.3434 37.435 44.2227 37.435 44.1021 37.3748C43.8004 37.3146 43.5591 37.2544 43.4384 37.0739V37.2544C43.2574 37.0739 41.5681 35.3887 40.2408 34.2452C40.0598 34.0646 39.8185 33.8841 39.5772 33.8841C39.4565 33.8841 39.3359 33.9442 39.2755 34.0044C38.9739 34.3054 39.3962 34.7267 39.5772 34.9072L42.4128 37.9767C42.4128 37.9767 42.3525 38.097 42.2921 38.1572C42.1715 38.2776 41.8698 38.6387 40.8442 38.7591C40.7235 38.7591 40.6028 38.7591 40.4822 38.7591C39.4565 38.7591 38.3102 38.2776 37.7069 37.9165C37.9482 37.3748 38.1292 36.7729 38.1292 36.1109C38.1292 33.8239 36.2589 31.8979 33.9663 31.8979C33.906 31.8979 33.8457 31.8979 33.7853 31.8979C33.8457 30.8146 33.725 28.8285 31.6737 27.9859C31.0704 27.7452 30.4671 27.6248 29.9241 27.6248C29.5018 27.6248 29.0191 27.685 28.6571 27.8655C28.2348 27.0229 27.5108 26.4211 26.6059 26.1202C26.1232 25.9396 25.5802 25.8794 25.0976 25.8794C24.2529 25.8794 23.4686 26.1202 22.7446 26.6017C22.081 25.7591 21.0553 25.2776 19.9693 25.2776C19.004 25.2776 18.1594 25.6387 17.4957 26.3007C16.6511 25.6387 13.1519 23.4118 3.86075 21.3054C3.43843 21.185 2.35246 20.8841 1.74914 20.7035C1.62848 21.185 1.56814 21.7267 1.50781 22.2081C1.50781 22.2081 3.1971 22.6294 3.55909 22.6896C13.0312 24.7961 16.1684 26.9628 16.7114 27.3841C16.5304 27.8054 16.4098 28.2868 16.4098 28.7683C16.4098 30.6942 17.9784 32.3192 19.9693 32.3192C20.2107 32.3192 20.3917 32.3192 20.633 32.2591C20.9347 33.7035 21.9 34.7868 23.2876 35.3285C23.7099 35.5091 24.1322 35.5692 24.5546 35.5692C24.7959 35.5692 25.0976 35.5091 25.3389 35.4489C25.5802 36.1109 26.1835 36.9535 27.5712 37.4952C28.0538 37.6757 28.5365 37.7961 28.9588 37.7961C29.3208 37.7961 29.6828 37.7359 30.0448 37.6155C30.7084 39.1804 32.2167 40.2035 33.906 40.2035C35.0523 40.2035 36.1383 39.722 36.9226 38.9396C37.5862 39.3007 39.0342 40.0229 40.4822 40.0229C40.6632 40.0229 40.8442 40.0229 41.0252 39.9628C42.4731 39.7822 43.1368 39.2405 43.4384 38.7591C43.4988 38.6989 43.5591 38.5785 43.5591 38.5183C43.9211 38.6387 44.2831 38.6989 44.7054 38.6989C45.4897 38.6989 46.2137 38.4581 46.998 37.8563C47.722 37.3146 48.265 36.5322 48.3253 35.8702C48.5666 35.9304 48.808 35.9304 49.1096 35.9304C49.8939 35.9304 50.6782 35.6896 51.4626 35.2081C52.9105 34.2452 53.1519 32.9813 53.1519 32.1989C53.3932 32.4998 53.6948 32.4998 53.9362 32.4998C54.7205 32.4998 55.4445 32.2591 56.1684 31.8378C57.0734 31.2359 57.6164 30.3933 57.6767 29.3702C57.7371 28.6479 57.5561 27.9859 57.1941 27.3841C59.6677 26.3609 65.2182 24.3146 71.8547 22.81C71.7944 22.3285 71.7341 21.7868 71.6737 21.3054C63.6496 22.9905 57.6767 25.5785 56.2288 26.2405ZM33.906 39.06C32.3374 39.06 31.0704 37.8563 31.0704 36.3517C31.0704 36.2313 31.0704 35.8702 30.7687 35.8702C30.6481 35.8702 30.5274 35.9304 30.4068 36.0507C30.0448 36.3517 29.6224 36.7128 29.0191 36.7128C28.7175 36.7128 28.4158 36.6526 28.1141 36.5322C26.4852 35.8702 26.4852 34.7267 26.5455 34.3054C26.5455 34.185 26.5455 34.0646 26.4852 33.9442L26.3645 33.8239H26.2439C26.1835 33.8239 26.0629 33.8841 25.9422 33.9442C25.4595 34.3054 25.0372 34.4257 24.5546 34.4257C24.3132 34.4257 24.0116 34.3655 23.7703 34.3054C21.5983 33.4628 21.7793 31.4165 21.9 30.8146C21.9 30.6942 21.9 30.5739 21.7793 30.5137L21.5983 30.3933L21.4776 30.5137C21.0553 30.935 20.5123 31.1155 19.909 31.1155C18.7024 31.1155 17.6767 30.0924 17.6767 28.8887C17.6767 27.685 18.7024 26.6618 19.909 26.6618C20.995 26.6618 21.9603 27.5044 22.1413 28.5878L22.2016 29.1896L22.5033 28.7081C22.5636 28.6479 23.4686 27.2637 25.0976 27.2637C25.3992 27.2637 25.7612 27.3239 26.0629 27.4442C27.3902 27.8655 27.6315 29.0692 27.6315 29.5507C27.6315 29.8517 27.8728 29.8517 27.8728 29.8517C27.9935 29.8517 28.0538 29.7915 28.1141 29.7313C28.3555 29.4905 28.8985 29.0091 29.7431 29.0091C30.1051 29.0091 30.5274 29.1294 30.9497 29.31C33.0614 30.2128 32.096 32.8609 32.096 32.9211C31.9151 33.3424 31.9151 33.5831 32.096 33.6433L32.1564 33.7035H32.2167C32.3374 33.7035 32.458 33.6433 32.639 33.5831C32.9407 33.4628 33.363 33.3424 33.7853 33.3424C35.354 33.3424 36.6813 34.6665 36.6813 36.2313C36.8019 37.7961 35.535 39.06 33.906 39.06Z" fill="#969696"/>
<path d="M198.069 8.66681C196.742 7.04181 194.751 6.19922 192.036 6.19922C189.321 6.19922 187.33 7.04181 186.003 8.66681C184.675 10.2918 184.012 12.2779 184.012 14.5048C184.012 16.7918 184.675 18.7779 186.003 20.4029C187.33 22.0279 189.321 22.8705 192.036 22.8705C194.751 22.8705 196.742 22.0279 198.069 20.4029C199.396 18.7779 200.06 16.7918 200.06 14.5048C200 12.2779 199.396 10.352 198.069 8.66681ZM194.751 18.1761C194.087 19.0187 193.182 19.44 191.976 19.44C190.769 19.44 189.864 19.0187 189.2 18.1761C188.537 17.3335 188.235 16.1298 188.235 14.565C188.235 13.0001 188.537 11.7964 189.2 10.9538C189.864 10.1113 190.769 9.68996 191.976 9.68996C193.182 9.68996 194.087 10.1113 194.751 10.9538C195.414 11.7964 195.716 13.0001 195.716 14.565C195.716 16.0696 195.414 17.2733 194.751 18.1761Z" fill="#969696"/>
<path d="M164.283 7.28243C162.956 6.62039 161.387 6.25928 159.698 6.25928C157.043 6.25928 155.173 6.92131 154.087 8.30557C153.424 9.20835 153.001 10.2917 152.941 11.6759H156.923C157.043 11.0741 157.224 10.5926 157.526 10.2315C157.948 9.75002 158.612 9.50928 159.638 9.50928C160.543 9.50928 161.206 9.62965 161.629 9.87039C162.051 10.1111 162.292 10.5324 162.292 11.1945C162.292 11.7361 161.991 12.0972 161.387 12.338C161.086 12.4584 160.482 12.5787 159.758 12.6991L158.371 12.8796C156.802 13.0602 155.535 13.4213 154.751 13.9028C153.243 14.7454 152.519 16.1296 152.519 18.1158C152.519 19.6204 153.001 20.7639 153.906 21.5463C154.811 22.3287 156.018 22.6898 157.466 22.75C166.455 23.1713 166.335 18.0556 166.395 16.9722V11.0741C166.274 9.26854 165.611 7.94446 164.283 7.28243ZM162.172 16.1898C162.172 17.5741 161.749 18.4769 160.965 19.0185C160.181 19.5602 159.396 19.8009 158.491 19.8009C157.948 19.8009 157.466 19.6204 157.043 19.3195C156.621 19.0185 156.44 18.4769 156.44 17.8148C156.44 17.0324 156.742 16.4306 157.405 16.0695C157.767 15.8287 158.431 15.6482 159.276 15.5278L160.241 15.3472C160.724 15.2871 161.086 15.1667 161.327 15.0463C161.568 14.9259 161.87 14.8056 162.111 14.625V16.1898H162.172Z" fill="#969696"/>
<path d="M143.831 9.74989C144.857 9.74989 145.581 10.0508 146.124 10.7129C146.486 11.1943 146.667 11.736 146.727 12.2777H151.131C150.89 10.0508 150.106 8.486 148.778 7.64341C147.451 6.74063 145.762 6.31934 143.711 6.31934C141.297 6.31934 139.367 7.04156 137.979 8.54619C136.591 10.0508 135.928 12.0971 135.928 14.8054C135.928 17.1527 136.531 19.1388 137.798 20.5832C139.065 22.0879 140.996 22.8101 143.65 22.8101C146.305 22.8101 148.296 21.9073 149.683 20.1017C150.528 19.0184 151.011 17.8147 151.131 16.5508H146.727C146.667 17.3934 146.365 18.0554 145.943 18.5369C145.52 19.0786 144.797 19.3193 143.771 19.3193C142.323 19.3193 141.358 18.6573 140.875 17.3934C140.573 16.6712 140.453 15.7684 140.453 14.6249C140.453 13.4212 140.573 12.4582 140.875 11.736C141.358 10.4721 142.383 9.74989 143.831 9.74989Z" fill="#969696"/>
<path d="M134.721 6.31934C125.611 6.31934 126.154 14.324 126.154 14.324V22.449H130.256V14.8656C130.256 13.6017 130.437 12.699 130.739 12.0971C131.282 11.0138 132.428 10.4721 134.057 10.4721C134.178 10.4721 134.359 10.4721 134.54 10.4721C134.721 10.4721 134.962 10.4721 135.203 10.5323V6.31934C135.022 6.31934 134.902 6.31934 134.841 6.31934C134.841 6.31934 134.781 6.31934 134.721 6.31934Z" fill="#969696"/>
<path d="M119.578 18.2361C119.397 18.4769 119.216 18.7176 119.035 18.838C118.431 19.3195 117.647 19.4398 116.742 19.4398C115.837 19.4398 115.173 19.3195 114.57 18.8982C113.544 18.2963 112.941 17.213 112.881 15.6482H124.283C124.283 14.3241 124.283 13.2408 124.163 12.5185C123.982 11.3148 123.559 10.2315 122.896 9.26854C122.172 8.1852 121.267 7.46298 120.181 6.9815C119.095 6.50002 117.888 6.25928 116.501 6.25928C114.208 6.25928 112.338 6.9815 110.89 8.42594C109.442 9.87039 108.718 11.9167 108.718 14.625C108.718 17.5139 109.502 19.6204 111.131 20.8843C112.7 22.1482 114.57 22.8102 116.621 22.8102C119.155 22.8102 121.086 22.0278 122.534 20.5232C123.318 19.7408 123.74 18.9584 123.982 18.1759H119.578V18.2361ZM114.027 10.5926C114.63 9.99076 115.415 9.68983 116.501 9.68983C117.466 9.68983 118.25 9.99076 118.914 10.5324C119.578 11.0741 119.939 11.9167 120 13H112.941C113.062 11.9769 113.424 11.1945 114.027 10.5926Z" fill="#969696"/>
<path d="M107.029 22.5093H103.288V13.0602C103.288 12.2176 102.986 10.1111 100.513 10.1111C98.8838 10.1111 97.6772 11.3148 97.6772 13.0602V22.5093H93.9366V13.0602C93.9366 12.2176 93.6953 10.1111 91.2217 10.1111C89.5324 10.1111 88.3861 11.3148 88.3861 13.0602V22.5093H84.6455V13.1204C84.6455 9.20835 87.2398 6.25928 91.282 6.25928C93.273 6.25928 94.9019 7.10187 95.9879 8.42594C97.0739 7.10187 98.7632 6.25928 100.694 6.25928C104.796 6.25928 107.21 9.08798 107.21 13.1204V22.5093H107.029Z" fill="#969696"/>
<path d="M182.806 1.38453C182.806 1.38453 178.643 0.963235 178.643 4.27342V8.66694C178.16 7.94472 177.557 7.34287 176.833 6.92157C176.109 6.50027 175.264 6.31972 174.299 6.31972C172.248 6.31972 170.619 7.10212 169.352 8.60675C168.145 10.1114 167.481 12.3382 167.481 14.9864C167.481 17.2734 168.085 19.1993 169.352 20.6438C170.619 22.1484 173.032 22.7503 175.204 22.7503C182.806 22.7503 182.685 16.2503 182.685 16.2503L182.806 1.38453ZM177.858 18.1762C177.255 19.0188 176.35 19.4401 175.204 19.4401C174.058 19.4401 173.153 19.0188 172.61 18.116C172.067 17.2734 171.765 16.0095 171.765 14.5651C171.765 13.241 172.067 12.0975 172.61 11.1947C173.153 10.2919 174.058 9.81046 175.264 9.81046C176.049 9.81046 176.712 10.0512 177.316 10.5327C178.281 11.3753 178.763 12.8197 178.763 14.7456C178.763 16.1901 178.462 17.3336 177.858 18.1762Z" fill="#969696"/>
<path d="M114.631 48.6299C114.631 49.1715 114.45 49.653 114.028 50.0743C113.605 50.4956 113.123 50.6762 112.58 50.6762H110.528V36.3521C110.528 33.5836 111.494 31.8382 113.002 30.6345C114.028 29.8521 115.536 29.1299 118.371 29.1299C120.302 29.1299 122.534 29.8521 123.741 31.3567C125.129 33.0419 125.672 34.9077 125.672 37.3151C125.672 39.8428 125.068 41.829 123.862 43.3938C122.655 44.8984 121.086 45.6808 119.216 45.6808C118.19 45.6808 117.346 45.5002 116.562 45.1391C115.777 44.7178 115.114 44.116 114.631 43.2734V48.6299ZM121.509 37.4956C121.509 35.9308 121.207 34.7271 120.604 33.9447C120 33.1021 119.156 32.6808 118.009 32.6808C116.924 32.6808 116.079 33.1021 115.476 33.9447C114.933 34.7271 114.631 35.8706 114.631 37.4956C114.631 39.0002 114.933 40.1438 115.536 40.9262C116.139 41.7688 116.984 42.1901 118.13 42.1901C119.156 42.1901 120 41.7688 120.604 40.9262C121.207 40.0234 121.509 38.8799 121.509 37.4956Z" fill="#969696"/>
<path d="M153.001 44.3565V43.3334C152.277 44.4769 151.312 45.1389 150.105 45.4398C148.899 45.7408 147.692 45.6204 146.485 45.1389C145.279 44.6574 144.253 43.7546 143.409 42.4908C142.564 41.1667 142.142 39.4815 142.142 37.375C142.142 34.9074 142.685 32.9213 143.831 31.3565C144.977 29.8519 146.787 29.1296 149.261 29.0695C151.734 29.0093 153.182 29.5509 154.57 30.6343C156.078 31.7778 156.983 33.5834 156.983 36.3519V44.7778C156.983 47.4259 155.113 52.4213 149.261 52C145.641 51.7593 143.59 50.2547 142.504 46.8843H146.847C147.149 47.4259 147.632 47.8472 148.295 48.1482C148.959 48.4491 149.623 48.5093 150.226 48.3889C150.89 48.2685 151.493 47.8472 152.036 47.2454C152.639 46.5834 152.941 45.6204 153.001 44.3565ZM146.244 37.4954C146.244 40.2639 147.028 41.7685 148.597 42.0695C150.166 42.3704 151.372 42.0093 152.096 40.9861C152.458 40.5648 152.7 39.8426 152.881 38.9398C153.062 38.0371 153.062 37.0741 152.941 36.1713C152.82 35.2685 152.458 34.4259 151.976 33.7037C151.433 32.9815 150.709 32.6204 149.743 32.6204C148.416 32.6204 147.511 33.1019 147.028 34.125C146.485 35.088 146.244 36.2315 146.244 37.4954Z" fill="#969696"/>
<path d="M138.643 30.2131C137.315 29.5511 135.747 29.1899 134.057 29.1899C131.403 29.1899 129.533 29.852 128.447 31.2362C127.783 32.139 127.361 33.2223 127.3 34.6066H131.282C131.403 34.0048 131.584 33.5233 131.885 33.1622C132.308 32.6807 132.971 32.4399 133.997 32.4399C134.902 32.4399 135.566 32.5603 135.988 32.8011C136.41 33.0418 136.652 33.4631 136.652 34.1251C136.652 34.6668 136.35 35.0279 135.747 35.2686C135.445 35.389 134.842 35.5094 134.118 35.6298L132.73 35.8103C131.161 35.9909 129.895 36.352 129.11 36.8335C127.602 37.6761 126.878 39.1205 126.878 41.0464C126.878 42.551 127.361 43.6946 128.266 44.477C129.171 45.2594 130.377 45.6205 131.825 45.6807C140.815 46.102 140.694 40.9862 140.754 39.9029V34.0048C140.694 32.139 140.03 30.8751 138.643 30.2131ZM136.591 39.1205C136.591 40.5048 136.169 41.4075 135.445 41.9492C134.661 42.4909 133.876 42.7316 132.971 42.7316C132.428 42.7316 131.946 42.551 131.523 42.2501C131.101 41.9492 130.92 41.4075 130.92 40.7455C130.92 39.9631 131.222 39.3612 131.885 39.0001C132.247 38.7594 132.911 38.5788 133.756 38.4585L134.721 38.2779C135.204 38.2177 135.566 38.0973 135.807 37.977C136.109 37.8566 136.35 37.7362 136.591 37.5557V39.1205Z" fill="#969696"/>
<path d="M172.67 31.4769C171.342 29.8519 169.351 29.0093 166.636 29.0093C163.922 29.0093 161.931 29.8519 160.603 31.4769C159.276 33.1019 158.612 35.088 158.612 37.3148C158.612 39.6019 159.276 41.588 160.603 43.213C161.931 44.838 163.922 45.6806 166.636 45.6806C169.351 45.6806 171.342 44.838 172.67 43.213C173.997 41.588 174.661 39.6019 174.661 37.3148C174.661 35.088 173.997 33.1621 172.67 31.4769ZM169.412 40.9861C168.748 41.8287 167.843 42.25 166.636 42.25C165.43 42.25 164.525 41.8287 163.861 40.9861C163.198 40.1435 162.896 38.9398 162.896 37.375C162.896 35.8102 163.198 34.6065 163.861 33.7639C164.525 32.9213 165.43 32.5 166.636 32.5C167.843 32.5 168.748 32.9213 169.412 33.7639C170.075 34.6065 170.377 35.8102 170.377 37.375C170.377 38.9398 170.015 40.1435 169.412 40.9861Z" fill="#969696"/>
</g>
<defs>
<clipPath id="clip0">
<rect width="200" height="52" fill="white"/>
</clipPath>
</defs>
</svg>
