<svg width="46" height="54" viewBox="0 0 46 54" fill="none" xmlns="http://www.w3.org/2000/svg">
<g clip-path="url(#clip0)">
<path d="M22.9999 31.2194C29.5107 31.2194 34.7888 25.9161 34.7888 19.3742C34.7888 12.8323 29.5107 7.52905 22.9999 7.52905C16.489 7.52905 11.2109 12.8323 11.2109 19.3742C11.2109 25.9161 16.489 31.2194 22.9999 31.2194Z" fill="#0099FF"/>
<path d="M23 33.8903C10.2864 33.8903 0 44.2257 0 56.9999H46C46 44.2257 35.7136 33.8903 23 33.8903Z" fill="#0099FF"/>
<path d="M39.8378 13.1905C37.4414 6.07937 30.7568 1 22.9369 1C15.1171 1 8.43243 6.07937 6.03604 13.1905C3.63964 13.9524 2 16.2381 2 18.9048C2 22.2064 4.64865 25 8.05405 25V15.8571C9.31532 8.87302 15.4955 3.53968 22.9369 3.53968C30.3784 3.53968 36.4324 8.87302 37.9459 15.8571V25C41.2252 25 44 22.3333 44 18.9048C43.8739 16.2381 42.1081 14.0794 39.8378 13.1905Z" fill="#3E70D9"/>
</g>
<defs>
<clipPath id="clip0">
<rect width="46" height="54" fill="white"/>
</clipPath>
</defs>
</svg>
