<svg width="1439" height="486" viewBox="0 0 1439 486" fill="none" xmlns="http://www.w3.org/2000/svg">
<rect width="1439" height="486" fill="#F7F9FB"/>
<path d="M506.792 145L498.376 122.6H501.288L508.36 142.152L515.496 122.6H518.344L509.928 145H506.792ZM526.297 145.384C524.782 145.384 523.438 145.043 522.265 144.36C521.092 143.656 520.164 142.685 519.481 141.448C518.82 140.211 518.489 138.749 518.489 137.064C518.489 135.4 518.82 133.949 519.481 132.712C520.142 131.453 521.06 130.483 522.233 129.8C523.428 129.096 524.804 128.744 526.361 128.744C527.897 128.744 529.22 129.096 530.329 129.8C531.46 130.483 532.324 131.389 532.921 132.52C533.518 133.651 533.817 134.867 533.817 136.168C533.817 136.403 533.806 136.637 533.785 136.872C533.785 137.107 533.785 137.373 533.785 137.672H521.145C521.209 138.888 521.486 139.901 521.977 140.712C522.489 141.501 523.118 142.099 523.865 142.504C524.633 142.909 525.444 143.112 526.297 143.112C527.406 143.112 528.334 142.856 529.081 142.344C529.828 141.832 530.372 141.139 530.713 140.264H533.369C532.942 141.736 532.121 142.963 530.905 143.944C529.71 144.904 528.174 145.384 526.297 145.384ZM526.297 131.016C525.017 131.016 523.876 131.411 522.873 132.2C521.892 132.968 521.326 134.099 521.177 135.592H531.161C531.097 134.163 530.606 133.043 529.689 132.232C528.772 131.421 527.641 131.016 526.297 131.016ZM537.38 145V129.128H539.812L539.972 131.976C540.484 130.973 541.22 130.184 542.18 129.608C543.14 129.032 544.228 128.744 545.444 128.744C547.321 128.744 548.815 129.32 549.924 130.472C551.055 131.603 551.62 133.352 551.62 135.72V145H548.932V136.008C548.932 132.701 547.567 131.048 544.836 131.048C543.471 131.048 542.329 131.549 541.412 132.552C540.516 133.533 540.068 134.941 540.068 136.776V145H537.38ZM561.964 145C560.514 145 559.372 144.648 558.54 143.944C557.708 143.24 557.292 141.971 557.292 140.136V131.4H554.54V129.128H557.292L557.644 125.32H559.98V129.128H564.652V131.4H559.98V140.136C559.98 141.139 560.183 141.821 560.588 142.184C560.994 142.525 561.708 142.696 562.732 142.696H564.396V145H561.964ZM573.347 145.384C572.025 145.384 570.926 145.16 570.051 144.712C569.177 144.264 568.526 143.667 568.099 142.92C567.673 142.173 567.459 141.363 567.459 140.488C567.459 138.867 568.078 137.619 569.315 136.744C570.553 135.869 572.238 135.432 574.371 135.432H578.659V135.24C578.659 133.853 578.297 132.808 577.571 132.104C576.846 131.379 575.875 131.016 574.659 131.016C573.614 131.016 572.707 131.283 571.939 131.816C571.193 132.328 570.723 133.085 570.531 134.088H567.779C567.886 132.936 568.27 131.965 568.931 131.176C569.614 130.387 570.457 129.789 571.459 129.384C572.462 128.957 573.529 128.744 574.659 128.744C576.878 128.744 578.542 129.341 579.651 130.536C580.782 131.709 581.347 133.277 581.347 135.24V145H578.947L578.787 142.152C578.339 143.048 577.678 143.816 576.803 144.456C575.95 145.075 574.798 145.384 573.347 145.384ZM573.763 143.112C574.787 143.112 575.662 142.845 576.387 142.312C577.134 141.779 577.699 141.085 578.083 140.232C578.467 139.379 578.659 138.483 578.659 137.544V137.512H574.595C573.017 137.512 571.897 137.789 571.235 138.344C570.595 138.877 570.275 139.549 570.275 140.36C570.275 141.192 570.574 141.864 571.171 142.376C571.79 142.867 572.654 143.112 573.763 143.112ZM587.14 125.608C586.628 125.608 586.191 125.437 585.828 125.096C585.465 124.733 585.284 124.285 585.284 123.752C585.284 123.24 585.465 122.813 585.828 122.472C586.191 122.131 586.628 121.96 587.14 121.96C587.652 121.96 588.079 122.131 588.42 122.472C588.783 122.813 588.964 123.24 588.964 123.752C588.964 124.285 588.783 124.733 588.42 125.096C588.079 125.437 587.652 125.608 587.14 125.608ZM582.276 152.04V149.736H583.524C584.313 149.736 584.879 149.565 585.22 149.224C585.583 148.904 585.764 148.349 585.764 147.56V129.128H588.452V147.624C588.452 149.16 588.068 150.28 587.3 150.984C586.532 151.688 585.412 152.04 583.94 152.04H582.276ZM598.41 145.384C597.087 145.384 595.989 145.16 595.114 144.712C594.239 144.264 593.589 143.667 593.162 142.92C592.735 142.173 592.522 141.363 592.522 140.488C592.522 138.867 593.141 137.619 594.378 136.744C595.615 135.869 597.301 135.432 599.434 135.432H603.722V135.24C603.722 133.853 603.359 132.808 602.634 132.104C601.909 131.379 600.938 131.016 599.722 131.016C598.677 131.016 597.77 131.283 597.002 131.816C596.255 132.328 595.786 133.085 595.594 134.088H592.842C592.949 132.936 593.333 131.965 593.994 131.176C594.677 130.387 595.519 129.789 596.522 129.384C597.525 128.957 598.591 128.744 599.722 128.744C601.941 128.744 603.605 129.341 604.714 130.536C605.845 131.709 606.41 133.277 606.41 135.24V145H604.01L603.85 142.152C603.402 143.048 602.741 143.816 601.866 144.456C601.013 145.075 599.861 145.384 598.41 145.384ZM598.826 143.112C599.85 143.112 600.725 142.845 601.45 142.312C602.197 141.779 602.762 141.085 603.146 140.232C603.53 139.379 603.722 138.483 603.722 137.544V137.512H599.658C598.079 137.512 596.959 137.789 596.298 138.344C595.658 138.877 595.338 139.549 595.338 140.36C595.338 141.192 595.637 141.864 596.234 142.376C596.853 142.867 597.717 143.112 598.826 143.112ZM616.522 145.384C614.624 145.384 613.045 144.904 611.786 143.944C610.528 142.984 609.792 141.683 609.578 140.04H612.33C612.501 140.872 612.938 141.597 613.642 142.216C614.368 142.813 615.338 143.112 616.554 143.112C617.685 143.112 618.517 142.877 619.05 142.408C619.584 141.917 619.85 141.341 619.85 140.68C619.85 139.72 619.498 139.08 618.794 138.76C618.112 138.44 617.141 138.152 615.882 137.896C615.029 137.725 614.176 137.48 613.322 137.16C612.469 136.84 611.754 136.392 611.178 135.816C610.602 135.219 610.314 134.44 610.314 133.48C610.314 132.093 610.826 130.963 611.85 130.088C612.896 129.192 614.304 128.744 616.074 128.744C617.76 128.744 619.136 129.171 620.202 130.024C621.29 130.856 621.92 132.051 622.09 133.608H619.434C619.328 132.797 618.976 132.168 618.378 131.72C617.802 131.251 617.024 131.016 616.042 131.016C615.082 131.016 614.336 131.219 613.802 131.624C613.29 132.029 613.034 132.563 613.034 133.224C613.034 133.864 613.365 134.365 614.026 134.728C614.709 135.091 615.626 135.4 616.778 135.656C617.76 135.869 618.688 136.136 619.562 136.456C620.458 136.755 621.184 137.213 621.738 137.832C622.314 138.429 622.602 139.304 622.602 140.456C622.624 141.885 622.08 143.069 620.97 144.008C619.882 144.925 618.4 145.384 616.522 145.384ZM642.111 145.384C640.532 145.384 639.146 145.021 637.951 144.296C636.778 143.571 635.86 142.579 635.199 141.32C634.559 140.061 634.239 138.632 634.239 137.032C634.239 135.432 634.57 134.013 635.231 132.776C635.892 131.517 636.81 130.536 637.983 129.832C639.156 129.107 640.543 128.744 642.143 128.744C643.444 128.744 644.596 129.011 645.599 129.544C646.602 130.077 647.38 130.824 647.935 131.784V121.96H650.623V145H648.191L647.935 142.376C647.423 143.144 646.687 143.837 645.727 144.456C644.767 145.075 643.562 145.384 642.111 145.384ZM642.399 143.048C643.466 143.048 644.404 142.803 645.215 142.312C646.047 141.8 646.687 141.096 647.135 140.2C647.604 139.304 647.839 138.259 647.839 137.064C647.839 135.869 647.604 134.824 647.135 133.928C646.687 133.032 646.047 132.339 645.215 131.848C644.404 131.336 643.466 131.08 642.399 131.08C641.354 131.08 640.415 131.336 639.583 131.848C638.772 132.339 638.132 133.032 637.663 133.928C637.215 134.824 636.991 135.869 636.991 137.064C636.991 138.259 637.215 139.304 637.663 140.2C638.132 141.096 638.772 141.8 639.583 142.312C640.415 142.803 641.354 143.048 642.399 143.048ZM662.141 145.384C660.626 145.384 659.282 145.043 658.109 144.36C656.936 143.656 656.008 142.685 655.325 141.448C654.664 140.211 654.333 138.749 654.333 137.064C654.333 135.4 654.664 133.949 655.325 132.712C655.986 131.453 656.904 130.483 658.077 129.8C659.272 129.096 660.648 128.744 662.205 128.744C663.741 128.744 665.064 129.096 666.173 129.8C667.304 130.483 668.168 131.389 668.765 132.52C669.362 133.651 669.661 134.867 669.661 136.168C669.661 136.403 669.65 136.637 669.629 136.872C669.629 137.107 669.629 137.373 669.629 137.672H656.989C657.053 138.888 657.33 139.901 657.821 140.712C658.333 141.501 658.962 142.099 659.709 142.504C660.477 142.909 661.288 143.112 662.141 143.112C663.25 143.112 664.178 142.856 664.925 142.344C665.672 141.832 666.216 141.139 666.557 140.264H669.213C668.786 141.736 667.965 142.963 666.749 143.944C665.554 144.904 664.018 145.384 662.141 145.384ZM662.141 131.016C660.861 131.016 659.72 131.411 658.717 132.2C657.736 132.968 657.17 134.099 657.021 135.592H667.005C666.941 134.163 666.45 133.043 665.533 132.232C664.616 131.421 663.485 131.016 662.141 131.016ZM681.692 145V121.96H684.38V145H681.692ZM694.066 145.384C692.743 145.384 691.645 145.16 690.77 144.712C689.895 144.264 689.245 143.667 688.818 142.92C688.391 142.173 688.178 141.363 688.178 140.488C688.178 138.867 688.797 137.619 690.034 136.744C691.271 135.869 692.957 135.432 695.09 135.432H699.378V135.24C699.378 133.853 699.015 132.808 698.29 132.104C697.565 131.379 696.594 131.016 695.378 131.016C694.333 131.016 693.426 131.283 692.658 131.816C691.911 132.328 691.442 133.085 691.25 134.088H688.498C688.605 132.936 688.989 131.965 689.65 131.176C690.333 130.387 691.175 129.789 692.178 129.384C693.181 128.957 694.247 128.744 695.378 128.744C697.597 128.744 699.261 129.341 700.37 130.536C701.501 131.709 702.066 133.277 702.066 135.24V145H699.666L699.506 142.152C699.058 143.048 698.397 143.816 697.522 144.456C696.669 145.075 695.517 145.384 694.066 145.384ZM694.482 143.112C695.506 143.112 696.381 142.845 697.106 142.312C697.853 141.779 698.418 141.085 698.802 140.232C699.186 139.379 699.378 138.483 699.378 137.544V137.512H695.314C693.735 137.512 692.615 137.789 691.954 138.344C691.314 138.877 690.994 139.549 690.994 140.36C690.994 141.192 691.293 141.864 691.89 142.376C692.509 142.867 693.373 143.112 694.482 143.112ZM719.847 145.384C718.525 145.384 717.426 145.16 716.551 144.712C715.677 144.264 715.026 143.667 714.599 142.92C714.173 142.173 713.959 141.363 713.959 140.488C713.959 138.867 714.578 137.619 715.815 136.744C717.053 135.869 718.738 135.432 720.871 135.432H725.159V135.24C725.159 133.853 724.797 132.808 724.071 132.104C723.346 131.379 722.375 131.016 721.159 131.016C720.114 131.016 719.207 131.283 718.439 131.816C717.693 132.328 717.223 133.085 717.031 134.088H714.279C714.386 132.936 714.77 131.965 715.431 131.176C716.114 130.387 716.957 129.789 717.959 129.384C718.962 128.957 720.029 128.744 721.159 128.744C723.378 128.744 725.042 129.341 726.151 130.536C727.282 131.709 727.847 133.277 727.847 135.24V145H725.447L725.287 142.152C724.839 143.048 724.178 143.816 723.303 144.456C722.45 145.075 721.298 145.384 719.847 145.384ZM720.263 143.112C721.287 143.112 722.162 142.845 722.887 142.312C723.634 141.779 724.199 141.085 724.583 140.232C724.967 139.379 725.159 138.483 725.159 137.544V137.512H721.095C719.517 137.512 718.397 137.789 717.735 138.344C717.095 138.877 716.775 139.549 716.775 140.36C716.775 141.192 717.074 141.864 717.671 142.376C718.29 142.867 719.154 143.112 720.263 143.112ZM745.768 129.128V145H743.336L743.176 142.152C742.664 143.155 741.928 143.944 740.968 144.52C740.008 145.096 738.92 145.384 737.704 145.384C735.827 145.384 734.323 144.819 733.192 143.688C732.083 142.536 731.528 140.776 731.528 138.408V129.128H734.216V138.12C734.216 141.427 735.581 143.08 738.312 143.08C739.677 143.08 740.808 142.589 741.704 141.608C742.621 140.605 743.08 139.187 743.08 137.352V129.128H745.768ZM756.464 145C755.014 145 753.872 144.648 753.04 143.944C752.208 143.24 751.792 141.971 751.792 140.136V131.4H749.04V129.128H751.792L752.144 125.32H754.48V129.128H759.152V131.4H754.48V140.136C754.48 141.139 754.683 141.821 755.088 142.184C755.494 142.525 756.208 142.696 757.232 142.696H758.896V145H756.464ZM769.362 145.384C767.869 145.384 766.525 145.043 765.33 144.36C764.135 143.677 763.186 142.717 762.482 141.48C761.799 140.221 761.458 138.749 761.458 137.064C761.458 135.379 761.81 133.917 762.514 132.68C763.218 131.421 764.167 130.451 765.362 129.768C766.578 129.085 767.933 128.744 769.426 128.744C770.919 128.744 772.263 129.085 773.458 129.768C774.653 130.451 775.591 131.421 776.274 132.68C776.978 133.917 777.33 135.379 777.33 137.064C777.33 138.749 776.978 140.221 776.274 141.48C775.57 142.717 774.61 143.677 773.394 144.36C772.199 145.043 770.855 145.384 769.362 145.384ZM769.362 143.08C770.279 143.08 771.133 142.856 771.922 142.408C772.711 141.96 773.351 141.288 773.842 140.392C774.333 139.496 774.578 138.387 774.578 137.064C774.578 135.741 774.333 134.632 773.842 133.736C773.373 132.84 772.743 132.168 771.954 131.72C771.165 131.272 770.322 131.048 769.426 131.048C768.509 131.048 767.655 131.272 766.866 131.72C766.077 132.168 765.437 132.84 764.946 133.736C764.455 134.632 764.21 135.741 764.21 137.064C764.21 138.387 764.455 139.496 764.946 140.392C765.437 141.288 766.066 141.96 766.834 142.408C767.623 142.856 768.466 143.08 769.362 143.08ZM781.067 145V129.128H783.499L783.691 131.432C784.203 130.579 784.886 129.917 785.739 129.448C786.593 128.979 787.553 128.744 788.619 128.744C789.878 128.744 790.955 129 791.851 129.512C792.769 130.024 793.473 130.803 793.963 131.848C794.518 130.888 795.275 130.131 796.235 129.576C797.217 129.021 798.273 128.744 799.403 128.744C801.302 128.744 802.817 129.32 803.947 130.472C805.078 131.603 805.643 133.352 805.643 135.72V145H802.987V136.008C802.987 134.365 802.657 133.128 801.995 132.296C801.334 131.464 800.385 131.048 799.147 131.048C797.867 131.048 796.801 131.549 795.947 132.552C795.115 133.533 794.699 134.941 794.699 136.776V145H792.011V136.008C792.011 134.365 791.681 133.128 791.019 132.296C790.358 131.464 789.409 131.048 788.171 131.048C786.913 131.048 785.857 131.549 785.003 132.552C784.171 133.533 783.755 134.941 783.755 136.776V145H781.067ZM814.972 145.384C813.65 145.384 812.551 145.16 811.676 144.712C810.802 144.264 810.151 143.667 809.724 142.92C809.298 142.173 809.084 141.363 809.084 140.488C809.084 138.867 809.703 137.619 810.94 136.744C812.178 135.869 813.863 135.432 815.996 135.432H820.284V135.24C820.284 133.853 819.922 132.808 819.196 132.104C818.471 131.379 817.5 131.016 816.284 131.016C815.239 131.016 814.332 131.283 813.564 131.816C812.818 132.328 812.348 133.085 812.156 134.088H809.404C809.511 132.936 809.895 131.965 810.556 131.176C811.239 130.387 812.082 129.789 813.084 129.384C814.087 128.957 815.154 128.744 816.284 128.744C818.503 128.744 820.167 129.341 821.276 130.536C822.407 131.709 822.972 133.277 822.972 135.24V145H820.572L820.412 142.152C819.964 143.048 819.303 143.816 818.428 144.456C817.575 145.075 816.423 145.384 814.972 145.384ZM815.388 143.112C816.412 143.112 817.287 142.845 818.012 142.312C818.759 141.779 819.324 141.085 819.708 140.232C820.092 139.379 820.284 138.483 820.284 137.544V137.512H816.22C814.642 137.512 813.522 137.789 812.86 138.344C812.22 138.877 811.9 139.549 811.9 140.36C811.9 141.192 812.199 141.864 812.796 142.376C813.415 142.867 814.279 143.112 815.388 143.112ZM832.839 145C831.389 145 830.247 144.648 829.415 143.944C828.583 143.24 828.167 141.971 828.167 140.136V131.4H825.415V129.128H828.167L828.519 125.32H830.855V129.128H835.527V131.4H830.855V140.136C830.855 141.139 831.058 141.821 831.463 142.184C831.869 142.525 832.583 142.696 833.607 142.696H835.271V145H832.839ZM840.574 125.608C840.041 125.608 839.593 125.437 839.23 125.096C838.889 124.733 838.718 124.285 838.718 123.752C838.718 123.24 838.889 122.813 839.23 122.472C839.593 122.131 840.041 121.96 840.574 121.96C841.086 121.96 841.524 122.131 841.886 122.472C842.249 122.813 842.43 123.24 842.43 123.752C842.43 124.285 842.249 124.733 841.886 125.096C841.524 125.437 841.086 125.608 840.574 125.608ZM839.23 145V129.128H841.918V145H839.23ZM845.511 145V142.792L854.343 131.368H845.671V129.128H857.351V131.336L848.519 142.76H857.511V145H845.511ZM866.347 145.384C865.025 145.384 863.926 145.16 863.051 144.712C862.177 144.264 861.526 143.667 861.099 142.92C860.673 142.173 860.459 141.363 860.459 140.488C860.459 138.867 861.078 137.619 862.315 136.744C863.553 135.869 865.238 135.432 867.371 135.432H871.659V135.24C871.659 133.853 871.297 132.808 870.571 132.104C869.846 131.379 868.875 131.016 867.659 131.016C866.614 131.016 865.707 131.283 864.939 131.816C864.193 132.328 863.723 133.085 863.531 134.088H860.779C860.886 132.936 861.27 131.965 861.931 131.176C862.614 130.387 863.457 129.789 864.459 129.384C865.462 128.957 866.529 128.744 867.659 128.744C869.878 128.744 871.542 129.341 872.651 130.536C873.782 131.709 874.347 133.277 874.347 135.24V145H871.947L871.787 142.152C871.339 143.048 870.678 143.816 869.803 144.456C868.95 145.075 867.798 145.384 866.347 145.384ZM866.763 143.112C867.787 143.112 868.662 142.845 869.387 142.312C870.134 141.779 870.699 141.085 871.083 140.232C871.467 139.379 871.659 138.483 871.659 137.544V137.512H867.595C866.017 137.512 864.897 137.789 864.235 138.344C863.595 138.877 863.275 139.549 863.275 140.36C863.275 141.192 863.574 141.864 864.171 142.376C864.79 142.867 865.654 143.112 866.763 143.112ZM885.676 145.384C884.161 145.384 882.796 145.043 881.58 144.36C880.385 143.656 879.436 142.685 878.732 141.448C878.049 140.189 877.708 138.728 877.708 137.064C877.708 135.4 878.049 133.949 878.732 132.712C879.436 131.453 880.385 130.483 881.58 129.8C882.796 129.096 884.161 128.744 885.676 128.744C887.553 128.744 889.132 129.235 890.412 130.216C891.713 131.197 892.535 132.509 892.876 134.152H890.124C889.911 133.171 889.388 132.413 888.556 131.88C887.724 131.325 886.753 131.048 885.644 131.048C884.748 131.048 883.905 131.272 883.116 131.72C882.327 132.168 881.687 132.84 881.196 133.736C880.705 134.632 880.46 135.741 880.46 137.064C880.46 138.387 880.705 139.496 881.196 140.392C881.687 141.288 882.327 141.971 883.116 142.44C883.905 142.888 884.748 143.112 885.644 143.112C886.753 143.112 887.724 142.845 888.556 142.312C889.388 141.757 889.911 140.979 890.124 139.976H892.876C892.556 141.576 891.745 142.877 890.444 143.88C889.143 144.883 887.553 145.384 885.676 145.384ZM898.262 125.608C897.729 125.608 897.281 125.437 896.918 125.096C896.577 124.733 896.406 124.285 896.406 123.752C896.406 123.24 896.577 122.813 896.918 122.472C897.281 122.131 897.729 121.96 898.262 121.96C898.774 121.96 899.211 122.131 899.574 122.472C899.937 122.813 900.118 123.24 900.118 123.752C900.118 124.285 899.937 124.733 899.574 125.096C899.211 125.437 898.774 125.608 898.262 125.608ZM896.918 145V129.128H899.606V145H896.918ZM911.518 145.384C910.025 145.384 908.681 145.043 907.486 144.36C906.291 143.677 905.342 142.717 904.638 141.48C903.955 140.221 903.614 138.749 903.614 137.064C903.614 135.379 903.966 133.917 904.67 132.68C905.374 131.421 906.323 130.451 907.518 129.768C908.734 129.085 910.089 128.744 911.582 128.744C913.075 128.744 914.419 129.085 915.614 129.768C916.809 130.451 917.747 131.421 918.43 132.68C919.134 133.917 919.486 135.379 919.486 137.064C919.486 138.749 919.134 140.221 918.43 141.48C917.726 142.717 916.766 143.677 915.55 144.36C914.355 145.043 913.011 145.384 911.518 145.384ZM911.518 143.08C912.435 143.08 913.289 142.856 914.078 142.408C914.867 141.96 915.507 141.288 915.998 140.392C916.489 139.496 916.734 138.387 916.734 137.064C916.734 135.741 916.489 134.632 915.998 133.736C915.529 132.84 914.899 132.168 914.11 131.72C913.321 131.272 912.478 131.048 911.582 131.048C910.665 131.048 909.811 131.272 909.022 131.72C908.233 132.168 907.593 132.84 907.102 133.736C906.611 134.632 906.366 135.741 906.366 137.064C906.366 138.387 906.611 139.496 907.102 140.392C907.593 141.288 908.222 141.96 908.99 142.408C909.779 142.856 910.622 143.08 911.518 143.08ZM910.846 127.816V125.8L917.566 121.736V124.072L910.846 127.816ZM923.224 145V129.128H925.656L925.816 131.976C926.328 130.973 927.064 130.184 928.024 129.608C928.984 129.032 930.072 128.744 931.288 128.744C933.165 128.744 934.658 129.32 935.768 130.472C936.898 131.603 937.464 133.352 937.464 135.72V145H934.776V136.008C934.776 132.701 933.41 131.048 930.68 131.048C929.314 131.048 928.173 131.549 927.256 132.552C926.36 133.533 925.912 134.941 925.912 136.776V145H923.224Z" fill="black"/>
<path d="M194.232 309.264C192.722 309.264 191.394 308.934 190.25 308.274C189.121 307.599 188.234 306.661 187.588 305.458C186.958 304.255 186.642 302.869 186.642 301.3C186.642 299.731 186.958 298.352 187.588 297.164C188.234 295.961 189.121 295.023 190.25 294.348C191.394 293.673 192.722 293.336 194.232 293.336C195.758 293.336 197.085 293.673 198.214 294.348C199.358 295.023 200.246 295.961 200.876 297.164C201.507 298.352 201.822 299.731 201.822 301.3C201.822 302.869 201.507 304.255 200.876 305.458C200.246 306.661 199.358 307.599 198.214 308.274C197.085 308.934 195.758 309.264 194.232 309.264ZM194.232 307.636C195.362 307.636 196.352 307.387 197.202 306.888C198.068 306.375 198.735 305.649 199.204 304.71C199.688 303.757 199.93 302.62 199.93 301.3C199.93 299.98 199.688 298.851 199.204 297.912C198.735 296.973 198.068 296.255 197.202 295.756C196.352 295.243 195.362 294.986 194.232 294.986C193.103 294.986 192.106 295.243 191.24 295.756C190.39 296.255 189.722 296.973 189.238 297.912C188.769 298.851 188.534 299.98 188.534 301.3C188.534 302.62 188.769 303.757 189.238 304.71C189.722 305.649 190.39 306.375 191.24 306.888C192.106 307.387 193.103 307.636 194.232 307.636ZM204.378 313.84V298.088H206.05L206.226 299.892C206.578 299.364 207.077 298.887 207.722 298.462C208.382 298.037 209.218 297.824 210.23 297.824C211.316 297.824 212.262 298.073 213.068 298.572C213.875 299.071 214.498 299.753 214.938 300.618C215.393 301.483 215.62 302.466 215.62 303.566C215.62 304.666 215.393 305.649 214.938 306.514C214.498 307.365 213.868 308.039 213.046 308.538C212.24 309.022 211.294 309.264 210.208 309.264C209.314 309.264 208.514 309.081 207.81 308.714C207.121 308.347 206.593 307.834 206.226 307.174V313.84H204.378ZM210.01 307.658C210.744 307.658 211.389 307.489 211.946 307.152C212.504 306.8 212.944 306.316 213.266 305.7C213.589 305.084 213.75 304.365 213.75 303.544C213.75 302.723 213.589 302.004 213.266 301.388C212.944 300.772 212.504 300.295 211.946 299.958C211.389 299.606 210.744 299.43 210.01 299.43C209.277 299.43 208.632 299.606 208.074 299.958C207.517 300.295 207.077 300.772 206.754 301.388C206.432 302.004 206.27 302.723 206.27 303.544C206.27 304.365 206.432 305.084 206.754 305.7C207.077 306.316 207.517 306.8 208.074 307.152C208.632 307.489 209.277 307.658 210.01 307.658ZM222.075 309C221.078 309 220.293 308.758 219.721 308.274C219.149 307.79 218.863 306.917 218.863 305.656V299.65H216.971V298.088H218.863L219.105 295.47H220.711V298.088H223.923V299.65H220.711V305.656C220.711 306.345 220.85 306.815 221.129 307.064C221.408 307.299 221.899 307.416 222.603 307.416H223.747V309H222.075ZM227.393 295.668C227.026 295.668 226.718 295.551 226.469 295.316C226.234 295.067 226.117 294.759 226.117 294.392C226.117 294.04 226.234 293.747 226.469 293.512C226.718 293.277 227.026 293.16 227.393 293.16C227.745 293.16 228.046 293.277 228.295 293.512C228.544 293.747 228.669 294.04 228.669 294.392C228.669 294.759 228.544 295.067 228.295 295.316C228.046 295.551 227.745 295.668 227.393 295.668ZM226.469 309V298.088H228.317V309H226.469ZM231.535 309V298.088H233.207L233.339 299.672C233.691 299.085 234.16 298.631 234.747 298.308C235.333 297.985 235.993 297.824 236.727 297.824C237.592 297.824 238.333 298 238.949 298.352C239.579 298.704 240.063 299.239 240.401 299.958C240.782 299.298 241.303 298.777 241.963 298.396C242.637 298.015 243.363 297.824 244.141 297.824C245.446 297.824 246.487 298.22 247.265 299.012C248.042 299.789 248.431 300.992 248.431 302.62V309H246.605V302.818C246.605 301.689 246.377 300.838 245.923 300.266C245.468 299.694 244.815 299.408 243.965 299.408C243.085 299.408 242.351 299.753 241.765 300.442C241.193 301.117 240.907 302.085 240.907 303.346V309H239.059V302.818C239.059 301.689 238.831 300.838 238.377 300.266C237.922 299.694 237.269 299.408 236.419 299.408C235.553 299.408 234.827 299.753 234.241 300.442C233.669 301.117 233.383 302.085 233.383 303.346V309H231.535ZM252.336 295.668C251.97 295.668 251.662 295.551 251.412 295.316C251.178 295.067 251.06 294.759 251.06 294.392C251.06 294.04 251.178 293.747 251.412 293.512C251.662 293.277 251.97 293.16 252.336 293.16C252.688 293.16 252.989 293.277 253.238 293.512C253.488 293.747 253.612 294.04 253.612 294.392C253.612 294.759 253.488 295.067 253.238 295.316C252.989 295.551 252.688 295.668 252.336 295.668ZM251.412 309V298.088H253.26V309H251.412ZM255.73 309V307.482L261.802 299.628H255.84V298.088H263.87V299.606L257.798 307.46H263.98V309H255.73ZM270.055 309.264C269.146 309.264 268.391 309.11 267.789 308.802C267.188 308.494 266.741 308.083 266.447 307.57C266.154 307.057 266.007 306.499 266.007 305.898C266.007 304.783 266.433 303.925 267.283 303.324C268.134 302.723 269.293 302.422 270.759 302.422H273.707V302.29C273.707 301.337 273.458 300.618 272.959 300.134C272.461 299.635 271.793 299.386 270.957 299.386C270.239 299.386 269.615 299.569 269.087 299.936C268.574 300.288 268.251 300.809 268.119 301.498H266.227C266.301 300.706 266.565 300.039 267.019 299.496C267.489 298.953 268.068 298.543 268.757 298.264C269.447 297.971 270.18 297.824 270.957 297.824C272.483 297.824 273.627 298.235 274.389 299.056C275.167 299.863 275.555 300.941 275.555 302.29V309H273.905L273.795 307.042C273.487 307.658 273.033 308.186 272.431 308.626C271.845 309.051 271.053 309.264 270.055 309.264ZM270.341 307.702C271.045 307.702 271.647 307.519 272.145 307.152C272.659 306.785 273.047 306.309 273.311 305.722C273.575 305.135 273.707 304.519 273.707 303.874V303.852H270.913C269.828 303.852 269.058 304.043 268.603 304.424C268.163 304.791 267.943 305.253 267.943 305.81C267.943 306.382 268.149 306.844 268.559 307.196C268.985 307.533 269.579 307.702 270.341 307.702ZM283.344 309.264C282.302 309.264 281.364 309.029 280.528 308.56C279.706 308.076 279.054 307.409 278.57 306.558C278.1 305.693 277.866 304.688 277.866 303.544C277.866 302.4 278.1 301.403 278.57 300.552C279.054 299.687 279.706 299.019 280.528 298.55C281.364 298.066 282.302 297.824 283.344 297.824C284.634 297.824 285.72 298.161 286.6 298.836C287.494 299.511 288.059 300.413 288.294 301.542H286.402C286.255 300.867 285.896 300.347 285.324 299.98C284.752 299.599 284.084 299.408 283.322 299.408C282.706 299.408 282.126 299.562 281.584 299.87C281.041 300.178 280.601 300.64 280.264 301.256C279.926 301.872 279.758 302.635 279.758 303.544C279.758 304.453 279.926 305.216 280.264 305.832C280.601 306.448 281.041 306.917 281.584 307.24C282.126 307.548 282.706 307.702 283.322 307.702C284.084 307.702 284.752 307.519 285.324 307.152C285.896 306.771 286.255 306.235 286.402 305.546H288.294C288.074 306.646 287.516 307.541 286.622 308.23C285.727 308.919 284.634 309.264 283.344 309.264ZM291.996 295.668C291.63 295.668 291.322 295.551 291.072 295.316C290.838 295.067 290.72 294.759 290.72 294.392C290.72 294.04 290.838 293.747 291.072 293.512C291.322 293.277 291.63 293.16 291.996 293.16C292.348 293.16 292.649 293.277 292.898 293.512C293.148 293.747 293.272 294.04 293.272 294.392C293.272 294.759 293.148 295.067 292.898 295.316C292.649 295.551 292.348 295.668 291.996 295.668ZM291.072 309V298.088H292.92V309H291.072ZM301.11 309.264C300.083 309.264 299.159 309.029 298.338 308.56C297.517 308.091 296.864 307.431 296.38 306.58C295.911 305.715 295.676 304.703 295.676 303.544C295.676 302.385 295.918 301.381 296.402 300.53C296.886 299.665 297.539 298.997 298.36 298.528C299.196 298.059 300.127 297.824 301.154 297.824C302.181 297.824 303.105 298.059 303.926 298.528C304.747 298.997 305.393 299.665 305.862 300.53C306.346 301.381 306.588 302.385 306.588 303.544C306.588 304.703 306.346 305.715 305.862 306.58C305.378 307.431 304.718 308.091 303.882 308.56C303.061 309.029 302.137 309.264 301.11 309.264ZM301.11 307.68C301.741 307.68 302.327 307.526 302.87 307.218C303.413 306.91 303.853 306.448 304.19 305.832C304.527 305.216 304.696 304.453 304.696 303.544C304.696 302.635 304.527 301.872 304.19 301.256C303.867 300.64 303.435 300.178 302.892 299.87C302.349 299.562 301.77 299.408 301.154 299.408C300.523 299.408 299.937 299.562 299.394 299.87C298.851 300.178 298.411 300.64 298.074 301.256C297.737 301.872 297.568 302.635 297.568 303.544C297.568 304.453 297.737 305.216 298.074 305.832C298.411 306.448 298.844 306.91 299.372 307.218C299.915 307.526 300.494 307.68 301.11 307.68ZM300.648 297.186V295.8L305.268 293.006V294.612L300.648 297.186ZM309.158 309V298.088H310.83L310.94 300.046C311.292 299.357 311.798 298.814 312.458 298.418C313.118 298.022 313.866 297.824 314.702 297.824C315.992 297.824 317.019 298.22 317.782 299.012C318.559 299.789 318.948 300.992 318.948 302.62V309H317.1V302.818C317.1 300.545 316.161 299.408 314.284 299.408C313.345 299.408 312.56 299.753 311.93 300.442C311.314 301.117 311.006 302.085 311.006 303.346V309H309.158ZM332.52 309.264C331.434 309.264 330.481 309.015 329.66 308.516C328.853 308.017 328.222 307.335 327.768 306.47C327.328 305.605 327.108 304.622 327.108 303.522C327.108 302.422 327.335 301.447 327.79 300.596C328.244 299.731 328.875 299.056 329.682 298.572C330.488 298.073 331.442 297.824 332.542 297.824C333.436 297.824 334.228 298.007 334.918 298.374C335.607 298.741 336.142 299.254 336.524 299.914V293.16H338.372V309H336.7L336.524 307.196C336.172 307.724 335.666 308.201 335.006 308.626C334.346 309.051 333.517 309.264 332.52 309.264ZM332.718 307.658C333.451 307.658 334.096 307.489 334.654 307.152C335.226 306.8 335.666 306.316 335.974 305.7C336.296 305.084 336.458 304.365 336.458 303.544C336.458 302.723 336.296 302.004 335.974 301.388C335.666 300.772 335.226 300.295 334.654 299.958C334.096 299.606 333.451 299.43 332.718 299.43C331.999 299.43 331.354 299.606 330.782 299.958C330.224 300.295 329.784 300.772 329.462 301.388C329.154 302.004 329 302.723 329 303.544C329 304.365 329.154 305.084 329.462 305.7C329.784 306.316 330.224 306.8 330.782 307.152C331.354 307.489 331.999 307.658 332.718 307.658ZM346.29 309.264C345.249 309.264 344.325 309.029 343.518 308.56C342.712 308.076 342.074 307.409 341.604 306.558C341.15 305.707 340.922 304.703 340.922 303.544C340.922 302.4 341.15 301.403 341.604 300.552C342.059 299.687 342.69 299.019 343.496 298.55C344.318 298.066 345.264 297.824 346.334 297.824C347.39 297.824 348.3 298.066 349.062 298.55C349.84 299.019 350.434 299.643 350.844 300.42C351.255 301.197 351.46 302.033 351.46 302.928C351.46 303.089 351.453 303.251 351.438 303.412C351.438 303.573 351.438 303.757 351.438 303.962H342.748C342.792 304.798 342.983 305.495 343.32 306.052C343.672 306.595 344.105 307.005 344.618 307.284C345.146 307.563 345.704 307.702 346.29 307.702C347.053 307.702 347.691 307.526 348.204 307.174C348.718 306.822 349.092 306.345 349.326 305.744H351.152C350.859 306.756 350.294 307.599 349.458 308.274C348.637 308.934 347.581 309.264 346.29 309.264ZM346.29 299.386C345.41 299.386 344.626 299.657 343.936 300.2C343.262 300.728 342.873 301.505 342.77 302.532H349.634C349.59 301.549 349.253 300.779 348.622 300.222C347.992 299.665 347.214 299.386 346.29 299.386ZM186.841 338C185.843 338 185.059 337.758 184.487 337.274C183.915 336.79 183.629 335.917 183.629 334.656V328.65H181.737V327.088H183.629L183.871 324.47H185.477V327.088H188.689V328.65H185.477V334.656C185.477 335.345 185.616 335.815 185.895 336.064C186.173 336.299 186.665 336.416 187.369 336.416H188.513V338H186.841ZM192.159 324.668C191.792 324.668 191.484 324.551 191.235 324.316C191 324.067 190.883 323.759 190.883 323.392C190.883 323.04 191 322.747 191.235 322.512C191.484 322.277 191.792 322.16 192.159 322.16C192.511 322.16 192.811 322.277 193.061 322.512C193.31 322.747 193.435 323.04 193.435 323.392C193.435 323.759 193.31 324.067 193.061 324.316C192.811 324.551 192.511 324.668 192.159 324.668ZM191.235 338V327.088H193.083V338H191.235ZM201.206 338.264C200.165 338.264 199.241 338.029 198.434 337.56C197.628 337.076 196.99 336.409 196.52 335.558C196.066 334.707 195.838 333.703 195.838 332.544C195.838 331.4 196.066 330.403 196.52 329.552C196.975 328.687 197.606 328.019 198.412 327.55C199.234 327.066 200.18 326.824 201.25 326.824C202.306 326.824 203.216 327.066 203.978 327.55C204.756 328.019 205.35 328.643 205.76 329.42C206.171 330.197 206.376 331.033 206.376 331.928C206.376 332.089 206.369 332.251 206.354 332.412C206.354 332.573 206.354 332.757 206.354 332.962H197.664C197.708 333.798 197.899 334.495 198.236 335.052C198.588 335.595 199.021 336.005 199.534 336.284C200.062 336.563 200.62 336.702 201.206 336.702C201.969 336.702 202.607 336.526 203.12 336.174C203.634 335.822 204.008 335.345 204.242 334.744H206.068C205.775 335.756 205.21 336.599 204.374 337.274C203.553 337.934 202.497 338.264 201.206 338.264ZM201.206 328.386C200.326 328.386 199.542 328.657 198.852 329.2C198.178 329.728 197.789 330.505 197.686 331.532H204.55C204.506 330.549 204.169 329.779 203.538 329.222C202.908 328.665 202.13 328.386 201.206 328.386ZM208.826 338V327.088H210.498L210.63 328.672C210.982 328.085 211.451 327.631 212.038 327.308C212.624 326.985 213.284 326.824 214.018 326.824C214.883 326.824 215.624 327 216.24 327.352C216.87 327.704 217.354 328.239 217.692 328.958C218.073 328.298 218.594 327.777 219.254 327.396C219.928 327.015 220.654 326.824 221.432 326.824C222.737 326.824 223.778 327.22 224.556 328.012C225.333 328.789 225.722 329.992 225.722 331.62V338H223.896V331.818C223.896 330.689 223.668 329.838 223.214 329.266C222.759 328.694 222.106 328.408 221.256 328.408C220.376 328.408 219.642 328.753 219.056 329.442C218.484 330.117 218.198 331.085 218.198 332.346V338H216.35V331.818C216.35 330.689 216.122 329.838 215.668 329.266C215.213 328.694 214.56 328.408 213.71 328.408C212.844 328.408 212.118 328.753 211.532 329.442C210.96 330.117 210.674 331.085 210.674 332.346V338H208.826ZM228.505 342.84V327.088H230.177L230.353 328.892C230.705 328.364 231.204 327.887 231.849 327.462C232.509 327.037 233.345 326.824 234.357 326.824C235.443 326.824 236.389 327.073 237.195 327.572C238.002 328.071 238.625 328.753 239.065 329.618C239.52 330.483 239.747 331.466 239.747 332.566C239.747 333.666 239.52 334.649 239.065 335.514C238.625 336.365 237.995 337.039 237.173 337.538C236.367 338.022 235.421 338.264 234.335 338.264C233.441 338.264 232.641 338.081 231.937 337.714C231.248 337.347 230.72 336.834 230.353 336.174V342.84H228.505ZM234.137 336.658C234.871 336.658 235.516 336.489 236.073 336.152C236.631 335.8 237.071 335.316 237.393 334.7C237.716 334.084 237.877 333.365 237.877 332.544C237.877 331.723 237.716 331.004 237.393 330.388C237.071 329.772 236.631 329.295 236.073 328.958C235.516 328.606 234.871 328.43 234.137 328.43C233.404 328.43 232.759 328.606 232.201 328.958C231.644 329.295 231.204 329.772 230.881 330.388C230.559 331.004 230.397 331.723 230.397 332.544C230.397 333.365 230.559 334.084 230.881 334.7C231.204 335.316 231.644 335.8 232.201 336.152C232.759 336.489 233.404 336.658 234.137 336.658ZM247.292 338.264C246.265 338.264 245.341 338.029 244.52 337.56C243.698 337.091 243.046 336.431 242.562 335.58C242.092 334.715 241.858 333.703 241.858 332.544C241.858 331.385 242.1 330.381 242.584 329.53C243.068 328.665 243.72 327.997 244.542 327.528C245.378 327.059 246.309 326.824 247.336 326.824C248.362 326.824 249.286 327.059 250.108 327.528C250.929 327.997 251.574 328.665 252.044 329.53C252.528 330.381 252.77 331.385 252.77 332.544C252.77 333.703 252.528 334.715 252.044 335.58C251.56 336.431 250.9 337.091 250.064 337.56C249.242 338.029 248.318 338.264 247.292 338.264ZM247.292 336.68C247.922 336.68 248.509 336.526 249.052 336.218C249.594 335.91 250.034 335.448 250.372 334.832C250.709 334.216 250.878 333.453 250.878 332.544C250.878 331.635 250.709 330.872 250.372 330.256C250.049 329.64 249.616 329.178 249.074 328.87C248.531 328.562 247.952 328.408 247.336 328.408C246.705 328.408 246.118 328.562 245.576 328.87C245.033 329.178 244.593 329.64 244.256 330.256C243.918 330.872 243.75 331.635 243.75 332.544C243.75 333.453 243.918 334.216 244.256 334.832C244.593 335.448 245.026 335.91 245.554 336.218C246.096 336.526 246.676 336.68 247.292 336.68ZM259.519 338.264C258.214 338.264 257.129 337.934 256.263 337.274C255.398 336.614 254.892 335.719 254.745 334.59H256.637C256.755 335.162 257.055 335.661 257.539 336.086C258.038 336.497 258.705 336.702 259.541 336.702C260.319 336.702 260.891 336.541 261.257 336.218C261.624 335.881 261.807 335.485 261.807 335.03C261.807 334.37 261.565 333.93 261.081 333.71C260.612 333.49 259.945 333.292 259.079 333.116C258.493 332.999 257.906 332.83 257.319 332.61C256.733 332.39 256.241 332.082 255.845 331.686C255.449 331.275 255.251 330.74 255.251 330.08C255.251 329.127 255.603 328.349 256.307 327.748C257.026 327.132 257.994 326.824 259.211 326.824C260.37 326.824 261.316 327.117 262.049 327.704C262.797 328.276 263.23 329.097 263.347 330.168H261.521C261.448 329.611 261.206 329.178 260.795 328.87C260.399 328.547 259.864 328.386 259.189 328.386C258.529 328.386 258.016 328.525 257.649 328.804C257.297 329.083 257.121 329.449 257.121 329.904C257.121 330.344 257.349 330.689 257.803 330.938C258.273 331.187 258.903 331.4 259.695 331.576C260.37 331.723 261.008 331.906 261.609 332.126C262.225 332.331 262.724 332.647 263.105 333.072C263.501 333.483 263.699 334.084 263.699 334.876C263.714 335.859 263.34 336.673 262.577 337.318C261.829 337.949 260.81 338.264 259.519 338.264ZM273.35 342.84L276.056 336.944H275.418L271.084 327.088H273.086L276.694 335.58L280.522 327.088H282.436L275.286 342.84H273.35ZM295.224 338.264C294.183 338.264 293.244 338.029 292.408 337.56C291.587 337.076 290.934 336.409 290.45 335.558C289.981 334.693 289.746 333.688 289.746 332.544C289.746 331.4 289.981 330.403 290.45 329.552C290.934 328.687 291.587 328.019 292.408 327.55C293.244 327.066 294.183 326.824 295.224 326.824C296.515 326.824 297.6 327.161 298.48 327.836C299.375 328.511 299.94 329.413 300.174 330.542H298.282C298.136 329.867 297.776 329.347 297.204 328.98C296.632 328.599 295.965 328.408 295.202 328.408C294.586 328.408 294.007 328.562 293.464 328.87C292.922 329.178 292.482 329.64 292.144 330.256C291.807 330.872 291.638 331.635 291.638 332.544C291.638 333.453 291.807 334.216 292.144 334.832C292.482 335.448 292.922 335.917 293.464 336.24C294.007 336.548 294.586 336.702 295.202 336.702C295.965 336.702 296.632 336.519 297.204 336.152C297.776 335.771 298.136 335.235 298.282 334.546H300.174C299.954 335.646 299.397 336.541 298.502 337.23C297.608 337.919 296.515 338.264 295.224 338.264ZM307.727 338.264C306.701 338.264 305.777 338.029 304.955 337.56C304.134 337.091 303.481 336.431 302.997 335.58C302.528 334.715 302.293 333.703 302.293 332.544C302.293 331.385 302.535 330.381 303.019 329.53C303.503 328.665 304.156 327.997 304.977 327.528C305.813 327.059 306.745 326.824 307.771 326.824C308.798 326.824 309.722 327.059 310.543 327.528C311.365 327.997 312.01 328.665 312.479 329.53C312.963 330.381 313.205 331.385 313.205 332.544C313.205 333.703 312.963 334.715 312.479 335.58C311.995 336.431 311.335 337.091 310.499 337.56C309.678 338.029 308.754 338.264 307.727 338.264ZM307.727 336.68C308.358 336.68 308.945 336.526 309.487 336.218C310.03 335.91 310.47 335.448 310.807 334.832C311.145 334.216 311.313 333.453 311.313 332.544C311.313 331.635 311.145 330.872 310.807 330.256C310.485 329.64 310.052 329.178 309.509 328.87C308.967 328.562 308.387 328.408 307.771 328.408C307.141 328.408 306.554 328.562 306.011 328.87C305.469 329.178 305.029 329.64 304.691 330.256C304.354 330.872 304.185 331.635 304.185 332.544C304.185 333.453 304.354 334.216 304.691 334.832C305.029 335.448 305.461 335.91 305.989 336.218C306.532 336.526 307.111 336.68 307.727 336.68ZM319.955 338.264C318.65 338.264 317.564 337.934 316.699 337.274C315.834 336.614 315.328 335.719 315.181 334.59H317.073C317.19 335.162 317.491 335.661 317.975 336.086C318.474 336.497 319.141 336.702 319.977 336.702C320.754 336.702 321.326 336.541 321.693 336.218C322.06 335.881 322.243 335.485 322.243 335.03C322.243 334.37 322.001 333.93 321.517 333.71C321.048 333.49 320.38 333.292 319.515 333.116C318.928 332.999 318.342 332.83 317.755 332.61C317.168 332.39 316.677 332.082 316.281 331.686C315.885 331.275 315.687 330.74 315.687 330.08C315.687 329.127 316.039 328.349 316.743 327.748C317.462 327.132 318.43 326.824 319.647 326.824C320.806 326.824 321.752 327.117 322.485 327.704C323.233 328.276 323.666 329.097 323.783 330.168H321.957C321.884 329.611 321.642 329.178 321.231 328.87C320.835 328.547 320.3 328.386 319.625 328.386C318.965 328.386 318.452 328.525 318.085 328.804C317.733 329.083 317.557 329.449 317.557 329.904C317.557 330.344 317.784 330.689 318.239 330.938C318.708 331.187 319.339 331.4 320.131 331.576C320.806 331.723 321.444 331.906 322.045 332.126C322.661 332.331 323.16 332.647 323.541 333.072C323.937 333.483 324.135 334.084 324.135 334.876C324.15 335.859 323.776 336.673 323.013 337.318C322.265 337.949 321.246 338.264 319.955 338.264ZM330.593 338C329.595 338 328.811 337.758 328.239 337.274C327.667 336.79 327.381 335.917 327.381 334.656V328.65H325.489V327.088H327.381L327.623 324.47H329.229V327.088H332.441V328.65H329.229V334.656C329.229 335.345 329.368 335.815 329.647 336.064C329.925 336.299 330.417 336.416 331.121 336.416H332.265V338H330.593ZM339.46 338.264C338.433 338.264 337.509 338.029 336.688 337.56C335.866 337.091 335.214 336.431 334.73 335.58C334.26 334.715 334.026 333.703 334.026 332.544C334.026 331.385 334.268 330.381 334.752 329.53C335.236 328.665 335.888 327.997 336.71 327.528C337.546 327.059 338.477 326.824 339.504 326.824C340.53 326.824 341.454 327.059 342.276 327.528C343.097 327.997 343.742 328.665 344.212 329.53C344.696 330.381 344.938 331.385 344.938 332.544C344.938 333.703 344.696 334.715 344.212 335.58C343.728 336.431 343.068 337.091 342.232 337.56C341.41 338.029 340.486 338.264 339.46 338.264ZM339.46 336.68C340.09 336.68 340.677 336.526 341.22 336.218C341.762 335.91 342.202 335.448 342.54 334.832C342.877 334.216 343.046 333.453 343.046 332.544C343.046 331.635 342.877 330.872 342.54 330.256C342.217 329.64 341.784 329.178 341.242 328.87C340.699 328.562 340.12 328.408 339.504 328.408C338.873 328.408 338.286 328.562 337.744 328.87C337.201 329.178 336.761 329.64 336.424 330.256C336.086 330.872 335.918 331.635 335.918 332.544C335.918 333.453 336.086 334.216 336.424 334.832C336.761 335.448 337.194 335.91 337.722 336.218C338.264 336.526 338.844 336.68 339.46 336.68ZM351.687 338.264C350.382 338.264 349.297 337.934 348.431 337.274C347.566 336.614 347.06 335.719 346.913 334.59H348.805C348.923 335.162 349.223 335.661 349.707 336.086C350.206 336.497 350.873 336.702 351.709 336.702C352.487 336.702 353.059 336.541 353.425 336.218C353.792 335.881 353.975 335.485 353.975 335.03C353.975 334.37 353.733 333.93 353.249 333.71C352.78 333.49 352.113 333.292 351.247 333.116C350.661 332.999 350.074 332.83 349.487 332.61C348.901 332.39 348.409 332.082 348.013 331.686C347.617 331.275 347.419 330.74 347.419 330.08C347.419 329.127 347.771 328.349 348.475 327.748C349.194 327.132 350.162 326.824 351.379 326.824C352.538 326.824 353.484 327.117 354.217 327.704C354.965 328.276 355.398 329.097 355.515 330.168H353.689C353.616 329.611 353.374 329.178 352.963 328.87C352.567 328.547 352.032 328.386 351.357 328.386C350.697 328.386 350.184 328.525 349.817 328.804C349.465 329.083 349.289 329.449 349.289 329.904C349.289 330.344 349.517 330.689 349.971 330.938C350.441 331.187 351.071 331.4 351.863 331.576C352.538 331.723 353.176 331.906 353.777 332.126C354.393 332.331 354.892 332.647 355.273 333.072C355.669 333.483 355.867 334.084 355.867 334.876C355.882 335.859 355.508 336.673 354.745 337.318C353.997 337.949 352.978 338.264 351.687 338.264Z" fill="black"/>
<path d="M803.93 309V293.6H813.456V295.118H805.778V300.486H812.796V301.982H805.778V307.482H813.456V309H803.93ZM820.418 309.264C819.112 309.264 818.027 308.934 817.162 308.274C816.296 307.614 815.79 306.719 815.644 305.59H817.536C817.653 306.162 817.954 306.661 818.438 307.086C818.936 307.497 819.604 307.702 820.44 307.702C821.217 307.702 821.789 307.541 822.156 307.218C822.522 306.881 822.706 306.485 822.706 306.03C822.706 305.37 822.464 304.93 821.98 304.71C821.51 304.49 820.843 304.292 819.978 304.116C819.391 303.999 818.804 303.83 818.218 303.61C817.631 303.39 817.14 303.082 816.744 302.686C816.348 302.275 816.15 301.74 816.15 301.08C816.15 300.127 816.502 299.349 817.206 298.748C817.924 298.132 818.892 297.824 820.11 297.824C821.268 297.824 822.214 298.117 822.948 298.704C823.696 299.276 824.128 300.097 824.246 301.168H822.42C822.346 300.611 822.104 300.178 821.694 299.87C821.298 299.547 820.762 299.386 820.088 299.386C819.428 299.386 818.914 299.525 818.548 299.804C818.196 300.083 818.02 300.449 818.02 300.904C818.02 301.344 818.247 301.689 818.702 301.938C819.171 302.187 819.802 302.4 820.594 302.576C821.268 302.723 821.906 302.906 822.508 303.126C823.124 303.331 823.622 303.647 824.004 304.072C824.4 304.483 824.598 305.084 824.598 305.876C824.612 306.859 824.238 307.673 823.476 308.318C822.728 308.949 821.708 309.264 820.418 309.264ZM832.254 309.264C831.212 309.264 830.274 309.029 829.438 308.56C828.616 308.076 827.964 307.409 827.48 306.558C827.01 305.693 826.776 304.688 826.776 303.544C826.776 302.4 827.01 301.403 827.48 300.552C827.964 299.687 828.616 299.019 829.438 298.55C830.274 298.066 831.212 297.824 832.254 297.824C833.544 297.824 834.63 298.161 835.51 298.836C836.404 299.511 836.969 300.413 837.204 301.542H835.312C835.165 300.867 834.806 300.347 834.234 299.98C833.662 299.599 832.994 299.408 832.232 299.408C831.616 299.408 831.036 299.562 830.494 299.87C829.951 300.178 829.511 300.64 829.174 301.256C828.836 301.872 828.668 302.635 828.668 303.544C828.668 304.453 828.836 305.216 829.174 305.832C829.511 306.448 829.951 306.917 830.494 307.24C831.036 307.548 831.616 307.702 832.232 307.702C832.994 307.702 833.662 307.519 834.234 307.152C834.806 306.771 835.165 306.235 835.312 305.546H837.204C836.984 306.646 836.426 307.541 835.532 308.23C834.637 308.919 833.544 309.264 832.254 309.264ZM843.415 309.264C842.505 309.264 841.75 309.11 841.149 308.802C840.547 308.494 840.1 308.083 839.807 307.57C839.513 307.057 839.367 306.499 839.367 305.898C839.367 304.783 839.792 303.925 840.643 303.324C841.493 302.723 842.652 302.422 844.119 302.422H847.067V302.29C847.067 301.337 846.817 300.618 846.319 300.134C845.82 299.635 845.153 299.386 844.317 299.386C843.598 299.386 842.975 299.569 842.447 299.936C841.933 300.288 841.611 300.809 841.479 301.498H839.587C839.66 300.706 839.924 300.039 840.379 299.496C840.848 298.953 841.427 298.543 842.117 298.264C842.806 297.971 843.539 297.824 844.317 297.824C845.842 297.824 846.986 298.235 847.749 299.056C848.526 299.863 848.915 300.941 848.915 302.29V309H847.265L847.155 307.042C846.847 307.658 846.392 308.186 845.791 308.626C845.204 309.051 844.412 309.264 843.415 309.264ZM843.701 307.702C844.405 307.702 845.006 307.519 845.505 307.152C846.018 306.785 846.407 306.309 846.671 305.722C846.935 305.135 847.067 304.519 847.067 303.874V303.852H844.273C843.187 303.852 842.417 304.043 841.963 304.424C841.523 304.791 841.303 305.253 841.303 305.81C841.303 306.382 841.508 306.844 841.919 307.196C842.344 307.533 842.938 307.702 843.701 307.702ZM851.687 309V293.16H853.535V309H851.687ZM860.194 309.264C859.285 309.264 858.529 309.11 857.928 308.802C857.327 308.494 856.879 308.083 856.586 307.57C856.293 307.057 856.146 306.499 856.146 305.898C856.146 304.783 856.571 303.925 857.422 303.324C858.273 302.723 859.431 302.422 860.898 302.422H863.846V302.29C863.846 301.337 863.597 300.618 863.098 300.134C862.599 299.635 861.932 299.386 861.096 299.386C860.377 299.386 859.754 299.569 859.226 299.936C858.713 300.288 858.39 300.809 858.258 301.498H856.366C856.439 300.706 856.703 300.039 857.158 299.496C857.627 298.953 858.207 298.543 858.896 298.264C859.585 297.971 860.319 297.824 861.096 297.824C862.621 297.824 863.765 298.235 864.528 299.056C865.305 299.863 865.694 300.941 865.694 302.29V309H864.044L863.934 307.042C863.626 307.658 863.171 308.186 862.57 308.626C861.983 309.051 861.191 309.264 860.194 309.264ZM860.48 307.702C861.184 307.702 861.785 307.519 862.284 307.152C862.797 306.785 863.186 306.309 863.45 305.722C863.714 305.135 863.846 304.519 863.846 303.874V303.852H861.052C859.967 303.852 859.197 304.043 858.742 304.424C858.302 304.791 858.082 305.253 858.082 305.81C858.082 306.382 858.287 306.844 858.698 307.196C859.123 307.533 859.717 307.702 860.48 307.702ZM874.296 309.264C873.402 309.264 872.602 309.081 871.898 308.714C871.209 308.347 870.681 307.834 870.314 307.174L870.138 309H868.466V293.16H870.314V299.892C870.666 299.364 871.165 298.887 871.81 298.462C872.47 298.037 873.306 297.824 874.318 297.824C875.404 297.824 876.35 298.073 877.156 298.572C877.963 299.071 878.586 299.753 879.026 300.618C879.481 301.483 879.708 302.466 879.708 303.566C879.708 304.666 879.481 305.649 879.026 306.514C878.586 307.365 877.956 308.039 877.134 308.538C876.328 309.022 875.382 309.264 874.296 309.264ZM874.098 307.658C874.832 307.658 875.477 307.489 876.034 307.152C876.592 306.8 877.032 306.316 877.354 305.7C877.677 305.084 877.838 304.365 877.838 303.544C877.838 302.723 877.677 302.004 877.354 301.388C877.032 300.772 876.592 300.295 876.034 299.958C875.477 299.606 874.832 299.43 874.098 299.43C873.365 299.43 872.72 299.606 872.162 299.958C871.605 300.295 871.165 300.772 870.842 301.388C870.52 302.004 870.358 302.723 870.358 303.544C870.358 304.365 870.52 305.084 870.842 305.7C871.165 306.316 871.605 306.8 872.162 307.152C872.72 307.489 873.365 307.658 874.098 307.658ZM883.403 295.668C883.036 295.668 882.728 295.551 882.479 295.316C882.244 295.067 882.127 294.759 882.127 294.392C882.127 294.04 882.244 293.747 882.479 293.512C882.728 293.277 883.036 293.16 883.403 293.16C883.755 293.16 884.055 293.277 884.305 293.512C884.554 293.747 884.679 294.04 884.679 294.392C884.679 294.759 884.554 295.067 884.305 295.316C884.055 295.551 883.755 295.668 883.403 295.668ZM882.479 309V298.088H884.327V309H882.479ZM887.544 309V293.16H889.392V309H887.544ZM893.543 295.668C893.177 295.668 892.869 295.551 892.619 295.316C892.385 295.067 892.267 294.759 892.267 294.392C892.267 294.04 892.385 293.747 892.619 293.512C892.869 293.277 893.177 293.16 893.543 293.16C893.895 293.16 894.196 293.277 894.445 293.512C894.695 293.747 894.819 294.04 894.819 294.392C894.819 294.759 894.695 295.067 894.445 295.316C894.196 295.551 893.895 295.668 893.543 295.668ZM892.619 309V298.088H894.467V309H892.619ZM902.635 309.264C901.55 309.264 900.596 309.015 899.775 308.516C898.968 308.017 898.338 307.335 897.883 306.47C897.443 305.605 897.223 304.622 897.223 303.522C897.223 302.422 897.45 301.447 897.905 300.596C898.36 299.731 898.99 299.056 899.797 298.572C900.604 298.073 901.557 297.824 902.657 297.824C903.552 297.824 904.344 298.007 905.033 298.374C905.722 298.741 906.258 299.254 906.639 299.914V293.16H908.487V309H906.815L906.639 307.196C906.287 307.724 905.781 308.201 905.121 308.626C904.461 309.051 903.632 309.264 902.635 309.264ZM902.833 307.658C903.566 307.658 904.212 307.489 904.769 307.152C905.341 306.8 905.781 306.316 906.089 305.7C906.412 305.084 906.573 304.365 906.573 303.544C906.573 302.723 906.412 302.004 906.089 301.388C905.781 300.772 905.341 300.295 904.769 299.958C904.212 299.606 903.566 299.43 902.833 299.43C902.114 299.43 901.469 299.606 900.897 299.958C900.34 300.295 899.9 300.772 899.577 301.388C899.269 302.004 899.115 302.723 899.115 303.544C899.115 304.365 899.269 305.084 899.577 305.7C899.9 306.316 900.34 306.8 900.897 307.152C901.469 307.489 902.114 307.658 902.833 307.658ZM915.129 309.264C914.22 309.264 913.465 309.11 912.863 308.802C912.262 308.494 911.815 308.083 911.521 307.57C911.228 307.057 911.081 306.499 911.081 305.898C911.081 304.783 911.507 303.925 912.357 303.324C913.208 302.723 914.367 302.422 915.833 302.422H918.781V302.29C918.781 301.337 918.532 300.618 918.033 300.134C917.535 299.635 916.867 299.386 916.031 299.386C915.313 299.386 914.689 299.569 914.161 299.936C913.648 300.288 913.325 300.809 913.193 301.498H911.301C911.375 300.706 911.639 300.039 912.093 299.496C912.563 298.953 913.142 298.543 913.831 298.264C914.521 297.971 915.254 297.824 916.031 297.824C917.557 297.824 918.701 298.235 919.463 299.056C920.241 299.863 920.629 300.941 920.629 302.29V309H918.979L918.869 307.042C918.561 307.658 918.107 308.186 917.505 308.626C916.919 309.051 916.127 309.264 915.129 309.264ZM915.415 307.702C916.119 307.702 916.721 307.519 917.219 307.152C917.733 306.785 918.121 306.309 918.385 305.722C918.649 305.135 918.781 304.519 918.781 303.874V303.852H915.987C914.902 303.852 914.132 304.043 913.677 304.424C913.237 304.791 913.017 305.253 913.017 305.81C913.017 306.382 913.223 306.844 913.633 307.196C914.059 307.533 914.653 307.702 915.415 307.702ZM928.352 309.264C927.266 309.264 926.313 309.015 925.492 308.516C924.685 308.017 924.054 307.335 923.6 306.47C923.16 305.605 922.94 304.622 922.94 303.522C922.94 302.422 923.167 301.447 923.622 300.596C924.076 299.731 924.707 299.056 925.514 298.572C926.32 298.073 927.274 297.824 928.374 297.824C929.268 297.824 930.06 298.007 930.75 298.374C931.439 298.741 931.974 299.254 932.356 299.914V293.16H934.204V309H932.532L932.356 307.196C932.004 307.724 931.498 308.201 930.838 308.626C930.178 309.051 929.349 309.264 928.352 309.264ZM928.55 307.658C929.283 307.658 929.928 307.489 930.486 307.152C931.058 306.8 931.498 306.316 931.806 305.7C932.128 305.084 932.29 304.365 932.29 303.544C932.29 302.723 932.128 302.004 931.806 301.388C931.498 300.772 931.058 300.295 930.486 299.958C929.928 299.606 929.283 299.43 928.55 299.43C927.831 299.43 927.186 299.606 926.614 299.958C926.056 300.295 925.616 300.772 925.294 301.388C924.986 302.004 924.832 302.723 924.832 303.544C924.832 304.365 924.986 305.084 925.294 305.7C925.616 306.316 926.056 306.8 926.614 307.152C927.186 307.489 927.831 307.658 928.55 307.658Z" fill="black"/>
<path d="M500.911 309V293.6H505.883C507.086 293.6 508.069 293.798 508.831 294.194C509.594 294.59 510.159 295.133 510.525 295.822C510.892 296.511 511.075 297.274 511.075 298.11C511.075 299.078 510.811 299.951 510.283 300.728C509.77 301.505 508.963 302.055 507.863 302.378L511.229 309H509.051L505.927 302.642H505.795H502.759V309H500.911ZM502.759 301.19H505.751C506.939 301.19 507.805 300.904 508.347 300.332C508.89 299.76 509.161 299.027 509.161 298.132C509.161 297.223 508.89 296.504 508.347 295.976C507.819 295.433 506.947 295.162 505.729 295.162H502.759V301.19ZM518.082 309.264C517.041 309.264 516.117 309.029 515.31 308.56C514.504 308.076 513.866 307.409 513.396 306.558C512.942 305.707 512.714 304.703 512.714 303.544C512.714 302.4 512.942 301.403 513.396 300.552C513.851 299.687 514.482 299.019 515.288 298.55C516.11 298.066 517.056 297.824 518.126 297.824C519.182 297.824 520.092 298.066 520.854 298.55C521.632 299.019 522.226 299.643 522.636 300.42C523.047 301.197 523.252 302.033 523.252 302.928C523.252 303.089 523.245 303.251 523.23 303.412C523.23 303.573 523.23 303.757 523.23 303.962H514.54C514.584 304.798 514.775 305.495 515.112 306.052C515.464 306.595 515.897 307.005 516.41 307.284C516.938 307.563 517.496 307.702 518.082 307.702C518.845 307.702 519.483 307.526 519.996 307.174C520.51 306.822 520.884 306.345 521.118 305.744H522.944C522.651 306.756 522.086 307.599 521.25 308.274C520.429 308.934 519.373 309.264 518.082 309.264ZM518.082 299.386C517.202 299.386 516.418 299.657 515.728 300.2C515.054 300.728 514.665 301.505 514.562 302.532H521.426C521.382 301.549 521.045 300.779 520.414 300.222C519.784 299.665 519.006 299.386 518.082 299.386ZM530.652 309.264C529.566 309.264 528.613 309.015 527.792 308.516C526.985 308.017 526.354 307.335 525.9 306.47C525.46 305.605 525.24 304.622 525.24 303.522C525.24 302.422 525.467 301.447 525.922 300.596C526.376 299.731 527.007 299.056 527.814 298.572C528.62 298.073 529.574 297.824 530.674 297.824C531.568 297.824 532.36 298.007 533.05 298.374C533.739 298.741 534.274 299.254 534.656 299.914V293.16H536.504V309H534.832L534.656 307.196C534.304 307.724 533.798 308.201 533.138 308.626C532.478 309.051 531.649 309.264 530.652 309.264ZM530.85 307.658C531.583 307.658 532.228 307.489 532.786 307.152C533.358 306.8 533.798 306.316 534.106 305.7C534.428 305.084 534.59 304.365 534.59 303.544C534.59 302.723 534.428 302.004 534.106 301.388C533.798 300.772 533.358 300.295 532.786 299.958C532.228 299.606 531.583 299.43 530.85 299.43C530.131 299.43 529.486 299.606 528.914 299.958C528.356 300.295 527.916 300.772 527.594 301.388C527.286 302.004 527.132 302.723 527.132 303.544C527.132 304.365 527.286 305.084 527.594 305.7C527.916 306.316 528.356 306.8 528.914 307.152C529.486 307.489 530.131 307.658 530.85 307.658ZM549.064 298.088V309H547.392L547.282 307.042C546.93 307.731 546.424 308.274 545.764 308.67C545.104 309.066 544.356 309.264 543.52 309.264C542.229 309.264 541.195 308.875 540.418 308.098C539.655 307.306 539.274 306.096 539.274 304.468V298.088H541.122V304.27C541.122 306.543 542.061 307.68 543.938 307.68C544.877 307.68 545.654 307.343 546.27 306.668C546.901 305.979 547.216 305.003 547.216 303.742V298.088H549.064ZM557.122 309.264C556.081 309.264 555.142 309.029 554.306 308.56C553.485 308.076 552.832 307.409 552.348 306.558C551.879 305.693 551.644 304.688 551.644 303.544C551.644 302.4 551.879 301.403 552.348 300.552C552.832 299.687 553.485 299.019 554.306 298.55C555.142 298.066 556.081 297.824 557.122 297.824C558.413 297.824 559.498 298.161 560.378 298.836C561.273 299.511 561.837 300.413 562.072 301.542H560.18C560.033 300.867 559.674 300.347 559.102 299.98C558.53 299.599 557.863 299.408 557.1 299.408C556.484 299.408 555.905 299.562 555.362 299.87C554.819 300.178 554.379 300.64 554.042 301.256C553.705 301.872 553.536 302.635 553.536 303.544C553.536 304.453 553.705 305.216 554.042 305.832C554.379 306.448 554.819 306.917 555.362 307.24C555.905 307.548 556.484 307.702 557.1 307.702C557.863 307.702 558.53 307.519 559.102 307.152C559.674 306.771 560.033 306.235 560.18 305.546H562.072C561.852 306.646 561.295 307.541 560.4 308.23C559.505 308.919 558.413 309.264 557.122 309.264ZM569.669 309.264C568.627 309.264 567.689 309.029 566.853 308.56C566.031 308.076 565.379 307.409 564.895 306.558C564.425 305.693 564.191 304.688 564.191 303.544C564.191 302.4 564.425 301.403 564.895 300.552C565.379 299.687 566.031 299.019 566.853 298.55C567.689 298.066 568.627 297.824 569.669 297.824C570.959 297.824 572.045 298.161 572.925 298.836C573.819 299.511 574.384 300.413 574.619 301.542H572.727C572.58 300.867 572.221 300.347 571.649 299.98C571.077 299.599 570.409 299.408 569.647 299.408C569.031 299.408 568.451 299.562 567.909 299.87C567.366 300.178 566.926 300.64 566.589 301.256C566.251 301.872 566.083 302.635 566.083 303.544C566.083 304.453 566.251 305.216 566.589 305.832C566.926 306.448 567.366 306.917 567.909 307.24C568.451 307.548 569.031 307.702 569.647 307.702C570.409 307.702 571.077 307.519 571.649 307.152C572.221 306.771 572.58 306.235 572.727 305.546H574.619C574.399 306.646 573.841 307.541 572.947 308.23C572.052 308.919 570.959 309.264 569.669 309.264ZM578.322 295.668C577.955 295.668 577.647 295.551 577.398 295.316C577.163 295.067 577.046 294.759 577.046 294.392C577.046 294.04 577.163 293.747 577.398 293.512C577.647 293.277 577.955 293.16 578.322 293.16C578.674 293.16 578.974 293.277 579.224 293.512C579.473 293.747 579.598 294.04 579.598 294.392C579.598 294.759 579.473 295.067 579.224 295.316C578.974 295.551 578.674 295.668 578.322 295.668ZM577.398 309V298.088H579.246V309H577.398ZM587.435 309.264C586.409 309.264 585.485 309.029 584.663 308.56C583.842 308.091 583.189 307.431 582.705 306.58C582.236 305.715 582.001 304.703 582.001 303.544C582.001 302.385 582.243 301.381 582.727 300.53C583.211 299.665 583.864 298.997 584.685 298.528C585.521 298.059 586.453 297.824 587.479 297.824C588.506 297.824 589.43 298.059 590.251 298.528C591.073 298.997 591.718 299.665 592.187 300.53C592.671 301.381 592.913 302.385 592.913 303.544C592.913 304.703 592.671 305.715 592.187 306.58C591.703 307.431 591.043 308.091 590.207 308.56C589.386 309.029 588.462 309.264 587.435 309.264ZM587.435 307.68C588.066 307.68 588.653 307.526 589.195 307.218C589.738 306.91 590.178 306.448 590.515 305.832C590.853 305.216 591.021 304.453 591.021 303.544C591.021 302.635 590.853 301.872 590.515 301.256C590.193 300.64 589.76 300.178 589.217 299.87C588.675 299.562 588.095 299.408 587.479 299.408C586.849 299.408 586.262 299.562 585.719 299.87C585.177 300.178 584.737 300.64 584.399 301.256C584.062 301.872 583.893 302.635 583.893 303.544C583.893 304.453 584.062 305.216 584.399 305.832C584.737 306.448 585.169 306.91 585.697 307.218C586.24 307.526 586.819 307.68 587.435 307.68ZM586.973 297.186V295.8L591.593 293.006V294.612L586.973 297.186ZM595.483 309V298.088H597.155L597.265 300.046C597.617 299.357 598.123 298.814 598.783 298.418C599.443 298.022 600.191 297.824 601.027 297.824C602.318 297.824 603.344 298.22 604.107 299.012C604.884 299.789 605.273 300.992 605.273 302.62V309H603.425V302.818C603.425 300.545 602.486 299.408 600.609 299.408C599.67 299.408 598.886 299.753 598.255 300.442C597.639 301.117 597.331 302.085 597.331 303.346V309H595.483ZM618.845 309.264C617.76 309.264 616.806 309.015 615.985 308.516C615.178 308.017 614.548 307.335 614.093 306.47C613.653 305.605 613.433 304.622 613.433 303.522C613.433 302.422 613.66 301.447 614.115 300.596C614.57 299.731 615.2 299.056 616.007 298.572C616.814 298.073 617.767 297.824 618.867 297.824C619.762 297.824 620.554 298.007 621.243 298.374C621.932 298.741 622.468 299.254 622.849 299.914V293.16H624.697V309H623.025L622.849 307.196C622.497 307.724 621.991 308.201 621.331 308.626C620.671 309.051 619.842 309.264 618.845 309.264ZM619.043 307.658C619.776 307.658 620.422 307.489 620.979 307.152C621.551 306.8 621.991 306.316 622.299 305.7C622.622 305.084 622.783 304.365 622.783 303.544C622.783 302.723 622.622 302.004 622.299 301.388C621.991 300.772 621.551 300.295 620.979 299.958C620.422 299.606 619.776 299.43 619.043 299.43C618.324 299.43 617.679 299.606 617.107 299.958C616.55 300.295 616.11 300.772 615.787 301.388C615.479 302.004 615.325 302.723 615.325 303.544C615.325 304.365 615.479 305.084 615.787 305.7C616.11 306.316 616.55 306.8 617.107 307.152C617.679 307.489 618.324 307.658 619.043 307.658ZM632.615 309.264C631.574 309.264 630.65 309.029 629.843 308.56C629.037 308.076 628.399 307.409 627.929 306.558C627.475 305.707 627.247 304.703 627.247 303.544C627.247 302.4 627.475 301.403 627.929 300.552C628.384 299.687 629.015 299.019 629.821 298.55C630.643 298.066 631.589 297.824 632.659 297.824C633.715 297.824 634.625 298.066 635.387 298.55C636.165 299.019 636.759 299.643 637.169 300.42C637.58 301.197 637.785 302.033 637.785 302.928C637.785 303.089 637.778 303.251 637.763 303.412C637.763 303.573 637.763 303.757 637.763 303.962H629.073C629.117 304.798 629.308 305.495 629.645 306.052C629.997 306.595 630.43 307.005 630.943 307.284C631.471 307.563 632.029 307.702 632.615 307.702C633.378 307.702 634.016 307.526 634.529 307.174C635.043 306.822 635.417 306.345 635.651 305.744H637.477C637.184 306.756 636.619 307.599 635.783 308.274C634.962 308.934 633.906 309.264 632.615 309.264ZM632.615 299.386C631.735 299.386 630.951 299.657 630.261 300.2C629.587 300.728 629.198 301.505 629.095 302.532H635.959C635.915 301.549 635.578 300.779 634.947 300.222C634.317 299.665 633.539 299.386 632.615 299.386ZM465.088 324.668C464.722 324.668 464.414 324.551 464.164 324.316C463.93 324.067 463.812 323.759 463.812 323.392C463.812 323.04 463.93 322.747 464.164 322.512C464.414 322.277 464.722 322.16 465.088 322.16C465.44 322.16 465.741 322.277 465.99 322.512C466.24 322.747 466.364 323.04 466.364 323.392C466.364 323.759 466.24 324.067 465.99 324.316C465.741 324.551 465.44 324.668 465.088 324.668ZM464.164 338V327.088H466.012V338H464.164ZM469.23 338V327.088H470.902L471.012 329.046C471.364 328.357 471.87 327.814 472.53 327.418C473.19 327.022 473.938 326.824 474.774 326.824C476.065 326.824 477.091 327.22 477.854 328.012C478.631 328.789 479.02 329.992 479.02 331.62V338H477.172V331.818C477.172 329.545 476.233 328.408 474.356 328.408C473.417 328.408 472.633 328.753 472.002 329.442C471.386 330.117 471.078 331.085 471.078 332.346V338H469.23ZM486.132 338C485.134 338 484.35 337.758 483.778 337.274C483.206 336.79 482.92 335.917 482.92 334.656V328.65H481.028V327.088H482.92L483.162 324.47H484.768V327.088H487.98V328.65H484.768V334.656C484.768 335.345 484.907 335.815 485.186 336.064C485.464 336.299 485.956 336.416 486.66 336.416H487.804V338H486.132ZM494.933 338.264C493.891 338.264 492.967 338.029 492.161 337.56C491.354 337.076 490.716 336.409 490.247 335.558C489.792 334.707 489.565 333.703 489.565 332.544C489.565 331.4 489.792 330.403 490.247 329.552C490.701 328.687 491.332 328.019 492.139 327.55C492.96 327.066 493.906 326.824 494.977 326.824C496.033 326.824 496.942 327.066 497.705 327.55C498.482 328.019 499.076 328.643 499.487 329.42C499.897 330.197 500.103 331.033 500.103 331.928C500.103 332.089 500.095 332.251 500.081 332.412C500.081 332.573 500.081 332.757 500.081 332.962H491.391C491.435 333.798 491.625 334.495 491.963 335.052C492.315 335.595 492.747 336.005 493.261 336.284C493.789 336.563 494.346 336.702 494.933 336.702C495.695 336.702 496.333 336.526 496.847 336.174C497.36 335.822 497.734 335.345 497.969 334.744H499.795C499.501 335.756 498.937 336.599 498.101 337.274C497.279 337.934 496.223 338.264 494.933 338.264ZM494.933 328.386C494.053 328.386 493.268 328.657 492.579 329.2C491.904 329.728 491.515 330.505 491.413 331.532H498.277C498.233 330.549 497.895 329.779 497.265 329.222C496.634 328.665 495.857 328.386 494.933 328.386ZM502.552 338V327.088H504.224L504.378 329.178C504.716 328.459 505.229 327.887 505.918 327.462C506.608 327.037 507.458 326.824 508.47 326.824V328.76H507.964C507.319 328.76 506.725 328.877 506.182 329.112C505.64 329.332 505.207 329.713 504.884 330.256C504.562 330.799 504.4 331.547 504.4 332.5V338H502.552ZM513.69 338L509.554 327.088H511.49L514.768 336.218L518.068 327.088H519.96L515.824 338H513.69ZM526.364 338.264C525.323 338.264 524.399 338.029 523.592 337.56C522.786 337.076 522.148 336.409 521.678 335.558C521.224 334.707 520.996 333.703 520.996 332.544C520.996 331.4 521.224 330.403 521.678 329.552C522.133 328.687 522.764 328.019 523.57 327.55C524.392 327.066 525.338 326.824 526.408 326.824C527.464 326.824 528.374 327.066 529.136 327.55C529.914 328.019 530.508 328.643 530.918 329.42C531.329 330.197 531.534 331.033 531.534 331.928C531.534 332.089 531.527 332.251 531.512 332.412C531.512 332.573 531.512 332.757 531.512 332.962H522.822C522.866 333.798 523.057 334.495 523.394 335.052C523.746 335.595 524.179 336.005 524.692 336.284C525.22 336.563 525.778 336.702 526.364 336.702C527.127 336.702 527.765 336.526 528.278 336.174C528.792 335.822 529.166 335.345 529.4 334.744H531.226C530.933 335.756 530.368 336.599 529.532 337.274C528.711 337.934 527.655 338.264 526.364 338.264ZM526.364 328.386C525.484 328.386 524.7 328.657 524.01 329.2C523.336 329.728 522.947 330.505 522.844 331.532H529.708C529.664 330.549 529.327 329.779 528.696 329.222C528.066 328.665 527.288 328.386 526.364 328.386ZM533.984 338V327.088H535.656L535.766 329.046C536.118 328.357 536.624 327.814 537.284 327.418C537.944 327.022 538.692 326.824 539.528 326.824C540.818 326.824 541.845 327.22 542.608 328.012C543.385 328.789 543.774 329.992 543.774 331.62V338H541.926V331.818C541.926 329.545 540.987 328.408 539.11 328.408C538.171 328.408 537.386 328.753 536.756 329.442C536.14 330.117 535.832 331.085 535.832 332.346V338H533.984ZM551.59 338.264C550.548 338.264 549.61 338.029 548.774 337.56C547.952 337.076 547.3 336.409 546.816 335.558C546.346 334.693 546.112 333.688 546.112 332.544C546.112 331.4 546.346 330.403 546.816 329.552C547.3 328.687 547.952 328.019 548.774 327.55C549.61 327.066 550.548 326.824 551.59 326.824C552.88 326.824 553.966 327.161 554.846 327.836C555.74 328.511 556.305 329.413 556.54 330.542H554.648C554.501 329.867 554.142 329.347 553.57 328.98C552.998 328.599 552.33 328.408 551.568 328.408C550.952 328.408 550.372 328.562 549.83 328.87C549.287 329.178 548.847 329.64 548.51 330.256C548.172 330.872 548.004 331.635 548.004 332.544C548.004 333.453 548.172 334.216 548.51 334.832C548.847 335.448 549.287 335.917 549.83 336.24C550.372 336.548 550.952 336.702 551.568 336.702C552.33 336.702 552.998 336.519 553.57 336.152C554.142 335.771 554.501 335.235 554.648 334.546H556.54C556.32 335.646 555.762 336.541 554.868 337.23C553.973 337.919 552.88 338.264 551.59 338.264ZM560.243 324.668C559.876 324.668 559.568 324.551 559.319 324.316C559.084 324.067 558.967 323.759 558.967 323.392C558.967 323.04 559.084 322.747 559.319 322.512C559.568 322.277 559.876 322.16 560.243 322.16C560.595 322.16 560.895 322.277 561.145 322.512C561.394 322.747 561.519 323.04 561.519 323.392C561.519 323.759 561.394 324.067 561.145 324.316C560.895 324.551 560.595 324.668 560.243 324.668ZM559.319 338V327.088H561.167V338H559.319ZM569.356 338.264C568.33 338.264 567.406 338.029 566.584 337.56C565.763 337.091 565.11 336.431 564.626 335.58C564.157 334.715 563.922 333.703 563.922 332.544C563.922 331.385 564.164 330.381 564.648 329.53C565.132 328.665 565.785 327.997 566.606 327.528C567.442 327.059 568.374 326.824 569.4 326.824C570.427 326.824 571.351 327.059 572.172 327.528C572.994 327.997 573.639 328.665 574.108 329.53C574.592 330.381 574.834 331.385 574.834 332.544C574.834 333.703 574.592 334.715 574.108 335.58C573.624 336.431 572.964 337.091 572.128 337.56C571.307 338.029 570.383 338.264 569.356 338.264ZM569.356 336.68C569.987 336.68 570.574 336.526 571.116 336.218C571.659 335.91 572.099 335.448 572.436 334.832C572.774 334.216 572.942 333.453 572.942 332.544C572.942 331.635 572.774 330.872 572.436 330.256C572.114 329.64 571.681 329.178 571.138 328.87C570.596 328.562 570.016 328.408 569.4 328.408C568.77 328.408 568.183 328.562 567.64 328.87C567.098 329.178 566.658 329.64 566.32 330.256C565.983 330.872 565.814 331.635 565.814 332.544C565.814 333.453 565.983 334.216 566.32 334.832C566.658 335.448 567.09 335.91 567.618 336.218C568.161 336.526 568.74 336.68 569.356 336.68ZM568.894 326.186V324.8L573.514 322.006V323.612L568.894 326.186ZM577.404 338V327.088H579.076L579.186 329.046C579.538 328.357 580.044 327.814 580.704 327.418C581.364 327.022 582.112 326.824 582.948 326.824C584.238 326.824 585.265 327.22 586.028 328.012C586.805 328.789 587.194 329.992 587.194 331.62V338H585.346V331.818C585.346 329.545 584.407 328.408 582.53 328.408C581.591 328.408 580.806 328.753 580.176 329.442C579.56 330.117 579.252 331.085 579.252 332.346V338H577.404ZM595.816 338V322.16H597.664V328.958C598.031 328.283 598.551 327.763 599.226 327.396C599.901 327.015 600.634 326.824 601.426 326.824C602.687 326.824 603.699 327.22 604.462 328.012C605.225 328.789 605.606 329.992 605.606 331.62V338H603.78V331.818C603.78 329.545 602.863 328.408 601.03 328.408C600.077 328.408 599.277 328.753 598.632 329.442C597.987 330.117 597.664 331.085 597.664 332.346V338H595.816ZM617.954 327.088V338H616.282L616.172 336.042C615.82 336.731 615.314 337.274 614.654 337.67C613.994 338.066 613.246 338.264 612.41 338.264C611.119 338.264 610.085 337.875 609.308 337.098C608.545 336.306 608.164 335.096 608.164 333.468V327.088H610.012V333.27C610.012 335.543 610.95 336.68 612.828 336.68C613.766 336.68 614.544 336.343 615.16 335.668C615.79 334.979 616.106 334.003 616.106 332.742V327.088H617.954ZM620.996 338V327.088H622.668L622.8 328.672C623.152 328.085 623.621 327.631 624.208 327.308C624.794 326.985 625.454 326.824 626.188 326.824C627.053 326.824 627.794 327 628.41 327.352C629.04 327.704 629.524 328.239 629.862 328.958C630.243 328.298 630.764 327.777 631.424 327.396C632.098 327.015 632.824 326.824 633.602 326.824C634.907 326.824 635.948 327.22 636.726 328.012C637.503 328.789 637.892 329.992 637.892 331.62V338H636.066V331.818C636.066 330.689 635.838 329.838 635.384 329.266C634.929 328.694 634.276 328.408 633.426 328.408C632.546 328.408 631.812 328.753 631.226 329.442C630.654 330.117 630.368 331.085 630.368 332.346V338H628.52V331.818C628.52 330.689 628.292 329.838 627.838 329.266C627.383 328.694 626.73 328.408 625.88 328.408C625.014 328.408 624.288 328.753 623.702 329.442C623.13 330.117 622.844 331.085 622.844 332.346V338H620.996ZM644.305 338.264C643.396 338.264 642.641 338.11 642.039 337.802C641.438 337.494 640.991 337.083 640.697 336.57C640.404 336.057 640.257 335.499 640.257 334.898C640.257 333.783 640.683 332.925 641.533 332.324C642.384 331.723 643.543 331.422 645.009 331.422H647.957V331.29C647.957 330.337 647.708 329.618 647.209 329.134C646.711 328.635 646.043 328.386 645.207 328.386C644.489 328.386 643.865 328.569 643.337 328.936C642.824 329.288 642.501 329.809 642.369 330.498H640.477C640.551 329.706 640.815 329.039 641.269 328.496C641.739 327.953 642.318 327.543 643.007 327.264C643.697 326.971 644.43 326.824 645.207 326.824C646.733 326.824 647.877 327.235 648.639 328.056C649.417 328.863 649.805 329.941 649.805 331.29V338H648.155L648.045 336.042C647.737 336.658 647.283 337.186 646.681 337.626C646.095 338.051 645.303 338.264 644.305 338.264ZM644.591 336.702C645.295 336.702 645.897 336.519 646.395 336.152C646.909 335.785 647.297 335.309 647.561 334.722C647.825 334.135 647.957 333.519 647.957 332.874V332.852H645.163C644.078 332.852 643.308 333.043 642.853 333.424C642.413 333.791 642.193 334.253 642.193 334.81C642.193 335.382 642.399 335.844 642.809 336.196C643.235 336.533 643.829 336.702 644.591 336.702ZM652.578 338V327.088H654.25L654.36 329.046C654.712 328.357 655.218 327.814 655.878 327.418C656.538 327.022 657.286 326.824 658.122 326.824C659.412 326.824 660.439 327.22 661.202 328.012C661.979 328.789 662.368 329.992 662.368 331.62V338H660.52V331.818C660.52 329.545 659.581 328.408 657.704 328.408C656.765 328.408 655.98 328.753 655.35 329.442C654.734 330.117 654.426 331.085 654.426 332.346V338H652.578ZM668.797 338.264C667.888 338.264 667.133 338.11 666.531 337.802C665.93 337.494 665.483 337.083 665.189 336.57C664.896 336.057 664.749 335.499 664.749 334.898C664.749 333.783 665.175 332.925 666.025 332.324C666.876 331.723 668.035 331.422 669.501 331.422H672.449V331.29C672.449 330.337 672.2 329.618 671.701 329.134C671.203 328.635 670.535 328.386 669.699 328.386C668.981 328.386 668.357 328.569 667.829 328.936C667.316 329.288 666.993 329.809 666.861 330.498H664.969C665.043 329.706 665.307 329.039 665.761 328.496C666.231 327.953 666.81 327.543 667.499 327.264C668.189 326.971 668.922 326.824 669.699 326.824C671.225 326.824 672.369 327.235 673.131 328.056C673.909 328.863 674.297 329.941 674.297 331.29V338H672.647L672.537 336.042C672.229 336.658 671.775 337.186 671.173 337.626C670.587 338.051 669.795 338.264 668.797 338.264ZM669.083 336.702C669.787 336.702 670.389 336.519 670.887 336.152C671.401 335.785 671.789 335.309 672.053 334.722C672.317 334.135 672.449 333.519 672.449 332.874V332.852H669.655C668.57 332.852 667.8 333.043 667.345 333.424C666.905 333.791 666.685 334.253 666.685 334.81C666.685 335.382 666.891 335.844 667.301 336.196C667.727 336.533 668.321 336.702 669.083 336.702Z" fill="black"/>
<ellipse cx="1169" cy="244.51" rx="25" ry="24.5098" fill="#0099FF"/>
<path d="M1165.25 250.25L1160 245L1158.25 246.75L1165.25 253.75L1180.25 238.75L1178.5 237L1165.25 250.25Z" fill="white"/>
<path d="M1068.74 309V293.6H1074.15C1075.24 293.6 1076.13 293.776 1076.83 294.128C1077.55 294.465 1078.09 294.935 1078.44 295.536C1078.79 296.123 1078.97 296.783 1078.97 297.516C1078.97 298.513 1078.7 299.298 1078.15 299.87C1077.63 300.442 1076.99 300.838 1076.24 301.058C1076.81 301.161 1077.33 301.388 1077.8 301.74C1078.27 302.092 1078.64 302.532 1078.9 303.06C1079.18 303.588 1079.32 304.167 1079.32 304.798C1079.32 305.575 1079.13 306.287 1078.75 306.932C1078.37 307.563 1077.8 308.069 1077.05 308.45C1076.31 308.817 1075.4 309 1074.33 309H1068.74ZM1070.59 300.332H1074.02C1075 300.332 1075.76 300.105 1076.28 299.65C1076.81 299.181 1077.08 298.535 1077.08 297.714C1077.08 296.937 1076.81 296.313 1076.28 295.844C1075.77 295.375 1074.99 295.14 1073.95 295.14H1070.59V300.332ZM1070.59 307.46H1074.13C1075.18 307.46 1076 307.218 1076.57 306.734C1077.14 306.235 1077.43 305.546 1077.43 304.666C1077.43 303.801 1077.13 303.111 1076.53 302.598C1075.93 302.07 1075.11 301.806 1074.08 301.806H1070.59V307.46ZM1091.41 298.088V309H1089.74L1089.63 307.042C1089.28 307.731 1088.77 308.274 1088.11 308.67C1087.45 309.066 1086.7 309.264 1085.87 309.264C1084.58 309.264 1083.54 308.875 1082.76 308.098C1082 307.306 1081.62 306.096 1081.62 304.468V298.088H1083.47V304.27C1083.47 306.543 1084.41 307.68 1086.28 307.68C1087.22 307.68 1088 307.343 1088.62 306.668C1089.25 305.979 1089.56 305.003 1089.56 303.742V298.088H1091.41ZM1099.36 309.264C1098.32 309.264 1097.39 309.029 1096.59 308.56C1095.78 308.076 1095.14 307.409 1094.67 306.558C1094.22 305.707 1093.99 304.703 1093.99 303.544C1093.99 302.4 1094.22 301.403 1094.67 300.552C1095.13 299.687 1095.76 299.019 1096.56 298.55C1097.39 298.066 1098.33 297.824 1099.4 297.824C1100.46 297.824 1101.37 298.066 1102.13 298.55C1102.91 299.019 1103.5 299.643 1103.91 300.42C1104.32 301.197 1104.53 302.033 1104.53 302.928C1104.53 303.089 1104.52 303.251 1104.51 303.412C1104.51 303.573 1104.51 303.757 1104.51 303.962H1095.82C1095.86 304.798 1096.05 305.495 1096.39 306.052C1096.74 306.595 1097.17 307.005 1097.69 307.284C1098.21 307.563 1098.77 307.702 1099.36 307.702C1100.12 307.702 1100.76 307.526 1101.27 307.174C1101.79 306.822 1102.16 306.345 1102.39 305.744H1104.22C1103.93 306.756 1103.36 307.599 1102.53 308.274C1101.71 308.934 1100.65 309.264 1099.36 309.264ZM1099.36 299.386C1098.48 299.386 1097.69 299.657 1097 300.2C1096.33 300.728 1095.94 301.505 1095.84 302.532H1102.7C1102.66 301.549 1102.32 300.779 1101.69 300.222C1101.06 299.665 1100.28 299.386 1099.36 299.386ZM1106.98 309V298.088H1108.65L1108.76 300.046C1109.11 299.357 1109.62 298.814 1110.28 298.418C1110.94 298.022 1111.69 297.824 1112.52 297.824C1113.81 297.824 1114.84 298.22 1115.6 299.012C1116.38 299.789 1116.77 300.992 1116.77 302.62V309H1114.92V302.818C1114.92 300.545 1113.98 299.408 1112.1 299.408C1111.17 299.408 1110.38 299.753 1109.75 300.442C1109.13 301.117 1108.83 302.085 1108.83 303.346V309H1106.98ZM1123.2 309.264C1122.29 309.264 1121.53 309.11 1120.93 308.802C1120.33 308.494 1119.88 308.083 1119.59 307.57C1119.3 307.057 1119.15 306.499 1119.15 305.898C1119.15 304.783 1119.58 303.925 1120.43 303.324C1121.28 302.723 1122.44 302.422 1123.9 302.422H1126.85V302.29C1126.85 301.337 1126.6 300.618 1126.1 300.134C1125.6 299.635 1124.94 299.386 1124.1 299.386C1123.38 299.386 1122.76 299.569 1122.23 299.936C1121.72 300.288 1121.39 300.809 1121.26 301.498H1119.37C1119.44 300.706 1119.71 300.039 1120.16 299.496C1120.63 298.953 1121.21 298.543 1121.9 298.264C1122.59 297.971 1123.32 297.824 1124.1 297.824C1125.63 297.824 1126.77 298.235 1127.53 299.056C1128.31 299.863 1128.7 300.941 1128.7 302.29V309H1127.05L1126.94 307.042C1126.63 307.658 1126.18 308.186 1125.57 308.626C1124.99 309.051 1124.2 309.264 1123.2 309.264ZM1123.48 307.702C1124.19 307.702 1124.79 307.519 1125.29 307.152C1125.8 306.785 1126.19 306.309 1126.45 305.722C1126.72 305.135 1126.85 304.519 1126.85 303.874V303.852H1124.06C1122.97 303.852 1122.2 304.043 1121.75 304.424C1121.31 304.791 1121.09 305.253 1121.09 305.81C1121.09 306.382 1121.29 306.844 1121.7 307.196C1122.13 307.533 1122.72 307.702 1123.48 307.702ZM1142.2 309.264C1141.16 309.264 1140.23 309.029 1139.43 308.56C1138.62 308.076 1137.98 307.409 1137.51 306.558C1137.06 305.707 1136.83 304.703 1136.83 303.544C1136.83 302.4 1137.06 301.403 1137.51 300.552C1137.97 299.687 1138.6 299.019 1139.4 298.55C1140.23 298.066 1141.17 297.824 1142.24 297.824C1143.3 297.824 1144.21 298.066 1144.97 298.55C1145.75 299.019 1146.34 299.643 1146.75 300.42C1147.16 301.197 1147.37 302.033 1147.37 302.928C1147.37 303.089 1147.36 303.251 1147.35 303.412C1147.35 303.573 1147.35 303.757 1147.35 303.962H1138.66C1138.7 304.798 1138.89 305.495 1139.23 306.052C1139.58 306.595 1140.01 307.005 1140.53 307.284C1141.05 307.563 1141.61 307.702 1142.2 307.702C1142.96 307.702 1143.6 307.526 1144.11 307.174C1144.63 306.822 1145 306.345 1145.23 305.744H1147.06C1146.77 306.756 1146.2 307.599 1145.37 308.274C1144.55 308.934 1143.49 309.264 1142.2 309.264ZM1142.2 299.386C1141.32 299.386 1140.53 299.657 1139.84 300.2C1139.17 300.728 1138.78 301.505 1138.68 302.532H1145.54C1145.5 301.549 1145.16 300.779 1144.53 300.222C1143.9 299.665 1143.12 299.386 1142.2 299.386ZM1148.2 309L1151.99 303.544L1148.2 298.088H1150.2L1153.26 302.598L1156.34 298.088H1158.32L1154.54 303.544L1158.32 309H1156.34L1153.26 304.49L1150.2 309H1148.2ZM1160.26 313.84V298.088H1161.93L1162.11 299.892C1162.46 299.364 1162.96 298.887 1163.6 298.462C1164.26 298.037 1165.1 297.824 1166.11 297.824C1167.2 297.824 1168.14 298.073 1168.95 298.572C1169.76 299.071 1170.38 299.753 1170.82 300.618C1171.27 301.483 1171.5 302.466 1171.5 303.566C1171.5 304.666 1171.27 305.649 1170.82 306.514C1170.38 307.365 1169.75 308.039 1168.93 308.538C1168.12 309.022 1167.17 309.264 1166.09 309.264C1165.19 309.264 1164.4 309.081 1163.69 308.714C1163 308.347 1162.47 307.834 1162.11 307.174V313.84H1160.26ZM1165.89 307.658C1166.62 307.658 1167.27 307.489 1167.83 307.152C1168.38 306.8 1168.82 306.316 1169.15 305.7C1169.47 305.084 1169.63 304.365 1169.63 303.544C1169.63 302.723 1169.47 302.004 1169.15 301.388C1168.82 300.772 1168.38 300.295 1167.83 299.958C1167.27 299.606 1166.62 299.43 1165.89 299.43C1165.16 299.43 1164.51 299.606 1163.96 299.958C1163.4 300.295 1162.96 300.772 1162.64 301.388C1162.31 302.004 1162.15 302.723 1162.15 303.544C1162.15 304.365 1162.31 305.084 1162.64 305.7C1162.96 306.316 1163.4 306.8 1163.96 307.152C1164.51 307.489 1165.16 307.658 1165.89 307.658ZM1178.98 309.264C1177.94 309.264 1177.01 309.029 1176.21 308.56C1175.4 308.076 1174.76 307.409 1174.29 306.558C1173.84 305.707 1173.61 304.703 1173.61 303.544C1173.61 302.4 1173.84 301.403 1174.29 300.552C1174.75 299.687 1175.38 299.019 1176.19 298.55C1177.01 298.066 1177.95 297.824 1179.02 297.824C1180.08 297.824 1180.99 298.066 1181.75 298.55C1182.53 299.019 1183.12 299.643 1183.53 300.42C1183.94 301.197 1184.15 302.033 1184.15 302.928C1184.15 303.089 1184.14 303.251 1184.13 303.412C1184.13 303.573 1184.13 303.757 1184.13 303.962H1175.44C1175.48 304.798 1175.67 305.495 1176.01 306.052C1176.36 306.595 1176.79 307.005 1177.31 307.284C1177.84 307.563 1178.39 307.702 1178.98 307.702C1179.74 307.702 1180.38 307.526 1180.89 307.174C1181.41 306.822 1181.78 306.345 1182.02 305.744H1183.84C1183.55 306.756 1182.98 307.599 1182.15 308.274C1181.33 308.934 1180.27 309.264 1178.98 309.264ZM1178.98 299.386C1178.1 299.386 1177.31 299.657 1176.63 300.2C1175.95 300.728 1175.56 301.505 1175.46 302.532H1182.32C1182.28 301.549 1181.94 300.779 1181.31 300.222C1180.68 299.665 1179.9 299.386 1178.98 299.386ZM1186.6 309V298.088H1188.27L1188.43 300.178C1188.76 299.459 1189.28 298.887 1189.97 298.462C1190.65 298.037 1191.51 297.824 1192.52 297.824V299.76H1192.01C1191.37 299.76 1190.77 299.877 1190.23 300.112C1189.69 300.332 1189.25 300.713 1188.93 301.256C1188.61 301.799 1188.45 302.547 1188.45 303.5V309H1186.6ZM1195.71 295.668C1195.35 295.668 1195.04 295.551 1194.79 295.316C1194.55 295.067 1194.44 294.759 1194.44 294.392C1194.44 294.04 1194.55 293.747 1194.79 293.512C1195.04 293.277 1195.35 293.16 1195.71 293.16C1196.07 293.16 1196.37 293.277 1196.62 293.512C1196.86 293.747 1196.99 294.04 1196.99 294.392C1196.99 294.759 1196.86 295.067 1196.62 295.316C1196.37 295.551 1196.07 295.668 1195.71 295.668ZM1194.79 309V298.088H1196.64V309H1194.79ZM1204.76 309.264C1203.72 309.264 1202.8 309.029 1201.99 308.56C1201.18 308.076 1200.54 307.409 1200.07 306.558C1199.62 305.707 1199.39 304.703 1199.39 303.544C1199.39 302.4 1199.62 301.403 1200.07 300.552C1200.53 299.687 1201.16 299.019 1201.97 298.55C1202.79 298.066 1203.73 297.824 1204.8 297.824C1205.86 297.824 1206.77 298.066 1207.53 298.55C1208.31 299.019 1208.9 299.643 1209.31 300.42C1209.73 301.197 1209.93 302.033 1209.93 302.928C1209.93 303.089 1209.92 303.251 1209.91 303.412C1209.91 303.573 1209.91 303.757 1209.91 303.962H1201.22C1201.26 304.798 1201.45 305.495 1201.79 306.052C1202.14 306.595 1202.58 307.005 1203.09 307.284C1203.62 307.563 1204.17 307.702 1204.76 307.702C1205.52 307.702 1206.16 307.526 1206.67 307.174C1207.19 306.822 1207.56 306.345 1207.8 305.744H1209.62C1209.33 306.756 1208.76 307.599 1207.93 308.274C1207.11 308.934 1206.05 309.264 1204.76 309.264ZM1204.76 299.386C1203.88 299.386 1203.1 299.657 1202.41 300.2C1201.73 300.728 1201.34 301.505 1201.24 302.532H1208.1C1208.06 301.549 1207.72 300.779 1207.09 300.222C1206.46 299.665 1205.68 299.386 1204.76 299.386ZM1212.38 309V298.088H1214.05L1214.16 300.046C1214.51 299.357 1215.02 298.814 1215.68 298.418C1216.34 298.022 1217.09 297.824 1217.92 297.824C1219.21 297.824 1220.24 298.22 1221 299.012C1221.78 299.789 1222.17 300.992 1222.17 302.62V309H1220.32V302.818C1220.32 300.545 1219.38 299.408 1217.51 299.408C1216.57 299.408 1215.78 299.753 1215.15 300.442C1214.54 301.117 1214.23 302.085 1214.23 303.346V309H1212.38ZM1229.99 309.264C1228.94 309.264 1228.01 309.029 1227.17 308.56C1226.35 308.076 1225.7 307.409 1225.21 306.558C1224.74 305.693 1224.51 304.688 1224.51 303.544C1224.51 302.4 1224.74 301.403 1225.21 300.552C1225.7 299.687 1226.35 299.019 1227.17 298.55C1228.01 298.066 1228.94 297.824 1229.99 297.824C1231.28 297.824 1232.36 298.161 1233.24 298.836C1234.14 299.511 1234.7 300.413 1234.94 301.542H1233.04C1232.9 300.867 1232.54 300.347 1231.97 299.98C1231.39 299.599 1230.73 299.408 1229.96 299.408C1229.35 299.408 1228.77 299.562 1228.23 299.87C1227.68 300.178 1227.24 300.64 1226.91 301.256C1226.57 301.872 1226.4 302.635 1226.4 303.544C1226.4 304.453 1226.57 305.216 1226.91 305.832C1227.24 306.448 1227.68 306.917 1228.23 307.24C1228.77 307.548 1229.35 307.702 1229.96 307.702C1230.73 307.702 1231.39 307.519 1231.97 307.152C1232.54 306.771 1232.9 306.235 1233.04 305.546H1234.94C1234.72 306.646 1234.16 307.541 1233.26 308.23C1232.37 308.919 1231.28 309.264 1229.99 309.264ZM1238.64 295.668C1238.27 295.668 1237.96 295.551 1237.72 295.316C1237.48 295.067 1237.36 294.759 1237.36 294.392C1237.36 294.04 1237.48 293.747 1237.72 293.512C1237.96 293.277 1238.27 293.16 1238.64 293.16C1238.99 293.16 1239.29 293.277 1239.54 293.512C1239.79 293.747 1239.92 294.04 1239.92 294.392C1239.92 294.759 1239.79 295.067 1239.54 295.316C1239.29 295.551 1238.99 295.668 1238.64 295.668ZM1237.72 309V298.088H1239.56V309H1237.72ZM1246.41 309.264C1245.5 309.264 1244.75 309.11 1244.14 308.802C1243.54 308.494 1243.1 308.083 1242.8 307.57C1242.51 307.057 1242.36 306.499 1242.36 305.898C1242.36 304.783 1242.79 303.925 1243.64 303.324C1244.49 302.723 1245.65 302.422 1247.11 302.422H1250.06V302.29C1250.06 301.337 1249.81 300.618 1249.31 300.134C1248.82 299.635 1248.15 299.386 1247.31 299.386C1246.59 299.386 1245.97 299.569 1245.44 299.936C1244.93 300.288 1244.61 300.809 1244.47 301.498H1242.58C1242.66 300.706 1242.92 300.039 1243.37 299.496C1243.84 298.953 1244.42 298.543 1245.11 298.264C1245.8 297.971 1246.54 297.824 1247.31 297.824C1248.84 297.824 1249.98 298.235 1250.74 299.056C1251.52 299.863 1251.91 300.941 1251.91 302.29V309H1250.26L1250.15 307.042C1249.84 307.658 1249.39 308.186 1248.79 308.626C1248.2 309.051 1247.41 309.264 1246.41 309.264ZM1246.7 307.702C1247.4 307.702 1248 307.519 1248.5 307.152C1249.01 306.785 1249.4 306.309 1249.67 305.722C1249.93 305.135 1250.06 304.519 1250.06 303.874V303.852H1247.27C1246.18 303.852 1245.41 304.043 1244.96 304.424C1244.52 304.791 1244.3 305.253 1244.3 305.81C1244.3 306.382 1244.5 306.844 1244.91 307.196C1245.34 307.533 1245.93 307.702 1246.7 307.702ZM1264.14 309.264C1263.23 309.264 1262.47 309.11 1261.87 308.802C1261.27 308.494 1260.82 308.083 1260.53 307.57C1260.23 307.057 1260.09 306.499 1260.09 305.898C1260.09 304.783 1260.51 303.925 1261.36 303.324C1262.21 302.723 1263.37 302.422 1264.84 302.422H1267.79V302.29C1267.79 301.337 1267.54 300.618 1267.04 300.134C1266.54 299.635 1265.87 299.386 1265.04 299.386C1264.32 299.386 1263.7 299.569 1263.17 299.936C1262.65 300.288 1262.33 300.809 1262.2 301.498H1260.31C1260.38 300.706 1260.64 300.039 1261.1 299.496C1261.57 298.953 1262.15 298.543 1262.84 298.264C1263.53 297.971 1264.26 297.824 1265.04 297.824C1266.56 297.824 1267.71 298.235 1268.47 299.056C1269.25 299.863 1269.64 300.941 1269.64 302.29V309H1267.99L1267.88 307.042C1267.57 307.658 1267.11 308.186 1266.51 308.626C1265.92 309.051 1265.13 309.264 1264.14 309.264ZM1264.42 307.702C1265.13 307.702 1265.73 307.519 1266.23 307.152C1266.74 306.785 1267.13 306.309 1267.39 305.722C1267.66 305.135 1267.79 304.519 1267.79 303.874V303.852H1264.99C1263.91 303.852 1263.14 304.043 1262.68 304.424C1262.24 304.791 1262.02 305.253 1262.02 305.81C1262.02 306.382 1262.23 306.844 1262.64 307.196C1263.06 307.533 1263.66 307.702 1264.42 307.702ZM1094.68 338V327.088H1096.35L1096.46 329.046C1096.81 328.357 1097.32 327.814 1097.98 327.418C1098.64 327.022 1099.39 326.824 1100.22 326.824C1101.51 326.824 1102.54 327.22 1103.3 328.012C1104.08 328.789 1104.47 329.992 1104.47 331.62V338H1102.62V331.818C1102.62 329.545 1101.68 328.408 1099.8 328.408C1098.87 328.408 1098.08 328.753 1097.45 329.442C1096.83 330.117 1096.53 331.085 1096.53 332.346V338H1094.68ZM1116.82 327.088V338H1115.14L1115.03 336.042C1114.68 336.731 1114.18 337.274 1113.52 337.67C1112.86 338.066 1112.11 338.264 1111.27 338.264C1109.98 338.264 1108.95 337.875 1108.17 337.098C1107.41 336.306 1107.03 335.096 1107.03 333.468V327.088H1108.87V333.27C1108.87 335.543 1109.81 336.68 1111.69 336.68C1112.63 336.68 1113.41 336.343 1114.02 335.668C1114.65 334.979 1114.97 334.003 1114.97 332.742V327.088H1116.82ZM1124.76 338.264C1123.72 338.264 1122.8 338.029 1121.99 337.56C1121.19 337.076 1120.55 336.409 1120.08 335.558C1119.62 334.707 1119.4 333.703 1119.4 332.544C1119.4 331.4 1119.62 330.403 1120.08 329.552C1120.53 328.687 1121.16 328.019 1121.97 327.55C1122.79 327.066 1123.74 326.824 1124.81 326.824C1125.86 326.824 1126.77 327.066 1127.54 327.55C1128.31 328.019 1128.91 328.643 1129.32 329.42C1129.73 330.197 1129.93 331.033 1129.93 331.928C1129.93 332.089 1129.93 332.251 1129.91 332.412C1129.91 332.573 1129.91 332.757 1129.91 332.962H1121.22C1121.27 333.798 1121.46 334.495 1121.79 335.052C1122.15 335.595 1122.58 336.005 1123.09 336.284C1123.62 336.563 1124.18 336.702 1124.76 336.702C1125.53 336.702 1126.16 336.526 1126.68 336.174C1127.19 335.822 1127.57 335.345 1127.8 334.744H1129.63C1129.33 335.756 1128.77 336.599 1127.93 337.274C1127.11 337.934 1126.05 338.264 1124.76 338.264ZM1124.76 328.386C1123.88 328.386 1123.1 328.657 1122.41 329.2C1121.74 329.728 1121.35 330.505 1121.24 331.532H1128.11C1128.06 330.549 1127.73 329.779 1127.1 329.222C1126.47 328.665 1125.69 328.386 1124.76 328.386ZM1136.56 338.264C1135.26 338.264 1134.17 337.934 1133.31 337.274C1132.44 336.614 1131.94 335.719 1131.79 334.59H1133.68C1133.8 335.162 1134.1 335.661 1134.58 336.086C1135.08 336.497 1135.75 336.702 1136.59 336.702C1137.36 336.702 1137.93 336.541 1138.3 336.218C1138.67 335.881 1138.85 335.485 1138.85 335.03C1138.85 334.37 1138.61 333.93 1138.13 333.71C1137.66 333.49 1136.99 333.292 1136.12 333.116C1135.54 332.999 1134.95 332.83 1134.36 332.61C1133.78 332.39 1133.29 332.082 1132.89 331.686C1132.49 331.275 1132.3 330.74 1132.3 330.08C1132.3 329.127 1132.65 328.349 1133.35 327.748C1134.07 327.132 1135.04 326.824 1136.26 326.824C1137.41 326.824 1138.36 327.117 1139.09 327.704C1139.84 328.276 1140.27 329.097 1140.39 330.168H1138.57C1138.49 329.611 1138.25 329.178 1137.84 328.87C1137.44 328.547 1136.91 328.386 1136.23 328.386C1135.57 328.386 1135.06 328.525 1134.69 328.804C1134.34 329.083 1134.17 329.449 1134.17 329.904C1134.17 330.344 1134.39 330.689 1134.85 330.938C1135.32 331.187 1135.95 331.4 1136.74 331.576C1137.41 331.723 1138.05 331.906 1138.65 332.126C1139.27 332.331 1139.77 332.647 1140.15 333.072C1140.55 333.483 1140.74 334.084 1140.74 334.876C1140.76 335.859 1140.38 336.673 1139.62 337.318C1138.87 337.949 1137.85 338.264 1136.56 338.264ZM1147.2 338C1146.2 338 1145.42 337.758 1144.85 337.274C1144.28 336.79 1143.99 335.917 1143.99 334.656V328.65H1142.1V327.088H1143.99L1144.23 324.47H1145.84V327.088H1149.05V328.65H1145.84V334.656C1145.84 335.345 1145.98 335.815 1146.26 336.064C1146.53 336.299 1147.03 336.416 1147.73 336.416H1148.87V338H1147.2ZM1151.4 338V327.088H1153.07L1153.22 329.178C1153.56 328.459 1154.07 327.887 1154.76 327.462C1155.45 327.037 1156.3 326.824 1157.31 326.824V328.76H1156.81C1156.16 328.76 1155.57 328.877 1155.03 329.112C1154.48 329.332 1154.05 329.713 1153.73 330.256C1153.41 330.799 1153.24 331.547 1153.24 332.5V338H1151.4ZM1163.95 338.264C1162.93 338.264 1162 338.029 1161.18 337.56C1160.36 337.091 1159.71 336.431 1159.22 335.58C1158.75 334.715 1158.52 333.703 1158.52 332.544C1158.52 331.385 1158.76 330.381 1159.24 329.53C1159.73 328.665 1160.38 327.997 1161.2 327.528C1162.04 327.059 1162.97 326.824 1164 326.824C1165.02 326.824 1165.95 327.059 1166.77 327.528C1167.59 327.997 1168.24 328.665 1168.7 329.53C1169.19 330.381 1169.43 331.385 1169.43 332.544C1169.43 333.703 1169.19 334.715 1168.7 335.58C1168.22 336.431 1167.56 337.091 1166.72 337.56C1165.9 338.029 1164.98 338.264 1163.95 338.264ZM1163.95 336.68C1164.58 336.68 1165.17 336.526 1165.71 336.218C1166.26 335.91 1166.7 335.448 1167.03 334.832C1167.37 334.216 1167.54 333.453 1167.54 332.544C1167.54 331.635 1167.37 330.872 1167.03 330.256C1166.71 329.64 1166.28 329.178 1165.73 328.87C1165.19 328.562 1164.61 328.408 1164 328.408C1163.37 328.408 1162.78 328.562 1162.24 328.87C1161.69 329.178 1161.25 329.64 1160.92 330.256C1160.58 330.872 1160.41 331.635 1160.41 332.544C1160.41 333.453 1160.58 334.216 1160.92 334.832C1161.25 335.448 1161.69 335.91 1162.21 336.218C1162.76 336.526 1163.34 336.68 1163.95 336.68ZM1182.84 338.264C1181.8 338.264 1180.86 338.029 1180.02 337.56C1179.2 337.076 1178.55 336.409 1178.06 335.558C1177.6 334.693 1177.36 333.688 1177.36 332.544C1177.36 331.4 1177.6 330.403 1178.06 329.552C1178.55 328.687 1179.2 328.019 1180.02 327.55C1180.86 327.066 1181.8 326.824 1182.84 326.824C1184.13 326.824 1185.21 327.161 1186.09 327.836C1186.99 328.511 1187.55 329.413 1187.79 330.542H1185.9C1185.75 329.867 1185.39 329.347 1184.82 328.98C1184.25 328.599 1183.58 328.408 1182.82 328.408C1182.2 328.408 1181.62 328.562 1181.08 328.87C1180.54 329.178 1180.1 329.64 1179.76 330.256C1179.42 330.872 1179.25 331.635 1179.25 332.544C1179.25 333.453 1179.42 334.216 1179.76 334.832C1180.1 335.448 1180.54 335.917 1181.08 336.24C1181.62 336.548 1182.2 336.702 1182.82 336.702C1183.58 336.702 1184.25 336.519 1184.82 336.152C1185.39 335.771 1185.75 335.235 1185.9 334.546H1187.79C1187.57 335.646 1187.01 336.541 1186.12 337.23C1185.22 337.919 1184.13 338.264 1182.84 338.264ZM1190.37 338V322.16H1192.22V338H1190.37ZM1196.37 324.668C1196 324.668 1195.69 324.551 1195.44 324.316C1195.21 324.067 1195.09 323.759 1195.09 323.392C1195.09 323.04 1195.21 322.747 1195.44 322.512C1195.69 322.277 1196 322.16 1196.37 322.16C1196.72 322.16 1197.02 322.277 1197.27 322.512C1197.52 322.747 1197.64 323.04 1197.64 323.392C1197.64 323.759 1197.52 324.067 1197.27 324.316C1197.02 324.551 1196.72 324.668 1196.37 324.668ZM1195.44 338V327.088H1197.29V338H1195.44ZM1205.42 338.264C1204.37 338.264 1203.45 338.029 1202.64 337.56C1201.84 337.076 1201.2 336.409 1200.73 335.558C1200.28 334.707 1200.05 333.703 1200.05 332.544C1200.05 331.4 1200.28 330.403 1200.73 329.552C1201.18 328.687 1201.82 328.019 1202.62 327.55C1203.44 327.066 1204.39 326.824 1205.46 326.824C1206.52 326.824 1207.43 327.066 1208.19 327.55C1208.97 328.019 1209.56 328.643 1209.97 329.42C1210.38 330.197 1210.59 331.033 1210.59 331.928C1210.59 332.089 1210.58 332.251 1210.56 332.412C1210.56 332.573 1210.56 332.757 1210.56 332.962H1201.87C1201.92 333.798 1202.11 334.495 1202.45 335.052C1202.8 335.595 1203.23 336.005 1203.74 336.284C1204.27 336.563 1204.83 336.702 1205.42 336.702C1206.18 336.702 1206.82 336.526 1207.33 336.174C1207.84 335.822 1208.22 335.345 1208.45 334.744H1210.28C1209.98 335.756 1209.42 336.599 1208.58 337.274C1207.76 337.934 1206.71 338.264 1205.42 338.264ZM1205.42 328.386C1204.54 328.386 1203.75 328.657 1203.06 329.2C1202.39 329.728 1202 330.505 1201.9 331.532H1208.76C1208.72 330.549 1208.38 329.779 1207.75 329.222C1207.12 328.665 1206.34 328.386 1205.42 328.386ZM1213.04 338V327.088H1214.71L1214.82 329.046C1215.17 328.357 1215.68 327.814 1216.34 327.418C1217 327.022 1217.74 326.824 1218.58 326.824C1219.87 326.824 1220.9 327.22 1221.66 328.012C1222.44 328.789 1222.83 329.992 1222.83 331.62V338H1220.98V331.818C1220.98 329.545 1220.04 328.408 1218.16 328.408C1217.22 328.408 1216.44 328.753 1215.81 329.442C1215.19 330.117 1214.88 331.085 1214.88 332.346V338H1213.04ZM1229.94 338C1228.94 338 1228.16 337.758 1227.58 337.274C1227.01 336.79 1226.73 335.917 1226.73 334.656V328.65H1224.83V327.088H1226.73L1226.97 324.47H1228.57V327.088H1231.79V328.65H1228.57V334.656C1228.57 335.345 1228.71 335.815 1228.99 336.064C1229.27 336.299 1229.76 336.416 1230.47 336.416H1231.61V338H1229.94ZM1238.74 338.264C1237.7 338.264 1236.77 338.029 1235.97 337.56C1235.16 337.076 1234.52 336.409 1234.05 335.558C1233.6 334.707 1233.37 333.703 1233.37 332.544C1233.37 331.4 1233.6 330.403 1234.05 329.552C1234.51 328.687 1235.14 328.019 1235.94 327.55C1236.77 327.066 1237.71 326.824 1238.78 326.824C1239.84 326.824 1240.75 327.066 1241.51 327.55C1242.29 328.019 1242.88 328.643 1243.29 329.42C1243.7 330.197 1243.91 331.033 1243.91 331.928C1243.91 332.089 1243.9 332.251 1243.89 332.412C1243.89 332.573 1243.89 332.757 1243.89 332.962H1235.2C1235.24 333.798 1235.43 334.495 1235.77 335.052C1236.12 335.595 1236.55 336.005 1237.07 336.284C1237.59 336.563 1238.15 336.702 1238.74 336.702C1239.5 336.702 1240.14 336.526 1240.65 336.174C1241.17 335.822 1241.54 335.345 1241.77 334.744H1243.6C1243.31 335.756 1242.74 336.599 1241.91 337.274C1241.09 337.934 1240.03 338.264 1238.74 338.264ZM1238.74 328.386C1237.86 328.386 1237.07 328.657 1236.38 329.2C1235.71 329.728 1235.32 330.505 1235.22 331.532H1242.08C1242.04 330.549 1241.7 329.779 1241.07 329.222C1240.44 328.665 1239.66 328.386 1238.74 328.386Z" fill="black"/>
<g clip-path="url(#clip0)">
<path d="M569 248.219C575.511 248.219 580.789 242.916 580.789 236.374C580.789 229.832 575.511 224.529 569 224.529C562.489 224.529 557.211 229.832 557.211 236.374C557.211 242.916 562.489 248.219 569 248.219Z" fill="#0099FF"/>
<path d="M569 250.89C556.286 250.89 546 261.226 546 274H592C592 261.226 581.714 250.89 569 250.89Z" fill="#0099FF"/>
<path d="M585.838 230.19C583.441 223.079 576.757 218 568.937 218C561.117 218 554.432 223.079 552.036 230.19C549.64 230.952 548 233.238 548 235.905C548 239.206 550.649 242 554.054 242V232.857C555.315 225.873 561.495 220.54 568.937 220.54C576.378 220.54 582.432 225.873 583.946 232.857V242C587.225 242 590 239.333 590 235.905C589.874 233.238 588.108 231.079 585.838 230.19Z" fill="#3E70D9"/>
</g>
<rect x="844" y="219" width="4" height="50" fill="#0099FF"/>
<rect x="894" y="265" width="4" height="50" transform="rotate(90 894 265)" fill="#0099FF"/>
<path d="M877.333 230.5L882.104 235.271L871.937 245.438L863.604 237.104L844.5 257L845.5 261.875L863.604 243L871.937 251.333L885.062 238.229L889.833 243V230.5H877.333Z" fill="#0099FF"/>
<ellipse cx="269" cy="244.51" rx="25" ry="24.5098" fill="#0099FF"/>
<path d="M266 236H269.273V246.085L278 250.637L276.364 253L266 247.525V236Z" fill="white"/>
<rect x="286.535" y="217" width="16" height="5" transform="rotate(45 286.535 217)" fill="#0099FF"/>
<rect x="254.85" y="220.536" width="16" height="5" transform="rotate(135 254.85 220.536)" fill="#0099FF"/>
<defs>
<clipPath id="clip0">
<rect width="46" height="54" fill="white" transform="translate(546 217)"/>
</clipPath>
</defs>
</svg>
